<?xml version="1.0" encoding="UTF-8" standalone="no"?>
<!DOCTYPE svg PUBLIC "-//W3C//DTD SVG 1.1//EN" "http://www.w3.org/Graphics/SVG/1.1/DTD/svg11.dtd">
<svg width="100%" height="100%" viewBox="0 0 13354 3942" version="1.1" xmlns="http://www.w3.org/2000/svg" xmlns:xlink="http://www.w3.org/1999/xlink" xml:space="preserve" xmlns:serif="http://www.serif.com/" style="fill-rule:evenodd;clip-rule:evenodd;stroke-linejoin:round;stroke-miterlimit:2;">
    <g transform="matrix(5.22746,0,0,5.5203,-25276.6,-10621)">
        <g id="Artboard2">
            <g id="Working">
                <g transform="matrix(2.26522,0,0,3.25664,4519.93,-4779.35)">
                    <g transform="matrix(0.732025,0,0,0.482164,-279.193,-253.288)">
                        <path d="M765.457,4940.02L772.779,4969.89L735.829,5102.38L719.184,5102.38L765.457,4940.02Z"/>
                    </g>
                    <g transform="matrix(0.732025,0,0,0.482164,-279.193,-253.288)">
                        <path d="M771.026,4917.45L774.486,4902.91L833.443,4902.91L880.897,5102.38L812.742,5102.38L771.026,4917.45Z"/>
                    </g>
                </g>
                <g transform="matrix(1.27709,0,0,1.20934,-5039.09,-4207.64)">
                    <g transform="matrix(266.667,0,0,266.667,8144.51,5467.9)">
                        <path d="M0.318,0.016C0.26,0.016 0.204,0.01 0.149,-0.004C0.093,-0.017 0.048,-0.034 0.013,-0.056L0.089,-0.228C0.122,-0.209 0.16,-0.193 0.201,-0.182C0.242,-0.17 0.282,-0.164 0.32,-0.164C0.353,-0.164 0.376,-0.167 0.39,-0.174C0.404,-0.18 0.411,-0.189 0.411,-0.202C0.411,-0.217 0.402,-0.228 0.384,-0.235C0.365,-0.242 0.335,-0.25 0.293,-0.259C0.239,-0.27 0.194,-0.283 0.158,-0.296C0.122,-0.309 0.091,-0.33 0.064,-0.36C0.037,-0.389 0.024,-0.429 0.024,-0.48C0.024,-0.524 0.036,-0.564 0.061,-0.6C0.086,-0.636 0.123,-0.664 0.172,-0.685C0.221,-0.706 0.28,-0.716 0.35,-0.716C0.398,-0.716 0.445,-0.711 0.492,-0.701C0.538,-0.69 0.579,-0.675 0.614,-0.655L0.543,-0.484C0.474,-0.519 0.409,-0.536 0.348,-0.536C0.287,-0.536 0.257,-0.521 0.257,-0.492C0.257,-0.478 0.266,-0.468 0.284,-0.461C0.302,-0.454 0.332,-0.446 0.373,-0.438C0.426,-0.428 0.471,-0.417 0.508,-0.404C0.545,-0.391 0.577,-0.369 0.604,-0.34C0.631,-0.311 0.644,-0.271 0.644,-0.22C0.644,-0.176 0.632,-0.136 0.607,-0.101C0.582,-0.065 0.546,-0.037 0.497,-0.016C0.448,0.006 0.388,0.016 0.318,0.016Z" style="fill-rule:nonzero;"/>
                    </g>
                    <g transform="matrix(266.667,0,0,266.667,8314.38,5467.9)">
                        <path d="M0.419,0.016C0.345,0.016 0.278,0.001 0.219,-0.031C0.16,-0.062 0.113,-0.105 0.08,-0.161C0.046,-0.216 0.029,-0.279 0.029,-0.35C0.029,-0.421 0.046,-0.484 0.08,-0.54C0.113,-0.595 0.16,-0.639 0.219,-0.67C0.278,-0.7 0.345,-0.716 0.419,-0.716C0.487,-0.716 0.548,-0.704 0.601,-0.68C0.654,-0.656 0.698,-0.621 0.733,-0.576L0.584,-0.443C0.541,-0.498 0.49,-0.525 0.431,-0.525C0.382,-0.525 0.342,-0.509 0.312,-0.478C0.282,-0.446 0.267,-0.403 0.267,-0.35C0.267,-0.297 0.282,-0.254 0.312,-0.223C0.342,-0.191 0.382,-0.175 0.431,-0.175C0.49,-0.175 0.541,-0.202 0.584,-0.257L0.733,-0.124C0.698,-0.079 0.654,-0.044 0.601,-0.02C0.548,0.004 0.487,0.016 0.419,0.016Z" style="fill-rule:nonzero;"/>
                    </g>
                    <g transform="matrix(266.667,0,0,266.667,8504.78,5467.9)">
                        <path d="M0.639,-0.178L0.639,-0L0.057,-0L0.057,-0.7L0.626,-0.7L0.626,-0.522L0.289,-0.522L0.289,-0.44L0.585,-0.44L0.585,-0.27L0.289,-0.27L0.289,-0.178L0.639,-0.178Z" style="fill-rule:nonzero;"/>
                    </g>
                    <g transform="matrix(0.149792,0,0,0.149792,4258.91,4532.02)">
                        <path d="M30017,6247.85L29972.6,6247.85L30120.2,5918.5L30062.5,5811.34L29853.4,6247.85L29591.3,6247.85L29591.3,5001.68L29936.6,5001.68L30410.2,5567.79L30410.2,5001.68L30819.7,5001.68L30819.7,6247.85L30516.7,6247.85L30251.8,5702.15L30017,6247.85Z" style="fill-rule:nonzero;"/>
                    </g>
                    <g transform="matrix(266.667,0,0,266.667,8877.31,5467.9)">
                        <path d="M0.057,-0.7L0.402,-0.7C0.48,-0.7 0.549,-0.686 0.609,-0.658C0.668,-0.629 0.715,-0.589 0.748,-0.536C0.781,-0.483 0.797,-0.421 0.797,-0.35C0.797,-0.279 0.781,-0.217 0.748,-0.164C0.715,-0.111 0.668,-0.071 0.609,-0.043C0.549,-0.014 0.48,-0 0.402,-0L0.057,-0L0.057,-0.7ZM0.392,-0.184C0.443,-0.184 0.483,-0.199 0.514,-0.228C0.544,-0.257 0.559,-0.297 0.559,-0.35C0.559,-0.403 0.544,-0.444 0.514,-0.473C0.483,-0.502 0.443,-0.516 0.392,-0.516L0.293,-0.516L0.293,-0.184L0.392,-0.184Z" style="fill-rule:nonzero;"/>
                    </g>
                    <g transform="matrix(266.667,0,0,266.667,9084.24,5467.9)">
                        <path d="M0.639,-0.178L0.639,-0L0.057,-0L0.057,-0.7L0.626,-0.7L0.626,-0.522L0.289,-0.522L0.289,-0.44L0.585,-0.44L0.585,-0.27L0.289,-0.27L0.289,-0.178L0.639,-0.178Z" style="fill-rule:nonzero;"/>
                    </g>
                    <g transform="matrix(266.667,0,0,266.667,9250.38,5467.9)">
                        <path d="M0.357,-0.176L0.293,-0.176L0.293,-0L0.057,-0L0.057,-0.7L0.394,-0.7C0.459,-0.7 0.515,-0.689 0.563,-0.668C0.611,-0.647 0.648,-0.616 0.674,-0.576C0.7,-0.536 0.713,-0.489 0.713,-0.436C0.713,-0.386 0.702,-0.342 0.679,-0.305C0.656,-0.268 0.624,-0.238 0.581,-0.216L0.728,-0L0.476,-0L0.357,-0.176ZM0.475,-0.436C0.475,-0.462 0.467,-0.482 0.451,-0.497C0.435,-0.511 0.411,-0.518 0.379,-0.518L0.293,-0.518L0.293,-0.354L0.379,-0.354C0.411,-0.354 0.435,-0.361 0.451,-0.376C0.467,-0.39 0.475,-0.41 0.475,-0.436Z" style="fill-rule:nonzero;"/>
                    </g>
                </g>
            </g>
        </g>
    </g>
</svg>
