<?xml version="1.0" encoding="UTF-8" standalone="no"?>
<!DOCTYPE svg PUBLIC "-//W3C//DTD SVG 1.1//EN" "http://www.w3.org/Graphics/SVG/1.1/DTD/svg11.dtd">
<svg width="100%" height="100%" viewBox="0 0 438 450" version="1.1" xmlns="http://www.w3.org/2000/svg" xmlns:xlink="http://www.w3.org/1999/xlink" xml:space="preserve" xmlns:serif="http://www.serif.com/" style="fill-rule:evenodd;clip-rule:evenodd;stroke-linejoin:round;stroke-miterlimit:2;">
    <g transform="matrix(1,0,0,1,-613.371,-32.108)">
        <g id="Artboard1" transform="matrix(0.982092,0,0,1.03406,11.2787,21.5009)">
            <rect x="613.071" y="10.258" width="445.299" height="434.884" style="fill:none;"/>
            <clipPath id="_clip1">
                <rect x="613.071" y="10.258" width="445.299" height="434.884"/>
            </clipPath>
            <g clip-path="url(#_clip1)">
                <g id="Lion" transform="matrix(4.24264,0,0,4.02944,635.456,9.66968)">
                    <g transform="matrix(1,0,0,1,40.2837,11.9754)">
                        <path d="M0,2.882C0,2.882 -2.069,1.623 -4.507,-1.697C-6.939,-5.022 -11.003,-3.396 -11.003,-3.396C-11.003,-3.396 -5.503,7.904 0,2.882" style="fill-rule:nonzero;"/>
                    </g>
                    <g transform="matrix(1,0,0,1,7.7271,14.6635)">
                        <path d="M0,3.609C0,3.609 -3.325,4.868 -3.397,-1.259C-3.397,-1.259 -2.215,-0.155 -1.331,0.291C-0.444,0.734 0,1.842 0,3.609" style="fill-rule:nonzero;"/>
                    </g>
                    <g transform="matrix(0.54741,-0.836864,-0.836864,-0.54741,8.54107,8.7283)">
                        <path d="M-1.522,-0.818C-1.522,-0.818 0.267,-0.88 0.014,1.692L-1.522,4.039C-1.522,4.039 -3.122,1.224 -2.621,0.051C-2.119,-1.118 -1.522,-0.818 -1.522,-0.818" style="fill-rule:nonzero;"/>
                    </g>
                    <g transform="matrix(1,0,0,1,23.1597,3.5828)">
                        <path d="M0,5.78C0,5.78 1.479,1.325 -1.551,0C-1.551,0 -1.252,1.694 -1.551,2.582C-1.846,3.467 -2.215,4.724 0,5.78" style="fill-rule:nonzero;"/>
                    </g>
                    <g transform="matrix(0.24,0,0,0.24,-0.4179,-157.597)">
                        <path d="M280.305,801.358C276.459,796.987 259.396,777.176 257.856,767.935C257.856,767.935 243.348,818.61 271.435,841.881C271.435,841.881 236.16,832.16 229.214,803.523C229.214,803.523 188.635,828.91 194.502,850.827C194.502,850.827 207.514,808.515 231.381,818.06C231.381,818.06 227.385,826.152 233.839,829.59C233.839,829.59 210.985,862.752 251.56,880.119C292.131,897.469 308.648,916.519 303.973,946.806C303.973,946.806 286.718,950.623 285.848,965.377C284.981,980.144 292.406,994.777 335.127,995.706C335.127,995.706 316.223,1034.81 337.26,1046.54C337.26,1046.54 309.273,1059.56 299.293,1079.94C299.293,1079.94 282.806,1070.4 261.764,1082.99C261.764,1082.99 247.46,1056.75 219.135,1056.63C219.135,1056.63 229.152,1040.08 236.668,1056.32C236.668,1056.32 256.335,1048.71 258.289,1027.44C258.289,1027.44 269.41,1039.21 276.977,1033.54C276.977,1033.54 276.993,1006.21 228.043,1024.63C228.043,1024.63 231.173,1009.22 230.302,999.669C229.427,990.127 225.093,976.24 232.031,953.235C238.973,930.235 206.868,915.481 196.439,911.14C186.027,906.806 139.168,904.631 152.835,859.065C152.835,859.065 144.377,868.177 131.789,869.919C119.206,871.656 115.914,875.544 114.31,880.76C114.31,880.76 85.952,884.065 76.773,874.606C76.773,874.606 64.968,908.54 39.148,902.465C39.148,902.465 52.189,879.74 27.768,884.806C27.768,884.806 25.91,878.598 32.418,873.823C38.927,869.052 42.023,864.881 42.023,864.881C42.023,864.881 28.31,858.935 14.31,863.123C14.31,863.123 20.21,841.248 55.393,844.948C55.393,844.948 46.298,829.556 30.464,829.123C30.464,829.123 44.56,818.706 58.014,830.86C71.468,843.01 72.339,847.79 96.206,829.994C120.068,812.198 116.593,811.765 124.843,787.469C133.089,763.156 169.71,754.256 199.789,748.944C229.86,743.64 227.264,739.294 227.264,739.294C227.264,739.294 191.656,739.21 172.348,744.24C172.348,744.24 167.368,741.465 170.406,734.519C173.448,727.581 172.143,724.981 172.143,724.981L178.46,731.385C178.46,731.385 182.993,731.485 192.106,727.581C201.227,723.673 199.131,714.019 194.468,705.677C194.468,705.677 192.977,697.202 183.423,698.931C173.881,700.677 175.435,705.385 177.702,707.365C179.964,709.352 181.048,712.394 181.048,712.394C181.048,712.394 171.723,707.181 167.589,702.406C167.589,702.406 168.56,693.031 166.664,689.473C166.664,689.473 188.631,675.065 218.802,672.035C248.956,668.994 270.868,665.09 274.564,661.402C274.564,661.402 256.448,689.24 280.035,682.485C280.035,682.485 276.948,688.306 271.739,690.04C271.739,690.04 288.66,702.406 271.302,728.669C271.302,728.669 260.677,725.84 258.073,713.694C258.073,713.694 258.727,727.356 271.302,735.823C283.885,744.29 276.948,763.594 276.948,768.152C276.948,772.478 275.771,795.011 280.305,801.358C280.797,801.917 281.073,802.223 281.073,802.223C280.8,801.983 280.544,801.693 280.305,801.358ZM193.06,685.237C193.06,685.237 195.768,684.808 198.277,686.691C200.789,688.575 203.656,692.545 205.51,693.225C205.51,693.225 205.181,686.07 213.643,688.262C222.118,690.458 225.764,693.045 231.323,680.775C231.323,680.775 220.873,683.245 210.51,680.112C200.16,676.966 192.864,680.641 193.06,685.237Z" style="fill:rgb(3,4,4);fill-rule:nonzero;"/>
                    </g>
                    <g transform="matrix(1,0,0,1,4.7798,56.3692)">
                        <path d="M0,-3.772C0,-3.772 1.516,-0.557 -4.589,0C-4.589,0 -3.58,-1.265 -3.204,-2.183C-2.835,-3.103 -1.764,-3.632 0,-3.772" style="fill-rule:nonzero;"/>
                    </g>
                    <g transform="matrix(1,0,0,1,26.2114,92.1769)">
                        <path d="M0,-4.131C0,-4.131 -4.615,-3.296 -4.327,0C-4.327,0 -2.98,-1.073 -2.06,-1.239C-1.142,-1.403 0.137,-1.684 0,-4.131" style="fill-rule:nonzero;"/>
                    </g>
                    <g transform="matrix(0.561648,0.827376,0.827376,-0.561648,10.7681,85.6415)">
                        <path d="M2.925,-0.174C2.925,-0.174 3.593,1.598 3.769,2.651C3.943,3.697 3.475,4.454 2.925,4.828C2.374,5.202 -0.167,4.792 0.486,2.285C1.083,0.007 2.925,-0.174 2.925,-0.174" style="fill-rule:nonzero;"/>
                    </g>
                    <g transform="matrix(0.176433,0.984313,0.984313,-0.176433,7.12739,76.1774)">
                        <path d="M3.441,0.099C3.441,0.099 2.122,-1.391 0.742,2.231C0.742,2.231 0.182,5.785 3.441,4.298C3.441,4.298 3.786,3.718 3.051,2.124C2.313,0.524 3.441,0.099 3.441,0.099" style="fill-rule:nonzero;"/>
                    </g>
                    <g transform="matrix(1,0,0,1,12.6226,69.1474)">
                        <path d="M0,1.004C0,1.004 2.066,1.075 3.104,2.113C4.133,3.143 5.318,3.399 6.203,2.477C6.203,2.477 6.795,-2.395 0,1.004" style="fill-rule:nonzero;"/>
                    </g>
                    <g transform="matrix(1,0,0,1,0.0703,45.812)">
                        <path d="M0,-0.229C0,-0.229 1.252,0.437 1.694,1.174C2.142,1.919 3.173,1.876 3.392,1.174C3.617,0.475 3.023,-2.148 0,-0.229" style="fill-rule:nonzero;"/>
                    </g>
                    <g transform="matrix(1,0,0,1,8.4897,37.8062)">
                        <path d="M0,2.437C0,2.437 0.731,0 -3.397,0.369C-3.397,0.369 -4.212,2.437 0,2.437" style="fill-rule:nonzero;"/>
                    </g>
                    <g transform="matrix(1,0,0,1,11.8843,4.4749)">
                        <path d="M0,-4.325C0,-4.325 5.372,-4.638 4.799,0.309C4.799,0.309 1.71,0.313 0,-4.325" style="fill-rule:nonzero;"/>
                    </g>
                    <g transform="matrix(1,0,0,1,59.9565,89.5672)">
                        <path d="M0,2.217C0,2.217 -3.104,2.882 -2.878,0.218C-2.878,0.218 0.886,-0.665 0,2.217" style="fill-rule:nonzero;"/>
                    </g>
                    <g transform="matrix(-0.887738,-0.46035,-0.46035,0.887738,58.6585,104.351)">
                        <path d="M-1.222,-3.465C-1.222,-3.465 -2.105,-1.6 -2.051,-1.067C-2.051,-1.067 -2.73,0.407 -1.222,1.025L-0.099,-1.141C-0.099,-1.141 1.057,-3.369 -1.222,-3.465" style="fill-rule:nonzero;"/>
                    </g>
                    <g transform="matrix(1,0,0,1,75.6831,8.732)">
                        <path d="M0,64.27C0,64.27 3.854,66.249 9.687,63.853C15.518,61.458 17.597,61.649 20.566,61.971C20.566,61.971 17.283,55.641 12.963,54.957C12.963,54.957 4.896,43.128 10.729,36.358C10.729,36.358 7.929,38.974 4.694,36.938C4.694,36.938 10.62,35.951 8.903,29.332C8.903,29.332 8.554,32.937 4.694,30.584C4.694,30.584 9.372,29.903 7.5,24.383C7.5,24.383 6.16,26.934 3.289,27.114C0.417,27.296 3.124,26.672 3.124,26.672C3.124,26.672 -0.104,25.837 7.291,19.277C14.688,12.717 24.047,3.739 15.254,-1.979C15.254,-1.979 19.997,5.53 14.06,11.258C8.125,16.986 -8.126,20.477 -6.831,32.126C-5.086,47.851 6.754,55.833 16.664,60.104C16.664,60.104 9.27,63.749 0,64.27" style="fill-rule:nonzero;"/>
                    </g>
                    <g transform="matrix(1,0,0,1,71.145,5.6174)">
                        <path d="M0,38.844C0,38.844 -2.021,30.986 0.321,26.61C2.662,22.235 6.413,20.673 11.256,17.549C16.097,14.425 19.95,9.373 17.66,4.688C15.371,0 10.207,6.248 11.227,7.707C12.247,9.165 14.248,11.026 15.434,8.741C15.434,8.741 13.912,13.54 10.267,7.915C6.62,2.29 14.746,1.25 16.097,2.083C17.451,2.915 21.409,6.458 16.826,13.226C12.247,19.997 5.584,22.108 2.565,24.922C-1.618,28.814 0.981,37.992 0,38.844" style="fill-rule:nonzero;"/>
                    </g>
                    <g transform="matrix(1,0,0,1,82.0376,24.9902)">
                        <path d="M0,-16.664C0,-16.664 -5.938,-11.978 -8.23,-13.645C-10.52,-15.31 -13.229,-18.643 -13.019,-13.124C-12.812,-7.606 -11.334,-7.307 -11.334,-7.307C-11.334,-7.307 -15.103,-2.499 -12.394,1.979C-12.394,1.979 -8.438,-2.813 -2.918,-4.583C2.603,-6.355 3.54,-9.061 4.479,-10.311C4.479,-10.311 3.228,-7.916 -0.626,-11.458L0,-16.664Z" style="fill-rule:nonzero;"/>
                    </g>
                    <g transform="matrix(1,0,0,1,74.6919,68.4588)">
                        <path d="M0,-6.034C0,-6.034 4.587,-1.667 10.265,-1.667C10.265,-1.667 3.278,-1.092 0.221,0C0.221,0 2.402,-1.884 0,-6.034" style="fill-rule:nonzero;"/>
                    </g>
                    <g transform="matrix(1,0,0,1,30.6899,16.2484)">
                        <path d="M0,9.964C0,9.964 -13.274,5.949 -8.062,-4.841C-8.062,-4.841 -9.896,-5.176 -11.064,-8.548C-11.064,-8.548 -14.406,-11.702 -17.144,-11.046C-17.144,-11.046 -15.191,-7.726 -16.554,-6.765C-16.554,-6.765 -22.707,-8.457 -19.874,-1.89C-19.874,-1.89 -22.406,0.701 -22.016,2.909C-22.016,2.909 -15.938,3.984 -19.874,13.397C-19.874,13.397 -9.761,13.975 -4.665,21.666C-4.665,21.666 -6.982,13.721 0,9.964" style="fill-rule:nonzero;"/>
                    </g>
                    <g transform="matrix(1,0,0,1,37.0874,85.5773)">
                        <path d="M0,-27.464C0,-27.464 -1.247,-29.214 -5.804,-26.373C-10.007,-23.752 -7.551,-20.312 -12.629,-22.77C-12.629,-22.77 -0.671,-14.908 -6.769,-10.358C-6.769,-10.358 -14.884,-10.86 -16.923,-14.575C-16.923,-14.575 -15.853,-11.083 -18.417,-10.32C-20.981,-9.557 -27.882,-9.803 -18.59,-4.655C-18.59,-4.655 -22.743,0.768 -16.402,1.75C-16.402,1.75 -13.176,-1.476 -10.283,-1.638C-7.388,-1.803 -6.021,-0.439 -3.292,-0.602C-0.562,-0.765 2.649,-4.577 8.935,-3.026C8.935,-3.026 10.522,-8.136 10.304,-10.375C10.087,-12.614 10.085,-18.895 12.488,-21.078C12.488,-21.078 9.597,-22.935 5.883,-23.699C2.168,-24.462 0.729,-26.37 0,-27.464" style="fill-rule:nonzero;"/>
                    </g>
                </g>
            </g>
        </g>
    </g>
</svg>
