<?xml version="1.0" encoding="UTF-8" standalone="no"?>
<!DOCTYPE svg PUBLIC "-//W3C//DTD SVG 1.1//EN" "http://www.w3.org/Graphics/SVG/1.1/DTD/svg11.dtd">
<svg width="100%" height="100%" viewBox="0 0 1212 1588" version="1.1" xmlns="http://www.w3.org/2000/svg" xmlns:xlink="http://www.w3.org/1999/xlink" xml:space="preserve" xmlns:serif="http://www.serif.com/" style="fill-rule:evenodd;clip-rule:evenodd;stroke-linecap:round;stroke-linejoin:round;stroke-miterlimit:1.5;">
    <g transform="matrix(1,0,0,1,-6899.59,-1364.47)">
        <g id="Artboard2" transform="matrix(0.438871,0,0,0.520339,4196.87,997.837)">
            <rect x="6158.36" y="704.604" width="2761.09" height="3050" style="fill:none;"/>
            <g transform="matrix(2.27857,0,0,1.92183,-9563.69,-1918.83)">
                <g transform="matrix(1.72324,0,0,1.72324,5320.2,2035.52)">
                    <g transform="matrix(300,0,0,300,924.182,517.427)">
                        <path d="M0.391,-0C0.396,-0 0.399,-0.004 0.399,-0.009C0.399,-0.014 0.397,-0.017 0.391,-0.018C0.377,-0.019 0.357,-0.02 0.342,-0.021C0.31,-0.024 0.31,-0.021 0.31,-0.389C0.31,-0.702 0.312,-0.702 0.342,-0.704C0.352,-0.705 0.375,-0.706 0.387,-0.706C0.392,-0.706 0.395,-0.71 0.395,-0.715C0.395,-0.719 0.393,-0.724 0.387,-0.724C0.321,-0.724 0.276,-0.72 0.205,-0.72C0.136,-0.72 0.092,-0.724 0.028,-0.724C0.023,-0.724 0.02,-0.72 0.02,-0.715C0.02,-0.71 0.022,-0.706 0.028,-0.706C0.04,-0.706 0.063,-0.705 0.073,-0.704C0.105,-0.702 0.105,-0.703 0.105,-0.389C0.105,-0.021 0.105,-0.024 0.073,-0.021C0.059,-0.02 0.038,-0.018 0.024,-0.018C0.019,-0.018 0.016,-0.014 0.016,-0.009C0.016,-0.004 0.018,-0 0.024,-0C0.091,-0 0.136,-0.004 0.208,-0.004C0.279,-0.004 0.325,-0 0.391,-0Z" style="fill-rule:nonzero;"/>
                    </g>
                    <g transform="matrix(300,0,0,300,1048.68,517.427)">
                        <path d="M0.719,0.01C0.728,0.01 0.733,-0.003 0.733,-0.029C0.735,-0.122 0.735,-0.201 0.735,-0.28C0.744,-0.605 0.753,-0.654 0.774,-0.697C0.784,-0.699 0.81,-0.706 0.827,-0.706C0.833,-0.706 0.836,-0.71 0.836,-0.715C0.836,-0.72 0.833,-0.724 0.827,-0.724C0.79,-0.724 0.77,-0.721 0.733,-0.721C0.693,-0.721 0.67,-0.724 0.63,-0.724C0.624,-0.724 0.621,-0.719 0.621,-0.714C0.621,-0.709 0.623,-0.707 0.63,-0.706C0.642,-0.705 0.68,-0.7 0.687,-0.699C0.707,-0.664 0.711,-0.633 0.711,-0.348L0.711,-0.275C0.588,-0.401 0.383,-0.615 0.293,-0.724C0.291,-0.726 0.287,-0.728 0.278,-0.728C0.259,-0.728 0.209,-0.721 0.122,-0.721C0.088,-0.721 0.054,-0.722 0.016,-0.724C0.011,-0.724 0.008,-0.72 0.008,-0.715C0.008,-0.71 0.01,-0.706 0.016,-0.706C0.049,-0.707 0.063,-0.683 0.118,-0.615L0.118,-0.459C0.118,-0.145 0.099,-0.05 0.081,-0.024C0.071,-0.022 0.043,-0.018 0.022,-0.018C0.016,-0.018 0.013,-0.014 0.013,-0.009C0.013,-0.004 0.016,-0 0.022,-0C0.063,-0 0.087,-0.003 0.128,-0.003C0.171,-0.003 0.196,-0 0.239,-0C0.245,-0 0.249,-0.004 0.249,-0.009C0.249,-0.013 0.246,-0.017 0.239,-0.018C0.227,-0.019 0.189,-0.021 0.182,-0.022C0.157,-0.026 0.143,-0.268 0.143,-0.554L0.143,-0.588L0.682,-0.016C0.699,0.002 0.708,0.01 0.719,0.01Z" style="fill-rule:nonzero;"/>
                    </g>
                    <g transform="matrix(300,0,0,300,1298.28,517.427)">
                        <path d="M0.297,-0.455C0.297,-0.701 0.3,-0.702 0.337,-0.705C0.345,-0.706 0.361,-0.706 0.369,-0.706C0.374,-0.706 0.379,-0.709 0.379,-0.715C0.379,-0.72 0.375,-0.724 0.369,-0.724C0.304,-0.723 0.267,-0.72 0.202,-0.72C0.136,-0.72 0.099,-0.723 0.033,-0.724C0.028,-0.724 0.025,-0.72 0.025,-0.715C0.025,-0.71 0.027,-0.707 0.033,-0.706C0.045,-0.705 0.055,-0.705 0.065,-0.705C0.097,-0.704 0.096,-0.705 0.097,-0.389C0.098,-0.019 0.096,-0.022 0.064,-0.02C0.05,-0.019 0.045,-0.019 0.029,-0.018C0.024,-0.018 0.021,-0.014 0.021,-0.009C0.021,-0.004 0.023,-0 0.029,-0C0.096,-0 0.133,-0.004 0.2,-0.004C0.263,-0.004 0.298,-0 0.361,-0C0.367,-0 0.371,-0.004 0.371,-0.009C0.371,-0.014 0.368,-0.018 0.361,-0.018C0.353,-0.018 0.349,-0.018 0.341,-0.019C0.297,-0.022 0.297,-0.02 0.297,-0.242L0.297,-0.289L0.342,-0.333L0.495,-0.08C0.512,-0.049 0.52,-0.035 0.52,-0.028C0.52,-0.022 0.513,-0.02 0.502,-0.019C0.491,-0.018 0.486,-0.017 0.479,-0.016C0.472,-0.015 0.469,-0.011 0.47,-0.006C0.471,-0.001 0.474,0.002 0.479,0.002C0.525,-0.001 0.619,-0.003 0.644,-0.003C0.714,-0.003 0.754,-0 0.824,-0C0.83,-0 0.832,-0.004 0.832,-0.009C0.832,-0.013 0.829,-0.018 0.824,-0.018C0.764,-0.023 0.732,-0.08 0.598,-0.299C0.559,-0.364 0.488,-0.474 0.488,-0.474L0.639,-0.614C0.694,-0.665 0.744,-0.706 0.807,-0.706C0.813,-0.706 0.815,-0.71 0.815,-0.715C0.815,-0.719 0.812,-0.724 0.807,-0.724C0.756,-0.724 0.726,-0.72 0.675,-0.72C0.634,-0.72 0.611,-0.724 0.57,-0.724C0.564,-0.724 0.56,-0.72 0.56,-0.715C0.56,-0.709 0.565,-0.706 0.57,-0.706C0.586,-0.706 0.601,-0.698 0.612,-0.686C0.605,-0.632 0.51,-0.544 0.436,-0.463C0.385,-0.407 0.346,-0.371 0.297,-0.326L0.297,-0.455Z" style="fill-rule:nonzero;"/>
                    </g>
                    <g transform="matrix(300,0,0,300,1541.28,517.427)">
                        <path d="M0.143,0.007C0.195,0.007 0.222,-0.03 0.222,-0.076C0.222,-0.125 0.187,-0.156 0.143,-0.156C0.099,-0.156 0.061,-0.127 0.061,-0.076C0.061,-0.032 0.085,0.007 0.143,0.007ZM0.09,-0.435C0.107,-0.385 0.122,-0.319 0.122,-0.243L0.122,-0.23C0.122,-0.198 0.127,-0.191 0.144,-0.191C0.161,-0.191 0.166,-0.199 0.166,-0.229L0.166,-0.243C0.166,-0.333 0.179,-0.383 0.195,-0.433C0.207,-0.475 0.223,-0.518 0.227,-0.592C0.229,-0.64 0.194,-0.687 0.14,-0.687C0.08,-0.687 0.046,-0.639 0.05,-0.59C0.056,-0.522 0.074,-0.48 0.09,-0.435Z" style="fill-rule:nonzero;"/>
                    </g>
                </g>
                <g transform="matrix(0.904954,0,0,0.904954,6888.26,1247.86)">
                    <path d="M342.285,251.618C342.285,251.618 319.54,221.707 263.384,219.405C207.228,217.103 117.113,266.754 85.879,296.499C54.645,326.243 36.577,370.197 57.217,404.676C77.858,439.155 110.077,575.52 182.952,553.9C255.827,532.28 287.118,516.457 287.118,516.457C287.118,516.457 263.155,387.363 342.285,251.618Z" style="stroke:black;stroke-width:1.11px;"/>
                </g>
                <g transform="matrix(0.904954,0,0,0.904954,6888.26,1247.86)">
                    <path d="M550.53,219.328C550.53,219.328 644.988,130.249 694.238,162.118C743.488,193.988 848.676,242.613 852.978,287.41C857.28,332.207 862.764,417.608 839.374,443.874C815.983,470.139 760.743,489.65 739.046,493.624C717.348,497.598 645.717,245.177 550.53,219.328Z"/>
                </g>
                <g transform="matrix(0.904954,0,0,0.904954,6888.26,1247.86)">
                    <path d="M384.749,458.316C419.631,452.467 440.124,473.581 437.03,493.67C433.936,513.759 470.246,636.622 405.379,616.441C402.332,615.493 389.046,632.129 370.316,622.9C351.587,613.671 344.046,587.728 342.285,556.21C340.525,524.691 318.092,469.493 384.749,458.316Z"/>
                </g>
                <g transform="matrix(0.904954,0,0,0.904954,6888.26,1247.86)">
                    <path d="M1023.4,825.013C1023.4,825.013 1142.1,836.453 1135.13,923.129C1128.17,1009.8 1098.91,1090.62 1071.31,1148.76C1043.7,1206.9 945.221,1419.78 850.317,1379.19L886.499,1274.58C886.499,1274.58 974.287,1267.27 993.256,1200.77C993.256,1200.77 988.305,1240.52 890.37,1261.88L931.17,1141.89C931.17,1141.89 915.799,1118.42 923.361,1097.2C930.923,1075.98 965.172,1115.15 975.284,1099.28C985.396,1083.41 938.843,1051.22 928.028,1053.77C928.028,1053.77 947.488,1025.6 974.959,1041C1002.43,1056.41 930.528,986.5 976.265,993.889C1022,1001.28 1033.91,1052.66 1029.99,1072.34C1026.07,1092.02 1011.47,1108.22 1006.02,1111.97C1000.58,1115.71 996.392,1157.23 996.392,1157.23C996.392,1157.23 1020.56,1134.65 1033.78,1083.29C1047,1031.92 1028.04,994.645 982.688,972.699L1023.4,825.013Z"/>
                </g>
                <g transform="matrix(0.904954,0,0,0.904954,6888.26,1247.86)">
                    <ellipse cx="314.488" cy="487.3" rx="14.885" ry="21.915"/>
                </g>
                <g transform="matrix(0.904954,0,0,0.904954,6888.26,1247.86)">
                    <ellipse cx="519.814" cy="454.8" rx="24.131" ry="23.559"/>
                </g>
                <g transform="matrix(0.904954,0,0,0.904954,6888.26,1247.86)">
                    <path d="M519.814,716.114C519.814,716.114 476.38,741.373 435.747,706.055C395.113,670.738 422.368,864.178 436.08,924.784C449.792,985.389 504.199,1103.67 658.841,1016.91C813.484,930.15 952.434,831.655 1003.61,815.01C1054.78,798.365 1053.3,787.942 1083.72,788.29C1114.15,788.639 1121.59,782.728 1125.59,771.321C1129.6,759.913 1133.37,727.852 1108.51,734.17C1108.51,734.17 1106.96,733.28 1119.99,727.162C1132.71,721.189 1145.44,703.744 1140.44,691.982C1135.44,680.22 1130.4,678.927 1130.4,678.927C1130.4,678.927 1147.02,637.528 1121.99,632.892C1096.95,628.255 1072.01,631.675 1072.01,631.675L1070.84,639.011L1087.53,640.857C1087.53,640.857 1081.72,650.599 1055.35,657.363C1028.98,664.128 1006.89,669.353 990.668,667.615C974.446,665.878 954.749,659.547 938.774,639.756C922.8,619.964 914.259,604.33 908.298,587.702C902.337,571.074 897.654,559.826 886.356,557.273C875.058,554.719 860.52,542.332 858.378,577.394C856.441,609.099 871.903,640.157 868.743,653.468C865.583,666.779 860.062,698.799 832.085,709.623C804.109,720.447 776.327,724.454 724.232,748.78C672.136,773.107 649.702,797.664 613.685,790.464C577.668,783.263 525.816,763.156 519.814,716.114Z"/>
                </g>
                <g id="Chest" transform="matrix(0.904954,0,0,0.904954,6888.26,1247.86)">
                    <path d="M898.595,452.927C898.595,452.927 839.108,510.737 740.371,521.253C740.371,521.253 724.922,641.823 602.404,666.515C602.404,666.515 600.785,761.45 679.428,738.236C758.071,715.022 838.061,676.925 838.061,676.925L853.181,623.259C853.181,623.259 816.847,550.227 879.479,526.916L898.595,452.927Z" style="stroke:black;stroke-width:1.11px;"/>
                </g>
                <g id="Right-Hand" serif:id="Right Hand" transform="matrix(0.904954,0,0,0.904954,6888.26,1247.86)">
                    <path d="M1093.45,547.036C1093.45,547.036 1124.67,542.007 1149.21,500.486C1158.88,484.12 1246.48,293.023 1231.75,253.855C1217.03,214.687 1187.08,199.12 1148.62,209.841C1110.17,220.561 1106.94,240.423 1141.38,245.182C1175.82,249.942 1165.55,261.549 1154.1,263.062C1142.66,264.576 1077.02,289.496 1121.69,301.471C1166.37,313.447 1168.07,338.262 1141.38,333.47C1115.39,328.804 1068.35,353.542 1130.35,373.249L1093.45,547.036Z"/>
                </g>
                <g id="Left-Foot" serif:id="Left Foot" transform="matrix(0.904954,0,0,0.904954,6888.26,1247.86)">
                    <path d="M413.582,892.443C413.582,892.443 373.948,932.524 392.254,1023.34C410.56,1114.15 429.391,1300.42 602.401,1373.03L672.588,1178.92C672.588,1178.92 700.624,1180.61 703.091,1171.81C705.558,1163.01 679.165,1153.35 685.933,1140.56C692.702,1127.76 713.657,1145.47 717.156,1134.59C720.654,1123.72 689.17,1116.35 694.462,1103.49C699.755,1090.62 732.823,1098.78 732.823,1098.78C732.823,1098.78 731.592,1077.15 710.603,1070.06C689.614,1062.97 592.33,1038.6 591.167,1193.41C591.167,1193.41 560.221,1109.83 588.331,1072.46C588.331,1072.46 424.566,1086.92 413.582,892.443Z" style="stroke:black;stroke-width:1.11px;"/>
                </g>
            </g>
            <g id="Layer1">
            </g>
        </g>
    </g>
</svg>
