<?xml version="1.0" encoding="UTF-8" standalone="no"?>
<!DOCTYPE svg PUBLIC "-//W3C//DTD SVG 1.1//EN" "http://www.w3.org/Graphics/SVG/1.1/DTD/svg11.dtd">
<svg width="100%" height="100%" viewBox="0 0 735 842" version="1.1" xmlns="http://www.w3.org/2000/svg" xmlns:xlink="http://www.w3.org/1999/xlink" xml:space="preserve" xmlns:serif="http://www.serif.com/" style="fill-rule:evenodd;clip-rule:evenodd;stroke-linejoin:round;stroke-miterlimit:2;">
    <g id="Layer-1" serif:id="Layer 1">
    </g>
    <g id="Layer-2" serif:id="Layer 2">
    </g>
    <g id="Artboard1" transform="matrix(0.483917,0,0,0.64769,-321.658,1182.68)">
        <rect x="664.696" y="-1826" width="1518.17" height="1299.33" style="fill:none;"/>
        <g transform="matrix(8.6103,0,0,6.43311,1229.36,-1560.43)">
            <path d="M0,-36.707C12.769,-33.011 35.529,-30.889 48.941,-36.422C38.001,-26.875 30.253,-14.136 23.901,0C22.93,-0.546 23.474,-2.607 23.332,-3.984L21.341,-3.984C20.48,-3.554 21.576,-2.735 21.341,-1.992C14.556,-13.893 9.737,-27.759 0,-36.707" style="fill:white;"/>
        </g>
        <g transform="matrix(8.6103,0,0,6.43311,1400.86,-1322.48)">
            <path d="M0,-33.86C-0.648,-31.772 -3.792,-31.549 -5.691,-31.015C-37.548,-22.051 -63.752,-6.293 -80.811,17.927C-75.951,2.127 -70.22,-16.77 -73.128,-37.559C-54.927,-51.787 -22.642,-45.845 -3.699,-36.421C-2.345,-35.747 -0.595,-35.208 0,-33.86" style="fill:white;"/>
        </g>
        <g transform="matrix(8.6103,0,0,6.43311,2101.56,-1249.83)">
            <path d="M0,-46.576C-1.673,-28.645 -2.343,-5.258 2.561,9.479C-15.284,-13.64 -40.9,-29.936 -70.852,-41.454C-71.874,-41.847 -73.005,-42.18 -73.981,-42.592C-74.653,-42.875 -75.809,-43.102 -75.974,-44.015C-76.073,-45.803 -73.418,-45.872 -72.274,-46.291C-61.939,-50.082 -48.246,-54.283 -35.284,-55.112C-20.546,-56.055 -7.977,-53.642 0,-46.576" style="fill:white;"/>
        </g>
        <g transform="matrix(8.6103,0,0,6.43311,1415.55,-877.703)">
            <path d="M0,-100.153C0.095,-100.147 0.19,-100.16 0.285,-100.153C3.165,-99.934 5.589,-93.061 7.113,-90.194C20.529,-64.976 30.376,-33.645 36.422,-1.985C14.906,-4.382 -20.071,-9.892 -37.56,0.007C-32.191,-40.532 -15.534,-69.78 0,-100.153" style="fill:white;"/>
        </g>
        <g transform="matrix(8.6103,0,0,6.43311,1444.96,-767.292)">
            <path d="M0,-14.31C0.566,-14.023 1.215,-13.819 1.423,-13.172C5.266,-14.275 8.235,-12.86 12.235,-13.742C12.395,-9.314 12.049,-5.391 10.527,-2.644C6.391,0 -0.065,-0.812 -0.854,-5.774C-1.287,-8.502 0.214,-10.982 0,-14.31" style="fill:white;"/>
        </g>
        <g transform="matrix(-6.39243,-4.30979,-5.76837,4.77605,1230.33,-804.663)">
            <path d="M-5.395,-15.937C-7.329,-13.325 -10.059,-12.565 -11.558,-10.382C-14.436,-6.195 -10.422,-1.071 -5.395,-0.223C-2.553,-1.12 1.245,-4.3 3.286,-7.72C0.32,-11.51 -3.036,-11.912 -5.395,-15.937" style="fill:white;"/>
        </g>
        <g transform="matrix(8.6103,0,0,6.43311,1253.86,-1491.9)">
            <path d="M0,98.895C-0.775,102.801 -0.087,107.707 1.422,110.277C5.723,113.015 12.135,111.9 12.804,106.863C13.153,104.238 11.635,101.845 11.95,98.61C7.502,100.018 4.741,98.068 0,98.895M21.34,106.863C22.129,111.825 28.585,112.636 32.722,109.993C34.243,107.246 34.589,103.323 34.43,98.895C30.43,99.777 27.46,98.362 23.617,99.464C23.409,98.818 22.761,98.614 22.194,98.327C22.408,101.655 20.907,104.134 21.34,106.863M-18.78,95.481C-1.292,85.582 33.686,91.091 55.201,93.489C49.155,61.829 39.309,30.498 25.893,5.28C24.368,2.413 21.944,-4.46 19.064,-4.679C18.97,-4.686 18.874,-4.673 18.779,-4.679C3.245,25.694 -13.412,54.942 -18.78,95.481M63.168,-17.483C50.206,-16.654 36.513,-12.454 26.178,-8.663C25.034,-8.243 22.379,-8.174 22.479,-6.386C22.644,-5.474 23.799,-5.247 24.471,-4.963C25.447,-4.552 26.578,-4.218 27.601,-3.825C57.552,7.692 83.168,23.988 101.013,47.108C96.109,32.371 96.779,8.984 98.452,-8.947C90.476,-16.013 77.906,-18.427 63.168,-17.483M13.373,-10.085C-5.569,-19.509 -37.854,-25.451 -56.056,-11.224C-53.147,9.565 -58.879,28.463 -63.738,44.263C-46.68,20.042 -20.476,4.285 11.381,-4.679C13.28,-5.213 16.424,-5.437 17.072,-7.524C16.478,-8.873 14.728,-9.412 13.373,-10.085M18.495,-12.646C18.73,-13.389 17.635,-14.208 18.495,-14.638L20.486,-14.638C20.628,-13.261 20.084,-11.2 21.056,-10.654C27.407,-24.79 35.155,-37.529 46.096,-47.076C32.684,-41.543 9.923,-43.665 -2.846,-47.361C6.892,-38.413 11.71,-24.547 18.495,-12.646M49.226,-49.068C65.5,-35.56 81.313,-21.592 98.736,-9.232C97.184,11.474 96.075,37.318 103.573,52.23C83.045,61.769 64.438,73.227 55.485,94.342C50.232,93.431 44.832,92.666 39.267,92.066C39.343,94.835 40.236,96.788 41.259,98.61C39.322,99.41 37.478,100.324 34.998,98.895C35.504,109.969 30.882,119.788 30.445,129.911C31.369,128.437 30.804,124.6 31.868,122.512C36.618,123.5 38.072,130.642 35.283,135.601C34.226,137.481 31.666,139.213 30.445,141.577C29.144,144.099 28.369,147.731 25.324,148.122C22.116,148.532 19.162,146.186 18.495,142.715C19.342,142.043 20.697,144.637 22.763,144.992C25.125,145.396 27.42,144.501 28.738,142.999C24.924,145.352 20.034,144.073 18.21,140.723C18.369,135.837 20.758,131.349 20.771,125.927C20.786,120.149 19.564,114.201 20.202,108.285C20.547,105.084 21.927,101.848 21.625,98.61C18.369,97.264 15.12,100.08 12.52,98.61C12.143,102.162 13.603,105.33 13.942,109.138C14.581,116.298 12.422,123.997 13.657,130.764C14.394,134.793 16.354,137.856 15.649,142.146C13.348,143.514 9.674,145.012 6.26,143.569C8.509,146.604 14.006,143.734 15.649,142.999C15.04,146.267 12.001,148.478 9.39,148.406C6.826,148.334 5.382,145.865 3.698,142.43C1.446,137.835 -3.829,135.166 -2.562,127.918C-2.082,125.175 0.074,123.374 2.561,122.512C3.185,124.543 3.179,127.205 3.13,129.911C5.497,126.339 2.66,122.477 1.707,119.667C-0.202,114.04 -0.486,106.115 -0.569,99.179C-3.279,98.594 -6.5,98.307 -8.821,99.464C-7.481,97.01 -6.42,94.278 -5.407,91.497C-10.878,92.191 -15.499,93.735 -18.78,96.619C-31.707,77.866 -43.809,58.288 -65.445,48.246C-60.495,31.948 -54.246,14.242 -55.771,-6.386C-55.875,-7.795 -56.672,-9.794 -56.34,-10.939C-55.726,-13.059 -45.737,-17.779 -43.536,-19.191C-38.829,-22.209 -34.653,-24.889 -31.016,-27.442C-22.646,-33.318 -11.342,-41.31 -7.398,-49.637C7.428,-43.582 34.549,-41.144 49.226,-49.068" style="fill:rgb(35,31,32);"/>
        </g>
        <g transform="matrix(8.6103,0,0,6.43311,-3720.47,-2864.12)">
            <g transform="matrix(12,0,0,12,577.817,294.946)">
                <path d="M0.697,-0.035C0.697,-0.025 0.693,-0.017 0.687,-0.01C0.68,-0.003 0.672,-0 0.662,-0L0.035,-0C0.025,-0 0.017,-0.003 0.01,-0.01C0.003,-0.017 0,-0.025 0,-0.035L0,-0.532C0,-0.542 0.003,-0.55 0.01,-0.557C0.017,-0.564 0.026,-0.568 0.035,-0.568C0.045,-0.568 0.053,-0.564 0.06,-0.557C0.066,-0.55 0.07,-0.542 0.07,-0.532L0.07,-0.07L0.662,-0.07C0.672,-0.07 0.68,-0.066 0.687,-0.06C0.693,-0.053 0.697,-0.045 0.697,-0.035Z" style="fill:rgb(3,4,5);fill-rule:nonzero;"/>
            </g>
            <g transform="matrix(12,0,0,12,587.379,294.946)">
                <path d="M0.91,-0.073C0.91,-0.067 0.909,-0.061 0.906,-0.056C0.903,-0.051 0.898,-0.045 0.891,-0.038C0.863,-0.013 0.823,-0 0.771,-0L0.269,-0C0.116,-0 0.04,-0.052 0.04,-0.155C0.04,-0.259 0.116,-0.311 0.269,-0.311C0.332,-0.311 0.378,-0.306 0.407,-0.297C0.459,-0.281 0.485,-0.249 0.485,-0.2C0.485,-0.185 0.475,-0.172 0.456,-0.161C0.449,-0.158 0.432,-0.151 0.406,-0.142C0.355,-0.125 0.282,-0.103 0.186,-0.077C0.211,-0.072 0.239,-0.07 0.269,-0.07L0.771,-0.07C0.81,-0.07 0.834,-0.076 0.844,-0.09C0.853,-0.102 0.863,-0.108 0.875,-0.108C0.884,-0.108 0.893,-0.104 0.9,-0.098C0.907,-0.091 0.91,-0.083 0.91,-0.073ZM0.408,-0.217C0.395,-0.232 0.349,-0.24 0.269,-0.24C0.185,-0.24 0.134,-0.225 0.118,-0.196C0.113,-0.186 0.11,-0.173 0.11,-0.155C0.11,-0.146 0.111,-0.138 0.113,-0.13C0.175,-0.146 0.234,-0.163 0.292,-0.18C0.343,-0.195 0.382,-0.207 0.408,-0.217Z" style="fill:rgb(3,4,5);fill-rule:nonzero;"/>
            </g>
            <g transform="matrix(12,0,0,12,596.631,294.946)">
                <path d="M0.725,-0.073C0.725,-0.067 0.724,-0.061 0.721,-0.056C0.718,-0.051 0.713,-0.045 0.706,-0.038C0.678,-0.013 0.638,-0 0.586,-0L0.201,-0C0.132,-0 0.082,-0.037 0.052,-0.11C0.031,-0.161 0.02,-0.228 0.02,-0.31C0.02,-0.367 0.024,-0.422 0.032,-0.477C0.034,-0.491 0.037,-0.512 0.042,-0.539C0.048,-0.558 0.059,-0.568 0.077,-0.568C0.087,-0.568 0.095,-0.564 0.102,-0.557C0.108,-0.55 0.112,-0.542 0.112,-0.532L0.112,-0.526C0.098,-0.448 0.091,-0.376 0.091,-0.308C0.091,-0.149 0.128,-0.07 0.201,-0.07L0.586,-0.07C0.625,-0.07 0.65,-0.076 0.659,-0.09C0.668,-0.102 0.678,-0.108 0.69,-0.108C0.699,-0.108 0.708,-0.104 0.715,-0.098C0.722,-0.091 0.725,-0.083 0.725,-0.073Z" style="fill:rgb(3,4,5);fill-rule:nonzero;"/>
            </g>
            <g transform="matrix(12,0,0,12,603.674,294.946)">
                <path d="M1.062,-0.073C1.062,-0.067 1.061,-0.061 1.058,-0.056C1.055,-0.051 1.05,-0.045 1.043,-0.038C1.015,-0.013 0.975,-0 0.923,-0L0.598,-0C0.544,-0 0.503,-0.024 0.475,-0.071C0.443,-0.024 0.375,-0 0.269,-0C0.116,-0 0.04,-0.052 0.04,-0.155C0.04,-0.259 0.116,-0.311 0.269,-0.311C0.344,-0.311 0.4,-0.299 0.437,-0.276C0.438,-0.312 0.451,-0.33 0.474,-0.33C0.484,-0.33 0.492,-0.327 0.499,-0.32C0.505,-0.313 0.509,-0.304 0.509,-0.295L0.507,-0.25C0.507,-0.13 0.537,-0.07 0.598,-0.07L0.923,-0.07C0.962,-0.07 0.987,-0.076 0.996,-0.09C1.005,-0.102 1.015,-0.108 1.027,-0.108C1.036,-0.108 1.045,-0.104 1.052,-0.098C1.059,-0.091 1.062,-0.083 1.062,-0.073ZM0.427,-0.155C0.427,-0.174 0.424,-0.188 0.419,-0.197C0.401,-0.226 0.351,-0.24 0.269,-0.24C0.182,-0.24 0.131,-0.224 0.116,-0.192C0.112,-0.183 0.11,-0.171 0.11,-0.155C0.11,-0.139 0.112,-0.127 0.116,-0.118C0.131,-0.086 0.182,-0.07 0.269,-0.07C0.351,-0.07 0.401,-0.084 0.419,-0.113C0.424,-0.122 0.427,-0.136 0.427,-0.155Z" style="fill:rgb(3,4,5);fill-rule:nonzero;"/>
            </g>
        </g>
    </g>
</svg>
