<?xml version="1.0" encoding="UTF-8" standalone="no"?>
<!DOCTYPE svg PUBLIC "-//W3C//DTD SVG 1.1//EN" "http://www.w3.org/Graphics/SVG/1.1/DTD/svg11.dtd">
<svg width="100%" height="100%" viewBox="0 0 504 563" version="1.1" xmlns="http://www.w3.org/2000/svg" xmlns:xlink="http://www.w3.org/1999/xlink" xml:space="preserve" xmlns:serif="http://www.serif.com/" style="fill-rule:evenodd;clip-rule:evenodd;">
    <g transform="matrix(1,0,0,1,-12442.6,2.27374e-13)">
        <g id="Artboard1" transform="matrix(0.163998,0,0,0.414271,10627.4,1065.36)">
            <rect x="11068.4" y="-2571.65" width="3067.9" height="1356.98" style="fill:none;"/>
            <clipPath id="_clip1">
                <rect x="11068.4" y="-2571.65" width="3067.9" height="1356.98"/>
            </clipPath>
            <g clip-path="url(#_clip1)">
                <g transform="matrix(25.4068,0,0,10.0578,-3985.65,-2914.18)">
                    <g transform="matrix(25.082,0,0,25.082,598.609,166.143)">
                        <path d="M0.096,-0L0.096,-0.53L0.192,-0.53L0.192,-0.431C0.239,-0.505 0.299,-0.542 0.373,-0.542C0.444,-0.542 0.492,-0.505 0.518,-0.431C0.564,-0.505 0.623,-0.542 0.696,-0.542C0.743,-0.542 0.779,-0.529 0.805,-0.501C0.83,-0.474 0.843,-0.435 0.843,-0.386L0.843,-0L0.747,-0L0.747,-0.371C0.747,-0.431 0.723,-0.461 0.675,-0.461C0.625,-0.461 0.573,-0.426 0.518,-0.355L0.518,-0L0.421,-0L0.421,-0.371C0.421,-0.431 0.397,-0.462 0.348,-0.462C0.3,-0.462 0.248,-0.426 0.192,-0.355L0.192,-0L0.096,-0Z" style="fill:rgb(35,31,32);fill-rule:nonzero;"/>
                    </g>
                    <g transform="matrix(25.082,0,0,25.082,621.061,166.143)">
                        <path d="M0.304,0.012C0.228,0.012 0.167,-0.013 0.122,-0.063C0.077,-0.114 0.054,-0.181 0.054,-0.265C0.054,-0.35 0.077,-0.418 0.122,-0.468C0.168,-0.517 0.229,-0.542 0.307,-0.542C0.385,-0.542 0.447,-0.517 0.492,-0.468C0.537,-0.418 0.56,-0.351 0.56,-0.266C0.56,-0.18 0.537,-0.111 0.492,-0.062C0.446,-0.013 0.383,0.012 0.304,0.012ZM0.305,-0.06C0.407,-0.06 0.458,-0.129 0.458,-0.266C0.458,-0.402 0.408,-0.47 0.307,-0.47C0.207,-0.47 0.157,-0.402 0.157,-0.265C0.157,-0.128 0.206,-0.06 0.305,-0.06Z" style="fill:rgb(35,31,32);fill-rule:nonzero;"/>
                    </g>
                    <g transform="matrix(25.082,0,0,25.082,635.503,166.143)">
                        <path d="M0.096,-0L0.096,-0.53L0.192,-0.53L0.192,-0.431C0.243,-0.505 0.305,-0.542 0.379,-0.542C0.425,-0.542 0.461,-0.527 0.489,-0.498C0.516,-0.469 0.53,-0.43 0.53,-0.381L0.53,-0L0.434,-0L0.434,-0.35C0.434,-0.389 0.428,-0.417 0.416,-0.434C0.405,-0.451 0.386,-0.459 0.359,-0.459C0.3,-0.459 0.244,-0.42 0.192,-0.343L0.192,-0L0.096,-0Z" style="fill:rgb(35,31,32);fill-rule:nonzero;"/>
                    </g>
                    <g transform="matrix(25.082,0,0,25.082,650.105,166.143)">
                        <path d="M0.237,0.012C0.193,0.012 0.139,0.002 0.077,-0.019L0.077,-0.107C0.139,-0.076 0.194,-0.06 0.241,-0.06C0.268,-0.06 0.291,-0.068 0.31,-0.083C0.328,-0.097 0.337,-0.116 0.337,-0.139C0.337,-0.172 0.311,-0.199 0.26,-0.22L0.204,-0.244C0.121,-0.279 0.08,-0.328 0.08,-0.393C0.08,-0.439 0.096,-0.476 0.129,-0.502C0.161,-0.529 0.206,-0.542 0.263,-0.542C0.293,-0.542 0.329,-0.538 0.373,-0.53L0.393,-0.526L0.393,-0.446C0.339,-0.462 0.297,-0.47 0.265,-0.47C0.203,-0.47 0.172,-0.447 0.172,-0.402C0.172,-0.373 0.196,-0.349 0.243,-0.329L0.289,-0.31C0.341,-0.287 0.379,-0.264 0.4,-0.24C0.422,-0.215 0.433,-0.184 0.433,-0.147C0.433,-0.101 0.415,-0.063 0.378,-0.033C0.341,-0.003 0.294,0.012 0.237,0.012Z" style="fill:rgb(35,31,32);fill-rule:nonzero;"/>
                    </g>
                    <g transform="matrix(25.082,0,0,25.082,661.926,166.143)">
                        <path d="M0.304,0.012C0.228,0.012 0.167,-0.013 0.122,-0.063C0.077,-0.114 0.054,-0.181 0.054,-0.265C0.054,-0.35 0.077,-0.418 0.122,-0.468C0.168,-0.517 0.229,-0.542 0.307,-0.542C0.385,-0.542 0.447,-0.517 0.492,-0.468C0.537,-0.418 0.56,-0.351 0.56,-0.266C0.56,-0.18 0.537,-0.111 0.492,-0.062C0.446,-0.013 0.383,0.012 0.304,0.012ZM0.305,-0.06C0.407,-0.06 0.458,-0.129 0.458,-0.266C0.458,-0.402 0.408,-0.47 0.307,-0.47C0.207,-0.47 0.157,-0.402 0.157,-0.265C0.157,-0.128 0.206,-0.06 0.305,-0.06Z" style="fill:rgb(35,31,32);fill-rule:nonzero;"/>
                    </g>
                    <g transform="matrix(25.082,0,0,25.082,676.369,166.143)">
                        <path d="M0.304,0.012C0.228,0.012 0.167,-0.013 0.122,-0.063C0.077,-0.114 0.054,-0.181 0.054,-0.265C0.054,-0.35 0.077,-0.418 0.122,-0.468C0.168,-0.517 0.229,-0.542 0.307,-0.542C0.385,-0.542 0.447,-0.517 0.492,-0.468C0.537,-0.418 0.56,-0.351 0.56,-0.266C0.56,-0.18 0.537,-0.111 0.492,-0.062C0.446,-0.013 0.383,0.012 0.304,0.012ZM0.305,-0.06C0.407,-0.06 0.458,-0.129 0.458,-0.266C0.458,-0.402 0.408,-0.47 0.307,-0.47C0.207,-0.47 0.157,-0.402 0.157,-0.265C0.157,-0.128 0.206,-0.06 0.305,-0.06Z" style="fill:rgb(35,31,32);fill-rule:nonzero;"/>
                    </g>
                    <g transform="matrix(25.082,0,0,25.082,690.811,166.143)">
                        <path d="M0.096,-0L0.096,-0.53L0.192,-0.53L0.192,-0.431C0.243,-0.505 0.305,-0.542 0.379,-0.542C0.425,-0.542 0.461,-0.527 0.489,-0.498C0.516,-0.469 0.53,-0.43 0.53,-0.381L0.53,-0L0.434,-0L0.434,-0.35C0.434,-0.389 0.428,-0.417 0.416,-0.434C0.405,-0.451 0.386,-0.459 0.359,-0.459C0.3,-0.459 0.244,-0.42 0.192,-0.343L0.192,-0L0.096,-0Z" style="fill:rgb(35,31,32);fill-rule:nonzero;"/>
                    </g>
                </g>
                <g transform="matrix(25.4068,0,0,10.0578,13589.1,-1452.12)">
                    <path d="M0,-105.753C8.339,-105.753 15.101,-100.525 15.101,-94.075L15.101,-11.677C15.101,-5.228 8.339,0 0,0L-78.022,0C-86.362,0 -93.124,-5.228 -93.124,-11.677L-93.124,-94.075C-93.124,-100.525 -86.362,-105.753 -78.022,-105.753L0,-105.753Z" style="fill:none;fill-rule:nonzero;stroke:rgb(3,4,4);stroke-width:5px;"/>
                </g>
                <g transform="matrix(6.09762,0,0,2.41388,-64523.9,3207.33)">
                    <g transform="matrix(1,0,0,1,-57.5518,-2609.3)">
                        <path d="M12572.7,324.082C12572.7,324.082 12571.4,330.801 12566.7,344.835C12562,358.869 12546.1,394.218 12543.8,403.017C12541.5,411.815 12541.9,431.372 12572,431.372C12602.2,431.372 12602.5,410.072 12599.8,400.984C12597.1,391.897 12581.9,356.375 12577.9,345.104C12574,333.772 12572.7,324.082 12572.7,324.082Z"/>
                    </g>
                    <g transform="matrix(0.8749,0,0,0.8749,1512.66,-2569.46)">
                        <circle cx="12574.9" cy="424.117" r="33.137"/>
                    </g>
                </g>
                <g transform="matrix(10.0647,0,0,3.98433,-112676,6880.14)">
                    <g transform="matrix(1,0,0,1,-57.5518,-2609.3)">
                        <path d="M12572.7,324.082C12572.7,324.082 12571.4,330.801 12566.7,344.835C12562,358.869 12546.1,394.218 12543.8,403.017C12541.5,411.815 12541.9,431.372 12572,431.372C12602.2,431.372 12602.5,410.072 12599.8,400.984C12597.1,391.897 12581.9,356.375 12577.9,345.104C12574,333.772 12572.7,324.082 12572.7,324.082Z"/>
                    </g>
                    <g transform="matrix(0.8749,0,0,0.8749,1512.66,-2569.46)">
                        <circle cx="12574.9" cy="424.117" r="33.137"/>
                    </g>
                </g>
                <g transform="matrix(16.0363,0,0,6.34833,-188202,12174.3)">
                    <g transform="matrix(1,0,0,1,-57.5518,-2609.3)">
                        <path d="M12572.7,324.082C12572.7,324.082 12571.4,330.801 12566.7,344.835C12562,358.869 12546.1,394.218 12543.8,403.017C12541.5,411.815 12541.9,431.372 12572,431.372C12602.2,431.372 12602.5,410.072 12599.8,400.984C12597.1,391.897 12581.9,356.375 12577.9,345.104C12574,333.772 12572.7,324.082 12572.7,324.082Z"/>
                    </g>
                    <g transform="matrix(0.8749,0,0,0.8749,1512.66,-2569.46)">
                        <circle cx="12574.9" cy="424.117" r="33.137"/>
                    </g>
                </g>
            </g>
        </g>
    </g>
</svg>
