<?xml version="1.0" encoding="UTF-8" standalone="no"?>
<!DOCTYPE svg PUBLIC "-//W3C//DTD SVG 1.1//EN" "http://www.w3.org/Graphics/SVG/1.1/DTD/svg11.dtd">
<svg width="100%" height="100%" viewBox="0 0 1141 680" version="1.1" xmlns="http://www.w3.org/2000/svg" xmlns:xlink="http://www.w3.org/1999/xlink" xml:space="preserve" xmlns:serif="http://www.serif.com/" style="fill-rule:evenodd;clip-rule:evenodd;stroke-linejoin:round;stroke-miterlimit:2;">
    <g transform="matrix(1,0,0,1,-7766.38,-1067.37)">
        <g id="Artboard4" transform="matrix(0.648161,0,0,0.611381,2936.6,545.808)">
            <rect x="7451.51" y="853.092" width="1760.11" height="1111.9" style="fill:none;"/>
            <g transform="matrix(2.97282,0,0,3.15166,-4507.49,-3834.57)">
                <g transform="matrix(1,0,0,1,0,-19.8091)">
                    <g id="_-SHINE-media-" serif:id="(SHINE¶media)" transform="matrix(1.34493,0,0,1.34493,4590.71,1707.31)">
                        <g transform="matrix(50,0,0,50,-161.85,0)">
                            <path d="M0.327,0.007C0.242,0.007 0.173,-0.013 0.118,-0.053C0.063,-0.092 0.033,-0.15 0.028,-0.227L0.264,-0.227C0.267,-0.186 0.285,-0.166 0.318,-0.166C0.33,-0.166 0.34,-0.169 0.349,-0.175C0.357,-0.18 0.361,-0.189 0.361,-0.201C0.361,-0.218 0.352,-0.231 0.334,-0.242C0.316,-0.252 0.288,-0.264 0.25,-0.277C0.205,-0.293 0.167,-0.309 0.138,-0.324C0.108,-0.339 0.082,-0.362 0.061,-0.391C0.04,-0.42 0.029,-0.458 0.03,-0.504C0.03,-0.55 0.042,-0.589 0.066,-0.622C0.089,-0.654 0.122,-0.678 0.163,-0.695C0.204,-0.712 0.25,-0.72 0.301,-0.72C0.388,-0.72 0.456,-0.7 0.508,-0.66C0.559,-0.62 0.585,-0.564 0.588,-0.491L0.349,-0.491C0.348,-0.511 0.343,-0.525 0.334,-0.534C0.325,-0.543 0.313,-0.547 0.3,-0.547C0.291,-0.547 0.283,-0.544 0.277,-0.538C0.271,-0.531 0.268,-0.522 0.268,-0.511C0.268,-0.495 0.277,-0.482 0.295,-0.472C0.312,-0.461 0.34,-0.449 0.379,-0.434C0.424,-0.417 0.46,-0.401 0.49,-0.386C0.519,-0.371 0.544,-0.349 0.565,-0.322C0.586,-0.295 0.597,-0.26 0.597,-0.219C0.597,-0.176 0.586,-0.137 0.565,-0.103C0.544,-0.068 0.513,-0.041 0.472,-0.022C0.431,-0.003 0.383,0.007 0.327,0.007Z" style="fill:rgb(0,60,88);fill-rule:nonzero;"/>
                        </g>
                        <g transform="matrix(50,0,0,50,-128.1,0)">
                            <path d="M0.705,-0.708L0.705,-0L0.483,-0L0.483,-0.276L0.272,-0.276L0.272,-0L0.05,-0L0.05,-0.708L0.272,-0.708L0.272,-0.453L0.483,-0.453L0.483,-0.708L0.705,-0.708Z" style="fill:rgb(0,60,88);fill-rule:nonzero;"/>
                        </g>
                        <g transform="matrix(50,0,0,50,-87.85,0)">
                            <rect x="0.05" y="-0.708" width="0.222" height="0.708" style="fill:rgb(0,60,88);fill-rule:nonzero;"/>
                        </g>
                        <g transform="matrix(50,0,0,50,-69.25,0)">
                            <path d="M0.729,-0L0.507,-0L0.272,-0.356L0.272,-0L0.05,-0L0.05,-0.708L0.272,-0.708L0.507,-0.346L0.507,-0.708L0.729,-0.708L0.729,-0Z" style="fill:rgb(0,60,88);fill-rule:nonzero;"/>
                        </g>
                        <g transform="matrix(50,0,0,50,-27.8,0)">
                            <path d="M0.272,-0.531L0.272,-0.444L0.492,-0.444L0.492,-0.277L0.272,-0.277L0.272,-0.177L0.522,-0.177L0.522,-0L0.05,-0L0.05,-0.708L0.522,-0.708L0.522,-0.531L0.272,-0.531Z" style="fill:rgb(0,60,88);fill-rule:nonzero;"/>
                        </g>
                        <g transform="matrix(25,0,0,25,-158.95,22.9167)">
                            <path d="M0.757,-0.562C0.825,-0.562 0.88,-0.541 0.922,-0.5C0.963,-0.458 0.984,-0.4 0.984,-0.325L0.984,-0L0.844,-0L0.844,-0.306C0.844,-0.349 0.833,-0.383 0.811,-0.406C0.789,-0.429 0.759,-0.44 0.721,-0.44C0.683,-0.44 0.653,-0.429 0.631,-0.406C0.608,-0.383 0.597,-0.349 0.597,-0.306L0.597,-0L0.457,-0L0.457,-0.306C0.457,-0.349 0.446,-0.383 0.424,-0.406C0.402,-0.429 0.372,-0.44 0.334,-0.44C0.295,-0.44 0.265,-0.429 0.243,-0.406C0.22,-0.383 0.209,-0.349 0.209,-0.306L0.209,-0L0.069,-0L0.069,-0.554L0.209,-0.554L0.209,-0.487C0.227,-0.51 0.25,-0.529 0.279,-0.542C0.307,-0.555 0.338,-0.562 0.372,-0.562C0.415,-0.562 0.454,-0.553 0.488,-0.535C0.522,-0.516 0.548,-0.49 0.567,-0.456C0.585,-0.488 0.611,-0.514 0.646,-0.533C0.68,-0.552 0.717,-0.562 0.757,-0.562Z" style="fill:rgb(0,60,88);fill-rule:nonzero;"/>
                        </g>
                        <g transform="matrix(25,0,0,25,-132.75,22.9167)">
                            <path d="M0.584,-0.289C0.584,-0.269 0.583,-0.251 0.58,-0.235L0.175,-0.235C0.178,-0.195 0.192,-0.164 0.217,-0.141C0.242,-0.118 0.272,-0.107 0.308,-0.107C0.36,-0.107 0.397,-0.129 0.419,-0.174L0.57,-0.174C0.554,-0.121 0.523,-0.077 0.478,-0.043C0.433,-0.008 0.377,0.009 0.311,0.009C0.258,0.009 0.21,-0.003 0.168,-0.027C0.125,-0.05 0.092,-0.084 0.069,-0.127C0.045,-0.17 0.033,-0.22 0.033,-0.277C0.033,-0.334 0.045,-0.385 0.068,-0.428C0.091,-0.471 0.124,-0.505 0.166,-0.528C0.208,-0.551 0.256,-0.563 0.311,-0.563C0.364,-0.563 0.411,-0.552 0.453,-0.529C0.494,-0.506 0.527,-0.474 0.55,-0.433C0.572,-0.391 0.584,-0.343 0.584,-0.289ZM0.439,-0.329C0.438,-0.365 0.425,-0.394 0.4,-0.416C0.375,-0.437 0.344,-0.448 0.307,-0.448C0.272,-0.448 0.243,-0.438 0.22,-0.417C0.196,-0.396 0.181,-0.366 0.176,-0.329L0.439,-0.329Z" style="fill:rgb(0,60,88);fill-rule:nonzero;"/>
                        </g>
                        <g transform="matrix(25,0,0,25,-117.325,22.9167)">
                            <path d="M0.033,-0.279C0.033,-0.335 0.044,-0.385 0.067,-0.428C0.089,-0.471 0.119,-0.505 0.158,-0.528C0.197,-0.551 0.24,-0.563 0.287,-0.563C0.323,-0.563 0.357,-0.555 0.39,-0.54C0.423,-0.524 0.449,-0.503 0.468,-0.477L0.468,-0.74L0.61,-0.74L0.61,-0L0.468,-0L0.468,-0.082C0.451,-0.055 0.426,-0.033 0.395,-0.016C0.364,0.001 0.327,0.009 0.286,0.009C0.239,0.009 0.197,-0.003 0.158,-0.027C0.119,-0.051 0.089,-0.085 0.067,-0.129C0.044,-0.172 0.033,-0.222 0.033,-0.279ZM0.469,-0.277C0.469,-0.311 0.462,-0.34 0.449,-0.365C0.436,-0.389 0.418,-0.408 0.395,-0.421C0.372,-0.434 0.348,-0.44 0.322,-0.44C0.296,-0.44 0.272,-0.434 0.25,-0.421C0.228,-0.408 0.21,-0.39 0.197,-0.366C0.183,-0.341 0.176,-0.312 0.176,-0.279C0.176,-0.246 0.183,-0.217 0.197,-0.192C0.21,-0.167 0.228,-0.147 0.251,-0.134C0.273,-0.121 0.297,-0.114 0.322,-0.114C0.348,-0.114 0.372,-0.121 0.395,-0.134C0.418,-0.147 0.436,-0.165 0.449,-0.19C0.462,-0.214 0.469,-0.243 0.469,-0.277Z" style="fill:rgb(0,60,88);fill-rule:nonzero;"/>
                        </g>
                        <g transform="matrix(25,0,0,25,-100.375,22.9167)">
                            <path d="M0.14,-0.62C0.115,-0.62 0.095,-0.628 0.079,-0.644C0.062,-0.659 0.054,-0.679 0.054,-0.702C0.054,-0.725 0.062,-0.745 0.079,-0.761C0.095,-0.776 0.115,-0.784 0.14,-0.784C0.165,-0.784 0.185,-0.776 0.202,-0.761C0.218,-0.745 0.226,-0.725 0.226,-0.702C0.226,-0.679 0.218,-0.659 0.202,-0.644C0.185,-0.628 0.165,-0.62 0.14,-0.62ZM0.209,-0.554L0.209,-0L0.069,-0L0.069,-0.554L0.209,-0.554Z" style="fill:rgb(0,60,88);fill-rule:nonzero;"/>
                        </g>
                        <g transform="matrix(25,0,0,25,-93.425,22.9167)">
                            <path d="M0.033,-0.279C0.033,-0.335 0.044,-0.385 0.067,-0.428C0.089,-0.471 0.119,-0.505 0.158,-0.528C0.196,-0.551 0.239,-0.563 0.286,-0.563C0.327,-0.563 0.364,-0.555 0.395,-0.538C0.426,-0.521 0.45,-0.5 0.469,-0.475L0.469,-0.554L0.61,-0.554L0.61,-0L0.469,-0L0.469,-0.081C0.451,-0.055 0.426,-0.034 0.395,-0.017C0.363,0.001 0.326,0.009 0.285,0.009C0.238,0.009 0.196,-0.003 0.158,-0.027C0.119,-0.051 0.089,-0.085 0.067,-0.129C0.044,-0.172 0.033,-0.222 0.033,-0.279ZM0.469,-0.277C0.469,-0.311 0.462,-0.34 0.449,-0.365C0.436,-0.389 0.418,-0.408 0.395,-0.421C0.372,-0.434 0.348,-0.44 0.322,-0.44C0.296,-0.44 0.272,-0.434 0.25,-0.421C0.228,-0.408 0.21,-0.39 0.197,-0.366C0.183,-0.341 0.176,-0.312 0.176,-0.279C0.176,-0.246 0.183,-0.217 0.197,-0.192C0.21,-0.167 0.228,-0.147 0.251,-0.134C0.273,-0.121 0.297,-0.114 0.322,-0.114C0.348,-0.114 0.372,-0.121 0.395,-0.134C0.418,-0.147 0.436,-0.165 0.449,-0.19C0.462,-0.214 0.469,-0.243 0.469,-0.277Z" style="fill:rgb(0,60,88);fill-rule:nonzero;"/>
                        </g>
                        <g transform="matrix(25,0,0,25,-76.475,22.9167)">
                            <path d="M0.286,-0.563C0.327,-0.563 0.364,-0.555 0.395,-0.539C0.426,-0.522 0.451,-0.501 0.469,-0.475L0.469,-0.554L0.61,-0.554L0.61,0.004C0.61,0.055 0.6,0.101 0.579,0.142C0.558,0.182 0.527,0.214 0.486,0.238C0.445,0.261 0.395,0.273 0.336,0.273C0.257,0.273 0.193,0.255 0.143,0.218C0.092,0.181 0.064,0.131 0.057,0.068L0.196,0.068C0.203,0.093 0.219,0.114 0.244,0.129C0.268,0.143 0.297,0.151 0.332,0.151C0.373,0.151 0.406,0.139 0.431,0.115C0.456,0.09 0.469,0.053 0.469,0.004L0.469,-0.082C0.451,-0.056 0.426,-0.034 0.395,-0.017C0.363,0 0.327,0.009 0.286,0.009C0.239,0.009 0.197,-0.003 0.158,-0.027C0.119,-0.051 0.089,-0.085 0.067,-0.129C0.044,-0.172 0.033,-0.222 0.033,-0.279C0.033,-0.335 0.044,-0.385 0.067,-0.428C0.089,-0.471 0.119,-0.505 0.158,-0.528C0.196,-0.551 0.239,-0.563 0.286,-0.563ZM0.469,-0.277C0.469,-0.311 0.462,-0.34 0.449,-0.365C0.436,-0.389 0.418,-0.408 0.395,-0.421C0.372,-0.434 0.348,-0.44 0.322,-0.44C0.296,-0.44 0.272,-0.434 0.25,-0.421C0.228,-0.408 0.21,-0.39 0.197,-0.366C0.183,-0.341 0.176,-0.312 0.176,-0.279C0.176,-0.246 0.183,-0.217 0.197,-0.192C0.21,-0.167 0.228,-0.147 0.251,-0.134C0.273,-0.121 0.297,-0.114 0.322,-0.114C0.348,-0.114 0.372,-0.121 0.395,-0.134C0.418,-0.147 0.436,-0.165 0.449,-0.19C0.462,-0.214 0.469,-0.243 0.469,-0.277Z" style="fill:rgb(0,60,88);fill-rule:nonzero;"/>
                        </g>
                        <g transform="matrix(25,0,0,25,-59.525,22.9167)">
                            <path d="M0.209,-0.468C0.227,-0.497 0.251,-0.52 0.28,-0.537C0.309,-0.554 0.342,-0.562 0.379,-0.562L0.379,-0.415L0.342,-0.415C0.298,-0.415 0.265,-0.405 0.243,-0.384C0.22,-0.363 0.209,-0.327 0.209,-0.276L0.209,-0L0.069,-0L0.069,-0.554L0.209,-0.554L0.209,-0.468Z" style="fill:rgb(0,60,88);fill-rule:nonzero;"/>
                        </g>
                        <g transform="matrix(25,0,0,25,-49.425,22.9167)">
                            <path d="M0.315,0.009C0.262,0.009 0.214,-0.003 0.171,-0.027C0.128,-0.05 0.095,-0.084 0.071,-0.127C0.046,-0.17 0.034,-0.22 0.034,-0.277C0.034,-0.334 0.047,-0.384 0.072,-0.427C0.096,-0.47 0.131,-0.504 0.174,-0.528C0.217,-0.551 0.266,-0.563 0.319,-0.563C0.372,-0.563 0.421,-0.551 0.464,-0.528C0.507,-0.504 0.542,-0.47 0.567,-0.427C0.592,-0.384 0.604,-0.334 0.604,-0.277C0.604,-0.22 0.591,-0.17 0.566,-0.127C0.54,-0.084 0.505,-0.05 0.462,-0.027C0.418,-0.003 0.369,0.009 0.315,0.009ZM0.315,-0.113C0.34,-0.113 0.364,-0.119 0.387,-0.132C0.409,-0.144 0.427,-0.162 0.44,-0.187C0.453,-0.212 0.46,-0.242 0.46,-0.277C0.46,-0.33 0.446,-0.37 0.419,-0.399C0.391,-0.427 0.357,-0.441 0.317,-0.441C0.277,-0.441 0.244,-0.427 0.217,-0.399C0.19,-0.37 0.176,-0.33 0.176,-0.277C0.176,-0.224 0.189,-0.184 0.216,-0.156C0.242,-0.127 0.275,-0.113 0.315,-0.113Z" style="fill:rgb(0,60,88);fill-rule:nonzero;"/>
                        </g>
                        <g transform="matrix(25,0,0,25,-33.475,22.9167)">
                            <path d="M0.592,-0.554L0.592,-0L0.451,-0L0.451,-0.07C0.433,-0.046 0.409,-0.027 0.381,-0.014C0.352,0 0.32,0.007 0.286,0.007C0.243,0.007 0.204,-0.002 0.171,-0.021C0.138,-0.039 0.112,-0.066 0.093,-0.102C0.074,-0.137 0.064,-0.18 0.064,-0.229L0.064,-0.554L0.204,-0.554L0.204,-0.249C0.204,-0.205 0.215,-0.171 0.237,-0.148C0.259,-0.124 0.289,-0.112 0.327,-0.112C0.366,-0.112 0.396,-0.124 0.418,-0.148C0.44,-0.171 0.451,-0.205 0.451,-0.249L0.451,-0.554L0.592,-0.554Z" style="fill:rgb(0,60,88);fill-rule:nonzero;"/>
                        </g>
                        <g transform="matrix(25,0,0,25,-16.95,22.9167)">
                            <path d="M0.209,-0.474C0.227,-0.499 0.252,-0.521 0.284,-0.538C0.315,-0.555 0.351,-0.563 0.392,-0.563C0.439,-0.563 0.482,-0.551 0.521,-0.528C0.559,-0.505 0.589,-0.471 0.612,-0.429C0.634,-0.385 0.645,-0.336 0.645,-0.279C0.645,-0.222 0.634,-0.172 0.612,-0.129C0.589,-0.085 0.559,-0.051 0.521,-0.027C0.482,-0.003 0.439,0.009 0.392,0.009C0.351,0.009 0.316,0.001 0.285,-0.016C0.254,-0.033 0.228,-0.054 0.209,-0.079L0.209,0.264L0.069,0.264L0.069,-0.554L0.209,-0.554L0.209,-0.474ZM0.502,-0.279C0.502,-0.312 0.495,-0.341 0.482,-0.366C0.468,-0.39 0.45,-0.408 0.428,-0.421C0.405,-0.434 0.381,-0.44 0.355,-0.44C0.33,-0.44 0.306,-0.434 0.284,-0.421C0.261,-0.408 0.243,-0.389 0.23,-0.364C0.216,-0.339 0.209,-0.31 0.209,-0.277C0.209,-0.244 0.216,-0.215 0.23,-0.19C0.243,-0.165 0.261,-0.147 0.284,-0.134C0.306,-0.121 0.33,-0.114 0.355,-0.114C0.381,-0.114 0.405,-0.121 0.428,-0.134C0.45,-0.147 0.468,-0.166 0.482,-0.191C0.495,-0.216 0.502,-0.245 0.502,-0.279Z" style="fill:rgb(0,60,88);fill-rule:nonzero;"/>
                        </g>
                    </g>
                    <g transform="matrix(0.0851501,0,0,0.0851501,4276.69,1472.81)">
                        <path d="M2423.32,1960.05C2425.01,1949.03 2428.19,1931.44 2428.86,1926.66C2429.53,1921.88 2431.55,1918.12 2432.56,1924.39C2433.57,1930.65 2438.69,1958.58 2440.73,1970.66C2442.77,1982.73 2443.81,2005.54 2464.18,2012.32C2484.54,2019.1 2504.3,2022.3 2514.56,2024.61C2524.82,2026.93 2532.15,2028.56 2527.39,2030.18C2522.64,2031.8 2493.91,2036.61 2485.25,2038.83C2476.6,2041.06 2448.53,2043.41 2443.52,2071.44C2438.51,2099.47 2435.55,2115.83 2434.15,2125.05C2432.76,2134.27 2432.07,2145.48 2429.87,2132.48C2427.66,2119.48 2422.61,2088.51 2418.75,2074.18C2414.89,2059.86 2408.76,2046.83 2395.51,2043.5C2382.25,2040.17 2360.97,2035.19 2349.82,2033.31C2338.67,2031.42 2324.9,2028.79 2338.17,2026.38C2351.44,2023.97 2376.54,2019.87 2391.73,2014.7C2406.92,2009.52 2413.99,2001.45 2416.81,1991.42C2419.62,1981.39 2421.63,1971.07 2423.32,1960.05Z" style="fill:rgb(0,60,88);"/>
                    </g>
                </g>
                <g transform="matrix(1.5046,0,0,1.5046,-1826.86,-857.173)">
                    <g transform="matrix(1.05871,0,0,1.05871,2978.88,-1096.65)">
                        <circle cx="972.929" cy="2618.95" r="102.265" style="fill:rgb(0,60,88);"/>
                    </g>
                    <g id="_-MOON-" serif:id="(MOON)" transform="matrix(0.753789,0,0,0.753789,4220.91,1692.81)">
                        <g transform="matrix(53.525,0,0,53.525,-349.738,0)">
                            <path d="M0,-0.614L0.401,-0.211L0.669,-0.478L0.669,-0L0.801,-0L0.801,-0.8L0.401,-0.4L0,-0.8L0,-0.614Z" style="fill:rgb(151,209,236);fill-rule:nonzero;"/>
                        </g>
                        <g transform="matrix(62.4458,0,0,62.4458,-295.999,0)">
                            <path d="M0.375,0.005C0.324,0.005 0.277,-0.005 0.236,-0.025C0.195,-0.045 0.159,-0.072 0.129,-0.107C0.099,-0.141 0.076,-0.18 0.06,-0.223C0.043,-0.266 0.035,-0.31 0.035,-0.355C0.035,-0.402 0.044,-0.448 0.061,-0.491C0.078,-0.534 0.102,-0.572 0.133,-0.606C0.164,-0.639 0.2,-0.666 0.242,-0.686C0.283,-0.705 0.328,-0.715 0.377,-0.715C0.428,-0.715 0.474,-0.705 0.516,-0.684C0.557,-0.663 0.593,-0.636 0.623,-0.601C0.652,-0.566 0.675,-0.528 0.692,-0.485C0.708,-0.442 0.716,-0.399 0.716,-0.354C0.716,-0.307 0.708,-0.262 0.691,-0.219C0.674,-0.175 0.65,-0.137 0.619,-0.104C0.588,-0.07 0.552,-0.043 0.511,-0.024C0.469,-0.005 0.424,0.005 0.375,0.005ZM0.149,-0.355C0.149,-0.322 0.154,-0.289 0.165,-0.258C0.176,-0.227 0.191,-0.199 0.211,-0.175C0.23,-0.15 0.254,-0.131 0.282,-0.117C0.31,-0.103 0.341,-0.096 0.376,-0.096C0.412,-0.096 0.444,-0.103 0.472,-0.118C0.5,-0.133 0.524,-0.153 0.543,-0.178C0.562,-0.202 0.576,-0.231 0.586,-0.262C0.596,-0.293 0.601,-0.324 0.601,-0.355C0.601,-0.388 0.596,-0.421 0.586,-0.452C0.575,-0.483 0.56,-0.51 0.54,-0.535C0.52,-0.559 0.496,-0.578 0.469,-0.592C0.441,-0.606 0.41,-0.613 0.376,-0.613C0.34,-0.613 0.308,-0.606 0.28,-0.591C0.252,-0.576 0.228,-0.557 0.209,-0.532C0.19,-0.507 0.175,-0.48 0.165,-0.449C0.154,-0.418 0.149,-0.387 0.149,-0.355Z" style="fill:rgb(151,209,236);fill-rule:nonzero;"/>
                        </g>
                        <g transform="matrix(62.4458,0,0,62.4458,-245.917,0)">
                            <path d="M0.375,0.005C0.324,0.005 0.277,-0.005 0.236,-0.025C0.195,-0.045 0.159,-0.072 0.129,-0.107C0.099,-0.141 0.076,-0.18 0.06,-0.223C0.043,-0.266 0.035,-0.31 0.035,-0.355C0.035,-0.402 0.044,-0.448 0.061,-0.491C0.078,-0.534 0.102,-0.572 0.133,-0.606C0.164,-0.639 0.2,-0.666 0.242,-0.686C0.283,-0.705 0.328,-0.715 0.377,-0.715C0.428,-0.715 0.474,-0.705 0.516,-0.684C0.557,-0.663 0.593,-0.636 0.623,-0.601C0.652,-0.566 0.675,-0.528 0.692,-0.485C0.708,-0.442 0.716,-0.399 0.716,-0.354C0.716,-0.307 0.708,-0.262 0.691,-0.219C0.674,-0.175 0.65,-0.137 0.619,-0.104C0.588,-0.07 0.552,-0.043 0.511,-0.024C0.469,-0.005 0.424,0.005 0.375,0.005ZM0.149,-0.355C0.149,-0.322 0.154,-0.289 0.165,-0.258C0.176,-0.227 0.191,-0.199 0.211,-0.175C0.23,-0.15 0.254,-0.131 0.282,-0.117C0.31,-0.103 0.341,-0.096 0.376,-0.096C0.412,-0.096 0.444,-0.103 0.472,-0.118C0.5,-0.133 0.524,-0.153 0.543,-0.178C0.562,-0.202 0.576,-0.231 0.586,-0.262C0.596,-0.293 0.601,-0.324 0.601,-0.355C0.601,-0.388 0.596,-0.421 0.586,-0.452C0.575,-0.483 0.56,-0.51 0.54,-0.535C0.52,-0.559 0.496,-0.578 0.469,-0.592C0.441,-0.606 0.41,-0.613 0.376,-0.613C0.34,-0.613 0.308,-0.606 0.28,-0.591C0.252,-0.576 0.228,-0.557 0.209,-0.532C0.19,-0.507 0.175,-0.48 0.165,-0.449C0.154,-0.418 0.149,-0.387 0.149,-0.355Z" style="fill:rgb(0,60,88);fill-rule:nonzero;"/>
                        </g>
                        <g transform="matrix(62.4458,0,0,62.4458,-195.836,0)">
                            <path d="M0.192,-0.502L0.192,-0L0.08,-0L0.08,-0.71L0.172,-0.71L0.574,-0.197L0.574,-0.709L0.687,-0.709L0.687,-0L0.589,-0L0.192,-0.502Z" style="fill:rgb(151,209,236);fill-rule:nonzero;"/>
                        </g>
                    </g>
                    <g transform="matrix(0.165702,0,0,0.165702,3854.55,1242.14)">
                        <circle cx="972.929" cy="2618.95" r="102.265" style="fill:rgb(151,209,236);"/>
                    </g>
                    <g transform="matrix(0.165702,0,0,0.165702,3892.33,1242.14)">
                        <circle cx="972.929" cy="2618.95" r="102.265" style="fill:rgb(151,209,236);"/>
                    </g>
                    <g transform="matrix(0.664628,0,0,0.664628,2540.19,-55.0493)">
                        <path d="M2273.14,2629.9C2260.9,2628.03 2251.51,2617.45 2251.51,2604.69C2251.51,2590.62 2262.93,2579.2 2277.01,2579.2C2281.79,2579.2 2286.26,2580.51 2290.08,2582.8C2288.82,2582.61 2287.53,2582.51 2286.22,2582.51C2272.15,2582.51 2260.72,2593.94 2260.72,2608.01C2260.72,2617.3 2265.71,2625.44 2273.14,2629.9Z" style="fill:rgb(115,186,219);"/>
                    </g>
                    <g id="_-MOON-1" serif:id="(MOON)" transform="matrix(0.753789,0,0,0.753789,4220.91,1692.81)">
                        <g transform="matrix(62.4458,0,0,62.4458,-195.836,0)">
                            <path d="M0.192,-0.502L0.192,-0L0.08,-0L0.08,-0.71L0.172,-0.71L0.574,-0.197L0.574,-0.709L0.687,-0.709L0.687,-0L0.589,-0L0.192,-0.502Z" style="fill:rgb(151,209,236);fill-rule:nonzero;"/>
                        </g>
                    </g>
                    <g transform="matrix(1.05871,0,0,1.05871,2887.83,-1006.88)">
                        <path d="M1045.64,2635.57C995.464,2629.05 956.662,2586.1 956.662,2534.16C956.662,2477.72 1002.49,2431.9 1058.93,2431.9C1076.24,2431.9 1092.56,2436.21 1106.86,2443.82C1102.51,2443.26 1098.08,2442.96 1093.57,2442.96C1037.13,2442.96 991.308,2488.79 991.308,2545.23C991.308,2584.35 1013.33,2618.38 1045.64,2635.57Z" style="fill:rgb(24,109,149);"/>
                    </g>
                    <g id="craters">
                        <g transform="matrix(-0.350253,0.0370144,-0.0370144,-0.350253,4939.61,2433.31)">
                            <path d="M2273.14,2629.9C2260.9,2628.03 2251.51,2617.45 2251.51,2604.69C2251.51,2590.62 2262.93,2579.2 2277.01,2579.2C2281.79,2579.2 2286.26,2580.51 2290.08,2582.8C2288.82,2582.61 2287.53,2582.51 2286.22,2582.51C2272.15,2582.51 2260.72,2593.94 2260.72,2608.01C2260.72,2617.3 2265.71,2625.44 2273.14,2629.9Z" style="fill:rgb(19,72,97);"/>
                        </g>
                        <g transform="matrix(-0.419807,0.0443648,-0.0443648,-0.419807,5127.42,2612.99)">
                            <path d="M2273.14,2629.9C2260.9,2628.03 2251.51,2617.45 2251.51,2604.69C2251.51,2590.62 2262.93,2579.2 2277.01,2579.2C2281.79,2579.2 2286.26,2580.51 2290.08,2582.8C2288.82,2582.61 2287.53,2582.51 2286.22,2582.51C2272.15,2582.51 2260.72,2593.94 2260.72,2608.01C2260.72,2617.3 2265.71,2625.44 2273.14,2629.9Z" style="fill:rgb(19,72,97);"/>
                        </g>
                        <g transform="matrix(-0.419807,0.0443648,-0.0443648,-0.419807,5164.56,2630.19)">
                            <path d="M2273.14,2629.9C2260.9,2628.03 2251.51,2617.45 2251.51,2604.69C2251.51,2590.62 2262.93,2579.2 2277.01,2579.2C2281.79,2579.2 2286.26,2580.51 2290.08,2582.8C2288.82,2582.61 2287.53,2582.51 2286.22,2582.51C2272.15,2582.51 2260.72,2593.94 2260.72,2608.01C2260.72,2617.3 2265.71,2625.44 2273.14,2629.9Z" style="fill:rgb(19,72,97);"/>
                        </g>
                        <g transform="matrix(-0.419807,0.0443648,-0.0443648,-0.419807,5152.44,2700.79)">
                            <path d="M2273.14,2629.9C2260.9,2628.03 2251.51,2617.45 2251.51,2604.69C2251.51,2590.62 2262.93,2579.2 2277.01,2579.2C2281.79,2579.2 2286.26,2580.51 2290.08,2582.8C2288.82,2582.61 2287.53,2582.51 2286.22,2582.51C2272.15,2582.51 2260.72,2593.94 2260.72,2608.01C2260.72,2617.3 2265.71,2625.44 2273.14,2629.9Z" style="fill:rgb(19,72,97);"/>
                        </g>
                        <g transform="matrix(-0.419807,0.0443648,-0.0443648,-0.419807,5048.5,2707.79)">
                            <path d="M2273.14,2629.9C2260.9,2628.03 2251.51,2617.45 2251.51,2604.69C2251.51,2590.62 2262.93,2579.2 2277.01,2579.2C2281.79,2579.2 2286.26,2580.51 2290.08,2582.8C2288.82,2582.61 2287.53,2582.51 2286.22,2582.51C2272.15,2582.51 2260.72,2593.94 2260.72,2608.01C2260.72,2617.3 2265.71,2625.44 2273.14,2629.9Z" style="fill:rgb(19,72,97);"/>
                        </g>
                        <g transform="matrix(-0.569533,0.0601876,-0.0601876,-0.569533,5509.04,3066.95)">
                            <path d="M2273.14,2629.9C2260.9,2628.03 2251.51,2617.45 2251.51,2604.69C2251.51,2590.62 2262.93,2579.2 2277.01,2579.2C2281.79,2579.2 2286.26,2580.51 2290.08,2582.8C2288.82,2582.61 2287.53,2582.51 2286.22,2582.51C2272.15,2582.51 2260.72,2593.94 2260.72,2608.01C2260.72,2617.3 2265.71,2625.44 2273.14,2629.9Z" style="fill:rgb(19,72,97);"/>
                        </g>
                        <g transform="matrix(-0.263251,0.0278201,-0.0278201,-0.263251,4622.42,2305.15)">
                            <path d="M2273.14,2629.9C2260.9,2628.03 2251.51,2617.45 2251.51,2604.69C2251.51,2590.62 2262.93,2579.2 2277.01,2579.2C2281.79,2579.2 2286.26,2580.51 2290.08,2582.8C2288.82,2582.61 2287.53,2582.51 2286.22,2582.51C2272.15,2582.51 2260.72,2593.94 2260.72,2608.01C2260.72,2617.3 2265.71,2625.44 2273.14,2629.9Z" style="fill:rgb(19,72,97);"/>
                        </g>
                        <g transform="matrix(-0.263251,0.0278201,-0.0278201,-0.263251,4676.82,2386.48)">
                            <path d="M2273.14,2629.9C2260.9,2628.03 2251.51,2617.45 2251.51,2604.69C2251.51,2590.62 2262.93,2579.2 2277.01,2579.2C2281.79,2579.2 2286.26,2580.51 2290.08,2582.8C2288.82,2582.61 2287.53,2582.51 2286.22,2582.51C2272.15,2582.51 2260.72,2593.94 2260.72,2608.01C2260.72,2617.3 2265.71,2625.44 2273.14,2629.9Z" style="fill:rgb(19,72,97);"/>
                        </g>
                        <g transform="matrix(0.407761,-0.109259,0.109259,0.407761,2728.65,801.835)">
                            <path d="M2273.14,2629.9C2260.9,2628.03 2251.51,2617.45 2251.51,2604.69C2251.51,2590.62 2262.93,2579.2 2277.01,2579.2C2281.79,2579.2 2286.26,2580.51 2290.08,2582.8C2288.82,2582.61 2287.53,2582.51 2286.22,2582.51C2272.15,2582.51 2260.72,2593.94 2260.72,2608.01C2260.72,2617.3 2265.71,2625.44 2273.14,2629.9Z" style="fill:rgb(27,102,138);"/>
                        </g>
                        <g transform="matrix(0.407761,-0.109259,0.109259,0.407761,2708.05,887.956)">
                            <path d="M2273.14,2629.9C2260.9,2628.03 2251.51,2617.45 2251.51,2604.69C2251.51,2590.62 2262.93,2579.2 2277.01,2579.2C2281.79,2579.2 2286.26,2580.51 2290.08,2582.8C2288.82,2582.61 2287.53,2582.51 2286.22,2582.51C2272.15,2582.51 2260.72,2593.94 2260.72,2608.01C2260.72,2617.3 2265.71,2625.44 2273.14,2629.9Z" style="fill:rgb(27,102,138);"/>
                        </g>
                        <g transform="matrix(0.274266,-0.12806,0.12806,0.274266,2998.27,1182.18)">
                            <path d="M2273.14,2629.9C2260.9,2628.03 2251.51,2617.45 2251.51,2604.69C2251.51,2590.62 2262.93,2579.2 2277.01,2579.2C2281.79,2579.2 2286.26,2580.51 2290.08,2582.8C2288.82,2582.61 2287.53,2582.51 2286.22,2582.51C2272.15,2582.51 2260.72,2593.94 2260.72,2608.01C2260.72,2617.3 2265.71,2625.44 2273.14,2629.9Z" style="fill:rgb(27,102,138);"/>
                        </g>
                    </g>
                </g>
            </g>
        </g>
    </g>
</svg>
