<?xml version="1.0" encoding="UTF-8" standalone="no"?>
<!DOCTYPE svg PUBLIC "-//W3C//DTD SVG 1.1//EN" "http://www.w3.org/Graphics/SVG/1.1/DTD/svg11.dtd">
<svg width="100%" height="100%" viewBox="0 0 2600 978" version="1.1" xmlns="http://www.w3.org/2000/svg" xmlns:xlink="http://www.w3.org/1999/xlink" xml:space="preserve" xmlns:serif="http://www.serif.com/" style="fill-rule:evenodd;clip-rule:evenodd;stroke-linecap:round;stroke-linejoin:round;stroke-miterlimit:1.5;">
    <g id="Artboard1" transform="matrix(0.767694,0,0,0.657689,-5818.02,1189.56)">
        <rect x="7578.57" y="-1808.7" width="3386.74" height="1485.65" style="fill:none;"/>
        <g transform="matrix(1.3026,0,0,1.52047,7125.49,-4152.9)">
            <g transform="matrix(6.51325,0,0,6.51325,-10998.8,-13719.3)">
                <path d="M1859.12,2401.04L1914.11,2359.21L1925.26,2370.16L1953.04,2348.92L1992.95,2382.28L2009.36,2375.93L2102.33,2410.69L2039.75,2399.95L2023.18,2406.32L2035.85,2391.68L2010.61,2386.92L1988.35,2402.42L1977.39,2390.93L1926.48,2404.51L1965.32,2382.28L1952.98,2370.29L1928.18,2390.09L1909.8,2382.28L1868.78,2405.04L1869.04,2419.24C1867.36,2405.26 1859.12,2401.04 1859.12,2401.04Z" style="fill:rgb(66,66,66);"/>
            </g>
            <g id="Train" transform="matrix(1,0,0,1,-1037.95,537.868)">
                <g transform="matrix(1,0,0,1,1413,1078.41)">
                    <path d="M160.645,714.773C160.645,714.773 321.678,739.359 406.727,753.47C491.775,767.58 633.945,796.103 716.162,810.871C798.38,825.64 1010.02,876.006 1010.02,876.006C1010.02,876.006 680.242,817.557 601.342,803.82C522.442,790.082 160.645,714.773 160.645,714.773Z" style="fill:rgb(66,66,66);"/>
                </g>
                <g transform="matrix(1,0,0,1,1413,1078.41)">
                    <path d="M21.396,636.871C21.396,636.871 93.293,627.064 157.025,583.781C220.758,540.498 254.327,511.729 254.327,511.729C254.327,511.729 271.937,447.837 342.136,432.525C343.077,432.32 312.013,453.229 308.858,468.462C308.565,469.878 276.489,497.426 276.489,497.426L309.724,476.64L313.698,576.555L315.407,469.971C315.407,469.971 324.893,448.503 351.538,435.061C353.32,434.162 342.03,457.234 349.52,477.723C350.024,479.101 349.464,441.876 361.205,432.533C372.945,423.189 380.38,422.125 380.38,422.125L406.08,422.008L410.41,440.319L411.165,415.576C411.165,415.576 413.936,403.411 457.16,402.934C459.578,402.908 414.042,399.093 406.064,408.35C404.949,409.643 392.307,399.961 406.794,394.161C421.282,388.362 468.364,389.84 473.18,400.804C473.383,401.265 561.53,345.86 561.53,345.86L561.381,280.959C561.381,280.959 596.79,267.209 636.556,271.112C639.137,271.365 588.909,251.78 556.757,271.613C555.776,272.218 525.623,261.077 549.398,252.457C573.173,243.836 612.358,239.495 633.815,244.305C634.873,244.542 598.993,231.3 578.271,234.425C557.549,237.551 535.614,248.342 534.471,249.126C533.327,249.91 525.332,247.369 525.332,247.369C525.332,247.369 514.912,275.765 490.947,285.986C466.983,296.206 420.325,300.141 402.218,286.05C400.944,285.058 415,310.947 460.05,305.907C461.981,305.691 447.344,337.154 423.057,353.502C398.771,369.851 352.114,363.949 338.912,358.435C337.163,357.705 358.882,371.755 358.882,371.755C358.882,371.755 343.963,397.319 327.969,403.3C311.975,409.281 296.056,409.131 296.056,409.131C296.056,409.131 276.699,434.866 248.92,448C221.14,461.134 190.557,461.838 193.712,427.733C196.866,393.628 204.194,374.333 204.194,374.333C204.194,374.333 227.759,391.432 244.541,388.426C246.64,388.05 198.826,374.917 195.807,348.868C192.789,322.818 209.295,295.657 209.295,295.657C209.295,295.657 239.481,348.068 278.307,334.996C279.377,334.636 223.827,327.189 214.156,287.687C204.484,248.185 231.174,207.611 262.969,196.497C264.449,195.979 265.224,243.895 299.048,257.838C300.096,258.27 263.657,226.101 269.342,184.321C275.028,142.542 309.027,101.214 353.341,98.419C354.229,98.363 348.754,121.573 353.202,126.602C353.938,127.434 365.041,66.986 419.004,64.474C420.533,64.403 409.446,82.52 416.645,96.844C417.041,97.633 424.845,44.15 457.326,29.537C489.807,14.925 524.826,15.534 549.118,36.201C549.521,36.543 518.761,59.906 521.275,91.731C521.387,93.152 528.461,51.202 563.432,34.474C598.404,17.745 672.734,14.34 699.455,77.226C700.022,78.561 663.409,53.305 625.662,80.548C624.971,81.047 691.177,64.407 716.194,110.333C741.21,156.259 704.702,199.288 694.026,209.257C683.35,219.226 664.48,231.381 664.48,231.381C664.48,231.381 673.323,211.549 673.525,202.758C673.728,193.967 672.844,187.278 672.844,187.278C672.844,187.278 667.836,209.211 661.172,218.288C654.509,227.366 642.859,238.236 642.859,238.236L646.361,245.843C646.361,245.843 661.755,249.323 663.454,255.556C665.153,261.788 663.158,268.363 657.116,270.343C651.073,272.322 645.123,273.39 645.123,273.39L645.001,300.712C645.001,300.712 736.568,288.048 768.914,380.736C796.919,460.989 715.539,512.456 715.539,512.456L777.152,505.492C777.152,505.492 769.218,512.234 767.635,518.048C766.053,523.862 766.027,528.223 766.027,528.223C766.027,528.223 779.966,513.708 789.837,511.06C799.708,508.411 812.456,521.486 814.82,537.886C817.184,554.285 813.964,572.33 813.964,572.33L832.89,571.401L823.821,580.975C823.821,580.975 808.01,578.485 799.013,588.105C790.015,597.725 790.506,611.26 799.093,613.67C799.828,613.877 795.707,595.477 801.876,592.639C808.044,589.8 820.668,589.295 820.668,589.295C820.668,589.295 817.851,604.098 822.439,614.842C827.026,625.587 839.153,630.844 839.153,630.844C839.153,630.844 811.691,599.072 841.317,575.814C867.994,554.871 892.972,586.919 890.12,603.792C887.624,618.549 886.105,623.844 878.776,630.533C871.448,637.222 866.752,638.479 866.752,638.479L866.612,645.687L827.393,646.009L874.357,746.358L850.262,789.882L1159.67,838.883L842.957,801.588L834.691,819.741L562.268,768.472C562.268,768.472 576.46,742.63 575.932,727.436C575.403,712.242 575.294,705.677 575.294,705.677C575.294,705.677 568.805,741.454 561.828,752.24C554.85,763.026 548.777,767.257 540.315,765.17C531.853,763.082 463.056,752.204 463.056,752.204C463.056,752.204 480.63,720.42 480.968,698.202C481.307,675.984 479.502,669.417 479.502,669.417C479.502,669.417 476.825,711.865 468.032,726.342C459.239,740.819 453.539,750.647 447.123,750.597C440.706,750.547 389.008,740.794 389.008,740.794C389.008,740.794 400.622,709.551 399.494,697.693C398.366,685.835 397.681,679.104 397.681,679.104C397.681,679.104 394.205,709.395 388.595,719.941C382.986,730.487 378.64,741.991 374.609,740.823C370.578,739.655 337.807,733.446 337.807,733.446C337.807,733.446 345.372,708.171 344.885,697.381C344.398,686.59 343.442,682.141 343.442,682.141C343.442,682.141 340.283,709.219 334.79,718.665C329.296,728.111 326.726,732.917 321.399,731.112C316.072,729.307 305.406,724.739 305.406,724.739L249.815,715.866L297.556,718.621L294.547,711.769L252.914,708.091C252.914,708.091 255.01,681.759 250.2,673.522C249.761,672.771 250.611,696.036 247.996,704.775C245.382,713.514 243.777,719.222 235.835,717.761C227.894,716.301 228.124,705.767 228.124,705.767L220.253,705.709C220.253,705.709 222.573,692.933 221.337,685.332C220.101,677.731 216.298,671.058 216.298,671.058C216.298,671.058 217.254,689.391 216.511,695.746C215.767,702.101 214.906,715.964 208.433,715.327C201.96,714.69 200.838,706.212 200.838,706.212C200.838,706.212 113.325,691.735 77.648,689.221C41.972,686.707 0,684.146 0,684.146C0,684.146 117.548,683.144 145.852,685.104C174.157,687.063 188.325,689.139 188.325,689.139L187.431,664.97L256.088,644.018C256.088,644.018 166.455,660.474 127.682,662.205C88.908,663.936 21.287,661.766 21.287,661.766C21.287,661.766 79.111,659.827 127.197,652.332C175.282,644.837 187.716,641.662 187.716,641.662L187.627,588.794C187.627,588.794 220.752,566.053 234.992,555.429C249.232,544.805 254.327,536.487 254.327,536.487C254.327,536.487 200.131,576.052 162.805,595.003C125.48,613.953 60.219,642.196 21.396,636.871Z" style="fill:rgb(66,66,66);"/>
                </g>
                <g transform="matrix(1,0,0,1,1413,1078.41)">
                    <path d="M599.877,656.395L595.829,755.43L826.452,807.563L860.823,747.169L820.431,653.441L852.095,753.05L843.7,765.52L799.378,655.82L834.285,773.725L822.807,785.871L775.574,658.248L812.942,786.615L792.412,784.934L751.587,656.545L781.462,783.231L763.175,780.395L726.776,661.222L751.082,778.247L731.767,775.88L700.488,658.764L720.544,772.871L700.489,770.003L675.293,659.978L689.543,768.703L668.192,765.425L650.212,659.559L659.004,763.797L638.952,760.553L624.27,659.557L627.628,756.611L606.469,753.784L599.877,656.395Z" style="fill:white;"/>
                </g>
                <g transform="matrix(1,0,0,1,1413,1078.41)">
                    <path d="M547.568,748.6C547.568,748.6 542.218,733.693 540.118,722.236C538.017,710.779 537.478,699.703 537.478,699.703L533.43,694.127C533.43,694.127 532.185,723.889 535.512,730.502C538.84,737.114 547.568,748.6 547.568,748.6Z" style="fill:white;"/>
                </g>
                <g transform="matrix(1,0,0,1,1413,1078.41)">
                    <path d="M526.779,689.294C526.779,689.294 526.281,662.874 533.202,649.303C540.123,635.732 547.568,629.767 547.568,629.767C547.568,629.767 530.424,633.857 524.259,645.573C518.093,657.289 513.513,685.924 515.363,705.176C517.213,724.427 523.163,737.022 527.535,744.185C531.907,751.349 534.583,753.506 540.385,756.599C546.187,759.693 547.568,757.679 547.568,757.679C547.568,757.679 535.165,758.352 529.748,730.502C524.332,702.652 526.779,689.294 526.779,689.294Z" style="fill:white;"/>
                </g>
                <g transform="matrix(1,0,0,1,1413,1078.41)">
                    <path d="M495.12,721.363L499.941,721.363C499.941,721.363 504.431,740.744 509.662,744.295C510.698,744.998 489.646,741.757 489.646,741.757L495.12,721.363Z" style="fill:white;"/>
                </g>
                <g transform="matrix(1,0,0,1,1413,1078.41)">
                    <path d="M449.802,732.879C449.802,732.879 441.533,718.035 439.284,704.874C437.035,691.712 436.107,681.851 436.107,681.851L430.074,679.571C430.074,679.571 431.475,723.391 449.802,732.879Z" style="fill:white;"/>
                </g>
                <g transform="matrix(1,0,0,1,1413,1078.41)">
                    <path d="M449.802,740.667C449.802,740.667 434.946,729.326 430.074,712.626C425.203,695.925 423.017,679.571 423.017,679.571L413.057,679.571C413.057,679.571 411.2,706.631 421.014,721.363C430.827,736.095 435.984,739.969 449.802,740.667Z" style="fill:white;"/>
                </g>
                <g transform="matrix(1,0,0,1,1413,1078.41)">
                    <path d="M382.975,721.363C382.975,721.363 379.477,703.453 378.047,694.045C376.617,684.638 376.705,679.571 376.705,679.571L372.11,679.571C372.11,679.571 370.144,690.526 372.078,697.964C374.011,705.403 382.975,721.363 382.975,721.363Z" style="fill:white;"/>
                </g>
                <g transform="matrix(1,0,0,1,1413,1078.41)">
                    <path d="M379.904,730.645C379.904,730.645 375.223,725.055 371.227,714.377C367.23,703.699 366.11,678.664 366.22,679.571C366.331,680.478 353.79,679.571 353.79,679.571C353.79,679.571 355.232,694.237 360.002,710.119C364.772,726.001 371.502,728.15 379.904,730.645Z" style="fill:white;"/>
                </g>
                <g transform="matrix(1,0,0,1,1413,1078.41)">
                    <path d="M332.889,713.954C332.889,713.954 330.228,702.925 329.361,694.981C328.495,687.037 328.439,681.868 328.439,681.868L324.024,679.571C324.024,679.571 322.482,687.982 324.336,696.813C326.19,705.644 328.209,711.153 332.889,713.954Z" style="fill:white;"/>
                </g>
                <g transform="matrix(1,0,0,1,1413,1078.41)">
                    <path d="M328.155,724.115C328.155,724.115 326.117,722.429 323.422,710.119C320.727,697.809 319.851,679.571 319.851,679.571L307.271,679.571C307.271,679.571 312.448,718.641 328.155,724.115Z" style="fill:white;"/>
                </g>
                <g transform="matrix(1,0,0,1,1413,1078.41)">
                    <path d="M296.183,663.812L296.158,670.201L440.139,670.546L440.825,656.861L421.462,657.431L420.686,648.949L411.733,658.341L394.382,658.684L475.559,594.2L423.576,626.585C423.576,626.585 423.212,618.062 425.026,609.977C426.84,601.892 427.742,593.628 427.742,593.628C427.742,593.628 416.878,606.212 415.188,616.499C413.498,626.786 413.211,632.675 413.211,632.675L370.861,660.215L366.847,661.653L366.847,611.399C366.847,611.399 355.442,626.322 353.79,637.357C352.138,648.392 353.79,660.655 353.79,660.655L317.713,662.932L317.713,627.834C317.713,627.834 311.558,636.623 309.937,644.167C308.316,651.711 307.271,664.483 307.271,664.483L296.183,663.812Z" style="fill:white;"/>
                </g>
                <g transform="matrix(1,0,0,1,1413,1078.41)">
                    <path d="M562.7,574.98L559.178,644.139L624.402,645.383L613.275,636.591L566.111,637.29L562.7,574.98Z" style="fill:white;stroke:white;stroke-width:2px;"/>
                </g>
                <g transform="matrix(1,0,0,1,1413,1078.41)">
                    <path d="M648.443,645.383L659.578,636.749L818.887,640.533L648.443,645.383Z" style="fill:white;"/>
                </g>
                <g transform="matrix(1,0,0,1,1413,1078.41)">
                    <path d="M804.08,570.691L624.402,566.367C624.402,566.367 614.532,569.693 611.042,574.98C607.552,580.267 605.004,585.063 605.004,585.063C605.004,585.063 589.055,584.628 583.542,593.628C578.029,602.628 579.88,616.728 587,620.749C587.741,621.167 581.208,605.207 587,598.688C592.792,592.169 602.829,593.628 602.829,593.628L604.416,606.259C604.416,606.259 611.53,587.295 619.155,582.344C626.781,577.392 647.687,575.343 656.023,584.785C664.359,594.228 669.542,606.562 669.542,606.562C669.542,606.562 667.914,578.994 661.344,574.98C660.551,574.495 804.08,570.691 804.08,570.691Z" style="fill:white;"/>
                </g>
                <g transform="matrix(1,0,0,1,1413,1078.41)">
                    <path d="M270.822,505.336L267.039,641.066L309.218,603.373L493.615,528.14L307.317,593.628L276.562,620.757L270.822,505.336Z" style="fill:white;"/>
                </g>
                <g transform="matrix(1,0,0,1,1413,1078.41)">
                    <path d="M331.227,512.698L591.79,338.955C591.79,338.955 612.111,319.251 625.342,314.147C638.573,309.042 660.784,303.813 679.197,307.878C697.61,311.942 707.685,321.02 707.685,321.02C707.685,321.02 670.598,311.056 642.755,322.216C614.913,333.377 587.609,366.166 587,399.746C586.391,433.326 589.352,455.225 604.048,471.662C618.743,488.098 629.923,499.251 629.923,499.251C629.923,499.251 612.603,499.952 587,467.547C561.397,435.143 569.743,397.651 571.359,390.047C572.976,382.442 575.243,374.447 575.243,374.447L331.227,512.698Z" style="fill:white;"/>
                </g>
                <g transform="matrix(1,0,0,1,1413,1078.41)">
                    <path d="M402.347,490.666L510.705,427.157L554.356,433.988L513.922,439.377L402.347,490.666Z" style="fill:white;"/>
                </g>
                <g transform="matrix(1,0,0,1,1413,1078.41)">
                    <path d="M493.615,593.562C493.615,593.562 481.111,569.912 486.853,556.462C492.596,543.011 500.296,530.358 514.541,526.008C528.786,521.657 549.011,512.601 557.828,508.905C566.645,505.208 572.304,503.044 582.864,505.336C593.423,507.627 598.864,512.698 598.864,512.698C598.864,512.698 589.52,510.729 579.38,512.698C569.24,514.667 555.774,525.419 554.356,535.977C552.938,546.535 550.495,577.693 550.495,577.693C550.495,577.693 540.513,564.651 541.868,550.656C543.223,536.661 548.909,524.693 548.909,524.693L510.13,537.929C510.13,537.929 496.631,545.861 493.615,558.621C490.598,571.38 493.615,593.562 493.615,593.562Z" style="fill:white;"/>
                </g>
                <g transform="matrix(1,0,0,1,1413,1078.41)">
                    <path d="M609.594,435.234C609.594,435.234 608.235,384.956 624.726,366.444C641.217,347.932 664.411,336.399 685.672,339.823C706.932,343.247 734.442,364.349 734.442,364.349C734.442,364.349 726.525,336.476 693.923,330.875C661.321,325.274 647.614,329.114 631.497,341.787C615.381,354.46 591.905,386.491 609.594,435.234Z" style="fill:white;"/>
                </g>
                <g transform="matrix(1,0,0,1,1413,1078.41)">
                    <path d="M331.227,227.932C331.227,227.932 285.125,164.059 356.513,142.112C358.045,141.641 306.46,167.137 331.227,227.932Z" style="fill:white;"/>
                </g>
                <g transform="matrix(1,0,0,1,1413,1078.41)">
                    <path d="M485.345,165.955C485.345,165.955 452.678,154.295 449.272,127.093C445.866,99.891 451.042,90.353 456.956,83.189C462.87,76.025 473.593,69.743 473.593,69.743C473.593,69.743 450.41,98.247 455.84,120.066C461.271,141.884 466.188,153.412 485.345,165.955Z" style="fill:white;"/>
                </g>
                <g transform="matrix(1,0,0,1,1413,1078.41)">
                    <path d="M536.603,117.849C536.603,117.849 509.688,155.399 530.854,185.019C552.021,214.639 568.206,212.589 579.833,212.586C591.46,212.584 587,210.259 587,210.259C587,210.259 552.877,206.35 541.647,185.019C530.417,163.687 524.707,166.156 536.603,117.849Z" style="fill:white;"/>
                </g>
            </g>
            <g transform="matrix(1.80091,0,0,1.80091,-1649.15,-1915.97)">
                <g transform="matrix(104.167,0,0,104.167,1638.82,2254.62)">
                    <path d="M0.332,-0.334L0.343,-0.334C0.416,-0.332 0.423,-0.298 0.423,-0.23C0.42,-0.087 0.427,-0.047 0.438,-0L0.725,-0L0.725,-0.152C0.692,-0.165 0.692,-0.207 0.692,-0.236L0.692,-0.285C0.692,-0.372 0.664,-0.408 0.58,-0.428L0.58,-0.43C0.68,-0.455 0.708,-0.537 0.708,-0.631C0.708,-0.709 0.684,-0.782 0.614,-0.823C0.556,-0.858 0.473,-0.857 0.407,-0.857L0.036,-0.857L0.036,-0.705C0.068,-0.685 0.065,-0.653 0.065,-0.621L0.065,-0.236C0.065,-0.204 0.068,-0.172 0.036,-0.152L0.036,-0L0.361,-0L0.361,-0.152C0.329,-0.172 0.332,-0.204 0.332,-0.236L0.332,-0.334ZM0.332,-0.68L0.359,-0.68C0.417,-0.68 0.435,-0.65 0.435,-0.595C0.435,-0.535 0.417,-0.505 0.359,-0.505L0.332,-0.505L0.332,-0.68Z" style="fill:rgb(55,94,121);fill-rule:nonzero;"/>
                </g>
                <g transform="matrix(104.167,0,0,104.167,1717.99,2254.62)">
                    <path d="M0.59,-0.404C0.59,-0.484 0.585,-0.56 0.509,-0.606C0.454,-0.638 0.358,-0.643 0.294,-0.643C0.223,-0.643 0.146,-0.637 0.089,-0.592C0.03,-0.546 0.029,-0.472 0.029,-0.404L0.029,-0.24C0.029,-0.157 0.029,-0.08 0.106,-0.029C0.161,0.008 0.253,0.013 0.318,0.013C0.39,0.013 0.474,0.007 0.531,-0.042C0.588,-0.091 0.59,-0.17 0.59,-0.24L0.59,-0.404ZM0.265,-0.402C0.265,-0.437 0.259,-0.496 0.31,-0.496C0.361,-0.496 0.354,-0.436 0.354,-0.402L0.354,-0.22C0.354,-0.186 0.357,-0.134 0.309,-0.134C0.262,-0.134 0.265,-0.186 0.265,-0.22L0.265,-0.402Z" style="fill:rgb(55,94,121);fill-rule:nonzero;"/>
                </g>
                <g transform="matrix(104.167,0,0,104.167,1782.47,2254.62)">
                    <path d="M0.361,-0.393L0.582,-0.393L0.582,-0.565C0.502,-0.626 0.399,-0.643 0.3,-0.643C0.087,-0.643 0.038,-0.562 0.038,-0.428L0.038,-0.218C0.038,-0.142 0.039,0.013 0.306,0.013C0.397,0.013 0.515,-0.006 0.582,-0.073L0.582,-0.268L0.361,-0.268L0.361,-0.235C0.361,-0.203 0.368,-0.134 0.318,-0.134C0.273,-0.134 0.274,-0.184 0.274,-0.216L0.274,-0.417C0.274,-0.449 0.273,-0.496 0.318,-0.496C0.364,-0.496 0.361,-0.443 0.361,-0.413L0.361,-0.393Z" style="fill:rgb(55,94,121);fill-rule:nonzero;"/>
                </g>
                <g transform="matrix(104.167,0,0,104.167,1847.05,2254.62)">
                    <path d="M0.289,-0.857L0.024,-0.857L0.024,-0.716C0.056,-0.693 0.053,-0.667 0.053,-0.633L0.053,-0.22C0.053,-0.186 0.054,-0.164 0.024,-0.141L0.024,-0L0.318,-0L0.318,-0.141C0.286,-0.164 0.289,-0.19 0.289,-0.224L0.289,-0.274L0.291,-0.274L0.427,-0L0.64,-0L0.64,-0.141C0.602,-0.159 0.59,-0.194 0.574,-0.227L0.508,-0.363L0.581,-0.455C0.598,-0.476 0.62,-0.485 0.628,-0.489L0.628,-0.63L0.364,-0.63L0.364,-0.605C0.364,-0.55 0.368,-0.528 0.331,-0.485L0.289,-0.436L0.289,-0.857Z" style="fill:rgb(55,94,121);fill-rule:nonzero;"/>
                </g>
                <g transform="matrix(104.167,0,0,104.167,1915.8,2254.62)">
                    <path d="M0.356,-0.489C0.371,-0.482 0.382,-0.478 0.382,-0.459C0.382,-0.448 0.376,-0.428 0.374,-0.418L0.337,-0.269L0.291,-0.418C0.289,-0.428 0.283,-0.448 0.283,-0.459C0.283,-0.478 0.294,-0.482 0.309,-0.489L0.309,-0.63L0.008,-0.63L0.008,-0.489C0.036,-0.473 0.041,-0.449 0.052,-0.418L0.205,0.016C0.189,0.06 0.157,0.075 0.112,0.075L0.112,0.212C0.148,0.222 0.184,0.226 0.221,0.226C0.386,0.226 0.418,0.113 0.457,-0.021L0.569,-0.4C0.578,-0.431 0.585,-0.47 0.613,-0.489L0.613,-0.63L0.356,-0.63L0.356,-0.489Z" style="fill:rgb(55,94,121);fill-rule:nonzero;"/>
                </g>
                <g transform="matrix(104.167,0,0,104.167,2015.8,2254.62)">
                    <path d="M0.385,-0.857L0.048,-0.857L0.048,-0.705C0.08,-0.685 0.077,-0.653 0.077,-0.621L0.077,-0.236C0.077,-0.204 0.08,-0.172 0.048,-0.152L0.048,-0L0.312,-0L0.312,-0.152C0.28,-0.172 0.283,-0.204 0.283,-0.236L0.283,-0.466L0.285,-0.466L0.407,-0L0.491,-0L0.607,-0.466L0.609,-0.466L0.609,-0.236C0.609,-0.204 0.612,-0.172 0.58,-0.152L0.58,-0L0.893,-0L0.893,-0.152C0.861,-0.172 0.864,-0.204 0.864,-0.236L0.864,-0.621C0.864,-0.653 0.861,-0.685 0.893,-0.705L0.893,-0.857L0.565,-0.857L0.475,-0.506L0.473,-0.506L0.385,-0.857Z" style="fill:rgb(55,94,121);fill-rule:nonzero;"/>
                </g>
                <g transform="matrix(104.167,0,0,104.167,2113.72,2254.62)">
                    <path d="M0.59,-0.404C0.59,-0.484 0.585,-0.56 0.509,-0.606C0.454,-0.638 0.358,-0.643 0.294,-0.643C0.223,-0.643 0.146,-0.637 0.089,-0.592C0.03,-0.546 0.029,-0.472 0.029,-0.404L0.029,-0.24C0.029,-0.157 0.029,-0.08 0.106,-0.029C0.161,0.008 0.253,0.013 0.318,0.013C0.39,0.013 0.474,0.007 0.531,-0.042C0.588,-0.091 0.59,-0.17 0.59,-0.24L0.59,-0.404ZM0.265,-0.402C0.265,-0.437 0.259,-0.496 0.31,-0.496C0.361,-0.496 0.354,-0.436 0.354,-0.402L0.354,-0.22C0.354,-0.186 0.357,-0.134 0.309,-0.134C0.262,-0.134 0.265,-0.186 0.265,-0.22L0.265,-0.402Z" style="fill:rgb(55,94,121);fill-rule:nonzero;"/>
                </g>
                <g transform="matrix(104.167,0,0,104.167,2178.2,2254.62)">
                    <path d="M0.039,-0.231C0.039,-0.177 0.034,-0.109 0.061,-0.061C0.09,-0.008 0.151,0.013 0.209,0.013C0.27,0.013 0.323,-0.004 0.372,-0.041L0.372,-0L0.627,-0L0.627,-0.141C0.595,-0.161 0.598,-0.191 0.598,-0.224L0.598,-0.63L0.333,-0.63L0.333,-0.489C0.365,-0.47 0.363,-0.438 0.362,-0.406L0.362,-0.172C0.35,-0.166 0.339,-0.161 0.324,-0.161C0.27,-0.161 0.275,-0.224 0.275,-0.261L0.275,-0.51C0.275,-0.55 0.272,-0.591 0.262,-0.63L0.011,-0.63L0.011,-0.489C0.041,-0.466 0.039,-0.44 0.039,-0.406L0.039,-0.231Z" style="fill:rgb(55,94,121);fill-rule:nonzero;"/>
                </g>
                <g transform="matrix(104.167,0,0,104.167,2246.95,2254.62)">
                    <path d="M0.287,-0.63L0.032,-0.63L0.032,-0.489C0.062,-0.467 0.061,-0.445 0.061,-0.411L0.061,-0.22C0.061,-0.188 0.063,-0.159 0.032,-0.141L0.032,-0L0.326,-0L0.326,-0.141C0.294,-0.158 0.297,-0.193 0.297,-0.224L0.297,-0.46C0.336,-0.478 0.362,-0.46 0.378,-0.436C0.388,-0.413 0.385,-0.384 0.385,-0.38L0.385,-0.196C0.385,-0.131 0.384,-0.064 0.398,-0L0.649,-0L0.649,-0.141C0.618,-0.158 0.621,-0.193 0.621,-0.224L0.621,-0.46C0.621,-0.514 0.616,-0.56 0.573,-0.601C0.549,-0.625 0.506,-0.641 0.457,-0.643C0.407,-0.645 0.351,-0.634 0.287,-0.591L0.287,-0.63Z" style="fill:rgb(55,94,121);fill-rule:nonzero;"/>
                </g>
                <g transform="matrix(104.167,0,0,104.167,2317.78,2254.62)">
                    <path d="M0.28,-0.82L0.044,-0.753L0.044,-0.63L0.015,-0.63L0.015,-0.486L0.044,-0.486L0.044,-0.192C0.044,-0.137 0.041,-0.078 0.084,-0.035C0.124,0.004 0.188,0.013 0.24,0.009L0.358,-0L0.358,-0.143C0.279,-0.152 0.28,-0.177 0.28,-0.245L0.28,-0.486L0.358,-0.486L0.358,-0.63L0.28,-0.63L0.28,-0.82Z" style="fill:rgb(55,94,121);fill-rule:nonzero;"/>
                </g>
                <g transform="matrix(104.167,0,0,104.167,2357.37,2254.62)">
                    <path d="M0.355,-0.181C0.333,-0.165 0.311,-0.158 0.291,-0.158C0.27,-0.154 0.257,-0.177 0.257,-0.197C0.257,-0.241 0.313,-0.251 0.355,-0.268L0.355,-0.181ZM0.364,-0L0.62,-0L0.62,-0.141C0.588,-0.164 0.591,-0.193 0.591,-0.226L0.591,-0.402C0.592,-0.475 0.591,-0.541 0.525,-0.593C0.472,-0.633 0.391,-0.643 0.328,-0.643C0.23,-0.643 0.128,-0.623 0.047,-0.565L0.047,-0.41L0.268,-0.41L0.268,-0.436C0.268,-0.467 0.276,-0.498 0.314,-0.498C0.347,-0.498 0.355,-0.467 0.355,-0.436L0.355,-0.414L0.203,-0.365C0.097,-0.33 0.021,-0.293 0.021,-0.167C0.021,-0.056 0.09,0.013 0.2,0.013C0.265,0.013 0.314,-0.006 0.364,-0.048L0.364,-0Z" style="fill:rgb(55,94,121);fill-rule:nonzero;"/>
                </g>
                <g transform="matrix(104.167,0,0,104.167,2424.03,2254.62)">
                    <path d="M0.288,-0.63L0.023,-0.63L0.023,-0.489C0.055,-0.47 0.052,-0.438 0.052,-0.406L0.052,-0.22C0.052,-0.188 0.054,-0.16 0.023,-0.141L0.023,-0L0.318,-0L0.318,-0.141C0.285,-0.16 0.288,-0.192 0.288,-0.224L0.288,-0.63ZM0.163,-0.668C0.221,-0.668 0.288,-0.699 0.288,-0.765C0.288,-0.833 0.22,-0.865 0.161,-0.865C0.103,-0.865 0.033,-0.837 0.033,-0.769C0.033,-0.698 0.101,-0.668 0.163,-0.668Z" style="fill:rgb(55,94,121);fill-rule:nonzero;"/>
                </g>
                <g transform="matrix(104.167,0,0,104.167,2459.45,2254.62)">
                    <path d="M0.287,-0.63L0.032,-0.63L0.032,-0.489C0.062,-0.467 0.061,-0.445 0.061,-0.411L0.061,-0.22C0.061,-0.188 0.063,-0.159 0.032,-0.141L0.032,-0L0.326,-0L0.326,-0.141C0.294,-0.158 0.297,-0.193 0.297,-0.224L0.297,-0.46C0.336,-0.478 0.362,-0.46 0.378,-0.436C0.388,-0.413 0.385,-0.384 0.385,-0.38L0.385,-0.196C0.385,-0.131 0.384,-0.064 0.398,-0L0.649,-0L0.649,-0.141C0.618,-0.158 0.621,-0.193 0.621,-0.224L0.621,-0.46C0.621,-0.514 0.616,-0.56 0.573,-0.601C0.549,-0.625 0.506,-0.641 0.457,-0.643C0.407,-0.645 0.351,-0.634 0.287,-0.591L0.287,-0.63Z" style="fill:rgb(55,94,121);fill-rule:nonzero;"/>
                </g>
                <g transform="matrix(104.167,0,0,104.167,1638.82,2379.62)">
                    <path d="M0.332,-0.334L0.343,-0.334C0.416,-0.332 0.423,-0.298 0.423,-0.23C0.42,-0.087 0.427,-0.047 0.438,-0L0.725,-0L0.725,-0.152C0.692,-0.165 0.692,-0.207 0.692,-0.236L0.692,-0.285C0.692,-0.372 0.664,-0.408 0.58,-0.428L0.58,-0.43C0.68,-0.455 0.708,-0.537 0.708,-0.631C0.708,-0.709 0.684,-0.782 0.614,-0.823C0.556,-0.858 0.473,-0.857 0.407,-0.857L0.036,-0.857L0.036,-0.705C0.068,-0.685 0.065,-0.653 0.065,-0.621L0.065,-0.236C0.065,-0.204 0.068,-0.172 0.036,-0.152L0.036,-0L0.361,-0L0.361,-0.152C0.329,-0.172 0.332,-0.204 0.332,-0.236L0.332,-0.334ZM0.332,-0.68L0.359,-0.68C0.417,-0.68 0.435,-0.65 0.435,-0.595C0.435,-0.535 0.417,-0.505 0.359,-0.505L0.332,-0.505L0.332,-0.68Z" style="fill:rgb(55,94,121);fill-rule:nonzero;"/>
                </g>
                <g transform="matrix(104.167,0,0,104.167,1717.99,2379.62)">
                    <path d="M0.355,-0.181C0.333,-0.165 0.311,-0.158 0.291,-0.158C0.27,-0.154 0.257,-0.177 0.257,-0.197C0.257,-0.241 0.313,-0.251 0.355,-0.268L0.355,-0.181ZM0.364,-0L0.62,-0L0.62,-0.141C0.588,-0.164 0.591,-0.193 0.591,-0.226L0.591,-0.402C0.592,-0.475 0.591,-0.541 0.525,-0.593C0.472,-0.633 0.391,-0.643 0.328,-0.643C0.23,-0.643 0.128,-0.623 0.047,-0.565L0.047,-0.41L0.268,-0.41L0.268,-0.436C0.268,-0.467 0.276,-0.498 0.314,-0.498C0.347,-0.498 0.355,-0.467 0.355,-0.436L0.355,-0.414L0.203,-0.365C0.097,-0.33 0.021,-0.293 0.021,-0.167C0.021,-0.056 0.09,0.013 0.2,0.013C0.265,0.013 0.314,-0.006 0.364,-0.048L0.364,-0Z" style="fill:rgb(55,94,121);fill-rule:nonzero;"/>
                </g>
                <g transform="matrix(104.167,0,0,104.167,1784.66,2379.62)">
                    <path d="M0.288,-0.63L0.023,-0.63L0.023,-0.489C0.055,-0.47 0.052,-0.438 0.052,-0.406L0.052,-0.22C0.052,-0.188 0.054,-0.16 0.023,-0.141L0.023,-0L0.318,-0L0.318,-0.141C0.285,-0.16 0.288,-0.192 0.288,-0.224L0.288,-0.63ZM0.163,-0.668C0.221,-0.668 0.288,-0.699 0.288,-0.765C0.288,-0.833 0.22,-0.865 0.161,-0.865C0.103,-0.865 0.033,-0.837 0.033,-0.769C0.033,-0.698 0.101,-0.668 0.163,-0.668Z" style="fill:rgb(55,94,121);fill-rule:nonzero;"/>
                </g>
                <g transform="matrix(104.167,0,0,104.167,1820.07,2379.62)">
                    <path d="M0.288,-0.857L0.023,-0.857L0.023,-0.716C0.055,-0.697 0.052,-0.665 0.052,-0.633L0.052,-0.22C0.052,-0.188 0.054,-0.16 0.023,-0.141L0.023,-0L0.317,-0L0.317,-0.141C0.285,-0.158 0.288,-0.193 0.288,-0.224L0.288,-0.857Z" style="fill:rgb(55,94,121);fill-rule:nonzero;"/>
                </g>
                <g transform="matrix(104.167,0,0,104.167,1855.49,2379.62)">
                    <path d="M0.278,-0.63L0.024,-0.63L0.024,-0.487C0.056,-0.466 0.053,-0.437 0.053,-0.404L0.053,-0.226C0.053,-0.193 0.056,-0.164 0.024,-0.143L0.024,-0L0.323,-0L0.323,-0.141C0.303,-0.151 0.297,-0.156 0.293,-0.177C0.289,-0.197 0.289,-0.225 0.289,-0.245L0.289,-0.306C0.289,-0.38 0.307,-0.426 0.389,-0.426L0.408,-0.426L0.408,-0.641C0.399,-0.643 0.389,-0.644 0.38,-0.644C0.329,-0.644 0.303,-0.623 0.278,-0.58L0.278,-0.63Z" style="fill:rgb(55,94,121);fill-rule:nonzero;"/>
                </g>
                <g transform="matrix(104.167,0,0,104.167,1901.32,2379.62)">
                    <path d="M0.59,-0.404C0.59,-0.484 0.585,-0.56 0.509,-0.606C0.454,-0.638 0.358,-0.643 0.294,-0.643C0.223,-0.643 0.146,-0.637 0.089,-0.592C0.03,-0.546 0.029,-0.472 0.029,-0.404L0.029,-0.24C0.029,-0.157 0.029,-0.08 0.106,-0.029C0.161,0.008 0.253,0.013 0.318,0.013C0.39,0.013 0.474,0.007 0.531,-0.042C0.588,-0.091 0.59,-0.17 0.59,-0.24L0.59,-0.404ZM0.265,-0.402C0.265,-0.437 0.259,-0.496 0.31,-0.496C0.361,-0.496 0.354,-0.436 0.354,-0.402L0.354,-0.22C0.354,-0.186 0.357,-0.134 0.309,-0.134C0.262,-0.134 0.265,-0.186 0.265,-0.22L0.265,-0.402Z" style="fill:rgb(55,94,121);fill-rule:nonzero;"/>
                </g>
                <g transform="matrix(104.167,0,0,104.167,1965.8,2379.62)">
                    <path d="M0.355,-0.181C0.333,-0.165 0.311,-0.158 0.291,-0.158C0.27,-0.154 0.257,-0.177 0.257,-0.197C0.257,-0.241 0.313,-0.251 0.355,-0.268L0.355,-0.181ZM0.364,-0L0.62,-0L0.62,-0.141C0.588,-0.164 0.591,-0.193 0.591,-0.226L0.591,-0.402C0.592,-0.475 0.591,-0.541 0.525,-0.593C0.472,-0.633 0.391,-0.643 0.328,-0.643C0.23,-0.643 0.128,-0.623 0.047,-0.565L0.047,-0.41L0.268,-0.41L0.268,-0.436C0.268,-0.467 0.276,-0.498 0.314,-0.498C0.347,-0.498 0.355,-0.467 0.355,-0.436L0.355,-0.414L0.203,-0.365C0.097,-0.33 0.021,-0.293 0.021,-0.167C0.021,-0.056 0.09,0.013 0.2,0.013C0.265,0.013 0.314,-0.006 0.364,-0.048L0.364,-0Z" style="fill:rgb(55,94,121);fill-rule:nonzero;"/>
                </g>
                <g transform="matrix(104.167,0,0,104.167,2032.47,2379.62)">
                    <path d="M0.354,-0.174C0.342,-0.167 0.325,-0.163 0.312,-0.163C0.264,-0.163 0.264,-0.218 0.264,-0.252L0.264,-0.391C0.264,-0.427 0.264,-0.469 0.311,-0.469C0.326,-0.469 0.342,-0.464 0.354,-0.456L0.354,-0.174ZM0.36,-0L0.618,-0L0.618,-0.141C0.587,-0.163 0.59,-0.191 0.59,-0.21L0.59,-0.857L0.328,-0.857L0.328,-0.716C0.36,-0.695 0.354,-0.664 0.354,-0.631L0.354,-0.597C0.312,-0.629 0.26,-0.643 0.215,-0.643C0.096,-0.643 0.028,-0.585 0.028,-0.447L0.028,-0.21C0.028,-0.073 0.063,0.013 0.204,0.013C0.26,0.013 0.315,-0.002 0.36,-0.036L0.36,-0Z" style="fill:rgb(55,94,121);fill-rule:nonzero;"/>
                </g>
                <g transform="matrix(104.167,0,0,104.167,2134.55,2379.62)">
                    <path d="M0.401,-0.543L0.659,-0.543L0.659,-0.781C0.573,-0.838 0.465,-0.87 0.363,-0.874C0.262,-0.878 0.167,-0.857 0.109,-0.809C0.046,-0.757 0.036,-0.682 0.036,-0.605L0.036,-0.307C0.036,-0.213 0.033,-0.123 0.107,-0.054C0.16,-0.004 0.264,0.02 0.371,0.017C0.479,0.014 0.59,-0.017 0.659,-0.074L0.659,-0.36L0.401,-0.36L0.401,-0.263C0.401,-0.228 0.408,-0.168 0.352,-0.168C0.296,-0.168 0.303,-0.228 0.303,-0.263L0.303,-0.594C0.303,-0.629 0.296,-0.689 0.352,-0.689C0.408,-0.689 0.401,-0.629 0.401,-0.594L0.401,-0.543Z" style="fill:rgb(55,94,121);fill-rule:nonzero;"/>
                </g>
                <g transform="matrix(104.167,0,0,104.167,2207.47,2379.62)">
                    <path d="M0.288,-0.857L0.023,-0.857L0.023,-0.716C0.055,-0.697 0.052,-0.665 0.052,-0.633L0.052,-0.22C0.052,-0.188 0.054,-0.16 0.023,-0.141L0.023,-0L0.317,-0L0.317,-0.141C0.285,-0.158 0.288,-0.193 0.288,-0.224L0.288,-0.857Z" style="fill:rgb(55,94,121);fill-rule:nonzero;"/>
                </g>
                <g transform="matrix(104.167,0,0,104.167,2242.89,2379.62)">
                    <path d="M0.039,-0.231C0.039,-0.177 0.034,-0.109 0.061,-0.061C0.09,-0.008 0.151,0.013 0.209,0.013C0.27,0.013 0.323,-0.004 0.372,-0.041L0.372,-0L0.627,-0L0.627,-0.141C0.595,-0.161 0.598,-0.191 0.598,-0.224L0.598,-0.63L0.333,-0.63L0.333,-0.489C0.365,-0.47 0.363,-0.438 0.362,-0.406L0.362,-0.172C0.35,-0.166 0.339,-0.161 0.324,-0.161C0.27,-0.161 0.275,-0.224 0.275,-0.261L0.275,-0.51C0.275,-0.55 0.272,-0.591 0.262,-0.63L0.011,-0.63L0.011,-0.489C0.041,-0.466 0.039,-0.44 0.039,-0.406L0.039,-0.231Z" style="fill:rgb(55,94,121);fill-rule:nonzero;"/>
                </g>
                <g transform="matrix(104.167,0,0,104.167,2311.64,2379.62)">
                    <path d="M0.281,-0.857L0.015,-0.857L0.015,-0.716C0.047,-0.695 0.045,-0.666 0.045,-0.633L0.045,-0.073C0.129,-0.005 0.245,0.013 0.35,0.013C0.544,0.013 0.606,-0.065 0.606,-0.212L0.606,-0.445C0.606,-0.568 0.546,-0.643 0.409,-0.643C0.363,-0.643 0.32,-0.633 0.281,-0.604L0.281,-0.857ZM0.281,-0.458C0.317,-0.471 0.339,-0.471 0.353,-0.46C0.366,-0.45 0.37,-0.429 0.37,-0.4L0.37,-0.217C0.37,-0.188 0.366,-0.167 0.353,-0.157C0.339,-0.147 0.317,-0.147 0.281,-0.159L0.281,-0.458Z" style="fill:rgb(55,94,121);fill-rule:nonzero;"/>
                </g>
            </g>
        </g>
    </g>
</svg>
