<svg width="555" height="913" viewBox="0 0 555 913" fill="none" xmlns="http://www.w3.org/2000/svg">
<rect width="554.615" height="912.342" rx="31" fill="#252525"/>
<path d="M79.816 447.2H73.864L72.632 450H70.984L76.056 438.8H77.64L82.728 450H81.048L79.816 447.2ZM79.256 445.92L76.84 440.432L74.424 445.92H79.256ZM92.0966 438.128V450H90.6246V448.656C90.2833 449.125 89.8513 449.483 89.3286 449.728C88.806 449.973 88.23 450.096 87.6006 450.096C86.7793 450.096 86.0433 449.915 85.3926 449.552C84.742 449.189 84.23 448.683 83.8566 448.032C83.494 447.371 83.3126 446.613 83.3126 445.76C83.3126 444.907 83.494 444.155 83.8566 443.504C84.23 442.853 84.742 442.347 85.3926 441.984C86.0433 441.621 86.7793 441.44 87.6006 441.44C88.2086 441.44 88.7686 441.557 89.2806 441.792C89.7926 442.016 90.2193 442.352 90.5606 442.8V438.128H92.0966ZM87.7286 448.752C88.262 448.752 88.7473 448.629 89.1846 448.384C89.622 448.128 89.9633 447.776 90.2086 447.328C90.454 446.869 90.5766 446.347 90.5766 445.76C90.5766 445.173 90.454 444.656 90.2086 444.208C89.9633 443.749 89.622 443.397 89.1846 443.152C88.7473 442.907 88.262 442.784 87.7286 442.784C87.1846 442.784 86.694 442.907 86.2566 443.152C85.83 443.397 85.4886 443.749 85.2326 444.208C84.9873 444.656 84.8646 445.173 84.8646 445.76C84.8646 446.347 84.9873 446.869 85.2326 447.328C85.4886 447.776 85.83 448.128 86.2566 448.384C86.694 448.629 87.1846 448.752 87.7286 448.752ZM103.003 438.128V450H101.531V448.656C101.19 449.125 100.758 449.483 100.235 449.728C99.7122 449.973 99.1362 450.096 98.5069 450.096C97.6855 450.096 96.9495 449.915 96.2989 449.552C95.6482 449.189 95.1362 448.683 94.7629 448.032C94.4002 447.371 94.2189 446.613 94.2189 445.76C94.2189 444.907 94.4002 444.155 94.7629 443.504C95.1362 442.853 95.6482 442.347 96.2989 441.984C96.9495 441.621 97.6855 441.44 98.5069 441.44C99.1149 441.44 99.6749 441.557 100.187 441.792C100.699 442.016 101.126 442.352 101.467 442.8V438.128H103.003ZM98.6349 448.752C99.1682 448.752 99.6535 448.629 100.091 448.384C100.528 448.128 100.87 447.776 101.115 447.328C101.36 446.869 101.483 446.347 101.483 445.76C101.483 445.173 101.36 444.656 101.115 444.208C100.87 443.749 100.528 443.397 100.091 443.152C99.6535 442.907 99.1682 442.784 98.6349 442.784C98.0909 442.784 97.6002 442.907 97.1629 443.152C96.7362 443.397 96.3949 443.749 96.1389 444.208C95.8935 444.656 95.7709 445.173 95.7709 445.76C95.7709 446.347 95.8935 446.869 96.1389 447.328C96.3949 447.776 96.7362 448.128 97.1629 448.384C97.6002 448.629 98.0909 448.752 98.6349 448.752ZM117.966 444.192C118.617 444.373 119.129 444.704 119.502 445.184C119.875 445.653 120.062 446.251 120.062 446.976C120.062 447.947 119.694 448.693 118.958 449.216C118.233 449.739 117.171 450 115.774 450H110.43V438.8H115.454C116.734 438.8 117.721 439.056 118.414 439.568C119.118 440.08 119.47 440.789 119.47 441.696C119.47 442.283 119.331 442.789 119.054 443.216C118.787 443.643 118.425 443.968 117.966 444.192ZM112.03 440.096V443.68H115.31C116.131 443.68 116.761 443.531 117.198 443.232C117.646 442.923 117.87 442.475 117.87 441.888C117.87 441.301 117.646 440.859 117.198 440.56C116.761 440.251 116.131 440.096 115.31 440.096H112.03ZM115.71 448.704C116.617 448.704 117.299 448.555 117.758 448.256C118.217 447.957 118.446 447.488 118.446 446.848C118.446 445.6 117.534 444.976 115.71 444.976H112.03V448.704H115.71ZM130.219 441.52V450H128.763V448.72C128.454 449.157 128.043 449.499 127.531 449.744C127.03 449.979 126.481 450.096 125.883 450.096C124.753 450.096 123.862 449.787 123.211 449.168C122.561 448.539 122.235 447.616 122.235 446.4V441.52H123.771V446.224C123.771 447.045 123.969 447.669 124.363 448.096C124.758 448.512 125.323 448.72 126.059 448.72C126.87 448.72 127.51 448.475 127.979 447.984C128.449 447.493 128.683 446.8 128.683 445.904V441.52H130.219ZM137.912 449.504C137.688 449.696 137.41 449.845 137.08 449.952C136.749 450.048 136.408 450.096 136.056 450.096C135.202 450.096 134.541 449.867 134.072 449.408C133.602 448.949 133.368 448.293 133.368 447.44V442.784H131.928V441.52H133.368V439.664H134.904V441.52H137.336V442.784H134.904V447.376C134.904 447.835 135.016 448.187 135.24 448.432C135.474 448.677 135.805 448.8 136.232 448.8C136.701 448.8 137.101 448.667 137.432 448.4L137.912 449.504ZM144.333 449.504C144.109 449.696 143.832 449.845 143.501 449.952C143.171 450.048 142.829 450.096 142.477 450.096C141.624 450.096 140.963 449.867 140.493 449.408C140.024 448.949 139.789 448.293 139.789 447.44V442.784H138.349V441.52H139.789V439.664H141.325V441.52H143.757V442.784H141.325V447.376C141.325 447.835 141.437 448.187 141.661 448.432C141.896 448.677 142.227 448.8 142.653 448.8C143.123 448.8 143.523 448.667 143.853 448.4L144.333 449.504ZM149.541 450.096C148.698 450.096 147.941 449.909 147.269 449.536C146.597 449.163 146.069 448.651 145.685 448C145.312 447.339 145.125 446.592 145.125 445.76C145.125 444.928 145.312 444.187 145.685 443.536C146.069 442.875 146.597 442.363 147.269 442C147.941 441.627 148.698 441.44 149.541 441.44C150.384 441.44 151.136 441.627 151.797 442C152.469 442.363 152.992 442.875 153.365 443.536C153.749 444.187 153.941 444.928 153.941 445.76C153.941 446.592 153.749 447.339 153.365 448C152.992 448.651 152.469 449.163 151.797 449.536C151.136 449.909 150.384 450.096 149.541 450.096ZM149.541 448.752C150.085 448.752 150.57 448.629 150.997 448.384C151.434 448.128 151.776 447.776 152.021 447.328C152.266 446.869 152.389 446.347 152.389 445.76C152.389 445.173 152.266 444.656 152.021 444.208C151.776 443.749 151.434 443.397 150.997 443.152C150.57 442.907 150.085 442.784 149.541 442.784C148.997 442.784 148.506 442.907 148.069 443.152C147.642 443.397 147.301 443.749 147.045 444.208C146.8 444.656 146.677 445.173 146.677 445.76C146.677 446.347 146.8 446.869 147.045 447.328C147.301 447.776 147.642 448.128 148.069 448.384C148.506 448.629 148.997 448.752 149.541 448.752ZM160.593 441.44C161.671 441.44 162.524 441.755 163.153 442.384C163.793 443.003 164.113 443.915 164.113 445.12V450H162.577V445.296C162.577 444.475 162.38 443.856 161.985 443.44C161.591 443.024 161.025 442.816 160.289 442.816C159.457 442.816 158.801 443.061 158.321 443.552C157.841 444.032 157.601 444.725 157.601 445.632V450H156.065V441.52H157.537V442.8C157.847 442.363 158.263 442.027 158.785 441.792C159.319 441.557 159.921 441.44 160.593 441.44Z" fill="#EDEDED"/>
<path d="M48.375 448.125L59.175 448.125L56.5762 450.724C56.3546 450.945 56.25 451.21 56.25 451.5C56.25 452.054 56.7073 452.625 57.375 452.625C57.6737 452.625 57.9341 452.516 58.1513 452.299L62.6276 447.822C62.8121 447.638 63 447.41 63 447C63 446.59 62.8431 446.392 62.6366 446.186L58.1512 441.701C57.9341 441.484 57.6737 441.375 57.375 441.375C56.7067 441.375 56.25 441.947 56.25 442.5C56.25 442.79 56.3546 443.055 56.5762 443.276L59.175 445.875L48.375 445.875C47.754 445.875 47.25 446.379 47.25 447C47.25 447.621 47.754 448.125 48.375 448.125Z" fill="white"/>
<path d="M46.375 297.125L57.175 297.125L54.5762 299.724C54.3546 299.945 54.25 300.21 54.25 300.5C54.25 301.054 54.7073 301.625 55.375 301.625C55.6737 301.625 55.9341 301.516 56.1513 301.299L60.6276 296.822C60.8121 296.638 61 296.41 61 296C61 295.59 60.8431 295.392 60.6366 295.186L56.1512 290.701C55.9341 290.484 55.6737 290.375 55.375 290.375C54.7067 290.375 54.25 290.947 54.25 291.5C54.25 291.79 54.3546 292.055 54.5762 292.276L57.175 294.875L46.375 294.875C45.754 294.875 45.25 295.379 45.25 296C45.25 296.621 45.754 297.125 46.375 297.125Z" fill="white"/>
<path d="M83.064 300L83.048 291.84L79 298.64H78.264L74.216 291.888V300H72.68V288.8H73.992L78.664 296.672L83.272 288.8H84.584L84.6 300H83.064ZM95.4013 295.808C95.4013 295.925 95.3906 296.08 95.3693 296.272H88.4893C88.5853 297.019 88.9106 297.621 89.4653 298.08C90.0306 298.528 90.7293 298.752 91.5613 298.752C92.5746 298.752 93.3906 298.411 94.0093 297.728L94.8573 298.72C94.4733 299.168 93.9933 299.509 93.4173 299.744C92.8519 299.979 92.2173 300.096 91.5133 300.096C90.6173 300.096 89.8226 299.915 89.1293 299.552C88.4359 299.179 87.8973 298.661 87.5133 298C87.1399 297.339 86.9533 296.592 86.9533 295.76C86.9533 294.939 87.1346 294.197 87.4973 293.536C87.8706 292.875 88.3773 292.363 89.0173 292C89.6679 291.627 90.3986 291.44 91.2093 291.44C92.0199 291.44 92.7399 291.627 93.3693 292C94.0093 292.363 94.5053 292.875 94.8573 293.536C95.2199 294.197 95.4013 294.955 95.4013 295.808ZM91.2093 292.736C90.4733 292.736 89.8546 292.96 89.3533 293.408C88.8626 293.856 88.5746 294.443 88.4893 295.168H93.9293C93.8439 294.453 93.5506 293.872 93.0493 293.424C92.5586 292.965 91.9453 292.736 91.2093 292.736ZM102.062 291.44C103.139 291.44 103.993 291.755 104.622 292.384C105.262 293.003 105.582 293.915 105.582 295.12V300H104.046V295.296C104.046 294.475 103.849 293.856 103.454 293.44C103.059 293.024 102.494 292.816 101.758 292.816C100.926 292.816 100.27 293.061 99.7901 293.552C99.3101 294.032 99.0701 294.725 99.0701 295.632V300H97.5341V291.52H99.0061V292.8C99.3155 292.363 99.7315 292.027 100.254 291.792C100.787 291.557 101.39 291.44 102.062 291.44ZM116.329 291.52V300H114.873V298.72C114.563 299.157 114.153 299.499 113.641 299.744C113.139 299.979 112.59 300.096 111.993 300.096C110.862 300.096 109.971 299.787 109.321 299.168C108.67 298.539 108.345 297.616 108.345 296.4V291.52H109.881V296.224C109.881 297.045 110.078 297.669 110.473 298.096C110.867 298.512 111.433 298.72 112.169 298.72C112.979 298.72 113.619 298.475 114.089 297.984C114.558 297.493 114.793 296.8 114.793 295.904V291.52H116.329ZM121.685 300.096C120.992 300.096 120.325 300.005 119.685 299.824C119.045 299.632 118.544 299.392 118.181 299.104L118.821 297.888C119.194 298.155 119.648 298.368 120.181 298.528C120.714 298.688 121.253 298.768 121.797 298.768C123.141 298.768 123.813 298.384 123.813 297.616C123.813 297.36 123.722 297.157 123.541 297.008C123.36 296.859 123.13 296.752 122.853 296.688C122.586 296.613 122.202 296.533 121.701 296.448C121.018 296.341 120.458 296.219 120.021 296.08C119.594 295.941 119.226 295.707 118.917 295.376C118.608 295.045 118.453 294.581 118.453 293.984C118.453 293.216 118.773 292.603 119.413 292.144C120.053 291.675 120.912 291.44 121.989 291.44C122.554 291.44 123.12 291.509 123.685 291.648C124.25 291.787 124.714 291.973 125.077 292.208L124.421 293.424C123.728 292.976 122.912 292.752 121.973 292.752C121.322 292.752 120.826 292.859 120.485 293.072C120.144 293.285 119.973 293.568 119.973 293.92C119.973 294.197 120.069 294.416 120.261 294.576C120.453 294.736 120.688 294.853 120.965 294.928C121.253 295.003 121.653 295.088 122.165 295.184C122.848 295.301 123.397 295.429 123.813 295.568C124.24 295.696 124.602 295.92 124.901 296.24C125.2 296.56 125.349 297.008 125.349 297.584C125.349 298.352 125.018 298.965 124.357 299.424C123.706 299.872 122.816 300.096 121.685 300.096ZM131.021 294.944H135.325V296.272H131.021V294.944ZM151.843 288.8V300H150.243V295.008H143.811V300H142.211V288.8H143.811V293.616H150.243V288.8H151.843ZM158.06 291.44C159.233 291.44 160.129 291.728 160.748 292.304C161.377 292.88 161.692 293.739 161.692 294.88V300H160.236V298.88C159.98 299.275 159.612 299.579 159.132 299.792C158.662 299.995 158.102 300.096 157.452 300.096C156.502 300.096 155.74 299.867 155.164 299.408C154.598 298.949 154.316 298.347 154.316 297.6C154.316 296.853 154.588 296.256 155.132 295.808C155.676 295.349 156.54 295.12 157.724 295.12H160.156V294.816C160.156 294.155 159.964 293.648 159.58 293.296C159.196 292.944 158.63 292.768 157.884 292.768C157.382 292.768 156.892 292.853 156.412 293.024C155.932 293.184 155.526 293.403 155.196 293.68L154.556 292.528C154.993 292.176 155.516 291.909 156.124 291.728C156.732 291.536 157.377 291.44 158.06 291.44ZM157.708 298.912C158.294 298.912 158.801 298.784 159.228 298.528C159.654 298.261 159.964 297.888 160.156 297.408V296.224H157.788C156.486 296.224 155.836 296.661 155.836 297.536C155.836 297.963 156.001 298.299 156.332 298.544C156.662 298.789 157.121 298.912 157.708 298.912ZM175.142 291.44C176.209 291.44 177.051 291.749 177.67 292.368C178.299 292.987 178.614 293.904 178.614 295.12V300H177.078V295.296C177.078 294.475 176.886 293.856 176.502 293.44C176.129 293.024 175.59 292.816 174.886 292.816C174.107 292.816 173.489 293.061 173.03 293.552C172.571 294.032 172.342 294.725 172.342 295.632V300H170.806V295.296C170.806 294.475 170.614 293.856 170.23 293.44C169.857 293.024 169.318 292.816 168.614 292.816C167.835 292.816 167.217 293.061 166.758 293.552C166.299 294.032 166.07 294.725 166.07 295.632V300H164.534V291.52H166.006V292.784C166.315 292.347 166.721 292.016 167.222 291.792C167.723 291.557 168.294 291.44 168.934 291.44C169.595 291.44 170.182 291.573 170.694 291.84C171.206 292.107 171.601 292.496 171.878 293.008C172.198 292.517 172.641 292.133 173.206 291.856C173.782 291.579 174.427 291.44 175.142 291.44ZM185.936 291.44C186.758 291.44 187.494 291.621 188.144 291.984C188.795 292.347 189.302 292.853 189.664 293.504C190.038 294.155 190.224 294.907 190.224 295.76C190.224 296.613 190.038 297.371 189.664 298.032C189.302 298.683 188.795 299.189 188.144 299.552C187.494 299.915 186.758 300.096 185.936 300.096C185.307 300.096 184.731 299.973 184.208 299.728C183.686 299.483 183.254 299.125 182.912 298.656V300H181.44V288.128H182.976V292.8C183.318 292.352 183.744 292.016 184.256 291.792C184.768 291.557 185.328 291.44 185.936 291.44ZM185.808 298.752C186.352 298.752 186.838 298.629 187.264 298.384C187.702 298.128 188.043 297.776 188.288 297.328C188.544 296.869 188.672 296.347 188.672 295.76C188.672 295.173 188.544 294.656 188.288 294.208C188.043 293.749 187.702 293.397 187.264 293.152C186.838 292.907 186.352 292.784 185.808 292.784C185.275 292.784 184.79 292.907 184.352 293.152C183.915 293.397 183.574 293.749 183.328 294.208C183.083 294.656 182.96 295.173 182.96 295.76C182.96 296.347 183.083 296.869 183.328 297.328C183.574 297.776 183.915 298.128 184.352 298.384C184.79 298.629 185.275 298.752 185.808 298.752ZM200.251 291.52V300H198.795V298.72C198.485 299.157 198.075 299.499 197.563 299.744C197.061 299.979 196.512 300.096 195.915 300.096C194.784 300.096 193.893 299.787 193.243 299.168C192.592 298.539 192.267 297.616 192.267 296.4V291.52H193.803V296.224C193.803 297.045 194 297.669 194.395 298.096C194.789 298.512 195.355 298.72 196.091 298.72C196.901 298.72 197.541 298.475 198.011 297.984C198.48 297.493 198.715 296.8 198.715 295.904V291.52H200.251ZM204.647 292.944C204.913 292.453 205.308 292.08 205.831 291.824C206.353 291.568 206.988 291.44 207.735 291.44V292.928C207.649 292.917 207.532 292.912 207.383 292.912C206.551 292.912 205.895 293.163 205.415 293.664C204.945 294.155 204.711 294.859 204.711 295.776V300H203.175V291.52H204.647V292.944ZM217.662 291.52V298.848C217.662 300.331 217.294 301.424 216.558 302.128C215.822 302.843 214.723 303.2 213.262 303.2C212.462 303.2 211.699 303.088 210.974 302.864C210.248 302.651 209.662 302.341 209.214 301.936L209.95 300.752C210.344 301.093 210.83 301.36 211.406 301.552C211.992 301.755 212.595 301.856 213.214 301.856C214.206 301.856 214.936 301.621 215.406 301.152C215.886 300.683 216.126 299.968 216.126 299.008V298.336C215.763 298.773 215.315 299.104 214.782 299.328C214.259 299.541 213.688 299.648 213.07 299.648C212.259 299.648 211.523 299.477 210.862 299.136C210.211 298.784 209.699 298.299 209.326 297.68C208.952 297.051 208.766 296.336 208.766 295.536C208.766 294.736 208.952 294.027 209.326 293.408C209.699 292.779 210.211 292.293 210.862 291.952C211.523 291.611 212.259 291.44 213.07 291.44C213.71 291.44 214.302 291.557 214.846 291.792C215.4 292.027 215.854 292.373 216.206 292.832V291.52H217.662ZM213.246 298.304C213.8 298.304 214.296 298.187 214.734 297.952C215.182 297.717 215.528 297.392 215.774 296.976C216.03 296.549 216.158 296.069 216.158 295.536C216.158 294.715 215.886 294.053 215.342 293.552C214.798 293.04 214.099 292.784 213.246 292.784C212.382 292.784 211.678 293.04 211.134 293.552C210.59 294.053 210.318 294.715 210.318 295.536C210.318 296.069 210.44 296.549 210.686 296.976C210.942 297.392 211.288 297.717 211.726 297.952C212.174 298.187 212.68 298.304 213.246 298.304ZM228.261 295.808C228.261 295.925 228.25 296.08 228.229 296.272H221.349C221.445 297.019 221.77 297.621 222.325 298.08C222.89 298.528 223.589 298.752 224.421 298.752C225.434 298.752 226.25 298.411 226.869 297.728L227.717 298.72C227.333 299.168 226.853 299.509 226.277 299.744C225.711 299.979 225.077 300.096 224.373 300.096C223.477 300.096 222.682 299.915 221.989 299.552C221.295 299.179 220.757 298.661 220.373 298C219.999 297.339 219.813 296.592 219.813 295.76C219.813 294.939 219.994 294.197 220.357 293.536C220.73 292.875 221.237 292.363 221.877 292C222.527 291.627 223.258 291.44 224.069 291.44C224.879 291.44 225.599 291.627 226.229 292C226.869 292.363 227.365 292.875 227.717 293.536C228.079 294.197 228.261 294.955 228.261 295.808ZM224.069 292.736C223.333 292.736 222.714 292.96 222.213 293.408C221.722 293.856 221.434 294.443 221.349 295.168H226.789C226.703 294.453 226.41 293.872 225.909 293.424C225.418 292.965 224.805 292.736 224.069 292.736ZM231.866 292.944C232.132 292.453 232.527 292.08 233.049 291.824C233.572 291.568 234.207 291.44 234.954 291.44V292.928C234.868 292.917 234.751 292.912 234.602 292.912C233.77 292.912 233.114 293.163 232.634 293.664C232.164 294.155 231.93 294.859 231.93 295.776V300H230.394V291.52H231.866V292.944ZM249.669 300.176L248.181 298.688C247.189 299.648 245.941 300.128 244.437 300.128C243.69 300.128 243.018 300.005 242.421 299.76C241.824 299.515 241.354 299.173 241.013 298.736C240.682 298.288 240.517 297.781 240.517 297.216C240.517 296.533 240.725 295.931 241.141 295.408C241.568 294.875 242.266 294.331 243.237 293.776C242.746 293.285 242.4 292.843 242.197 292.448C241.994 292.053 241.893 291.643 241.893 291.216C241.893 290.459 242.165 289.851 242.709 289.392C243.264 288.933 244 288.704 244.917 288.704C245.77 288.704 246.448 288.912 246.949 289.328C247.45 289.744 247.701 290.315 247.701 291.04C247.701 291.605 247.514 292.112 247.141 292.56C246.778 293.008 246.17 293.477 245.317 293.968L248.085 296.72C248.405 296.112 248.634 295.435 248.773 294.688L250.005 295.088C249.813 296.069 249.488 296.923 249.029 297.648L250.533 299.152L249.669 300.176ZM244.917 289.824C244.416 289.824 244.021 289.952 243.733 290.208C243.456 290.453 243.317 290.779 243.317 291.184C243.317 291.472 243.392 291.749 243.541 292.016C243.701 292.283 244.005 292.645 244.453 293.104C245.189 292.688 245.696 292.331 245.973 292.032C246.261 291.733 246.405 291.408 246.405 291.056C246.405 290.683 246.272 290.384 246.005 290.16C245.749 289.936 245.386 289.824 244.917 289.824ZM244.533 298.848C245.642 298.848 246.554 298.496 247.269 297.792L244.085 294.624C243.317 295.051 242.778 295.451 242.469 295.824C242.17 296.187 242.021 296.597 242.021 297.056C242.021 297.589 242.25 298.021 242.709 298.352C243.178 298.683 243.786 298.848 244.533 298.848ZM260.119 293.504C261.217 293.611 262.055 293.952 262.631 294.528C263.207 295.093 263.495 295.819 263.495 296.704C263.495 297.344 263.335 297.925 263.015 298.448C262.695 298.96 262.215 299.371 261.575 299.68C260.945 299.979 260.172 300.128 259.255 300.128C258.455 300.128 257.687 300.011 256.951 299.776C256.215 299.531 255.612 299.195 255.143 298.768L255.879 297.504C256.263 297.867 256.753 298.16 257.351 298.384C257.948 298.597 258.583 298.704 259.255 298.704C260.087 298.704 260.732 298.528 261.191 298.176C261.66 297.824 261.895 297.339 261.895 296.72C261.895 296.101 261.665 295.621 261.207 295.28C260.748 294.939 260.055 294.768 259.127 294.768H258.231V293.648L261.047 290.192H255.655V288.8H263.047V289.888L260.119 293.504ZM270.196 288.8H274.916C276.1 288.8 277.15 289.035 278.068 289.504C278.985 289.973 279.694 290.635 280.196 291.488C280.708 292.331 280.964 293.301 280.964 294.4C280.964 295.499 280.708 296.475 280.196 297.328C279.694 298.171 278.985 298.827 278.068 299.296C277.15 299.765 276.1 300 274.916 300H270.196V288.8ZM274.82 298.608C275.726 298.608 276.521 298.432 277.204 298.08C277.897 297.728 278.43 297.237 278.804 296.608C279.177 295.968 279.364 295.232 279.364 294.4C279.364 293.568 279.177 292.837 278.804 292.208C278.43 291.568 277.897 291.072 277.204 290.72C276.521 290.368 275.726 290.192 274.82 290.192H271.796V298.608H274.82ZM286.822 300.096C285.98 300.096 285.222 299.909 284.55 299.536C283.878 299.163 283.35 298.651 282.966 298C282.593 297.339 282.406 296.592 282.406 295.76C282.406 294.928 282.593 294.187 282.966 293.536C283.35 292.875 283.878 292.363 284.55 292C285.222 291.627 285.98 291.44 286.822 291.44C287.665 291.44 288.417 291.627 289.078 292C289.75 292.363 290.273 292.875 290.646 293.536C291.03 294.187 291.222 294.928 291.222 295.76C291.222 296.592 291.03 297.339 290.646 298C290.273 298.651 289.75 299.163 289.078 299.536C288.417 299.909 287.665 300.096 286.822 300.096ZM286.822 298.752C287.366 298.752 287.852 298.629 288.278 298.384C288.716 298.128 289.057 297.776 289.302 297.328C289.548 296.869 289.67 296.347 289.67 295.76C289.67 295.173 289.548 294.656 289.302 294.208C289.057 293.749 288.716 293.397 288.278 293.152C287.852 292.907 287.366 292.784 286.822 292.784C286.278 292.784 285.788 292.907 285.35 293.152C284.924 293.397 284.582 293.749 284.326 294.208C284.081 294.656 283.958 295.173 283.958 295.76C283.958 296.347 284.081 296.869 284.326 297.328C284.582 297.776 284.924 298.128 285.35 298.384C285.788 298.629 286.278 298.752 286.822 298.752ZM298.115 299.504C297.891 299.696 297.613 299.845 297.283 299.952C296.952 300.048 296.611 300.096 296.259 300.096C295.405 300.096 294.744 299.867 294.275 299.408C293.805 298.949 293.571 298.293 293.571 297.44V292.784H292.131V291.52H293.571V289.664H295.107V291.52H297.539V292.784H295.107V297.376C295.107 297.835 295.219 298.187 295.443 298.432C295.677 298.677 296.008 298.8 296.435 298.8C296.904 298.8 297.304 298.667 297.635 298.4L298.115 299.504Z" fill="#EDEDED"/>
<path d="M46.375 347.125L57.175 347.125L54.5762 349.724C54.3546 349.945 54.25 350.21 54.25 350.5C54.25 351.054 54.7073 351.625 55.375 351.625C55.6737 351.625 55.9341 351.516 56.1513 351.299L60.6276 346.822C60.8121 346.638 61 346.41 61 346C61 345.59 60.8431 345.392 60.6366 345.186L56.1512 340.701C55.9341 340.484 55.6737 340.375 55.375 340.375C54.7067 340.375 54.25 340.947 54.25 341.5C54.25 341.79 54.3546 342.055 54.5762 342.276L57.175 344.875L46.375 344.875C45.754 344.875 45.25 345.379 45.25 346C45.25 346.621 45.754 347.125 46.375 347.125Z" fill="white"/>
<path d="M74.28 340.192V344.096H79.896V345.472H74.28V350H72.68V338.8H80.584V340.192H74.28ZM82.456 341.52H83.992V350H82.456V341.52ZM83.224 339.888C82.9253 339.888 82.6747 339.792 82.472 339.6C82.28 339.408 82.184 339.173 82.184 338.896C82.184 338.619 82.28 338.384 82.472 338.192C82.6747 337.989 82.9253 337.888 83.224 337.888C83.5227 337.888 83.768 337.984 83.96 338.176C84.1627 338.357 84.264 338.587 84.264 338.864C84.264 339.152 84.1627 339.397 83.96 339.6C83.768 339.792 83.5227 339.888 83.224 339.888ZM86.9248 338.128H88.4608V350H86.9248V338.128ZM96.3646 349.504C96.1406 349.696 95.8633 349.845 95.5326 349.952C95.202 350.048 94.8606 350.096 94.5086 350.096C93.6553 350.096 92.994 349.867 92.5246 349.408C92.0553 348.949 91.8206 348.293 91.8206 347.44V342.784H90.3806V341.52H91.8206V339.664H93.3566V341.52H95.7886V342.784H93.3566V347.376C93.3566 347.835 93.4686 348.187 93.6926 348.432C93.9273 348.677 94.258 348.8 94.6846 348.8C95.154 348.8 95.554 348.667 95.8846 348.4L96.3646 349.504ZM105.604 345.808C105.604 345.925 105.594 346.08 105.572 346.272H98.6924C98.7884 347.019 99.1137 347.621 99.6684 348.08C100.234 348.528 100.932 348.752 101.764 348.752C102.778 348.752 103.594 348.411 104.212 347.728L105.06 348.72C104.676 349.168 104.196 349.509 103.62 349.744C103.055 349.979 102.42 350.096 101.716 350.096C100.82 350.096 100.026 349.915 99.3324 349.552C98.639 349.179 98.1004 348.661 97.7164 348C97.343 347.339 97.1564 346.592 97.1564 345.76C97.1564 344.939 97.3377 344.197 97.7004 343.536C98.0737 342.875 98.5804 342.363 99.2204 342C99.871 341.627 100.602 341.44 101.412 341.44C102.223 341.44 102.943 341.627 103.572 342C104.212 342.363 104.708 342.875 105.06 343.536C105.423 344.197 105.604 344.955 105.604 345.808ZM101.412 342.736C100.676 342.736 100.058 342.96 99.5564 343.408C99.0657 343.856 98.7777 344.443 98.6924 345.168H104.132C104.047 344.453 103.754 343.872 103.252 343.424C102.762 342.965 102.148 342.736 101.412 342.736ZM109.209 342.944C109.476 342.453 109.871 342.08 110.393 341.824C110.916 341.568 111.551 341.44 112.297 341.44V342.928C112.212 342.917 112.095 342.912 111.945 342.912C111.113 342.912 110.457 343.163 109.977 343.664C109.508 344.155 109.273 344.859 109.273 345.776V350H107.737V341.52H109.209V342.944ZM116.685 350.096C115.992 350.096 115.325 350.005 114.685 349.824C114.045 349.632 113.544 349.392 113.181 349.104L113.821 347.888C114.194 348.155 114.648 348.368 115.181 348.528C115.714 348.688 116.253 348.768 116.797 348.768C118.141 348.768 118.813 348.384 118.813 347.616C118.813 347.36 118.722 347.157 118.541 347.008C118.36 346.859 118.13 346.752 117.853 346.688C117.586 346.613 117.202 346.533 116.701 346.448C116.018 346.341 115.458 346.219 115.021 346.08C114.594 345.941 114.226 345.707 113.917 345.376C113.608 345.045 113.453 344.581 113.453 343.984C113.453 343.216 113.773 342.603 114.413 342.144C115.053 341.675 115.912 341.44 116.989 341.44C117.554 341.44 118.12 341.509 118.685 341.648C119.25 341.787 119.714 341.973 120.077 342.208L119.421 343.424C118.728 342.976 117.912 342.752 116.973 342.752C116.322 342.752 115.826 342.859 115.485 343.072C115.144 343.285 114.973 343.568 114.973 343.92C114.973 344.197 115.069 344.416 115.261 344.576C115.453 344.736 115.688 344.853 115.965 344.928C116.253 345.003 116.653 345.088 117.165 345.184C117.848 345.301 118.397 345.429 118.813 345.568C119.24 345.696 119.602 345.92 119.901 346.24C120.2 346.56 120.349 347.008 120.349 347.584C120.349 348.352 120.018 348.965 119.357 349.424C118.706 349.872 117.816 350.096 116.685 350.096Z" fill="#EDEDED"/>
<path d="M46.375 397.125L57.175 397.125L54.5762 399.724C54.3546 399.945 54.25 400.21 54.25 400.5C54.25 401.054 54.7073 401.625 55.375 401.625C55.6737 401.625 55.9341 401.516 56.1513 401.299L60.6276 396.822C60.8121 396.638 61 396.41 61 396C61 395.59 60.8431 395.392 60.6366 395.186L56.1512 390.701C55.9341 390.484 55.6737 390.375 55.375 390.375C54.7067 390.375 54.25 390.947 54.25 391.5C54.25 391.79 54.3546 392.055 54.5762 392.276L57.175 394.875L46.375 394.875C45.754 394.875 45.25 395.379 45.25 396C45.25 396.621 45.754 397.125 46.375 397.125Z" fill="white"/>
<path d="M77.688 400.128C76.568 400.128 75.5547 399.883 74.648 399.392C73.752 398.891 73.048 398.208 72.536 397.344C72.024 396.469 71.768 395.488 71.768 394.4C71.768 393.312 72.024 392.336 72.536 391.472C73.048 390.597 73.7573 389.915 74.664 389.424C75.5707 388.923 76.584 388.672 77.704 388.672C78.5787 388.672 79.3787 388.821 80.104 389.12C80.8293 389.408 81.448 389.84 81.96 390.416L80.92 391.424C80.0773 390.539 79.0267 390.096 77.768 390.096C76.936 390.096 76.184 390.283 75.512 390.656C74.84 391.029 74.312 391.547 73.928 392.208C73.5547 392.859 73.368 393.589 73.368 394.4C73.368 395.211 73.5547 395.947 73.928 396.608C74.312 397.259 74.84 397.771 75.512 398.144C76.184 398.517 76.936 398.704 77.768 398.704C79.016 398.704 80.0667 398.256 80.92 397.36L81.96 398.368C81.448 398.944 80.824 399.381 80.088 399.68C79.3627 399.979 78.5627 400.128 77.688 400.128ZM86.9971 391.44C88.1705 391.44 89.0665 391.728 89.6851 392.304C90.3145 392.88 90.6291 393.739 90.6291 394.88V400H89.1731V398.88C88.9171 399.275 88.5491 399.579 88.0691 399.792C87.5998 399.995 87.0398 400.096 86.3891 400.096C85.4398 400.096 84.6771 399.867 84.1011 399.408C83.5358 398.949 83.2531 398.347 83.2531 397.6C83.2531 396.853 83.5251 396.256 84.0691 395.808C84.6131 395.349 85.4771 395.12 86.6611 395.12H89.0931V394.816C89.0931 394.155 88.9011 393.648 88.5171 393.296C88.1331 392.944 87.5678 392.768 86.8211 392.768C86.3198 392.768 85.8291 392.853 85.3491 393.024C84.8691 393.184 84.4638 393.403 84.1331 393.68L83.4931 392.528C83.9305 392.176 84.4531 391.909 85.0611 391.728C85.6691 391.536 86.3145 391.44 86.9971 391.44ZM86.6451 398.912C87.2318 398.912 87.7385 398.784 88.1651 398.528C88.5918 398.261 88.9011 397.888 89.0931 397.408V396.224H86.7251C85.4238 396.224 84.7731 396.661 84.7731 397.536C84.7731 397.963 84.9385 398.299 85.2691 398.544C85.5998 398.789 86.0585 398.912 86.6451 398.912ZM93.4716 388.128H95.0076V400H93.4716V388.128ZM105.604 395.808C105.604 395.925 105.594 396.08 105.572 396.272H98.6924C98.7884 397.019 99.1137 397.621 99.6684 398.08C100.234 398.528 100.932 398.752 101.764 398.752C102.778 398.752 103.594 398.411 104.212 397.728L105.06 398.72C104.676 399.168 104.196 399.509 103.62 399.744C103.055 399.979 102.42 400.096 101.716 400.096C100.82 400.096 100.026 399.915 99.3324 399.552C98.639 399.179 98.1004 398.661 97.7164 398C97.343 397.339 97.1564 396.592 97.1564 395.76C97.1564 394.939 97.3377 394.197 97.7004 393.536C98.0737 392.875 98.5804 392.363 99.2204 392C99.871 391.627 100.602 391.44 101.412 391.44C102.223 391.44 102.943 391.627 103.572 392C104.212 392.363 104.708 392.875 105.06 393.536C105.423 394.197 105.604 394.955 105.604 395.808ZM101.412 392.736C100.676 392.736 100.058 392.96 99.5564 393.408C99.0657 393.856 98.7777 394.443 98.6924 395.168H104.132C104.047 394.453 103.754 393.872 103.252 393.424C102.762 392.965 102.148 392.736 101.412 392.736ZM112.265 391.44C113.343 391.44 114.196 391.755 114.825 392.384C115.465 393.003 115.785 393.915 115.785 395.12V400H114.249V395.296C114.249 394.475 114.052 393.856 113.657 393.44C113.263 393.024 112.697 392.816 111.961 392.816C111.129 392.816 110.473 393.061 109.993 393.552C109.513 394.032 109.273 394.725 109.273 395.632V400H107.737V391.52H109.209V392.8C109.519 392.363 109.935 392.027 110.457 391.792C110.991 391.557 111.593 391.44 112.265 391.44ZM126.675 388.128V400H125.203V398.656C124.861 399.125 124.429 399.483 123.907 399.728C123.384 399.973 122.808 400.096 122.179 400.096C121.357 400.096 120.621 399.915 119.971 399.552C119.32 399.189 118.808 398.683 118.435 398.032C118.072 397.371 117.891 396.613 117.891 395.76C117.891 394.907 118.072 394.155 118.435 393.504C118.808 392.853 119.32 392.347 119.971 391.984C120.621 391.621 121.357 391.44 122.179 391.44C122.787 391.44 123.347 391.557 123.859 391.792C124.371 392.016 124.797 392.352 125.139 392.8V388.128H126.675ZM122.307 398.752C122.84 398.752 123.325 398.629 123.763 398.384C124.2 398.128 124.541 397.776 124.787 397.328C125.032 396.869 125.155 396.347 125.155 395.76C125.155 395.173 125.032 394.656 124.787 394.208C124.541 393.749 124.2 393.397 123.763 393.152C123.325 392.907 122.84 392.784 122.307 392.784C121.763 392.784 121.272 392.907 120.835 393.152C120.408 393.397 120.067 393.749 119.811 394.208C119.565 394.656 119.443 395.173 119.443 395.76C119.443 396.347 119.565 396.869 119.811 397.328C120.067 397.776 120.408 398.128 120.835 398.384C121.272 398.629 121.763 398.752 122.307 398.752ZM132.669 391.44C133.842 391.44 134.738 391.728 135.357 392.304C135.986 392.88 136.301 393.739 136.301 394.88V400H134.845V398.88C134.589 399.275 134.221 399.579 133.741 399.792C133.272 399.995 132.712 400.096 132.061 400.096C131.112 400.096 130.349 399.867 129.773 399.408C129.208 398.949 128.925 398.347 128.925 397.6C128.925 396.853 129.197 396.256 129.741 395.808C130.285 395.349 131.149 395.12 132.333 395.12H134.765V394.816C134.765 394.155 134.573 393.648 134.189 393.296C133.805 392.944 133.24 392.768 132.493 392.768C131.992 392.768 131.501 392.853 131.021 393.024C130.541 393.184 130.136 393.403 129.805 393.68L129.165 392.528C129.602 392.176 130.125 391.909 130.733 391.728C131.341 391.536 131.986 391.44 132.669 391.44ZM132.317 398.912C132.904 398.912 133.41 398.784 133.837 398.528C134.264 398.261 134.573 397.888 134.765 397.408V396.224H132.397C131.096 396.224 130.445 396.661 130.445 397.536C130.445 397.963 130.61 398.299 130.941 398.544C131.272 398.789 131.73 398.912 132.317 398.912ZM140.616 392.944C140.882 392.453 141.277 392.08 141.799 391.824C142.322 391.568 142.957 391.44 143.704 391.44V392.928C143.618 392.917 143.501 392.912 143.352 392.912C142.52 392.912 141.864 393.163 141.384 393.664C140.914 394.155 140.68 394.859 140.68 395.776V400H139.144V391.52H140.616V392.944ZM157.715 400L155.299 396.56C155 396.581 154.766 396.592 154.595 396.592H151.827V400H150.227V388.8H154.595C156.046 388.8 157.187 389.147 158.019 389.84C158.851 390.533 159.267 391.488 159.267 392.704C159.267 393.568 159.054 394.304 158.627 394.912C158.2 395.52 157.592 395.963 156.803 396.24L159.459 400H157.715ZM154.547 395.232C155.56 395.232 156.334 395.013 156.867 394.576C157.4 394.139 157.667 393.515 157.667 392.704C157.667 391.893 157.4 391.275 156.867 390.848C156.334 390.411 155.56 390.192 154.547 390.192H151.827V395.232H154.547ZM164.638 391.44C165.811 391.44 166.707 391.728 167.326 392.304C167.955 392.88 168.27 393.739 168.27 394.88V400H166.814V398.88C166.558 399.275 166.19 399.579 165.71 399.792C165.24 399.995 164.68 400.096 164.03 400.096C163.08 400.096 162.318 399.867 161.742 399.408C161.176 398.949 160.894 398.347 160.894 397.6C160.894 396.853 161.166 396.256 161.71 395.808C162.254 395.349 163.118 395.12 164.302 395.12H166.734V394.816C166.734 394.155 166.542 393.648 166.158 393.296C165.774 392.944 165.208 392.768 164.462 392.768C163.96 392.768 163.47 392.853 162.99 393.024C162.51 393.184 162.104 393.403 161.774 393.68L161.134 392.528C161.571 392.176 162.094 391.909 162.702 391.728C163.31 391.536 163.955 391.44 164.638 391.44ZM164.286 398.912C164.872 398.912 165.379 398.784 165.806 398.528C166.232 398.261 166.542 397.888 166.734 397.408V396.224H164.366C163.064 396.224 162.414 396.661 162.414 397.536C162.414 397.963 162.579 398.299 162.91 398.544C163.24 398.789 163.699 398.912 164.286 398.912ZM175.64 391.44C176.718 391.44 177.571 391.755 178.2 392.384C178.84 393.003 179.16 393.915 179.16 395.12V400H177.624V395.296C177.624 394.475 177.427 393.856 177.032 393.44C176.638 393.024 176.072 392.816 175.336 392.816C174.504 392.816 173.848 393.061 173.368 393.552C172.888 394.032 172.648 394.725 172.648 395.632V400H171.112V391.52H172.584V392.8C172.894 392.363 173.31 392.027 173.832 391.792C174.366 391.557 174.968 391.44 175.64 391.44ZM190.162 391.52V398.848C190.162 400.331 189.794 401.424 189.058 402.128C188.322 402.843 187.223 403.2 185.762 403.2C184.962 403.2 184.199 403.088 183.474 402.864C182.748 402.651 182.162 402.341 181.714 401.936L182.45 400.752C182.844 401.093 183.33 401.36 183.906 401.552C184.492 401.755 185.095 401.856 185.714 401.856C186.706 401.856 187.436 401.621 187.906 401.152C188.386 400.683 188.626 399.968 188.626 399.008V398.336C188.263 398.773 187.815 399.104 187.282 399.328C186.759 399.541 186.188 399.648 185.57 399.648C184.759 399.648 184.023 399.477 183.362 399.136C182.711 398.784 182.199 398.299 181.826 397.68C181.452 397.051 181.266 396.336 181.266 395.536C181.266 394.736 181.452 394.027 181.826 393.408C182.199 392.779 182.711 392.293 183.362 391.952C184.023 391.611 184.759 391.44 185.57 391.44C186.21 391.44 186.802 391.557 187.346 391.792C187.9 392.027 188.354 392.373 188.706 392.832V391.52H190.162ZM185.746 398.304C186.3 398.304 186.796 398.187 187.234 397.952C187.682 397.717 188.028 397.392 188.274 396.976C188.53 396.549 188.658 396.069 188.658 395.536C188.658 394.715 188.386 394.053 187.842 393.552C187.298 393.04 186.599 392.784 185.746 392.784C184.882 392.784 184.178 393.04 183.634 393.552C183.09 394.053 182.818 394.715 182.818 395.536C182.818 396.069 182.94 396.549 183.186 396.976C183.442 397.392 183.788 397.717 184.226 397.952C184.674 398.187 185.18 398.304 185.746 398.304ZM200.761 395.808C200.761 395.925 200.75 396.08 200.729 396.272H193.849C193.945 397.019 194.27 397.621 194.825 398.08C195.39 398.528 196.089 398.752 196.921 398.752C197.934 398.752 198.75 398.411 199.369 397.728L200.217 398.72C199.833 399.168 199.353 399.509 198.777 399.744C198.211 399.979 197.577 400.096 196.873 400.096C195.977 400.096 195.182 399.915 194.489 399.552C193.795 399.179 193.257 398.661 192.873 398C192.499 397.339 192.313 396.592 192.313 395.76C192.313 394.939 192.494 394.197 192.857 393.536C193.23 392.875 193.737 392.363 194.377 392C195.027 391.627 195.758 391.44 196.569 391.44C197.379 391.44 198.099 391.627 198.729 392C199.369 392.363 199.865 392.875 200.217 393.536C200.579 394.197 200.761 394.955 200.761 395.808ZM196.569 392.736C195.833 392.736 195.214 392.96 194.713 393.408C194.222 393.856 193.934 394.443 193.849 395.168H199.289C199.203 394.453 198.91 393.872 198.409 393.424C197.918 392.965 197.305 392.736 196.569 392.736Z" fill="#EDEDED"/>
<line x1="41" y1="247.5" x2="502" y2="247.5" stroke="white"/>
<path d="M51.14 191.75L48.32 194.69V200H43.49V179H48.32V188.81L57.62 179H63.02L54.32 188.36L63.53 200H57.86L51.14 191.75ZM80.5032 191.99C80.5032 192.05 80.4732 192.47 80.4132 193.25H68.2032C68.4232 194.25 68.9432 195.04 69.7632 195.62C70.5832 196.2 71.6032 196.49 72.8232 196.49C73.6632 196.49 74.4032 196.37 75.0432 196.13C75.7032 195.87 76.3132 195.47 76.8732 194.93L79.3632 197.63C77.8432 199.37 75.6232 200.24 72.7032 200.24C70.8832 200.24 69.2732 199.89 67.8732 199.19C66.4732 198.47 65.3932 197.48 64.6332 196.22C63.8732 194.96 63.4932 193.53 63.4932 191.93C63.4932 190.35 63.8632 188.93 64.6032 187.67C65.3632 186.39 66.3932 185.4 67.6932 184.7C69.0132 183.98 70.4832 183.62 72.1032 183.62C73.6832 183.62 75.1132 183.96 76.3932 184.64C77.6732 185.32 78.6732 186.3 79.3932 187.58C80.1332 188.84 80.5032 190.31 80.5032 191.99ZM72.1332 187.16C71.0732 187.16 70.1832 187.46 69.4632 188.06C68.7432 188.66 68.3032 189.48 68.1432 190.52H76.0932C75.9332 189.5 75.4932 188.69 74.7732 188.09C74.0532 187.47 73.1732 187.16 72.1332 187.16ZM99.346 183.86L92.056 200.99C91.316 202.85 90.396 204.16 89.296 204.92C88.216 205.68 86.906 206.06 85.366 206.06C84.526 206.06 83.696 205.93 82.876 205.67C82.056 205.41 81.386 205.05 80.866 204.59L82.576 201.26C82.936 201.58 83.346 201.83 83.806 202.01C84.286 202.19 84.756 202.28 85.216 202.28C85.856 202.28 86.376 202.12 86.776 201.8C87.176 201.5 87.536 200.99 87.856 200.27L87.916 200.12L80.926 183.86H85.756L90.286 194.81L94.846 183.86H99.346ZM114.942 182.9V188.45H124.662V192.35H114.942V200H110.082V179H125.952V182.9H114.942ZM144.312 191.99C144.312 192.05 144.282 192.47 144.222 193.25H132.012C132.232 194.25 132.752 195.04 133.572 195.62C134.392 196.2 135.412 196.49 136.632 196.49C137.472 196.49 138.212 196.37 138.852 196.13C139.512 195.87 140.122 195.47 140.682 194.93L143.172 197.63C141.652 199.37 139.432 200.24 136.512 200.24C134.692 200.24 133.082 199.89 131.682 199.19C130.282 198.47 129.202 197.48 128.442 196.22C127.682 194.96 127.302 193.53 127.302 191.93C127.302 190.35 127.672 188.93 128.412 187.67C129.172 186.39 130.202 185.4 131.502 184.7C132.822 183.98 134.292 183.62 135.912 183.62C137.492 183.62 138.922 183.96 140.202 184.64C141.482 185.32 142.482 186.3 143.202 187.58C143.942 188.84 144.312 190.31 144.312 191.99ZM135.942 187.16C134.882 187.16 133.992 187.46 133.272 188.06C132.552 188.66 132.112 189.48 131.952 190.52H139.902C139.742 189.5 139.302 188.69 138.582 188.09C137.862 187.47 136.982 187.16 135.942 187.16ZM153.498 183.62C155.998 183.62 157.918 184.22 159.258 185.42C160.598 186.6 161.268 188.39 161.268 190.79V200H156.888V197.99C156.008 199.49 154.368 200.24 151.968 200.24C150.728 200.24 149.648 200.03 148.728 199.61C147.828 199.19 147.138 198.61 146.658 197.87C146.178 197.13 145.938 196.29 145.938 195.35C145.938 193.85 146.498 192.67 147.618 191.81C148.758 190.95 150.508 190.52 152.868 190.52H156.588C156.588 189.5 156.278 188.72 155.658 188.18C155.038 187.62 154.108 187.34 152.868 187.34C152.008 187.34 151.158 187.48 150.318 187.76C149.498 188.02 148.798 188.38 148.218 188.84L146.538 185.57C147.418 184.95 148.468 184.47 149.688 184.13C150.928 183.79 152.198 183.62 153.498 183.62ZM153.138 197.09C153.938 197.09 154.648 196.91 155.268 196.55C155.888 196.17 156.328 195.62 156.588 194.9V193.25H153.378C151.458 193.25 150.498 193.88 150.498 195.14C150.498 195.74 150.728 196.22 151.188 196.58C151.668 196.92 152.318 197.09 153.138 197.09ZM175.914 199.22C175.454 199.56 174.884 199.82 174.204 200C173.544 200.16 172.844 200.24 172.104 200.24C170.184 200.24 168.694 199.75 167.634 198.77C166.594 197.79 166.074 196.35 166.074 194.45V187.82H163.584V184.22H166.074V180.29H170.754V184.22H174.774V187.82H170.754V194.39C170.754 195.07 170.924 195.6 171.264 195.98C171.624 196.34 172.124 196.52 172.764 196.52C173.504 196.52 174.134 196.32 174.654 195.92L175.914 199.22ZM194.801 183.86V200H190.361V198.08C189.741 198.78 189.001 199.32 188.141 199.7C187.281 200.06 186.351 200.24 185.351 200.24C183.231 200.24 181.551 199.63 180.311 198.41C179.071 197.19 178.451 195.38 178.451 192.98V183.86H183.131V192.29C183.131 194.89 184.221 196.19 186.401 196.19C187.521 196.19 188.421 195.83 189.101 195.11C189.781 194.37 190.121 193.28 190.121 191.84V183.86H194.801ZM203.607 185.99C204.167 185.21 204.917 184.62 205.857 184.22C206.817 183.82 207.917 183.62 209.157 183.62V187.94C208.637 187.9 208.287 187.88 208.107 187.88C206.767 187.88 205.717 188.26 204.957 189.02C204.197 189.76 203.817 190.88 203.817 192.38V200H199.137V183.86H203.607V185.99ZM227.603 191.99C227.603 192.05 227.573 192.47 227.513 193.25H215.303C215.523 194.25 216.043 195.04 216.863 195.62C217.683 196.2 218.703 196.49 219.923 196.49C220.763 196.49 221.503 196.37 222.143 196.13C222.803 195.87 223.413 195.47 223.973 194.93L226.463 197.63C224.943 199.37 222.723 200.24 219.803 200.24C217.983 200.24 216.373 199.89 214.973 199.19C213.573 198.47 212.493 197.48 211.733 196.22C210.973 194.96 210.593 193.53 210.593 191.93C210.593 190.35 210.963 188.93 211.703 187.67C212.463 186.39 213.493 185.4 214.793 184.7C216.113 183.98 217.583 183.62 219.203 183.62C220.783 183.62 222.213 183.96 223.493 184.64C224.773 185.32 225.773 186.3 226.493 187.58C227.233 188.84 227.603 190.31 227.603 191.99ZM219.233 187.16C218.173 187.16 217.283 187.46 216.563 188.06C215.843 188.66 215.403 189.48 215.243 190.52H223.193C223.033 189.5 222.593 188.69 221.873 188.09C221.153 187.47 220.273 187.16 219.233 187.16ZM236.149 200.24C234.809 200.24 233.499 200.08 232.219 199.76C230.939 199.42 229.919 199 229.159 198.5L230.719 195.14C231.439 195.6 232.309 195.98 233.329 196.28C234.349 196.56 235.349 196.7 236.329 196.7C238.309 196.7 239.299 196.21 239.299 195.23C239.299 194.77 239.029 194.44 238.489 194.24C237.949 194.04 237.119 193.87 235.999 193.73C234.679 193.53 233.589 193.3 232.729 193.04C231.869 192.78 231.119 192.32 230.479 191.66C229.859 191 229.549 190.06 229.549 188.84C229.549 187.82 229.839 186.92 230.419 186.14C231.019 185.34 231.879 184.72 232.999 184.28C234.139 183.84 235.479 183.62 237.019 183.62C238.159 183.62 239.289 183.75 240.409 184.01C241.549 184.25 242.489 184.59 243.229 185.03L241.669 188.36C240.249 187.56 238.699 187.16 237.019 187.16C236.019 187.16 235.269 187.3 234.769 187.58C234.269 187.86 234.019 188.22 234.019 188.66C234.019 189.16 234.289 189.51 234.829 189.71C235.369 189.91 236.229 190.1 237.409 190.28C238.729 190.5 239.809 190.74 240.649 191C241.489 191.24 242.219 191.69 242.839 192.35C243.459 193.01 243.769 193.93 243.769 195.11C243.769 196.11 243.469 197 242.869 197.78C242.269 198.56 241.389 199.17 240.229 199.61C239.089 200.03 237.729 200.24 236.149 200.24ZM265.562 199.22C265.102 199.56 264.532 199.82 263.852 200C263.192 200.16 262.492 200.24 261.752 200.24C259.832 200.24 258.342 199.75 257.282 198.77C256.242 197.79 255.722 196.35 255.722 194.45V187.82H253.232V184.22H255.722V180.29H260.402V184.22H264.422V187.82H260.402V194.39C260.402 195.07 260.572 195.6 260.912 195.98C261.272 196.34 261.772 196.52 262.412 196.52C263.152 196.52 263.782 196.32 264.302 195.92L265.562 199.22ZM275.371 200.24C273.671 200.24 272.141 199.89 270.781 199.19C269.441 198.47 268.391 197.48 267.631 196.22C266.871 194.96 266.491 193.53 266.491 191.93C266.491 190.33 266.871 188.9 267.631 187.64C268.391 186.38 269.441 185.4 270.781 184.7C272.141 183.98 273.671 183.62 275.371 183.62C277.071 183.62 278.591 183.98 279.931 184.7C281.271 185.4 282.321 186.38 283.081 187.64C283.841 188.9 284.221 190.33 284.221 191.93C284.221 193.53 283.841 194.96 283.081 196.22C282.321 197.48 281.271 198.47 279.931 199.19C278.591 199.89 277.071 200.24 275.371 200.24ZM275.371 196.4C276.571 196.4 277.551 196 278.311 195.2C279.091 194.38 279.481 193.29 279.481 191.93C279.481 190.57 279.091 189.49 278.311 188.69C277.551 187.87 276.571 187.46 275.371 187.46C274.171 187.46 273.181 187.87 272.401 188.69C271.621 189.49 271.231 190.57 271.231 191.93C271.231 193.29 271.621 194.38 272.401 195.2C273.181 196 274.171 196.4 275.371 196.4ZM306.226 200.36C304.086 200.36 302.146 199.9 300.406 198.98C298.686 198.04 297.326 196.75 296.326 195.11C295.346 193.45 294.856 191.58 294.856 189.5C294.856 187.42 295.346 185.56 296.326 183.92C297.326 182.26 298.686 180.97 300.406 180.05C302.146 179.11 304.096 178.64 306.256 178.64C308.076 178.64 309.716 178.96 311.176 179.6C312.656 180.24 313.896 181.16 314.896 182.36L311.776 185.24C310.356 183.6 308.596 182.78 306.496 182.78C305.196 182.78 304.036 183.07 303.016 183.65C301.996 184.21 301.196 185 300.616 186.02C300.056 187.04 299.776 188.2 299.776 189.5C299.776 190.8 300.056 191.96 300.616 192.98C301.196 194 301.996 194.8 303.016 195.38C304.036 195.94 305.196 196.22 306.496 196.22C308.596 196.22 310.356 195.39 311.776 193.73L314.896 196.61C313.896 197.83 312.656 198.76 311.176 199.4C309.696 200.04 308.046 200.36 306.226 200.36ZM327.658 183.62C329.658 183.62 331.268 184.22 332.488 185.42C333.728 186.62 334.348 188.4 334.348 190.76V200H329.668V191.48C329.668 190.2 329.388 189.25 328.828 188.63C328.268 187.99 327.458 187.67 326.398 187.67C325.218 187.67 324.278 188.04 323.578 188.78C322.878 189.5 322.528 190.58 322.528 192.02V200H317.848V177.74H322.528V185.54C323.148 184.92 323.898 184.45 324.778 184.13C325.658 183.79 326.618 183.62 327.658 183.62ZM354.575 191.99C354.575 192.05 354.545 192.47 354.485 193.25H342.275C342.495 194.25 343.015 195.04 343.835 195.62C344.655 196.2 345.675 196.49 346.895 196.49C347.735 196.49 348.475 196.37 349.115 196.13C349.775 195.87 350.385 195.47 350.945 194.93L353.435 197.63C351.915 199.37 349.695 200.24 346.775 200.24C344.955 200.24 343.345 199.89 341.945 199.19C340.545 198.47 339.465 197.48 338.705 196.22C337.945 194.96 337.565 193.53 337.565 191.93C337.565 190.35 337.935 188.93 338.675 187.67C339.435 186.39 340.465 185.4 341.765 184.7C343.085 183.98 344.555 183.62 346.175 183.62C347.755 183.62 349.185 183.96 350.465 184.64C351.745 185.32 352.745 186.3 353.465 187.58C354.205 188.84 354.575 190.31 354.575 191.99ZM346.205 187.16C345.145 187.16 344.255 187.46 343.535 188.06C342.815 188.66 342.375 189.48 342.215 190.52H350.165C350.005 189.5 349.565 188.69 348.845 188.09C348.125 187.47 347.245 187.16 346.205 187.16ZM365.491 200.24C363.771 200.24 362.221 199.89 360.841 199.19C359.481 198.47 358.411 197.48 357.631 196.22C356.871 194.96 356.491 193.53 356.491 191.93C356.491 190.33 356.871 188.9 357.631 187.64C358.411 186.38 359.481 185.4 360.841 184.7C362.221 183.98 363.771 183.62 365.491 183.62C367.191 183.62 368.671 183.98 369.931 184.7C371.211 185.4 372.141 186.41 372.721 187.73L369.091 189.68C368.251 188.2 367.041 187.46 365.461 187.46C364.241 187.46 363.231 187.86 362.431 188.66C361.631 189.46 361.231 190.55 361.231 191.93C361.231 193.31 361.631 194.4 362.431 195.2C363.231 196 364.241 196.4 365.461 196.4C367.061 196.4 368.271 195.66 369.091 194.18L372.721 196.16C372.141 197.44 371.211 198.44 369.931 199.16C368.671 199.88 367.191 200.24 365.491 200.24ZM382.229 193.67L379.979 195.89V200H375.299V177.74H379.979V190.34L386.819 183.86H392.399L385.679 190.7L392.999 200H387.329L382.229 193.67ZM414.099 200.36C411.919 200.36 409.949 199.89 408.189 198.95C406.449 198.01 405.079 196.72 404.079 195.08C403.099 193.42 402.609 191.56 402.609 189.5C402.609 187.44 403.099 185.59 404.079 183.95C405.079 182.29 406.449 180.99 408.189 180.05C409.949 179.11 411.919 178.64 414.099 178.64C416.279 178.64 418.239 179.11 419.979 180.05C421.719 180.99 423.089 182.29 424.089 183.95C425.089 185.59 425.589 187.44 425.589 189.5C425.589 191.56 425.089 193.42 424.089 195.08C423.089 196.72 421.719 198.01 419.979 198.95C418.239 199.89 416.279 200.36 414.099 200.36ZM414.099 196.22C415.339 196.22 416.459 195.94 417.459 195.38C418.459 194.8 419.239 194 419.799 192.98C420.379 191.96 420.669 190.8 420.669 189.5C420.669 188.2 420.379 187.04 419.799 186.02C419.239 185 418.459 184.21 417.459 183.65C416.459 183.07 415.339 182.78 414.099 182.78C412.859 182.78 411.739 183.07 410.739 183.65C409.739 184.21 408.949 185 408.369 186.02C407.809 187.04 407.529 188.2 407.529 189.5C407.529 190.8 407.809 191.96 408.369 192.98C408.949 194 409.739 194.8 410.739 195.38C411.739 195.94 412.859 196.22 414.099 196.22ZM445.172 183.86V200H440.732V198.08C440.112 198.78 439.372 199.32 438.512 199.7C437.652 200.06 436.722 200.24 435.722 200.24C433.602 200.24 431.922 199.63 430.682 198.41C429.442 197.19 428.822 195.38 428.822 192.98V183.86H433.502V192.29C433.502 194.89 434.592 196.19 436.772 196.19C437.892 196.19 438.792 195.83 439.472 195.11C440.152 194.37 440.492 193.28 440.492 191.84V183.86H445.172ZM459.918 199.22C459.458 199.56 458.888 199.82 458.208 200C457.548 200.16 456.848 200.24 456.108 200.24C454.188 200.24 452.698 199.75 451.638 198.77C450.598 197.79 450.078 196.35 450.078 194.45V187.82H447.588V184.22H450.078V180.29H454.758V184.22H458.778V187.82H454.758V194.39C454.758 195.07 454.928 195.6 455.268 195.98C455.628 196.34 456.128 196.52 456.768 196.52C457.508 196.52 458.138 196.32 458.658 195.92L459.918 199.22Z" fill="#EDEDED"/>
<path d="M185.057 55.8827C187.636 55.8827 189.868 56.3125 191.754 57.1722C193.667 58.0319 195.137 59.252 196.163 60.8327C197.189 62.4133 197.702 64.2851 197.702 66.4481C197.702 68.5834 197.189 70.4552 196.163 72.0636C195.137 73.6443 193.667 74.8644 191.754 75.7241C189.868 76.556 187.636 76.9719 185.057 76.9719H179.192V85H172.453V55.8827H185.057ZM184.682 71.4813C186.707 71.4813 188.246 71.0514 189.3 70.1918C190.353 69.3044 190.88 68.0565 190.88 66.4481C190.88 64.812 190.353 63.5641 189.3 62.7045C188.246 61.8171 186.707 61.3734 184.682 61.3734H179.192V71.4813H184.682ZM208.253 65.5746C209.03 64.4931 210.07 63.6751 211.373 63.1204C212.704 62.5658 214.229 62.2885 215.948 62.2885V68.2784C215.227 68.2229 214.742 68.1952 214.493 68.1952C212.635 68.1952 211.179 68.7221 210.125 69.7758C209.071 70.8019 208.544 72.3548 208.544 74.4346V85H202.055V62.6213H208.253V65.5746ZM230.252 85.3328C227.895 85.3328 225.774 84.8475 223.888 83.8769C222.03 82.8786 220.574 81.5059 219.521 79.7589C218.467 78.0119 217.94 76.0291 217.94 73.8106C217.94 71.5922 218.467 69.6094 219.521 67.8624C220.574 66.1154 222.03 64.7566 223.888 63.786C225.774 62.7877 227.895 62.2885 230.252 62.2885C232.609 62.2885 234.717 62.7877 236.575 63.786C238.433 64.7566 239.889 66.1154 240.943 67.8624C241.996 69.6094 242.523 71.5922 242.523 73.8106C242.523 76.0291 241.996 78.0119 240.943 79.7589C239.889 81.5059 238.433 82.8786 236.575 83.8769C234.717 84.8475 232.609 85.3328 230.252 85.3328ZM230.252 80.0085C231.916 80.0085 233.275 79.4539 234.329 78.3446C235.41 77.2077 235.951 75.6963 235.951 73.8106C235.951 71.925 235.41 70.4275 234.329 69.3183C233.275 68.1813 231.916 67.6128 230.252 67.6128C228.588 67.6128 227.216 68.1813 226.134 69.3183C225.053 70.4275 224.512 71.925 224.512 73.8106C224.512 75.6963 225.053 77.2077 226.134 78.3446C227.216 79.4539 228.588 80.0085 230.252 80.0085ZM261.294 83.9185C260.657 84.3899 259.866 84.7504 258.923 85C258.008 85.2218 257.038 85.3328 256.012 85.3328C253.35 85.3328 251.284 84.6534 249.814 83.2946C248.372 81.9358 247.651 79.9391 247.651 77.3047V68.112H244.198V63.1204H247.651V57.6714H254.14V63.1204H259.714V68.112H254.14V77.2215C254.14 78.1644 254.376 78.8992 254.847 79.4261C255.346 79.9253 256.039 80.1749 256.927 80.1749C257.953 80.1749 258.826 79.8975 259.547 79.3429L261.294 83.9185ZM274.895 85.3328C272.538 85.3328 270.417 84.8475 268.531 83.8769C266.673 82.8786 265.217 81.5059 264.163 79.7589C263.109 78.0119 262.583 76.0291 262.583 73.8106C262.583 71.5922 263.109 69.6094 264.163 67.8624C265.217 66.1154 266.673 64.7566 268.531 63.786C270.417 62.7877 272.538 62.2885 274.895 62.2885C277.252 62.2885 279.36 62.7877 281.218 63.786C283.076 64.7566 284.531 66.1154 285.585 67.8624C286.639 69.6094 287.166 71.5922 287.166 73.8106C287.166 76.0291 286.639 78.0119 285.585 79.7589C284.531 81.5059 283.076 82.8786 281.218 83.8769C279.36 84.8475 277.252 85.3328 274.895 85.3328ZM274.895 80.0085C276.559 80.0085 277.918 79.4539 278.971 78.3446C280.053 77.2077 280.594 75.6963 280.594 73.8106C280.594 71.925 280.053 70.4275 278.971 69.3183C277.918 68.1813 276.559 67.6128 274.895 67.6128C273.231 67.6128 271.859 68.1813 270.777 69.3183C269.696 70.4275 269.155 71.925 269.155 73.8106C269.155 75.6963 269.696 77.2077 270.777 78.3446C271.859 79.4539 273.231 80.0085 274.895 80.0085ZM305.937 83.9185C305.299 84.3899 304.509 84.7504 303.566 85C302.651 85.2218 301.68 85.3328 300.654 85.3328C297.992 85.3328 295.926 84.6534 294.457 83.2946C293.015 81.9358 292.294 79.9391 292.294 77.3047V68.112H288.841V63.1204H292.294V57.6714H298.783V63.1204H304.356V68.112H298.783V77.2215C298.783 78.1644 299.018 78.8992 299.49 79.4261C299.989 79.9253 300.682 80.1749 301.57 80.1749C302.596 80.1749 303.469 79.8975 304.19 79.3429L305.937 83.9185ZM331.386 62.6213L321.278 86.3727C320.252 88.9516 318.976 90.768 317.451 91.8218C315.954 92.8755 314.137 93.4024 312.002 93.4024C310.837 93.4024 309.686 93.2222 308.55 92.8617C307.413 92.5012 306.484 92.002 305.763 91.3642L308.134 86.747C308.633 87.1907 309.201 87.5374 309.839 87.7869C310.505 88.0365 311.156 88.1613 311.794 88.1613C312.681 88.1613 313.402 87.9395 313.957 87.4958C314.512 87.0798 315.011 86.3727 315.454 85.3744L315.538 85.1664L305.846 62.6213H312.543L318.824 77.8039L325.146 62.6213H331.386ZM347.261 62.2885C349.341 62.2885 351.227 62.7738 352.918 63.7444C354.638 64.6872 355.983 66.0322 356.953 67.7792C357.924 69.4985 358.409 71.509 358.409 73.8106C358.409 76.1123 357.924 78.1366 356.953 79.8837C355.983 81.603 354.638 82.9479 352.918 83.9185C351.227 84.8613 349.341 85.3328 347.261 85.3328C344.405 85.3328 342.159 84.4315 340.523 82.629V93.0696H334.034V62.6213H340.231V65.2002C341.84 63.2591 344.183 62.2885 347.261 62.2885ZM346.138 80.0085C347.802 80.0085 349.161 79.4539 350.215 78.3446C351.296 77.2077 351.837 75.6963 351.837 73.8106C351.837 71.925 351.296 70.4275 350.215 69.3183C349.161 68.1813 347.802 67.6128 346.138 67.6128C344.474 67.6128 343.102 68.1813 342.02 69.3183C340.966 70.4275 340.439 71.925 340.439 73.8106C340.439 75.6963 340.966 77.2077 342.02 78.3446C343.102 79.4539 344.474 80.0085 346.138 80.0085ZM384.674 73.8938C384.674 73.977 384.632 74.5594 384.549 75.6409H367.62C367.925 77.0274 368.646 78.1228 369.783 78.927C370.92 79.7312 372.334 80.1333 374.025 80.1333C375.19 80.1333 376.216 79.9669 377.104 79.6341C378.019 79.2736 378.864 78.719 379.641 77.9703L383.093 81.7139C380.986 84.1265 377.908 85.3328 373.859 85.3328C371.336 85.3328 369.103 84.8475 367.162 83.8769C365.221 82.8786 363.723 81.5059 362.67 79.7589C361.616 78.0119 361.089 76.0291 361.089 73.8106C361.089 71.6199 361.602 69.651 362.628 67.904C363.682 66.1292 365.11 64.7566 366.912 63.786C368.743 62.7877 370.781 62.2885 373.027 62.2885C375.218 62.2885 377.201 62.7599 378.975 63.7028C380.75 64.6456 382.137 66.0044 383.135 67.7792C384.161 69.5262 384.674 71.5645 384.674 73.8938ZM373.069 67.1969C371.599 67.1969 370.365 67.6128 369.367 68.4447C368.368 69.2767 367.758 70.4136 367.536 71.8556H378.559C378.338 70.4414 377.727 69.3183 376.729 68.4863C375.731 67.6267 374.511 67.1969 373.069 67.1969ZM236.527 120.984H242.683V132.797C241.103 133.99 239.273 134.905 237.193 135.542C235.113 136.18 233.019 136.499 230.912 136.499C227.889 136.499 225.171 135.861 222.759 134.586C220.346 133.282 218.447 131.494 217.06 129.22C215.701 126.918 215.022 124.325 215.022 121.441C215.022 118.557 215.701 115.978 217.06 113.704C218.447 111.403 220.36 109.614 222.8 108.339C225.241 107.035 227.986 106.384 231.036 106.384C233.588 106.384 235.903 106.813 237.983 107.673C240.063 108.533 241.81 109.781 243.224 111.417L238.898 115.41C236.818 113.219 234.309 112.124 231.369 112.124C229.511 112.124 227.861 112.512 226.419 113.289C224.977 114.065 223.854 115.16 223.05 116.575C222.246 117.989 221.844 119.611 221.844 121.441C221.844 123.244 222.246 124.852 223.05 126.267C223.854 127.681 224.963 128.79 226.378 129.594C227.82 130.371 229.456 130.759 231.286 130.759C233.227 130.759 234.974 130.343 236.527 129.511V120.984ZM271.031 113.621V136H264.874V133.338C264.015 134.308 262.989 135.057 261.796 135.584C260.604 136.083 259.314 136.333 257.928 136.333C254.988 136.333 252.659 135.487 250.94 133.795C249.22 132.104 248.361 129.594 248.361 126.267V113.621H254.85V125.31C254.85 128.915 256.361 130.717 259.384 130.717C260.937 130.717 262.184 130.218 263.127 129.22C264.07 128.194 264.542 126.682 264.542 124.686V113.621H271.031ZM277.042 113.621H283.531V136H277.042V113.621ZM280.287 110.502C279.094 110.502 278.124 110.155 277.375 109.462C276.626 108.768 276.252 107.909 276.252 106.883C276.252 105.857 276.626 104.997 277.375 104.304C278.124 103.61 279.094 103.264 280.287 103.264C281.479 103.264 282.45 103.597 283.198 104.262C283.947 104.928 284.321 105.76 284.321 106.758C284.321 107.839 283.947 108.741 283.198 109.462C282.45 110.155 281.479 110.502 280.287 110.502ZM312.348 105.136V136H306.15V133.421C304.542 135.362 302.213 136.333 299.162 136.333C297.055 136.333 295.141 135.861 293.422 134.919C291.73 133.976 290.399 132.631 289.429 130.884C288.458 129.137 287.973 127.112 287.973 124.811C287.973 122.509 288.458 120.485 289.429 118.738C290.399 116.991 291.73 115.646 293.422 114.703C295.141 113.76 297.055 113.289 299.162 113.289C302.018 113.289 304.251 114.19 305.859 115.992V105.136H312.348ZM300.285 131.008C301.921 131.008 303.28 130.454 304.362 129.345C305.443 128.208 305.984 126.696 305.984 124.811C305.984 122.925 305.443 121.427 304.362 120.318C303.28 119.181 301.921 118.613 300.285 118.613C298.621 118.613 297.249 119.181 296.167 120.318C295.086 121.427 294.545 122.925 294.545 124.811C294.545 126.696 295.086 128.208 296.167 129.345C297.249 130.454 298.621 131.008 300.285 131.008ZM340.275 124.894C340.275 124.977 340.233 125.559 340.15 126.641H323.221C323.526 128.027 324.247 129.123 325.384 129.927C326.521 130.731 327.935 131.133 329.626 131.133C330.791 131.133 331.817 130.967 332.705 130.634C333.62 130.274 334.465 129.719 335.242 128.97L338.694 132.714C336.587 135.126 333.509 136.333 329.46 136.333C326.937 136.333 324.704 135.847 322.763 134.877C320.822 133.879 319.324 132.506 318.271 130.759C317.217 129.012 316.69 127.029 316.69 124.811C316.69 122.62 317.203 120.651 318.229 118.904C319.283 117.129 320.711 115.757 322.513 114.786C324.344 113.788 326.382 113.289 328.628 113.289C330.819 113.289 332.802 113.76 334.576 114.703C336.351 115.646 337.738 117.004 338.736 118.779C339.762 120.526 340.275 122.564 340.275 124.894ZM328.67 118.197C327.2 118.197 325.966 118.613 324.968 119.445C323.969 120.277 323.359 121.414 323.137 122.856H334.16C333.939 121.441 333.328 120.318 332.33 119.486C331.332 118.627 330.112 118.197 328.67 118.197Z" fill="white"/>
</svg>
