<svg width="87" height="115" viewBox="0 0 87 115" fill="none" xmlns="http://www.w3.org/2000/svg">
<path d="M10.5134 26.2198H16.7455C19.5412 25.6438 25.1326 23.16 25.1326 17.8327C25.1326 12.5054 25.1326 9.87922 25.1326 9.23206M27.0546 65.3206C26.9899 63.0233 27.2022 58.1722 28.5689 57.1471C29.9357 56.122 35.7264 54.9986 38.4509 54.565L44.4694 59.9428L50.0608 54.565L60.5835 57.1471L62.0784 65.3206M68.0969 79.9204H18.2598M18.2598 93.2582H68.0969M3 23.6376L23.6182 3H75.2026C78.1342 3.07766 83.9974 4.82108 83.9974 11.1735C83.9974 17.526 83.9974 74.6914 83.9974 102.48C84.0751 105.632 82.4248 111.935 75.2026 111.935C67.9804 111.935 29.0672 111.935 10.5134 111.935C8.00895 111.793 3 110.091 3 104.422C3 98.7525 3 48.2035 3 23.6376Z" stroke="black" stroke-width="5" stroke-linecap="round" stroke-linejoin="round"/>
<path d="M50.9973 39.8488C50.9973 42.7293 50.1378 45.2369 48.8712 46.9644C47.6035 48.6933 46.0589 49.5023 44.5861 49.5023C43.1132 49.5023 41.5687 48.6933 40.301 46.9644C39.0343 45.2369 38.1748 42.7293 38.1748 39.8488C38.1748 36.9683 39.0343 34.4607 40.301 32.7333C41.5687 31.0043 43.1132 30.1953 44.5861 30.1953C46.0589 30.1953 47.6035 31.0043 48.8712 32.7333C50.1378 34.4607 50.9973 36.9683 50.9973 39.8488Z" stroke="black" stroke-width="5"/>
</svg>
