<svg width="883" height="121" viewBox="0 0 883 121" fill="none" xmlns="http://www.w3.org/2000/svg">
<rect width="883" height="121" fill="#252525"/>
<rect width="883" height="121" rx="53.572" fill="#3C8EBC"/>
<path d="M48.915 30.652H44.0806V28.8995H55.7437V30.652H50.9093V43H48.915V30.652ZM63.3563 32.2232C64.7126 32.2232 65.7869 32.6193 66.5793 33.4116C67.385 34.1905 67.7879 35.3387 67.7879 36.8562V43H65.8541V37.0778C65.8541 36.0437 65.6057 35.2649 65.1088 34.7411C64.6119 34.2174 63.9002 33.9555 62.9736 33.9555C61.9261 33.9555 61.1002 34.2644 60.4959 34.8821C59.8916 35.4864 59.5894 36.3593 59.5894 37.5008V43H57.6556V28.0534H59.5894V33.8347C59.9923 33.3244 60.516 32.9282 61.1606 32.6462C61.8187 32.3642 62.5505 32.2232 63.3563 32.2232ZM81.0745 37.7224C81.0745 37.8701 81.061 38.0648 81.0342 38.3065H72.3724C72.4933 39.2466 72.9029 40.0053 73.6012 40.5828C74.3129 41.1468 75.1925 41.4288 76.24 41.4288C77.5158 41.4288 78.5431 40.9991 79.322 40.1396L80.3896 41.3885C79.9061 41.9525 79.3018 42.3823 78.5767 42.6777C77.8649 42.9731 77.0659 43.1209 76.1796 43.1209C75.0515 43.1209 74.0511 42.8926 73.1782 42.436C72.3053 41.966 71.6271 41.3147 71.1437 40.482C70.6737 39.6494 70.4386 38.7094 70.4386 37.6619C70.4386 36.6279 70.6669 35.6946 71.1235 34.862C71.5935 34.0294 72.2314 33.3848 73.0372 32.9282C73.8563 32.4582 74.7762 32.2232 75.7969 32.2232C76.8175 32.2232 77.7239 32.4582 78.5162 32.9282C79.322 33.3848 79.9464 34.0294 80.3896 34.862C80.8462 35.6946 81.0745 36.648 81.0745 37.7224ZM75.7969 33.8548C74.8702 33.8548 74.0914 34.1368 73.4602 34.7008C72.8425 35.2649 72.4799 36.0035 72.3724 36.9166H79.2213C79.1138 36.0169 78.7445 35.285 78.1134 34.721C77.4956 34.1435 76.7235 33.8548 75.7969 33.8548ZM94.8297 32.2232C95.8638 32.2232 96.7904 32.4515 97.6095 32.908C98.4287 33.3646 99.0666 34.0025 99.5232 34.8217C99.9932 35.6409 100.228 36.5876 100.228 37.6619C100.228 38.7363 99.9932 39.6897 99.5232 40.5223C99.0666 41.3415 98.4287 41.9794 97.6095 42.436C96.7904 42.8926 95.8638 43.1209 94.8297 43.1209C94.0374 43.1209 93.3122 42.9664 92.6542 42.6576C91.9962 42.3487 91.4523 41.8988 91.0226 41.3079V43H89.1694V28.0534H91.1032V33.9354C91.5329 33.3714 92.0701 32.9483 92.7146 32.6663C93.3592 32.3709 94.0643 32.2232 94.8297 32.2232ZM94.6686 41.4288C95.3535 41.4288 95.9645 41.2744 96.5016 40.9655C97.0522 40.6432 97.482 40.2 97.7908 39.636C98.1131 39.0586 98.2743 38.4005 98.2743 37.6619C98.2743 36.9233 98.1131 36.272 97.7908 35.708C97.482 35.1306 97.0522 34.6874 96.5016 34.3785C95.9645 34.0697 95.3535 33.9152 94.6686 33.9152C93.9971 33.9152 93.3861 34.0697 92.8355 34.3785C92.2849 34.6874 91.8552 35.1306 91.5463 35.708C91.2374 36.272 91.083 36.9233 91.083 37.6619C91.083 38.4005 91.2374 39.0586 91.5463 39.636C91.8552 40.2 92.2849 40.6432 92.8355 40.9655C93.3861 41.2744 93.9971 41.4288 94.6686 41.4288ZM104.753 34.1167C105.089 33.4989 105.586 33.0289 106.244 32.7066C106.902 32.3843 107.701 32.2232 108.641 32.2232V34.0965C108.534 34.0831 108.386 34.0764 108.198 34.0764C107.15 34.0764 106.324 34.392 105.72 35.0231C105.129 35.6409 104.834 36.5272 104.834 37.6821V43H102.9V32.3239H104.753V34.1167ZM114.892 32.2232C116.37 32.2232 117.498 32.5858 118.277 33.3109C119.069 34.0361 119.465 35.1171 119.465 36.554V43H117.632V41.5899C117.31 42.0868 116.846 42.4696 116.242 42.7381C115.651 42.9933 114.946 43.1209 114.127 43.1209C112.932 43.1209 111.972 42.8321 111.246 42.2547C110.535 41.6772 110.179 40.9185 110.179 39.9785C110.179 39.0384 110.521 38.2864 111.206 37.7224C111.891 37.1449 112.979 36.8562 114.469 36.8562H117.531V36.4735C117.531 35.6409 117.29 35.003 116.806 34.5598C116.323 34.1167 115.611 33.8951 114.671 33.8951C114.04 33.8951 113.422 34.0025 112.818 34.2174C112.213 34.4188 111.703 34.6941 111.287 35.0433L110.481 33.5929C111.032 33.1498 111.69 32.814 112.455 32.5858C113.221 32.344 114.033 32.2232 114.892 32.2232ZM114.449 41.6302C115.188 41.6302 115.826 41.4691 116.363 41.1468C116.9 40.8111 117.29 40.341 117.531 39.7367V38.2461H114.55C112.912 38.2461 112.092 38.7967 112.092 39.8979C112.092 40.435 112.301 40.8581 112.717 41.1669C113.133 41.4758 113.711 41.6302 114.449 41.6302ZM123.044 32.3239H124.977V43H123.044V32.3239ZM124.011 30.2692C123.635 30.2692 123.319 30.1484 123.064 29.9067C122.822 29.6649 122.701 29.3695 122.701 29.0203C122.701 28.6712 122.822 28.3757 123.064 28.134C123.319 27.8789 123.635 27.7513 124.011 27.7513C124.387 27.7513 124.695 27.8721 124.937 28.1139C125.192 28.3422 125.32 28.6309 125.32 28.98C125.32 29.3426 125.192 29.6515 124.937 29.9067C124.695 30.1484 124.387 30.2692 124.011 30.2692ZM134.37 32.2232C135.727 32.2232 136.801 32.6193 137.593 33.4116C138.399 34.1905 138.802 35.3387 138.802 36.8562V43H136.868V37.0778C136.868 36.0437 136.62 35.2649 136.123 34.7411C135.626 34.2174 134.914 33.9555 133.988 33.9555C132.94 33.9555 132.114 34.2644 131.51 34.8821C130.906 35.4864 130.604 36.3593 130.604 37.5008V43H128.67V32.3239H130.523V33.9354C130.912 33.3848 131.436 32.9618 132.094 32.6663C132.766 32.3709 133.524 32.2232 134.37 32.2232ZM145.443 43.1209C144.57 43.1209 143.73 43.0067 142.925 42.7784C142.119 42.5367 141.488 42.2345 141.031 41.872L141.837 40.341C142.307 40.6768 142.878 40.9454 143.549 41.1468C144.221 41.3482 144.899 41.4489 145.584 41.4489C147.276 41.4489 148.122 40.9655 148.122 39.9986C148.122 39.6763 148.008 39.4212 147.779 39.2331C147.551 39.0451 147.262 38.9108 146.913 38.8303C146.577 38.7363 146.094 38.6356 145.463 38.5281C144.603 38.3938 143.898 38.2394 143.348 38.0648C142.81 37.8902 142.347 37.5948 141.958 37.1785C141.568 36.7622 141.374 36.178 141.374 35.426C141.374 34.4591 141.776 33.6869 142.582 33.1095C143.388 32.5186 144.469 32.2232 145.825 32.2232C146.537 32.2232 147.249 32.3105 147.961 32.485C148.672 32.6596 149.256 32.8946 149.713 33.1901L148.887 34.721C148.014 34.157 146.987 33.8749 145.805 33.8749C144.986 33.8749 144.362 34.0092 143.932 34.2778C143.502 34.5464 143.287 34.9023 143.287 35.3454C143.287 35.6946 143.408 35.9699 143.65 36.1713C143.892 36.3728 144.187 36.5205 144.536 36.6145C144.899 36.7085 145.402 36.8159 146.047 36.9368C146.906 37.0845 147.598 37.2456 148.122 37.4202C148.659 37.5814 149.115 37.8634 149.491 38.2663C149.867 38.6691 150.055 39.2331 150.055 39.9583C150.055 40.9252 149.639 41.6974 148.807 42.2748C147.987 42.8389 146.866 43.1209 145.443 43.1209ZM158.475 42.3755C158.193 42.6173 157.844 42.8053 157.428 42.9396C157.011 43.0604 156.582 43.1209 156.138 43.1209C155.064 43.1209 154.231 42.8321 153.641 42.2547C153.05 41.6772 152.754 40.8513 152.754 39.777V33.9152H150.941V32.3239H152.754V29.9872H154.688V32.3239H157.75V33.9152H154.688V39.6964C154.688 40.2739 154.829 40.7171 155.111 41.0259C155.407 41.3348 155.823 41.4892 156.36 41.4892C156.951 41.4892 157.454 41.3214 157.871 40.9856L158.475 42.3755ZM165.031 43.1209C163.971 43.1209 163.017 42.8859 162.171 42.4158C161.325 41.9458 160.66 41.3012 160.177 40.482C159.707 39.6494 159.472 38.7094 159.472 37.6619C159.472 36.6145 159.707 35.6812 160.177 34.862C160.66 34.0294 161.325 33.3848 162.171 32.9282C163.017 32.4582 163.971 32.2232 165.031 32.2232C166.092 32.2232 167.039 32.4582 167.872 32.9282C168.718 33.3848 169.376 34.0294 169.846 34.862C170.329 35.6812 170.571 36.6145 170.571 37.6619C170.571 38.7094 170.329 39.6494 169.846 40.482C169.376 41.3012 168.718 41.9458 167.872 42.4158C167.039 42.8859 166.092 43.1209 165.031 43.1209ZM165.031 41.4288C165.716 41.4288 166.327 41.2744 166.865 40.9655C167.415 40.6432 167.845 40.2 168.154 39.636C168.463 39.0586 168.617 38.4005 168.617 37.6619C168.617 36.9233 168.463 36.272 168.154 35.708C167.845 35.1306 167.415 34.6874 166.865 34.3785C166.327 34.0697 165.716 33.9152 165.031 33.9152C164.347 33.9152 163.729 34.0697 163.178 34.3785C162.641 34.6874 162.211 35.1306 161.889 35.708C161.58 36.272 161.426 36.9233 161.426 37.6619C161.426 38.4005 161.58 39.0586 161.889 39.636C162.211 40.2 162.641 40.6432 163.178 40.9655C163.729 41.2744 164.347 41.4288 165.031 41.4288ZM175.099 34.1167C175.434 33.4989 175.931 33.0289 176.589 32.7066C177.247 32.3843 178.046 32.2232 178.986 32.2232V34.0965C178.879 34.0831 178.731 34.0764 178.543 34.0764C177.496 34.0764 176.67 34.392 176.065 35.0231C175.475 35.6409 175.179 36.5272 175.179 37.6821V43H173.245V32.3239H175.099V34.1167ZM194.725 32.2232C196.068 32.2232 197.129 32.6126 197.908 33.3915C198.7 34.1704 199.096 35.3253 199.096 36.8562V43H197.162V37.0778C197.162 36.0437 196.921 35.2649 196.437 34.7411C195.967 34.2174 195.289 33.9555 194.403 33.9555C193.422 33.9555 192.643 34.2644 192.066 34.8821C191.488 35.4864 191.2 36.3593 191.2 37.5008V43H189.266V37.0778C189.266 36.0437 189.024 35.2649 188.541 34.7411C188.071 34.2174 187.393 33.9555 186.506 33.9555C185.526 33.9555 184.747 34.2644 184.17 34.8821C183.592 35.4864 183.303 36.3593 183.303 37.5008V43H181.37V32.3239H183.223V33.9152C183.612 33.3646 184.123 32.9483 184.754 32.6663C185.385 32.3709 186.103 32.2232 186.909 32.2232C187.742 32.2232 188.48 32.391 189.125 32.7268C189.77 33.0625 190.266 33.5526 190.616 34.1972C191.018 33.5795 191.576 33.0961 192.288 32.7469C193.013 32.3977 193.825 32.2232 194.725 32.2232ZM202.654 32.3239H204.588V43H202.654V32.3239ZM203.621 30.2692C203.245 30.2692 202.93 30.1484 202.674 29.9067C202.433 29.6649 202.312 29.3695 202.312 29.0203C202.312 28.6712 202.433 28.3757 202.674 28.134C202.93 27.8789 203.245 27.7513 203.621 27.7513C203.997 27.7513 204.306 27.8721 204.548 28.1139C204.803 28.3422 204.93 28.6309 204.93 28.98C204.93 29.3426 204.803 29.6515 204.548 29.9067C204.306 30.1484 203.997 30.2692 203.621 30.2692ZM213.981 32.2232C215.337 32.2232 216.412 32.6193 217.204 33.4116C218.01 34.1905 218.413 35.3387 218.413 36.8562V43H216.479V37.0778C216.479 36.0437 216.23 35.2649 215.733 34.7411C215.237 34.2174 214.525 33.9555 213.598 33.9555C212.551 33.9555 211.725 34.2644 211.121 34.8821C210.516 35.4864 210.214 36.3593 210.214 37.5008V43H208.28V32.3239H210.134V33.9354C210.523 33.3848 211.047 32.9618 211.705 32.6663C212.376 32.3709 213.135 32.2232 213.981 32.2232ZM232.263 32.3239V41.5497C232.263 43.4163 231.8 44.7928 230.873 45.6791C229.947 46.5788 228.563 47.0287 226.724 47.0287C225.716 47.0287 224.756 46.8877 223.843 46.6057C222.93 46.3371 222.191 45.9477 221.627 45.4374L222.554 43.9467C223.051 44.3765 223.662 44.7122 224.387 44.9539C225.126 45.2091 225.884 45.3367 226.663 45.3367C227.912 45.3367 228.832 45.0412 229.423 44.4503C230.027 43.8595 230.329 42.9597 230.329 41.7511V40.9051C229.873 41.4557 229.309 41.872 228.637 42.154C227.979 42.4225 227.261 42.5568 226.482 42.5568C225.461 42.5568 224.535 42.342 223.702 41.9122C222.883 41.4691 222.238 40.8581 221.768 40.0792C221.298 39.2869 221.063 38.3871 221.063 37.3799C221.063 36.3728 221.298 35.4797 221.768 34.7008C222.238 33.9085 222.883 33.2975 223.702 32.8678C224.535 32.438 225.461 32.2232 226.482 32.2232C227.288 32.2232 228.033 32.3709 228.718 32.6663C229.416 32.9618 229.987 33.3982 230.43 33.9757V32.3239H232.263ZM226.703 40.8648C227.402 40.8648 228.026 40.7171 228.577 40.4216C229.141 40.1262 229.577 39.7166 229.886 39.1929C230.208 38.6557 230.37 38.0514 230.37 37.3799C230.37 36.3459 230.027 35.5133 229.342 34.8821C228.657 34.2375 227.778 33.9152 226.703 33.9152C225.616 33.9152 224.729 34.2375 224.045 34.8821C223.36 35.5133 223.017 36.3459 223.017 37.3799C223.017 38.0514 223.172 38.6557 223.481 39.1929C223.803 39.7166 224.239 40.1262 224.79 40.4216C225.354 40.7171 225.992 40.8648 226.703 40.8648ZM247.028 32.2232C248.062 32.2232 248.989 32.4515 249.808 32.908C250.627 33.3646 251.265 34.0025 251.722 34.8217C252.192 35.6409 252.427 36.5876 252.427 37.6619C252.427 38.7363 252.192 39.6897 251.722 40.5223C251.265 41.3415 250.627 41.9794 249.808 42.436C248.989 42.8926 248.062 43.1209 247.028 43.1209C246.263 43.1209 245.558 42.9731 244.913 42.6777C244.282 42.3823 243.745 41.9525 243.302 41.3885V46.9079H241.368V32.3239H243.221V34.0159C243.651 33.4251 244.195 32.9819 244.853 32.6865C245.511 32.3776 246.236 32.2232 247.028 32.2232ZM246.867 41.4288C247.552 41.4288 248.163 41.2744 248.7 40.9655C249.251 40.6432 249.68 40.2 249.989 39.636C250.312 39.0586 250.473 38.4005 250.473 37.6619C250.473 36.9233 250.312 36.272 249.989 35.708C249.68 35.1306 249.251 34.6874 248.7 34.3785C248.163 34.0697 247.552 33.9152 246.867 33.9152C246.195 33.9152 245.584 34.0764 245.034 34.3987C244.497 34.7075 244.067 35.144 243.745 35.708C243.436 36.272 243.281 36.9233 243.281 37.6619C243.281 38.4005 243.436 39.0586 243.745 39.636C244.054 40.2 244.483 40.6432 245.034 40.9655C245.584 41.2744 246.195 41.4288 246.867 41.4288ZM260.799 32.2232C262.155 32.2232 263.23 32.6193 264.022 33.4116C264.828 34.1905 265.231 35.3387 265.231 36.8562V43H263.297V37.0778C263.297 36.0437 263.048 35.2649 262.552 34.7411C262.055 34.2174 261.343 33.9555 260.416 33.9555C259.369 33.9555 258.543 34.2644 257.939 34.8821C257.334 35.4864 257.032 36.3593 257.032 37.5008V43H255.098V28.0534H257.032V33.8347C257.435 33.3244 257.959 32.9282 258.603 32.6462C259.261 32.3642 259.993 32.2232 260.799 32.2232ZM272.697 32.2232C274.174 32.2232 275.302 32.5858 276.081 33.3109C276.874 34.0361 277.27 35.1171 277.27 36.554V43H275.437V41.5899C275.114 42.0868 274.651 42.4696 274.047 42.7381C273.456 42.9933 272.751 43.1209 271.932 43.1209C270.737 43.1209 269.776 42.8321 269.051 42.2547C268.339 41.6772 267.984 40.9185 267.984 39.9785C267.984 39.0384 268.326 38.2864 269.011 37.7224C269.696 37.1449 270.784 36.8562 272.274 36.8562H275.336V36.4735C275.336 35.6409 275.094 35.003 274.611 34.5598C274.127 34.1167 273.416 33.8951 272.476 33.8951C271.844 33.8951 271.227 34.0025 270.622 34.2174C270.018 34.4188 269.508 34.6941 269.091 35.0433L268.286 33.5929C268.836 33.1498 269.494 32.814 270.26 32.5858C271.025 32.344 271.838 32.2232 272.697 32.2232ZM272.254 41.6302C272.993 41.6302 273.631 41.4691 274.168 41.1468C274.705 40.8111 275.094 40.341 275.336 39.7367V38.2461H272.355C270.716 38.2461 269.897 38.7967 269.897 39.8979C269.897 40.435 270.105 40.8581 270.522 41.1669C270.938 41.4758 271.515 41.6302 272.254 41.6302ZM283.91 43.1209C283.037 43.1209 282.198 43.0067 281.392 42.7784C280.587 42.5367 279.955 42.2345 279.499 41.872L280.305 40.341C280.775 40.6768 281.345 40.9454 282.017 41.1468C282.688 41.3482 283.366 41.4489 284.051 41.4489C285.743 41.4489 286.589 40.9655 286.589 39.9986C286.589 39.6763 286.475 39.4212 286.247 39.2331C286.019 39.0451 285.73 38.9108 285.381 38.8303C285.045 38.7363 284.562 38.6356 283.93 38.5281C283.071 38.3938 282.366 38.2394 281.815 38.0648C281.278 37.8902 280.815 37.5948 280.425 37.1785C280.036 36.7622 279.841 36.178 279.841 35.426C279.841 34.4591 280.244 33.6869 281.05 33.1095C281.856 32.5186 282.937 32.2232 284.293 32.2232C285.005 32.2232 285.716 32.3105 286.428 32.485C287.14 32.6596 287.724 32.8946 288.181 33.1901L287.355 34.721C286.482 34.157 285.455 33.8749 284.273 33.8749C283.454 33.8749 282.829 34.0092 282.399 34.2778C281.97 34.5464 281.755 34.9023 281.755 35.3454C281.755 35.6946 281.876 35.9699 282.117 36.1713C282.359 36.3728 282.655 36.5205 283.004 36.6145C283.366 36.7085 283.87 36.8159 284.515 36.9368C285.374 37.0845 286.066 37.2456 286.589 37.4202C287.127 37.5814 287.583 37.8634 287.959 38.2663C288.335 38.6691 288.523 39.2331 288.523 39.9583C288.523 40.9252 288.107 41.6974 287.274 42.2748C286.455 42.8389 285.334 43.1209 283.91 43.1209ZM300.589 37.7224C300.589 37.8701 300.575 38.0648 300.548 38.3065H291.887C292.008 39.2466 292.417 40.0053 293.115 40.5828C293.827 41.1468 294.707 41.4288 295.754 41.4288C297.03 41.4288 298.057 40.9991 298.836 40.1396L299.904 41.3885C299.42 41.9525 298.816 42.3823 298.091 42.6777C297.379 42.9731 296.58 43.1209 295.694 43.1209C294.566 43.1209 293.565 42.8926 292.692 42.436C291.82 41.966 291.141 41.3147 290.658 40.482C290.188 39.6494 289.953 38.7094 289.953 37.6619C289.953 36.6279 290.181 35.6946 290.638 34.862C291.108 34.0294 291.746 33.3848 292.551 32.9282C293.371 32.4582 294.29 32.2232 295.311 32.2232C296.332 32.2232 297.238 32.4582 298.03 32.9282C298.836 33.3848 299.461 34.0294 299.904 34.862C300.36 35.6946 300.589 36.648 300.589 37.7224ZM295.311 33.8548C294.384 33.8548 293.606 34.1368 292.974 34.7008C292.357 35.2649 291.994 36.0035 291.887 36.9166H298.735C298.628 36.0169 298.259 35.285 297.628 34.721C297.01 34.1435 296.238 33.8548 295.311 33.8548ZM308.684 32.3239H310.617V43H308.684V32.3239ZM309.65 30.2692C309.274 30.2692 308.959 30.1484 308.704 29.9067C308.462 29.6649 308.341 29.3695 308.341 29.0203C308.341 28.6712 308.462 28.3757 308.704 28.134C308.959 27.8789 309.274 27.7513 309.65 27.7513C310.027 27.7513 310.335 27.8721 310.577 28.1139C310.832 28.3422 310.96 28.6309 310.96 28.98C310.96 29.3426 310.832 29.6515 310.577 29.9067C310.335 30.1484 310.027 30.2692 309.65 30.2692ZM317.371 43.1209C316.499 43.1209 315.659 43.0067 314.854 42.7784C314.048 42.5367 313.417 42.2345 312.96 41.872L313.766 40.341C314.236 40.6768 314.807 40.9454 315.478 41.1468C316.149 41.3482 316.828 41.4489 317.512 41.4489C319.205 41.4489 320.051 40.9655 320.051 39.9986C320.051 39.6763 319.936 39.4212 319.708 39.2331C319.48 39.0451 319.191 38.9108 318.842 38.8303C318.506 38.7363 318.023 38.6356 317.392 38.5281C316.532 38.3938 315.827 38.2394 315.277 38.0648C314.739 37.8902 314.276 37.5948 313.887 37.1785C313.497 36.7622 313.302 36.178 313.302 35.426C313.302 34.4591 313.705 33.6869 314.511 33.1095C315.317 32.5186 316.398 32.2232 317.754 32.2232C318.466 32.2232 319.178 32.3105 319.889 32.485C320.601 32.6596 321.185 32.8946 321.642 33.1901L320.816 34.721C319.943 34.157 318.916 33.8749 317.734 33.8749C316.915 33.8749 316.29 34.0092 315.861 34.2778C315.431 34.5464 315.216 34.9023 315.216 35.3454C315.216 35.6946 315.337 35.9699 315.579 36.1713C315.82 36.3728 316.116 36.5205 316.465 36.6145C316.828 36.7085 317.331 36.8159 317.976 36.9368C318.835 37.0845 319.527 37.2456 320.051 37.4202C320.588 37.5814 321.044 37.8634 321.42 38.2663C321.796 38.6691 321.984 39.2331 321.984 39.9583C321.984 40.9252 321.568 41.6974 320.735 42.2748C319.916 42.8389 318.795 43.1209 317.371 43.1209ZM334.383 43.1209C333.322 43.1209 332.369 42.8859 331.523 42.4158C330.677 41.9458 330.012 41.3012 329.529 40.482C329.059 39.6494 328.824 38.7094 328.824 37.6619C328.824 36.6145 329.059 35.6812 329.529 34.862C330.012 34.0294 330.677 33.3848 331.523 32.9282C332.369 32.4582 333.322 32.2232 334.383 32.2232C335.444 32.2232 336.391 32.4582 337.224 32.9282C338.07 33.3848 338.728 34.0294 339.198 34.862C339.681 35.6812 339.923 36.6145 339.923 37.6619C339.923 38.7094 339.681 39.6494 339.198 40.482C338.728 41.3012 338.07 41.9458 337.224 42.4158C336.391 42.8859 335.444 43.1209 334.383 43.1209ZM334.383 41.4288C335.068 41.4288 335.679 41.2744 336.216 40.9655C336.767 40.6432 337.197 40.2 337.506 39.636C337.815 39.0586 337.969 38.4005 337.969 37.6619C337.969 36.9233 337.815 36.272 337.506 35.708C337.197 35.1306 336.767 34.6874 336.216 34.3785C335.679 34.0697 335.068 33.9152 334.383 33.9152C333.699 33.9152 333.081 34.0697 332.53 34.3785C331.993 34.6874 331.563 35.1306 331.241 35.708C330.932 36.272 330.778 36.9233 330.778 37.6619C330.778 38.4005 330.932 39.0586 331.241 39.636C331.563 40.2 331.993 40.6432 332.53 40.9655C333.081 41.2744 333.699 41.4288 334.383 41.4288ZM348.298 32.2232C349.654 32.2232 350.729 32.6193 351.521 33.4116C352.327 34.1905 352.729 35.3387 352.729 36.8562V43H350.796V37.0778C350.796 36.0437 350.547 35.2649 350.05 34.7411C349.554 34.2174 348.842 33.9555 347.915 33.9555C346.868 33.9555 346.042 34.2644 345.438 34.8821C344.833 35.4864 344.531 36.3593 344.531 37.5008V43H342.597V32.3239H344.45V33.9354C344.84 33.3848 345.364 32.9618 346.022 32.6663C346.693 32.3709 347.452 32.2232 348.298 32.2232ZM366.016 37.7224C366.016 37.8701 366.003 38.0648 365.976 38.3065H357.314C357.435 39.2466 357.845 40.0053 358.543 40.5828C359.255 41.1468 360.134 41.4288 361.182 41.4288C362.457 41.4288 363.485 40.9991 364.264 40.1396L365.331 41.3885C364.848 41.9525 364.243 42.3823 363.518 42.6777C362.807 42.9731 362.008 43.1209 361.121 43.1209C359.993 43.1209 358.993 42.8926 358.12 42.436C357.247 41.966 356.569 41.3147 356.085 40.482C355.615 39.6494 355.38 38.7094 355.38 37.6619C355.38 36.6279 355.609 35.6946 356.065 34.862C356.535 34.0294 357.173 33.3848 357.979 32.9282C358.798 32.4582 359.718 32.2232 360.738 32.2232C361.759 32.2232 362.666 32.4582 363.458 32.9282C364.264 33.3848 364.888 34.0294 365.331 34.862C365.788 35.6946 366.016 36.648 366.016 37.7224ZM360.738 33.8548C359.812 33.8548 359.033 34.1368 358.402 34.7008C357.784 35.2649 357.421 36.0035 357.314 36.9166H364.163C364.055 36.0169 363.686 35.285 363.055 34.721C362.437 34.1435 361.665 33.8548 360.738 33.8548ZM378.684 43.1209C377.623 43.1209 376.669 42.8859 375.823 42.4158C374.977 41.9458 374.312 41.3012 373.829 40.482C373.359 39.6494 373.124 38.7094 373.124 37.6619C373.124 36.6145 373.359 35.6812 373.829 34.862C374.312 34.0294 374.977 33.3848 375.823 32.9282C376.669 32.4582 377.623 32.2232 378.684 32.2232C379.744 32.2232 380.691 32.4582 381.524 32.9282C382.37 33.3848 383.028 34.0294 383.498 34.862C383.981 35.6812 384.223 36.6145 384.223 37.6619C384.223 38.7094 383.981 39.6494 383.498 40.482C383.028 41.3012 382.37 41.9458 381.524 42.4158C380.691 42.8859 379.744 43.1209 378.684 43.1209ZM378.684 41.4288C379.368 41.4288 379.979 41.2744 380.517 40.9655C381.067 40.6432 381.497 40.2 381.806 39.636C382.115 39.0586 382.269 38.4005 382.269 37.6619C382.269 36.9233 382.115 36.272 381.806 35.708C381.497 35.1306 381.067 34.6874 380.517 34.3785C379.979 34.0697 379.368 33.9152 378.684 33.9152C377.999 33.9152 377.381 34.0697 376.83 34.3785C376.293 34.6874 375.863 35.1306 375.541 35.708C375.232 36.272 375.078 36.9233 375.078 37.6619C375.078 38.4005 375.232 39.0586 375.541 39.636C375.863 40.2 376.293 40.6432 376.83 40.9655C377.381 41.2744 377.999 41.4288 378.684 41.4288ZM390.805 29.5239C389.65 29.5239 389.073 30.1484 389.073 31.3973V32.3239H392.175V33.9152H389.113V43H387.179V33.9152H385.367V32.3239H387.179V31.3771C387.179 30.3162 387.488 29.4769 388.106 28.8592C388.724 28.2414 389.59 27.9326 390.705 27.9326C391.134 27.9326 391.537 27.9863 391.913 28.0937C392.289 28.2012 392.612 28.3556 392.88 28.557L392.296 30.0275C391.853 29.6918 391.356 29.5239 390.805 29.5239ZM412.764 32.2232C414.107 32.2232 415.168 32.6126 415.946 33.3915C416.739 34.1704 417.135 35.3253 417.135 36.8562V43H415.201V37.0778C415.201 36.0437 414.959 35.2649 414.476 34.7411C414.006 34.2174 413.328 33.9555 412.441 33.9555C411.461 33.9555 410.682 34.2644 410.105 34.8821C409.527 35.4864 409.239 36.3593 409.239 37.5008V43H407.305V37.0778C407.305 36.0437 407.063 35.2649 406.58 34.7411C406.11 34.2174 405.431 33.9555 404.545 33.9555C403.565 33.9555 402.786 34.2644 402.209 34.8821C401.631 35.4864 401.342 36.3593 401.342 37.5008V43H399.409V32.3239H401.262V33.9152C401.651 33.3646 402.161 32.9483 402.793 32.6663C403.424 32.3709 404.142 32.2232 404.948 32.2232C405.781 32.2232 406.519 32.391 407.164 32.7268C407.808 33.0625 408.305 33.5526 408.654 34.1972C409.057 33.5795 409.615 33.0961 410.326 32.7469C411.052 32.3977 411.864 32.2232 412.764 32.2232ZM429.944 32.3239L424.767 44.0676C424.31 45.1554 423.773 45.9208 423.155 46.364C422.551 46.8071 421.819 47.0287 420.96 47.0287C420.436 47.0287 419.926 46.9414 419.429 46.7669C418.945 46.6057 418.542 46.364 418.22 46.0417L419.046 44.5913C419.597 45.1151 420.235 45.3769 420.96 45.3769C421.43 45.3769 421.819 45.2494 422.128 44.9942C422.45 44.7525 422.739 44.3295 422.994 43.7252L423.337 42.9799L418.623 32.3239H420.637L424.364 40.8648L428.05 32.3239H429.944ZM441.066 29.5239C439.911 29.5239 439.334 30.1484 439.334 31.3973V32.3239H442.436V33.9152H439.374V43H437.44V33.9152H435.627V32.3239H437.44V31.3771C437.44 30.3162 437.749 29.4769 438.367 28.8592C438.984 28.2414 439.851 27.9326 440.965 27.9326C441.395 27.9326 441.798 27.9863 442.174 28.0937C442.55 28.2012 442.872 28.3556 443.141 28.557L442.557 30.0275C442.113 29.6918 441.617 29.5239 441.066 29.5239ZM447.951 32.2232C449.428 32.2232 450.556 32.5858 451.335 33.3109C452.127 34.0361 452.523 35.1171 452.523 36.554V43H450.69V41.5899C450.368 42.0868 449.904 42.4696 449.3 42.7381C448.709 42.9933 448.004 43.1209 447.185 43.1209C445.99 43.1209 445.03 42.8321 444.305 42.2547C443.593 41.6772 443.237 40.9185 443.237 39.9785C443.237 39.0384 443.579 38.2864 444.264 37.7224C444.949 37.1449 446.037 36.8562 447.528 36.8562H450.589V36.4735C450.589 35.6409 450.348 35.003 449.864 34.5598C449.381 34.1167 448.669 33.8951 447.729 33.8951C447.098 33.8951 446.48 34.0025 445.876 34.2174C445.271 34.4188 444.761 34.6941 444.345 35.0433L443.539 33.5929C444.09 33.1498 444.748 32.814 445.513 32.5858C446.279 32.344 447.091 32.2232 447.951 32.2232ZM447.507 41.6302C448.246 41.6302 448.884 41.4691 449.421 41.1468C449.958 40.8111 450.348 40.341 450.589 39.7367V38.2461H447.608C445.97 38.2461 445.151 38.7967 445.151 39.8979C445.151 40.435 445.359 40.8581 445.775 41.1669C446.191 41.4758 446.769 41.6302 447.507 41.6302ZM465.352 32.3239L460.679 43H458.705L454.032 32.3239H456.046L459.712 40.8849L463.459 32.3239H465.352ZM471.435 43.1209C470.374 43.1209 469.42 42.8859 468.574 42.4158C467.728 41.9458 467.064 41.3012 466.58 40.482C466.11 39.6494 465.875 38.7094 465.875 37.6619C465.875 36.6145 466.11 35.6812 466.58 34.862C467.064 34.0294 467.728 33.3848 468.574 32.9282C469.42 32.4582 470.374 32.2232 471.435 32.2232C472.496 32.2232 473.442 32.4582 474.275 32.9282C475.121 33.3848 475.779 34.0294 476.249 34.862C476.732 35.6812 476.974 36.6145 476.974 37.6619C476.974 38.7094 476.732 39.6494 476.249 40.482C475.779 41.3012 475.121 41.9458 474.275 42.4158C473.442 42.8859 472.496 43.1209 471.435 43.1209ZM471.435 41.4288C472.12 41.4288 472.731 41.2744 473.268 40.9655C473.818 40.6432 474.248 40.2 474.557 39.636C474.866 39.0586 475.02 38.4005 475.02 37.6619C475.02 36.9233 474.866 36.272 474.557 35.708C474.248 35.1306 473.818 34.6874 473.268 34.3785C472.731 34.0697 472.12 33.9152 471.435 33.9152C470.75 33.9152 470.132 34.0697 469.581 34.3785C469.044 34.6874 468.615 35.1306 468.292 35.708C467.983 36.272 467.829 36.9233 467.829 37.6619C467.829 38.4005 467.983 39.0586 468.292 39.636C468.615 40.2 469.044 40.6432 469.581 40.9655C470.132 41.2744 470.75 41.4288 471.435 41.4288ZM481.502 34.1167C481.837 33.4989 482.334 33.0289 482.992 32.7066C483.65 32.3843 484.449 32.2232 485.389 32.2232V34.0965C485.282 34.0831 485.134 34.0764 484.946 34.0764C483.899 34.0764 483.073 34.392 482.469 35.0231C481.878 35.6409 481.582 36.5272 481.582 37.6821V43H479.649V32.3239H481.502V34.1167ZM487.773 32.3239H489.707V43H487.773V32.3239ZM488.74 30.2692C488.364 30.2692 488.048 30.1484 487.793 29.9067C487.551 29.6649 487.43 29.3695 487.43 29.0203C487.43 28.6712 487.551 28.3757 487.793 28.134C488.048 27.8789 488.364 27.7513 488.74 27.7513C489.116 27.7513 489.425 27.8721 489.666 28.1139C489.922 28.3422 490.049 28.6309 490.049 28.98C490.049 29.3426 489.922 29.6515 489.666 29.9067C489.425 30.1484 489.116 30.2692 488.74 30.2692ZM499.402 42.3755C499.12 42.6173 498.771 42.8053 498.354 42.9396C497.938 43.0604 497.508 43.1209 497.065 43.1209C495.991 43.1209 495.158 42.8321 494.567 42.2547C493.976 41.6772 493.681 40.8513 493.681 39.777V33.9152H491.868V32.3239H493.681V29.9872H495.615V32.3239H498.677V33.9152H495.615V39.6964C495.615 40.2739 495.756 40.7171 496.038 41.0259C496.333 41.3348 496.75 41.4892 497.287 41.4892C497.878 41.4892 498.381 41.3214 498.797 40.9856L499.402 42.3755ZM511.034 37.7224C511.034 37.8701 511.021 38.0648 510.994 38.3065H502.332C502.453 39.2466 502.863 40.0053 503.561 40.5828C504.273 41.1468 505.152 41.4288 506.2 41.4288C507.476 41.4288 508.503 40.9991 509.282 40.1396L510.349 41.3885C509.866 41.9525 509.262 42.3823 508.537 42.6777C507.825 42.9731 507.026 43.1209 506.139 43.1209C505.011 43.1209 504.011 42.8926 503.138 42.436C502.265 41.966 501.587 41.3147 501.104 40.482C500.634 39.6494 500.399 38.7094 500.399 37.6619C500.399 36.6279 500.627 35.6946 501.083 34.862C501.553 34.0294 502.191 33.3848 502.997 32.9282C503.816 32.4582 504.736 32.2232 505.757 32.2232C506.777 32.2232 507.684 32.4582 508.476 32.9282C509.282 33.3848 509.906 34.0294 510.349 34.862C510.806 35.6946 511.034 36.648 511.034 37.7224ZM505.757 33.8548C504.83 33.8548 504.051 34.1368 503.42 34.7008C502.802 35.2649 502.44 36.0035 502.332 36.9166H509.181C509.074 36.0169 508.704 35.285 508.073 34.721C507.456 34.1435 506.683 33.8548 505.757 33.8548ZM521.607 46.9079C520.841 45.6724 520.251 44.2556 519.834 42.6576C519.418 41.0461 519.21 39.3204 519.21 37.4806C519.21 35.6409 519.418 33.9152 519.834 32.3037C520.251 30.6788 520.841 29.2621 521.607 28.0534H523.44C522.634 29.4635 522.043 30.9407 521.667 32.485C521.291 34.0294 521.103 35.6946 521.103 37.4806C521.103 39.2667 521.291 40.9319 521.667 42.4763C522.043 44.0206 522.634 45.4978 523.44 46.9079H521.607ZM529.804 32.2232C531.281 32.2232 532.409 32.5858 533.188 33.3109C533.98 34.0361 534.376 35.1171 534.376 36.554V43H532.543V41.5899C532.221 42.0868 531.758 42.4696 531.153 42.7381C530.562 42.9933 529.857 43.1209 529.038 43.1209C527.843 43.1209 526.883 42.8321 526.158 42.2547C525.446 41.6772 525.09 40.9185 525.09 39.9785C525.09 39.0384 525.432 38.2864 526.117 37.7224C526.802 37.1449 527.89 36.8562 529.381 36.8562H532.442V36.4735C532.442 35.6409 532.201 35.003 531.717 34.5598C531.234 34.1167 530.522 33.8951 529.582 33.8951C528.951 33.8951 528.333 34.0025 527.729 34.2174C527.125 34.4188 526.614 34.6941 526.198 35.0433L525.392 33.5929C525.943 33.1498 526.601 32.814 527.366 32.5858C528.132 32.344 528.944 32.2232 529.804 32.2232ZM529.36 41.6302C530.099 41.6302 530.737 41.4691 531.274 41.1468C531.811 40.8111 532.201 40.341 532.442 39.7367V38.2461H529.461C527.823 38.2461 527.004 38.7967 527.004 39.8979C527.004 40.435 527.212 40.8581 527.628 41.1669C528.044 41.4758 528.622 41.6302 529.36 41.6302ZM543.656 32.2232C545.012 32.2232 546.086 32.6193 546.879 33.4116C547.684 34.1905 548.087 35.3387 548.087 36.8562V43H546.153V37.0778C546.153 36.0437 545.905 35.2649 545.408 34.7411C544.911 34.2174 544.199 33.9555 543.273 33.9555C542.225 33.9555 541.399 34.2644 540.795 34.8821C540.191 35.4864 539.889 36.3593 539.889 37.5008V43H537.955V32.3239H539.808V33.9354C540.198 33.3848 540.721 32.9618 541.379 32.6663C542.051 32.3709 542.81 32.2232 543.656 32.2232ZM561.797 28.0534V43H559.944V41.3079C559.514 41.8988 558.97 42.3487 558.312 42.6576C557.654 42.9664 556.929 43.1209 556.136 43.1209C555.102 43.1209 554.176 42.8926 553.357 42.436C552.537 41.9794 551.893 41.3415 551.423 40.5223C550.966 39.6897 550.738 38.7363 550.738 37.6619C550.738 36.5876 550.966 35.6409 551.423 34.8217C551.893 34.0025 552.537 33.3646 553.357 32.908C554.176 32.4515 555.102 32.2232 556.136 32.2232C556.902 32.2232 557.607 32.3709 558.251 32.6663C558.896 32.9483 559.433 33.3714 559.863 33.9354V28.0534H561.797ZM556.298 41.4288C556.969 41.4288 557.58 41.2744 558.131 40.9655C558.681 40.6432 559.111 40.2 559.42 39.636C559.729 39.0586 559.883 38.4005 559.883 37.6619C559.883 36.9233 559.729 36.272 559.42 35.708C559.111 35.1306 558.681 34.6874 558.131 34.3785C557.58 34.0697 556.969 33.9152 556.298 33.9152C555.613 33.9152 554.995 34.0697 554.444 34.3785C553.907 34.6874 553.477 35.1306 553.155 35.708C552.846 36.272 552.692 36.9233 552.692 37.6619C552.692 38.4005 552.846 39.0586 553.155 39.636C553.477 40.2 553.907 40.6432 554.444 40.9655C554.995 41.2744 555.613 41.4288 556.298 41.4288ZM574.753 32.2232C576.23 32.2232 577.358 32.5858 578.137 33.3109C578.929 34.0361 579.326 35.1171 579.326 36.554V43H577.493V41.5899C577.17 42.0868 576.707 42.4696 576.103 42.7381C575.512 42.9933 574.807 43.1209 573.988 43.1209C572.792 43.1209 571.832 42.8321 571.107 42.2547C570.395 41.6772 570.039 40.9185 570.039 39.9785C570.039 39.0384 570.382 38.2864 571.067 37.7224C571.752 37.1449 572.839 36.8562 574.33 36.8562H577.392V36.4735C577.392 35.6409 577.15 35.003 576.667 34.5598C576.183 34.1167 575.471 33.8951 574.531 33.8951C573.9 33.8951 573.283 34.0025 572.678 34.2174C572.074 34.4188 571.564 34.6941 571.147 35.0433L570.342 33.5929C570.892 33.1498 571.55 32.814 572.316 32.5858C573.081 32.344 573.894 32.2232 574.753 32.2232ZM574.31 41.6302C575.048 41.6302 575.686 41.4691 576.223 41.1468C576.761 40.8111 577.15 40.341 577.392 39.7367V38.2461H574.411C572.772 38.2461 571.953 38.7967 571.953 39.8979C571.953 40.435 572.161 40.8581 572.578 41.1669C572.994 41.4758 573.571 41.6302 574.31 41.6302ZM588.605 32.2232C589.961 32.2232 591.036 32.6193 591.828 33.4116C592.634 34.1905 593.036 35.3387 593.036 36.8562V43H591.103V37.0778C591.103 36.0437 590.854 35.2649 590.357 34.7411C589.86 34.2174 589.149 33.9555 588.222 33.9555C587.175 33.9555 586.349 34.2644 585.744 34.8821C585.14 35.4864 584.838 36.3593 584.838 37.5008V43H582.904V32.3239H584.757V33.9354C585.147 33.3848 585.671 32.9618 586.329 32.6663C587 32.3709 587.759 32.2232 588.605 32.2232ZM602.025 32.3239H603.959V43H602.025V32.3239ZM602.992 30.2692C602.616 30.2692 602.3 30.1484 602.045 29.9067C601.803 29.6649 601.683 29.3695 601.683 29.0203C601.683 28.6712 601.803 28.3757 602.045 28.134C602.3 27.8789 602.616 27.7513 602.992 27.7513C603.368 27.7513 603.677 27.8721 603.918 28.1139C604.174 28.3422 604.301 28.6309 604.301 28.98C604.301 29.3426 604.174 29.6515 603.918 29.9067C603.677 30.1484 603.368 30.2692 602.992 30.2692ZM613.352 32.2232C614.708 32.2232 615.782 32.6193 616.575 33.4116C617.38 34.1905 617.783 35.3387 617.783 36.8562V43H615.849V37.0778C615.849 36.0437 615.601 35.2649 615.104 34.7411C614.607 34.2174 613.896 33.9555 612.969 33.9555C611.921 33.9555 611.096 34.2644 610.491 34.8821C609.887 35.4864 609.585 36.3593 609.585 37.5008V43H607.651V32.3239H609.504V33.9354C609.894 33.3848 610.417 32.9618 611.075 32.6663C611.747 32.3709 612.506 32.2232 613.352 32.2232ZM626.074 43.1209C624.986 43.1209 624.013 42.8859 623.153 42.4158C622.307 41.9458 621.643 41.3012 621.159 40.482C620.676 39.6494 620.434 38.7094 620.434 37.6619C620.434 36.6145 620.676 35.6812 621.159 34.862C621.643 34.0294 622.307 33.3848 623.153 32.9282C624.013 32.4582 624.986 32.2232 626.074 32.2232C627.041 32.2232 627.901 32.4179 628.653 32.8073C629.418 33.1968 630.009 33.7608 630.425 34.4994L628.955 35.4461C628.619 34.9358 628.203 34.5531 627.706 34.298C627.209 34.0428 626.658 33.9152 626.054 33.9152C625.356 33.9152 624.725 34.0697 624.161 34.3785C623.61 34.6874 623.174 35.1306 622.851 35.708C622.542 36.272 622.388 36.9233 622.388 37.6619C622.388 38.414 622.542 39.0787 622.851 39.6562C623.174 40.2202 623.61 40.6566 624.161 40.9655C624.725 41.2744 625.356 41.4288 626.054 41.4288C626.658 41.4288 627.209 41.3012 627.706 41.0461C628.203 40.7909 628.619 40.4082 628.955 39.8979L630.425 40.8245C630.009 41.5631 629.418 42.1338 628.653 42.5367C627.901 42.9261 627.041 43.1209 626.074 43.1209ZM634.782 34.1167C635.118 33.4989 635.615 33.0289 636.273 32.7066C636.931 32.3843 637.73 32.2232 638.67 32.2232V34.0965C638.562 34.0831 638.415 34.0764 638.227 34.0764C637.179 34.0764 636.353 34.392 635.749 35.0231C635.158 35.6409 634.863 36.5272 634.863 37.6821V43H632.929V32.3239H634.782V34.1167ZM650.604 37.7224C650.604 37.8701 650.59 38.0648 650.563 38.3065H641.902C642.022 39.2466 642.432 40.0053 643.13 40.5828C643.842 41.1468 644.722 41.4288 645.769 41.4288C647.045 41.4288 648.072 40.9991 648.851 40.1396L649.919 41.3885C649.435 41.9525 648.831 42.3823 648.106 42.6777C647.394 42.9731 646.595 43.1209 645.709 43.1209C644.581 43.1209 643.58 42.8926 642.707 42.436C641.834 41.966 641.156 41.3147 640.673 40.482C640.203 39.6494 639.968 38.7094 639.968 37.6619C639.968 36.6279 640.196 35.6946 640.653 34.862C641.123 34.0294 641.761 33.3848 642.566 32.9282C643.385 32.4582 644.305 32.2232 645.326 32.2232C646.347 32.2232 647.253 32.4582 648.045 32.9282C648.851 33.3848 649.476 34.0294 649.919 34.862C650.375 35.6946 650.604 36.648 650.604 37.7224ZM645.326 33.8548C644.399 33.8548 643.621 34.1368 642.989 34.7008C642.372 35.2649 642.009 36.0035 641.902 36.9166H648.75C648.643 36.0169 648.274 35.285 647.643 34.721C647.025 34.1435 646.253 33.8548 645.326 33.8548ZM663.361 28.0534V43H661.507V41.3079C661.078 41.8988 660.534 42.3487 659.876 42.6576C659.218 42.9664 658.493 43.1209 657.7 43.1209C656.666 43.1209 655.74 42.8926 654.921 42.436C654.101 41.9794 653.457 41.3415 652.987 40.5223C652.53 39.6897 652.302 38.7363 652.302 37.6619C652.302 36.5876 652.53 35.6409 652.987 34.8217C653.457 34.0025 654.101 33.3646 654.921 32.908C655.74 32.4515 656.666 32.2232 657.7 32.2232C658.466 32.2232 659.171 32.3709 659.815 32.6663C660.46 32.9483 660.997 33.3714 661.427 33.9354V28.0534H663.361ZM657.861 41.4288C658.533 41.4288 659.144 41.2744 659.695 40.9655C660.245 40.6432 660.675 40.2 660.984 39.636C661.293 39.0586 661.447 38.4005 661.447 37.6619C661.447 36.9233 661.293 36.272 660.984 35.708C660.675 35.1306 660.245 34.6874 659.695 34.3785C659.144 34.0697 658.533 33.9152 657.861 33.9152C657.177 33.9152 656.559 34.0697 656.008 34.3785C655.471 34.6874 655.041 35.1306 654.719 35.708C654.41 36.272 654.256 36.9233 654.256 37.6619C654.256 38.4005 654.41 39.0586 654.719 39.636C655.041 40.2 655.471 40.6432 656.008 40.9655C656.559 41.2744 657.177 41.4288 657.861 41.4288ZM667.02 32.3239H668.953V43H667.02V32.3239ZM667.986 30.2692C667.61 30.2692 667.295 30.1484 667.04 29.9067C666.798 29.6649 666.677 29.3695 666.677 29.0203C666.677 28.6712 666.798 28.3757 667.04 28.134C667.295 27.8789 667.61 27.7513 667.986 27.7513C668.362 27.7513 668.671 27.8721 668.913 28.1139C669.168 28.3422 669.296 28.6309 669.296 28.98C669.296 29.3426 669.168 29.6515 668.913 29.9067C668.671 30.1484 668.362 30.2692 667.986 30.2692ZM678.306 32.2232C679.34 32.2232 680.267 32.4515 681.086 32.908C681.905 33.3646 682.543 34.0025 682.999 34.8217C683.469 35.6409 683.704 36.5876 683.704 37.6619C683.704 38.7363 683.469 39.6897 682.999 40.5223C682.543 41.3415 681.905 41.9794 681.086 42.436C680.267 42.8926 679.34 43.1209 678.306 43.1209C677.514 43.1209 676.788 42.9664 676.13 42.6576C675.472 42.3487 674.929 41.8988 674.499 41.3079V43H672.646V28.0534H674.579V33.9354C675.009 33.3714 675.546 32.9483 676.191 32.6663C676.836 32.3709 677.541 32.2232 678.306 32.2232ZM678.145 41.4288C678.83 41.4288 679.441 41.2744 679.978 40.9655C680.528 40.6432 680.958 40.2 681.267 39.636C681.589 39.0586 681.751 38.4005 681.751 37.6619C681.751 36.9233 681.589 36.272 681.267 35.708C680.958 35.1306 680.528 34.6874 679.978 34.3785C679.441 34.0697 678.83 33.9152 678.145 33.9152C677.473 33.9152 676.862 34.0697 676.312 34.3785C675.761 34.6874 675.331 35.1306 675.023 35.708C674.714 36.272 674.559 36.9233 674.559 37.6619C674.559 38.4005 674.714 39.0586 675.023 39.636C675.331 40.2 675.761 40.6432 676.312 40.9655C676.862 41.2744 677.473 41.4288 678.145 41.4288ZM686.376 28.0534H688.31V43H686.376V28.0534ZM701.45 32.3239L696.273 44.0676C695.816 45.1554 695.279 45.9208 694.661 46.364C694.057 46.8071 693.325 47.0287 692.466 47.0287C691.942 47.0287 691.432 46.9414 690.935 46.7669C690.451 46.6057 690.048 46.364 689.726 46.0417L690.552 44.5913C691.103 45.1151 691.741 45.3769 692.466 45.3769C692.936 45.3769 693.325 45.2494 693.634 44.9942C693.956 44.7525 694.245 44.3295 694.5 43.7252L694.843 42.9799L690.129 32.3239H692.143L695.87 40.8648L699.556 32.3239H701.45ZM708.664 32.3239H710.598V43H708.664V32.3239ZM709.631 30.2692C709.255 30.2692 708.939 30.1484 708.684 29.9067C708.443 29.6649 708.322 29.3695 708.322 29.0203C708.322 28.6712 708.443 28.3757 708.684 28.134C708.939 27.8789 709.255 27.7513 709.631 27.7513C710.007 27.7513 710.316 27.8721 710.558 28.1139C710.813 28.3422 710.94 28.6309 710.94 28.98C710.94 29.3426 710.813 29.6515 710.558 29.9067C710.316 30.1484 710.007 30.2692 709.631 30.2692ZM727.645 32.2232C728.988 32.2232 730.049 32.6126 730.828 33.3915C731.62 34.1704 732.017 35.3253 732.017 36.8562V43H730.083V37.0778C730.083 36.0437 729.841 35.2649 729.358 34.7411C728.888 34.2174 728.209 33.9555 727.323 33.9555C726.343 33.9555 725.564 34.2644 724.986 34.8821C724.409 35.4864 724.12 36.3593 724.12 37.5008V43H722.186V37.0778C722.186 36.0437 721.945 35.2649 721.461 34.7411C720.991 34.2174 720.313 33.9555 719.427 33.9555C718.446 33.9555 717.668 34.2644 717.09 34.8821C716.513 35.4864 716.224 36.3593 716.224 37.5008V43H714.29V32.3239H716.143V33.9152C716.533 33.3646 717.043 32.9483 717.674 32.6663C718.305 32.3709 719.024 32.2232 719.83 32.2232C720.662 32.2232 721.401 32.391 722.045 32.7268C722.69 33.0625 723.187 33.5526 723.536 34.1972C723.939 33.5795 724.496 33.0961 725.208 32.7469C725.933 32.3977 726.746 32.2232 727.645 32.2232ZM741.235 32.2232C742.269 32.2232 743.196 32.4515 744.015 32.908C744.834 33.3646 745.472 34.0025 745.929 34.8217C746.399 35.6409 746.634 36.5876 746.634 37.6619C746.634 38.7363 746.399 39.6897 745.929 40.5223C745.472 41.3415 744.834 41.9794 744.015 42.436C743.196 42.8926 742.269 43.1209 741.235 43.1209C740.47 43.1209 739.765 42.9731 739.12 42.6777C738.489 42.3823 737.952 41.9525 737.508 41.3885V46.9079H735.575V32.3239H737.428V34.0159C737.858 33.4251 738.402 32.9819 739.06 32.6865C739.718 32.3776 740.443 32.2232 741.235 32.2232ZM741.074 41.4288C741.759 41.4288 742.37 41.2744 742.907 40.9655C743.458 40.6432 743.887 40.2 744.196 39.636C744.518 39.0586 744.68 38.4005 744.68 37.6619C744.68 36.9233 744.518 36.272 744.196 35.708C743.887 35.1306 743.458 34.6874 742.907 34.3785C742.37 34.0697 741.759 33.9152 741.074 33.9152C740.402 33.9152 739.791 34.0764 739.241 34.3987C738.704 34.7075 738.274 35.144 737.952 35.708C737.643 36.272 737.488 36.9233 737.488 37.6619C737.488 38.4005 737.643 39.0586 737.952 39.636C738.261 40.2 738.69 40.6432 739.241 40.9655C739.791 41.2744 740.402 41.4288 741.074 41.4288ZM753.878 43.1209C752.817 43.1209 751.864 42.8859 751.018 42.4158C750.172 41.9458 749.507 41.3012 749.023 40.482C748.553 39.6494 748.318 38.7094 748.318 37.6619C748.318 36.6145 748.553 35.6812 749.023 34.862C749.507 34.0294 750.172 33.3848 751.018 32.9282C751.864 32.4582 752.817 32.2232 753.878 32.2232C754.939 32.2232 755.886 32.4582 756.718 32.9282C757.564 33.3848 758.222 34.0294 758.692 34.862C759.176 35.6812 759.418 36.6145 759.418 37.6619C759.418 38.7094 759.176 39.6494 758.692 40.482C758.222 41.3012 757.564 41.9458 756.718 42.4158C755.886 42.8859 754.939 43.1209 753.878 43.1209ZM753.878 41.4288C754.563 41.4288 755.174 41.2744 755.711 40.9655C756.262 40.6432 756.691 40.2 757 39.636C757.309 39.0586 757.464 38.4005 757.464 37.6619C757.464 36.9233 757.309 36.272 757 35.708C756.691 35.1306 756.262 34.6874 755.711 34.3785C755.174 34.0697 754.563 33.9152 753.878 33.9152C753.193 33.9152 752.575 34.0697 752.025 34.3785C751.488 34.6874 751.058 35.1306 750.736 35.708C750.427 36.272 750.272 36.9233 750.272 37.6619C750.272 38.4005 750.427 39.0586 750.736 39.636C751.058 40.2 751.488 40.6432 752.025 40.9655C752.575 41.2744 753.193 41.4288 753.878 41.4288ZM763.945 34.1167C764.281 33.4989 764.778 33.0289 765.436 32.7066C766.094 32.3843 766.893 32.2232 767.833 32.2232V34.0965C767.725 34.0831 767.578 34.0764 767.39 34.0764C766.342 34.0764 765.516 34.392 764.912 35.0231C764.321 35.6409 764.026 36.5272 764.026 37.6821V43H762.092V32.3239H763.945V34.1167ZM776.652 42.3755C776.37 42.6173 776.021 42.8053 775.604 42.9396C775.188 43.0604 774.758 43.1209 774.315 43.1209C773.241 43.1209 772.408 42.8321 771.817 42.2547C771.226 41.6772 770.931 40.8513 770.931 39.777V33.9152H769.118V32.3239H770.931V29.9872H772.865V32.3239H775.927V33.9152H772.865V39.6964C772.865 40.2739 773.006 40.7171 773.288 41.0259C773.583 41.3348 774 41.4892 774.537 41.4892C775.128 41.4892 775.631 41.3214 776.047 40.9856L776.652 42.3755ZM782.877 32.2232C784.355 32.2232 785.483 32.5858 786.262 33.3109C787.054 34.0361 787.45 35.1171 787.45 36.554V43H785.617V41.5899C785.295 42.0868 784.831 42.4696 784.227 42.7381C783.636 42.9933 782.931 43.1209 782.112 43.1209C780.917 43.1209 779.957 42.8321 779.231 42.2547C778.52 41.6772 778.164 40.9185 778.164 39.9785C778.164 39.0384 778.506 38.2864 779.191 37.7224C779.876 37.1449 780.964 36.8562 782.454 36.8562H785.516V36.4735C785.516 35.6409 785.275 35.003 784.791 34.5598C784.308 34.1167 783.596 33.8951 782.656 33.8951C782.025 33.8951 781.407 34.0025 780.803 34.2174C780.198 34.4188 779.688 34.6941 779.272 35.0433L778.466 33.5929C779.017 33.1498 779.675 32.814 780.44 32.5858C781.206 32.344 782.018 32.2232 782.877 32.2232ZM782.434 41.6302C783.173 41.6302 783.811 41.4691 784.348 41.1468C784.885 40.8111 785.275 40.341 785.516 39.7367V38.2461H782.535C780.897 38.2461 780.078 38.7967 780.078 39.8979C780.078 40.435 780.286 40.8581 780.702 41.1669C781.118 41.4758 781.696 41.6302 782.434 41.6302ZM796.729 32.2232C798.086 32.2232 799.16 32.6193 799.952 33.4116C800.758 34.1905 801.161 35.3387 801.161 36.8562V43H799.227V37.0778C799.227 36.0437 798.979 35.2649 798.482 34.7411C797.985 34.2174 797.273 33.9555 796.347 33.9555C795.299 33.9555 794.473 34.2644 793.869 34.8821C793.265 35.4864 792.962 36.3593 792.962 37.5008V43H791.029V32.3239H792.882V33.9354C793.271 33.3848 793.795 32.9618 794.453 32.6663C795.125 32.3709 795.883 32.2232 796.729 32.2232ZM810.743 42.3755C810.461 42.6173 810.111 42.8053 809.695 42.9396C809.279 43.0604 808.849 43.1209 808.406 43.1209C807.332 43.1209 806.499 42.8321 805.908 42.2547C805.317 41.6772 805.022 40.8513 805.022 39.777V33.9152H803.209V32.3239H805.022V29.9872H806.956V32.3239H810.017V33.9152H806.956V39.6964C806.956 40.2739 807.097 40.7171 807.379 41.0259C807.674 41.3348 808.09 41.4892 808.627 41.4892C809.218 41.4892 809.722 41.3214 810.138 40.9856L810.743 42.3755ZM811.892 46.9079C812.698 45.4978 813.289 44.0206 813.665 42.4763C814.054 40.9319 814.249 39.2667 814.249 37.4806C814.249 35.6946 814.054 34.0294 813.665 32.485C813.289 30.9407 812.698 29.4635 811.892 28.0534H813.725C814.504 29.2621 815.102 30.6721 815.518 32.2836C815.934 33.8951 816.142 35.6274 816.142 37.4806C816.142 39.3204 815.934 41.0461 815.518 42.6576C815.102 44.269 814.504 45.6858 813.725 46.9079H811.892ZM51.4934 57.2232C52.5275 57.2232 53.4541 57.4515 54.2732 57.908C55.0924 58.3646 55.7303 59.0025 56.1869 59.8217C56.6569 60.6409 56.8919 61.5876 56.8919 62.6619C56.8919 63.7363 56.6569 64.6897 56.1869 65.5223C55.7303 66.3415 55.0924 66.9794 54.2732 67.436C53.4541 67.8926 52.5275 68.1209 51.4934 68.1209C50.728 68.1209 50.0229 67.9731 49.3783 67.6777C48.7472 67.3823 48.21 66.9525 47.7669 66.3885V71.9079H45.8331V57.3239H47.6863V59.0159C48.116 58.4251 48.6599 57.9819 49.3179 57.6865C49.9759 57.3776 50.7011 57.2232 51.4934 57.2232ZM51.3323 66.4288C52.0172 66.4288 52.6282 66.2744 53.1653 65.9655C53.7159 65.6432 54.1457 65.2 54.4545 64.636C54.7768 64.0586 54.938 63.4005 54.938 62.6619C54.938 61.9233 54.7768 61.272 54.4545 60.708C54.1457 60.1306 53.7159 59.6874 53.1653 59.3785C52.6282 59.0697 52.0172 58.9152 51.3323 58.9152C50.6608 58.9152 50.0498 59.0764 49.4992 59.3987C48.962 59.7075 48.5323 60.144 48.21 60.708C47.9011 61.272 47.7467 61.9233 47.7467 62.6619C47.7467 63.4005 47.9011 64.0586 48.21 64.636C48.5189 65.2 48.9486 65.6432 49.4992 65.9655C50.0498 66.2744 50.6608 66.4288 51.3323 66.4288ZM63.3531 57.2232C64.8303 57.2232 65.9584 57.5858 66.7373 58.3109C67.5296 59.0361 67.9257 60.1171 67.9257 61.554V68H66.0927V66.5899C65.7704 67.0868 65.3071 67.4696 64.7028 67.7381C64.1119 67.9933 63.4068 68.1209 62.5877 68.1209C61.3925 68.1209 60.4323 67.8321 59.7071 67.2547C58.9954 66.6772 58.6395 65.9185 58.6395 64.9785C58.6395 64.0384 58.982 63.2864 59.6669 62.7224C60.3517 62.1449 61.4395 61.8562 62.9301 61.8562H65.9919V61.4735C65.9919 60.6409 65.7502 60.003 65.2668 59.5598C64.7833 59.1167 64.0716 58.8951 63.1316 58.8951C62.5004 58.8951 61.8826 59.0025 61.2783 59.2174C60.674 59.4188 60.1637 59.6941 59.7474 60.0433L58.9417 58.5929C59.4923 58.1498 60.1503 57.814 60.9158 57.5858C61.6812 57.344 62.4937 57.2232 63.3531 57.2232ZM62.91 66.6302C63.6486 66.6302 64.2865 66.4691 64.8236 66.1468C65.3608 65.8111 65.7502 65.341 65.9919 64.7367V63.2461H63.0107C61.3723 63.2461 60.5532 63.7967 60.5532 64.8979C60.5532 65.435 60.7613 65.8581 61.1776 66.1669C61.5939 66.4758 62.1714 66.6302 62.91 66.6302ZM73.3576 59.1167C73.6933 58.4989 74.1902 58.0289 74.8482 57.7066C75.5062 57.3843 76.3053 57.2232 77.2453 57.2232V59.0965C77.1379 59.0831 76.9901 59.0764 76.8021 59.0764C75.7547 59.0764 74.9288 59.392 74.3245 60.0231C73.7336 60.6409 73.4382 61.5272 73.4382 62.6821V68H71.5044V57.3239H73.3576V59.1167ZM86.0643 67.3755C85.7823 67.6173 85.4331 67.8053 85.0168 67.9396C84.6005 68.0604 84.1708 68.1209 83.7276 68.1209C82.6533 68.1209 81.8207 67.8321 81.2298 67.2547C80.6389 66.6772 80.3435 65.8513 80.3435 64.777V58.9152H78.5306V57.3239H80.3435V54.9872H82.2773V57.3239H85.3391V58.9152H82.2773V64.6964C82.2773 65.2739 82.4183 65.7171 82.7003 66.0259C82.9957 66.3348 83.412 66.4892 83.9492 66.4892C84.5401 66.4892 85.0437 66.3214 85.46 65.9856L86.0643 67.3755ZM91.464 68.1209C90.5911 68.1209 89.7518 68.0067 88.9461 67.7784C88.1403 67.5367 87.5092 67.2345 87.0526 66.872L87.8583 65.341C88.3283 65.6768 88.8991 65.9454 89.5705 66.1468C90.242 66.3482 90.9201 66.4489 91.605 66.4489C93.2971 66.4489 94.1431 65.9655 94.1431 64.9986C94.1431 64.6763 94.029 64.4212 93.8007 64.2331C93.5724 64.0451 93.2837 63.9108 92.9345 63.8303C92.5988 63.7363 92.1153 63.6356 91.4842 63.5281C90.6247 63.3938 89.9197 63.2394 89.3691 63.0648C88.8319 62.8902 88.3686 62.5948 87.9792 62.1785C87.5897 61.7622 87.395 61.178 87.395 60.426C87.395 59.4591 87.7979 58.6869 88.6036 58.1095C89.4094 57.5186 90.4904 57.2232 91.8467 57.2232C92.5585 57.2232 93.2702 57.3105 93.982 57.485C94.6937 57.6596 95.2779 57.8946 95.7345 58.1901L94.9086 59.721C94.0357 59.157 93.0084 58.8749 91.8266 58.8749C91.0074 58.8749 90.383 59.0092 89.9532 59.2778C89.5235 59.5464 89.3086 59.9023 89.3086 60.3454C89.3086 60.6946 89.4295 60.9699 89.6712 61.1713C89.913 61.3728 90.2084 61.5205 90.5576 61.6145C90.9201 61.7085 91.4237 61.8159 92.0683 61.9368C92.9278 62.0845 93.6194 62.2456 94.1431 62.4202C94.6803 62.5814 95.1369 62.8634 95.5129 63.2663C95.8889 63.6691 96.0769 64.2331 96.0769 64.9583C96.0769 65.9252 95.6606 66.6974 94.828 67.2748C94.0088 67.8389 92.8875 68.1209 91.464 68.1209ZM108.476 68.1209C107.415 68.1209 106.462 67.8859 105.616 67.4158C104.769 66.9458 104.105 66.3012 103.621 65.482C103.151 64.6494 102.916 63.7094 102.916 62.6619C102.916 61.6145 103.151 60.6812 103.621 59.862C104.105 59.0294 104.769 58.3848 105.616 57.9282C106.462 57.4582 107.415 57.2232 108.476 57.2232C109.537 57.2232 110.484 57.4582 111.316 57.9282C112.162 58.3848 112.82 59.0294 113.29 59.862C113.774 60.6812 114.015 61.6145 114.015 62.6619C114.015 63.7094 113.774 64.6494 113.29 65.482C112.82 66.3012 112.162 66.9458 111.316 67.4158C110.484 67.8859 109.537 68.1209 108.476 68.1209ZM108.476 66.4288C109.161 66.4288 109.772 66.2744 110.309 65.9655C110.86 65.6432 111.289 65.2 111.598 64.636C111.907 64.0586 112.061 63.4005 112.061 62.6619C112.061 61.9233 111.907 61.272 111.598 60.708C111.289 60.1306 110.86 59.6874 110.309 59.3785C109.772 59.0697 109.161 58.9152 108.476 58.9152C107.791 58.9152 107.173 59.0697 106.623 59.3785C106.086 59.6874 105.656 60.1306 105.334 60.708C105.025 61.272 104.87 61.9233 104.87 62.6619C104.87 63.4005 105.025 64.0586 105.334 64.636C105.656 65.2 106.086 65.6432 106.623 65.9655C107.173 66.2744 107.791 66.4288 108.476 66.4288ZM120.598 54.5239C119.443 54.5239 118.865 55.1484 118.865 56.3973V57.3239H121.967V58.9152H118.906V68H116.972V58.9152H115.159V57.3239H116.972V56.3771C116.972 55.3162 117.281 54.4769 117.898 53.8592C118.516 53.2414 119.382 52.9326 120.497 52.9326C120.927 52.9326 121.33 52.9863 121.706 53.0937C122.082 53.2012 122.404 53.3556 122.672 53.557L122.088 55.0275C121.645 54.6918 121.148 54.5239 120.598 54.5239ZM135.204 67.3755C134.922 67.6173 134.572 67.8053 134.156 67.9396C133.74 68.0604 133.31 68.1209 132.867 68.1209C131.793 68.1209 130.96 67.8321 130.369 67.2547C129.778 66.6772 129.483 65.8513 129.483 64.777V58.9152H127.67V57.3239H129.483V54.9872H131.417V57.3239H134.478V58.9152H131.417V64.6964C131.417 65.2739 131.558 65.7171 131.84 66.0259C132.135 66.3348 132.551 66.4892 133.089 66.4892C133.679 66.4892 134.183 66.3214 134.599 65.9856L135.204 67.3755ZM143.242 57.2232C144.599 57.2232 145.673 57.6193 146.465 58.4116C147.271 59.1905 147.674 60.3387 147.674 61.8562V68H145.74V62.0778C145.74 61.0437 145.492 60.2649 144.995 59.7411C144.498 59.2174 143.786 58.9555 142.859 58.9555C141.812 58.9555 140.986 59.2644 140.382 59.8821C139.778 60.4864 139.475 61.3593 139.475 62.5008V68H137.542V53.0534H139.475V58.8347C139.878 58.3244 140.402 57.9282 141.047 57.6462C141.705 57.3642 142.436 57.2232 143.242 57.2232ZM160.96 62.7224C160.96 62.8701 160.947 63.0648 160.92 63.3065H152.258C152.379 64.2466 152.789 65.0053 153.487 65.5828C154.199 66.1468 155.078 66.4288 156.126 66.4288C157.402 66.4288 158.429 65.9991 159.208 65.1396L160.276 66.3885C159.792 66.9525 159.188 67.3823 158.463 67.6777C157.751 67.9731 156.952 68.1209 156.066 68.1209C154.937 68.1209 153.937 67.8926 153.064 67.436C152.191 66.966 151.513 66.3147 151.03 65.482C150.56 64.6494 150.325 63.7094 150.325 62.6619C150.325 61.6279 150.553 60.6946 151.009 59.862C151.479 59.0294 152.117 58.3848 152.923 57.9282C153.742 57.4582 154.662 57.2232 155.683 57.2232C156.703 57.2232 157.61 57.4582 158.402 57.9282C159.208 58.3848 159.832 59.0294 160.276 59.862C160.732 60.6946 160.96 61.648 160.96 62.7224ZM155.683 58.8548C154.756 58.8548 153.977 59.1368 153.346 59.7008C152.728 60.2649 152.366 61.0035 152.258 61.9166H159.107C159 61.0169 158.63 60.285 157.999 59.721C157.382 59.1435 156.609 58.8548 155.683 58.8548ZM174.716 57.2232C175.75 57.2232 176.676 57.4515 177.495 57.908C178.315 58.3646 178.953 59.0025 179.409 59.8217C179.879 60.6409 180.114 61.5876 180.114 62.6619C180.114 63.7363 179.879 64.6897 179.409 65.5223C178.953 66.3415 178.315 66.9794 177.495 67.436C176.676 67.8926 175.75 68.1209 174.716 68.1209C173.95 68.1209 173.245 67.9731 172.601 67.6777C171.969 67.3823 171.432 66.9525 170.989 66.3885V71.9079H169.055V57.3239H170.909V59.0159C171.338 58.4251 171.882 57.9819 172.54 57.6865C173.198 57.3776 173.923 57.2232 174.716 57.2232ZM174.555 66.4288C175.239 66.4288 175.85 66.2744 176.388 65.9655C176.938 65.6432 177.368 65.2 177.677 64.636C177.999 64.0586 178.16 63.4005 178.16 62.6619C178.16 61.9233 177.999 61.272 177.677 60.708C177.368 60.1306 176.938 59.6874 176.388 59.3785C175.85 59.0697 175.239 58.9152 174.555 58.9152C173.883 58.9152 173.272 59.0764 172.721 59.3987C172.184 59.7075 171.755 60.144 171.432 60.708C171.123 61.272 170.969 61.9233 170.969 62.6619C170.969 63.4005 171.123 64.0586 171.432 64.636C171.741 65.2 172.171 65.6432 172.721 65.9655C173.272 66.2744 173.883 66.4288 174.555 66.4288ZM184.639 59.1167C184.975 58.4989 185.472 58.0289 186.13 57.7066C186.788 57.3843 187.587 57.2232 188.527 57.2232V59.0965C188.42 59.0831 188.272 59.0764 188.084 59.0764C187.036 59.0764 186.21 59.392 185.606 60.0231C185.015 60.6409 184.72 61.5272 184.72 62.6821V68H182.786V57.3239H184.639V59.1167ZM195.385 68.1209C194.324 68.1209 193.37 67.8859 192.524 67.4158C191.678 66.9458 191.013 66.3012 190.53 65.482C190.06 64.6494 189.825 63.7094 189.825 62.6619C189.825 61.6145 190.06 60.6812 190.53 59.862C191.013 59.0294 191.678 58.3848 192.524 57.9282C193.37 57.4582 194.324 57.2232 195.385 57.2232C196.445 57.2232 197.392 57.4582 198.225 57.9282C199.071 58.3848 199.729 59.0294 200.199 59.862C200.682 60.6812 200.924 61.6145 200.924 62.6619C200.924 63.7094 200.682 64.6494 200.199 65.482C199.729 66.3012 199.071 66.9458 198.225 67.4158C197.392 67.8859 196.445 68.1209 195.385 68.1209ZM195.385 66.4288C196.069 66.4288 196.681 66.2744 197.218 65.9655C197.768 65.6432 198.198 65.2 198.507 64.636C198.816 64.0586 198.97 63.4005 198.97 62.6619C198.97 61.9233 198.816 61.272 198.507 60.708C198.198 60.1306 197.768 59.6874 197.218 59.3785C196.681 59.0697 196.069 58.9152 195.385 58.9152C194.7 58.9152 194.082 59.0697 193.531 59.3785C192.994 59.6874 192.564 60.1306 192.242 60.708C191.933 61.272 191.779 61.9233 191.779 62.6619C191.779 63.4005 191.933 64.0586 192.242 64.636C192.564 65.2 192.994 65.6432 193.531 65.9655C194.082 66.2744 194.7 66.4288 195.385 66.4288ZM208.252 68.1209C207.164 68.1209 206.19 67.8859 205.331 67.4158C204.485 66.9458 203.82 66.3012 203.337 65.482C202.853 64.6494 202.611 63.7094 202.611 62.6619C202.611 61.6145 202.853 60.6812 203.337 59.862C203.82 59.0294 204.485 58.3848 205.331 57.9282C206.19 57.4582 207.164 57.2232 208.252 57.2232C209.219 57.2232 210.078 57.4179 210.83 57.8073C211.595 58.1968 212.186 58.7608 212.603 59.4994L211.132 60.4461C210.796 59.9358 210.38 59.5531 209.883 59.298C209.386 59.0428 208.836 58.9152 208.231 58.9152C207.533 58.9152 206.902 59.0697 206.338 59.3785C205.787 59.6874 205.351 60.1306 205.029 60.708C204.72 61.272 204.565 61.9233 204.565 62.6619C204.565 63.414 204.72 64.0787 205.029 64.6562C205.351 65.2202 205.787 65.6566 206.338 65.9655C206.902 66.2744 207.533 66.4288 208.231 66.4288C208.836 66.4288 209.386 66.3012 209.883 66.0461C210.38 65.7909 210.796 65.4082 211.132 64.8979L212.603 65.8245C212.186 66.5631 211.595 67.1338 210.83 67.5367C210.078 67.9261 209.219 68.1209 208.252 68.1209ZM224.598 62.7224C224.598 62.8701 224.584 63.0648 224.557 63.3065H215.896C216.017 64.2466 216.426 65.0053 217.124 65.5828C217.836 66.1468 218.716 66.4288 219.763 66.4288C221.039 66.4288 222.066 65.9991 222.845 65.1396L223.913 66.3885C223.429 66.9525 222.825 67.3823 222.1 67.6777C221.388 67.9731 220.589 68.1209 219.703 68.1209C218.575 68.1209 217.574 67.8926 216.701 67.436C215.829 66.966 215.15 66.3147 214.667 65.482C214.197 64.6494 213.962 63.7094 213.962 62.6619C213.962 61.6279 214.19 60.6946 214.647 59.862C215.117 59.0294 215.755 58.3848 216.56 57.9282C217.38 57.4582 218.299 57.2232 219.32 57.2232C220.341 57.2232 221.247 57.4582 222.039 57.9282C222.845 58.3848 223.47 59.0294 223.913 59.862C224.369 60.6946 224.598 61.648 224.598 62.7224ZM219.32 58.8548C218.393 58.8548 217.615 59.1368 216.983 59.7008C216.366 60.2649 216.003 61.0035 215.896 61.9166H222.744C222.637 61.0169 222.268 60.285 221.637 59.721C221.019 59.1435 220.247 58.8548 219.32 58.8548ZM230.345 68.1209C229.472 68.1209 228.633 68.0067 227.827 67.7784C227.021 67.5367 226.39 67.2345 225.933 66.872L226.739 65.341C227.209 65.6768 227.78 65.9454 228.451 66.1468C229.123 66.3482 229.801 66.4489 230.486 66.4489C232.178 66.4489 233.024 65.9655 233.024 64.9986C233.024 64.6763 232.91 64.4212 232.681 64.2331C232.453 64.0451 232.164 63.9108 231.815 63.8303C231.48 63.7363 230.996 63.6356 230.365 63.5281C229.505 63.3938 228.8 63.2394 228.25 63.0648C227.713 62.8902 227.249 62.5948 226.86 62.1785C226.47 61.7622 226.276 61.178 226.276 60.426C226.276 59.4591 226.679 58.6869 227.484 58.1095C228.29 57.5186 229.371 57.2232 230.728 57.2232C231.439 57.2232 232.151 57.3105 232.863 57.485C233.574 57.6596 234.159 57.8946 234.615 58.1901L233.789 59.721C232.916 59.157 231.889 58.8749 230.707 58.8749C229.888 58.8749 229.264 59.0092 228.834 59.2778C228.404 59.5464 228.189 59.9023 228.189 60.3454C228.189 60.6946 228.31 60.9699 228.552 61.1713C228.794 61.3728 229.089 61.5205 229.438 61.6145C229.801 61.7085 230.304 61.8159 230.949 61.9368C231.809 62.0845 232.5 62.2456 233.024 62.4202C233.561 62.5814 234.018 62.8634 234.394 63.2663C234.77 63.6691 234.958 64.2331 234.958 64.9583C234.958 65.9252 234.541 66.6974 233.709 67.2748C232.89 67.8389 231.768 68.1209 230.345 68.1209ZM240.436 68.1209C239.563 68.1209 238.724 68.0067 237.918 67.7784C237.113 67.5367 236.481 67.2345 236.025 66.872L236.831 65.341C237.301 65.6768 237.871 65.9454 238.543 66.1468C239.214 66.3482 239.892 66.4489 240.577 66.4489C242.269 66.4489 243.115 65.9655 243.115 64.9986C243.115 64.6763 243.001 64.4212 242.773 64.2331C242.545 64.0451 242.256 63.9108 241.907 63.8303C241.571 63.7363 241.088 63.6356 240.456 63.5281C239.597 63.3938 238.892 63.2394 238.341 63.0648C237.804 62.8902 237.341 62.5948 236.951 62.1785C236.562 61.7622 236.367 61.178 236.367 60.426C236.367 59.4591 236.77 58.6869 237.576 58.1095C238.382 57.5186 239.463 57.2232 240.819 57.2232C241.531 57.2232 242.242 57.3105 242.954 57.485C243.666 57.6596 244.25 57.8946 244.707 58.1901L243.881 59.721C243.008 59.157 241.981 58.8749 240.799 58.8749C239.98 58.8749 239.355 59.0092 238.925 59.2778C238.496 59.5464 238.281 59.9023 238.281 60.3454C238.281 60.6946 238.402 60.9699 238.643 61.1713C238.885 61.3728 239.181 61.5205 239.53 61.6145C239.892 61.7085 240.396 61.8159 241.041 61.9368C241.9 62.0845 242.592 62.2456 243.115 62.4202C243.653 62.5814 244.109 62.8634 244.485 63.2663C244.861 63.6691 245.049 64.2331 245.049 64.9583C245.049 65.9252 244.633 66.6974 243.8 67.2748C242.981 67.8389 241.86 68.1209 240.436 68.1209ZM247.929 68.1209C247.553 68.1209 247.231 67.9933 246.962 67.7381C246.694 67.4696 246.559 67.1338 246.559 66.731C246.559 66.3415 246.694 66.0192 246.962 65.7641C247.231 65.4955 247.553 65.3612 247.929 65.3612C248.305 65.3612 248.621 65.4888 248.876 65.7439C249.131 65.9991 249.259 66.3281 249.259 66.731C249.259 67.1338 249.124 67.4696 248.856 67.7381C248.601 67.9933 248.292 68.1209 247.929 68.1209ZM260.521 55.652H255.687V53.8995H267.35V55.652H262.516V68H260.521V55.652ZM274.963 57.2232C276.319 57.2232 277.393 57.6193 278.186 58.4116C278.991 59.1905 279.394 60.3387 279.394 61.8562V68H277.46V62.0778C277.46 61.0437 277.212 60.2649 276.715 59.7411C276.218 59.2174 275.506 58.9555 274.58 58.9555C273.532 58.9555 272.706 59.2644 272.102 59.8821C271.498 60.4864 271.196 61.3593 271.196 62.5008V68H269.262V53.0534H271.196V58.8347C271.599 58.3244 272.122 57.9282 272.767 57.6462C273.425 57.3642 274.157 57.2232 274.963 57.2232ZM282.973 57.3239H284.907V68H282.973V57.3239ZM283.94 55.2692C283.564 55.2692 283.248 55.1484 282.993 54.9067C282.751 54.6649 282.631 54.3695 282.631 54.0203C282.631 53.6712 282.751 53.3757 282.993 53.134C283.248 52.8789 283.564 52.7513 283.94 52.7513C284.316 52.7513 284.625 52.8721 284.866 53.1139C285.122 53.3422 285.249 53.6309 285.249 53.98C285.249 54.3426 285.122 54.6515 284.866 54.9067C284.625 55.1484 284.316 55.2692 283.94 55.2692ZM291.661 68.1209C290.788 68.1209 289.949 68.0067 289.143 67.7784C288.337 67.5367 287.706 67.2345 287.249 66.872L288.055 65.341C288.525 65.6768 289.096 65.9454 289.767 66.1468C290.439 66.3482 291.117 66.4489 291.802 66.4489C293.494 66.4489 294.34 65.9655 294.34 64.9986C294.34 64.6763 294.226 64.4212 293.997 64.2331C293.769 64.0451 293.48 63.9108 293.131 63.8303C292.796 63.7363 292.312 63.6356 291.681 63.5281C290.822 63.3938 290.116 63.2394 289.566 63.0648C289.029 62.8902 288.565 62.5948 288.176 62.1785C287.787 61.7622 287.592 61.178 287.592 60.426C287.592 59.4591 287.995 58.6869 288.8 58.1095C289.606 57.5186 290.687 57.2232 292.044 57.2232C292.755 57.2232 293.467 57.3105 294.179 57.485C294.891 57.6596 295.475 57.8946 295.931 58.1901L295.105 59.721C294.232 59.157 293.205 58.8749 292.023 58.8749C291.204 58.8749 290.58 59.0092 290.15 59.2778C289.72 59.5464 289.505 59.9023 289.505 60.3454C289.505 60.6946 289.626 60.9699 289.868 61.1713C290.11 61.3728 290.405 61.5205 290.754 61.6145C291.117 61.7085 291.621 61.8159 292.265 61.9368C293.125 62.0845 293.816 62.2456 294.34 62.4202C294.877 62.5814 295.334 62.8634 295.71 63.2663C296.086 63.6691 296.274 64.2331 296.274 64.9583C296.274 65.9252 295.857 66.6974 295.025 67.2748C294.206 67.8389 293.084 68.1209 291.661 68.1209ZM304.1 57.3239H306.034V68H304.1V57.3239ZM305.067 55.2692C304.691 55.2692 304.375 55.1484 304.12 54.9067C303.879 54.6649 303.758 54.3695 303.758 54.0203C303.758 53.6712 303.879 53.3757 304.12 53.134C304.375 52.8789 304.691 52.7513 305.067 52.7513C305.443 52.7513 305.752 52.8721 305.994 53.1139C306.249 53.3422 306.376 53.6309 306.376 53.98C306.376 54.3426 306.249 54.6515 305.994 54.9067C305.752 55.1484 305.443 55.2692 305.067 55.2692ZM312.788 68.1209C311.915 68.1209 311.076 68.0067 310.27 67.7784C309.464 67.5367 308.833 67.2345 308.377 66.872L309.182 65.341C309.652 65.6768 310.223 65.9454 310.895 66.1468C311.566 66.3482 312.244 66.4489 312.929 66.4489C314.621 66.4489 315.467 65.9655 315.467 64.9986C315.467 64.6763 315.353 64.4212 315.125 64.2331C314.896 64.0451 314.608 63.9108 314.259 63.8303C313.923 63.7363 313.439 63.6356 312.808 63.5281C311.949 63.3938 311.244 63.2394 310.693 63.0648C310.156 62.8902 309.693 62.5948 309.303 62.1785C308.914 61.7622 308.719 61.178 308.719 60.426C308.719 59.4591 309.122 58.6869 309.928 58.1095C310.733 57.5186 311.814 57.2232 313.171 57.2232C313.882 57.2232 314.594 57.3105 315.306 57.485C316.018 57.6596 316.602 57.8946 317.058 58.1901L316.233 59.721C315.36 59.157 314.332 58.8749 313.151 58.8749C312.331 58.8749 311.707 59.0092 311.277 59.2778C310.848 59.5464 310.633 59.9023 310.633 60.3454C310.633 60.6946 310.754 60.9699 310.995 61.1713C311.237 61.3728 311.532 61.5205 311.882 61.6145C312.244 61.7085 312.748 61.8159 313.392 61.9368C314.252 62.0845 314.943 62.2456 315.467 62.4202C316.004 62.5814 316.461 62.8634 316.837 63.2663C317.213 63.6691 317.401 64.2331 317.401 64.9583C317.401 65.9252 316.985 66.6974 316.152 67.2748C315.333 67.8389 314.212 68.1209 312.788 68.1209ZM341.383 57.3239L337.394 68H335.541L332.459 59.9023L329.337 68H327.483L323.515 57.3239H325.348L328.45 65.8245L331.673 57.3239H333.305L336.467 65.8648L339.65 57.3239H341.383ZM349.045 57.2232C350.402 57.2232 351.476 57.6193 352.268 58.4116C353.074 59.1905 353.477 60.3387 353.477 61.8562V68H351.543V62.0778C351.543 61.0437 351.295 60.2649 350.798 59.7411C350.301 59.2174 349.589 58.9555 348.663 58.9555C347.615 58.9555 346.789 59.2644 346.185 59.8821C345.581 60.4864 345.279 61.3593 345.279 62.5008V68H343.345V53.0534H345.279V58.8347C345.681 58.3244 346.205 57.9282 346.85 57.6462C347.508 57.3642 348.24 57.2232 349.045 57.2232ZM366.764 62.7224C366.764 62.8701 366.75 63.0648 366.723 63.3065H358.062C358.182 64.2466 358.592 65.0053 359.29 65.5828C360.002 66.1468 360.882 66.4288 361.929 66.4288C363.205 66.4288 364.232 65.9991 365.011 65.1396L366.079 66.3885C365.595 66.9525 364.991 67.3823 364.266 67.6777C363.554 67.9731 362.755 68.1209 361.869 68.1209C360.741 68.1209 359.74 67.8926 358.867 67.436C357.994 66.966 357.316 66.3147 356.833 65.482C356.363 64.6494 356.128 63.7094 356.128 62.6619C356.128 61.6279 356.356 60.6946 356.813 59.862C357.283 59.0294 357.921 58.3848 358.726 57.9282C359.545 57.4582 360.465 57.2232 361.486 57.2232C362.507 57.2232 363.413 57.4582 364.205 57.9282C365.011 58.3848 365.636 59.0294 366.079 59.862C366.535 60.6946 366.764 61.648 366.764 62.7224ZM361.486 58.8548C360.559 58.8548 359.78 59.1368 359.149 59.7008C358.532 60.2649 358.169 61.0035 358.062 61.9166H364.91C364.803 61.0169 364.434 60.285 363.802 59.721C363.185 59.1435 362.413 58.8548 361.486 58.8548ZM371.302 59.1167C371.638 58.4989 372.135 58.0289 372.793 57.7066C373.451 57.3843 374.25 57.2232 375.19 57.2232V59.0965C375.082 59.0831 374.935 59.0764 374.747 59.0764C373.699 59.0764 372.873 59.392 372.269 60.0231C371.678 60.6409 371.383 61.5272 371.383 62.6821V68H369.449V57.3239H371.302V59.1167ZM387.124 62.7224C387.124 62.8701 387.11 63.0648 387.083 63.3065H378.422C378.542 64.2466 378.952 65.0053 379.65 65.5828C380.362 66.1468 381.242 66.4288 382.289 66.4288C383.565 66.4288 384.592 65.9991 385.371 65.1396L386.439 66.3885C385.955 66.9525 385.351 67.3823 384.626 67.6777C383.914 67.9731 383.115 68.1209 382.229 68.1209C381.101 68.1209 380.1 67.8926 379.227 67.436C378.354 66.966 377.676 66.3147 377.193 65.482C376.723 64.6494 376.488 63.7094 376.488 62.6619C376.488 61.6279 376.716 60.6946 377.173 59.862C377.643 59.0294 378.281 58.3848 379.086 57.9282C379.905 57.4582 380.825 57.2232 381.846 57.2232C382.867 57.2232 383.773 57.4582 384.565 57.9282C385.371 58.3848 385.996 59.0294 386.439 59.862C386.895 60.6946 387.124 61.648 387.124 62.7224ZM381.846 58.8548C380.919 58.8548 380.14 59.1368 379.509 59.7008C378.892 60.2649 378.529 61.0035 378.422 61.9166H385.27C385.163 61.0169 384.794 60.285 384.163 59.721C383.545 59.1435 382.773 58.8548 381.846 58.8548ZM404.666 57.3239L399.489 69.0676C399.032 70.1554 398.495 70.9208 397.877 71.364C397.273 71.8071 396.541 72.0287 395.682 72.0287C395.158 72.0287 394.648 71.9414 394.151 71.7669C393.667 71.6057 393.265 71.364 392.942 71.0417L393.768 69.5913C394.319 70.1151 394.957 70.3769 395.682 70.3769C396.152 70.3769 396.541 70.2494 396.85 69.9942C397.172 69.7525 397.461 69.3295 397.716 68.7252L398.059 67.9799L393.345 57.3239H395.36L399.086 65.8648L402.772 57.3239H404.666ZM410.748 68.1209C409.687 68.1209 408.734 67.8859 407.888 67.4158C407.042 66.9458 406.377 66.3012 405.894 65.482C405.424 64.6494 405.189 63.7094 405.189 62.6619C405.189 61.6145 405.424 60.6812 405.894 59.862C406.377 59.0294 407.042 58.3848 407.888 57.9282C408.734 57.4582 409.687 57.2232 410.748 57.2232C411.809 57.2232 412.756 57.4582 413.588 57.9282C414.434 58.3848 415.092 59.0294 415.562 59.862C416.046 60.6812 416.288 61.6145 416.288 62.6619C416.288 63.7094 416.046 64.6494 415.562 65.482C415.092 66.3012 414.434 66.9458 413.588 67.4158C412.756 67.8859 411.809 68.1209 410.748 68.1209ZM410.748 66.4288C411.433 66.4288 412.044 66.2744 412.581 65.9655C413.132 65.6432 413.562 65.2 413.87 64.636C414.179 64.0586 414.334 63.4005 414.334 62.6619C414.334 61.9233 414.179 61.272 413.87 60.708C413.562 60.1306 413.132 59.6874 412.581 59.3785C412.044 59.0697 411.433 58.9152 410.748 58.9152C410.063 58.9152 409.446 59.0697 408.895 59.3785C408.358 59.6874 407.928 60.1306 407.606 60.708C407.297 61.272 407.142 61.9233 407.142 62.6619C407.142 63.4005 407.297 64.0586 407.606 64.636C407.928 65.2 408.358 65.6432 408.895 65.9655C409.446 66.2744 410.063 66.4288 410.748 66.4288ZM428.913 57.3239V68H427.08V66.3885C426.69 66.9391 426.173 67.3688 425.529 67.6777C424.898 67.9731 424.206 68.1209 423.454 68.1209C422.031 68.1209 420.909 67.7314 420.09 66.9525C419.271 66.1602 418.861 64.9986 418.861 63.4677V57.3239H420.795V63.2461C420.795 64.2801 421.044 65.0657 421.54 65.6029C422.037 66.1266 422.749 66.3885 423.676 66.3885C424.696 66.3885 425.502 66.0796 426.093 65.4619C426.684 64.8442 426.979 63.9713 426.979 62.8432V57.3239H428.913ZM442.657 68.1209C441.569 68.1209 440.596 67.8859 439.736 67.4158C438.89 66.9458 438.226 66.3012 437.742 65.482C437.259 64.6494 437.017 63.7094 437.017 62.6619C437.017 61.6145 437.259 60.6812 437.742 59.862C438.226 59.0294 438.89 58.3848 439.736 57.9282C440.596 57.4582 441.569 57.2232 442.657 57.2232C443.624 57.2232 444.484 57.4179 445.236 57.8073C446.001 58.1968 446.592 58.7608 447.008 59.4994L445.538 60.4461C445.202 59.9358 444.786 59.5531 444.289 59.298C443.792 59.0428 443.241 58.9152 442.637 58.9152C441.939 58.9152 441.308 59.0697 440.744 59.3785C440.193 59.6874 439.757 60.1306 439.434 60.708C439.125 61.272 438.971 61.9233 438.971 62.6619C438.971 63.414 439.125 64.0787 439.434 64.6562C439.757 65.2202 440.193 65.6566 440.744 65.9655C441.308 66.2744 441.939 66.4288 442.637 66.4288C443.241 66.4288 443.792 66.3012 444.289 66.0461C444.786 65.7909 445.202 65.4082 445.538 64.8979L447.008 65.8245C446.592 66.5631 446.001 67.1338 445.236 67.5367C444.484 67.9261 443.624 68.1209 442.657 68.1209ZM453.4 57.2232C454.877 57.2232 456.005 57.5858 456.784 58.3109C457.576 59.0361 457.972 60.1171 457.972 61.554V68H456.139V66.5899C455.817 67.0868 455.353 67.4696 454.749 67.7381C454.158 67.9933 453.453 68.1209 452.634 68.1209C451.439 68.1209 450.479 67.8321 449.754 67.2547C449.042 66.6772 448.686 65.9185 448.686 64.9785C448.686 64.0384 449.028 63.2864 449.713 62.7224C450.398 62.1449 451.486 61.8562 452.977 61.8562H456.038V61.4735C456.038 60.6409 455.797 60.003 455.313 59.5598C454.83 59.1167 454.118 58.8951 453.178 58.8951C452.547 58.8951 451.929 59.0025 451.325 59.2174C450.72 59.4188 450.21 59.6941 449.794 60.0433L448.988 58.5929C449.539 58.1498 450.197 57.814 450.962 57.5858C451.728 57.344 452.54 57.2232 453.4 57.2232ZM452.956 66.6302C453.695 66.6302 454.333 66.4691 454.87 66.1468C455.407 65.8111 455.797 65.341 456.038 64.7367V63.2461H453.057C451.419 63.2461 450.6 63.7967 450.6 64.8979C450.6 65.435 450.808 65.8581 451.224 66.1669C451.64 66.4758 452.218 66.6302 452.956 66.6302ZM467.251 57.2232C468.608 57.2232 469.682 57.6193 470.474 58.4116C471.28 59.1905 471.683 60.3387 471.683 61.8562V68H469.749V62.0778C469.749 61.0437 469.501 60.2649 469.004 59.7411C468.507 59.2174 467.795 58.9555 466.869 58.9555C465.821 58.9555 464.995 59.2644 464.391 59.8821C463.787 60.4864 463.485 61.3593 463.485 62.5008V68H461.551V57.3239H463.404V58.9354C463.793 58.3848 464.317 57.9618 464.975 57.6663C465.647 57.3709 466.405 57.2232 467.251 57.2232ZM480.671 53.0534H482.605V68H480.671V53.0534ZM495.946 62.7224C495.946 62.8701 495.933 63.0648 495.906 63.3065H487.244C487.365 64.2466 487.775 65.0053 488.473 65.5828C489.185 66.1468 490.064 66.4288 491.112 66.4288C492.388 66.4288 493.415 65.9991 494.194 65.1396L495.261 66.3885C494.778 66.9525 494.174 67.3823 493.449 67.6777C492.737 67.9731 491.938 68.1209 491.051 68.1209C489.923 68.1209 488.923 67.8926 488.05 67.436C487.177 66.966 486.499 66.3147 486.016 65.482C485.546 64.6494 485.311 63.7094 485.311 62.6619C485.311 61.6279 485.539 60.6946 485.995 59.862C486.465 59.0294 487.103 58.3848 487.909 57.9282C488.728 57.4582 489.648 57.2232 490.669 57.2232C491.689 57.2232 492.596 57.4582 493.388 57.9282C494.194 58.3848 494.818 59.0294 495.261 59.862C495.718 60.6946 495.946 61.648 495.946 62.7224ZM490.669 58.8548C489.742 58.8548 488.963 59.1368 488.332 59.7008C487.714 60.2649 487.352 61.0035 487.244 61.9166H494.093C493.986 61.0169 493.616 60.285 492.985 59.721C492.367 59.1435 491.595 58.8548 490.669 58.8548ZM504.634 67.3755C504.352 67.6173 504.003 67.8053 503.587 67.9396C503.171 68.0604 502.741 68.1209 502.298 68.1209C501.223 68.1209 500.391 67.8321 499.8 67.2547C499.209 66.6772 498.914 65.8513 498.914 64.777V58.9152H497.101V57.3239H498.914V54.9872H500.847V57.3239H503.909V58.9152H500.847V64.6964C500.847 65.2739 500.988 65.7171 501.27 66.0259C501.566 66.3348 501.982 66.4892 502.519 66.4892C503.11 66.4892 503.614 66.3214 504.03 65.9856L504.634 67.3755ZM521.829 57.3239L516.652 69.0676C516.196 70.1554 515.659 70.9208 515.041 71.364C514.437 71.8071 513.705 72.0287 512.845 72.0287C512.321 72.0287 511.811 71.9414 511.314 71.7669C510.831 71.6057 510.428 71.364 510.106 71.0417L510.932 69.5913C511.482 70.1151 512.12 70.3769 512.845 70.3769C513.315 70.3769 513.705 70.2494 514.014 69.9942C514.336 69.7525 514.625 69.3295 514.88 68.7252L515.222 67.9799L510.509 57.3239H512.523L516.25 65.8648L519.936 57.3239H521.829ZM527.912 68.1209C526.851 68.1209 525.897 67.8859 525.051 67.4158C524.205 66.9458 523.54 66.3012 523.057 65.482C522.587 64.6494 522.352 63.7094 522.352 62.6619C522.352 61.6145 522.587 60.6812 523.057 59.862C523.54 59.0294 524.205 58.3848 525.051 57.9282C525.897 57.4582 526.851 57.2232 527.912 57.2232C528.972 57.2232 529.919 57.4582 530.752 57.9282C531.598 58.3848 532.256 59.0294 532.726 59.862C533.209 60.6812 533.451 61.6145 533.451 62.6619C533.451 63.7094 533.209 64.6494 532.726 65.482C532.256 66.3012 531.598 66.9458 530.752 67.4158C529.919 67.8859 528.972 68.1209 527.912 68.1209ZM527.912 66.4288C528.596 66.4288 529.207 66.2744 529.745 65.9655C530.295 65.6432 530.725 65.2 531.034 64.636C531.343 64.0586 531.497 63.4005 531.497 62.6619C531.497 61.9233 531.343 61.272 531.034 60.708C530.725 60.1306 530.295 59.6874 529.745 59.3785C529.207 59.0697 528.596 58.9152 527.912 58.9152C527.227 58.9152 526.609 59.0697 526.058 59.3785C525.521 59.6874 525.091 60.1306 524.769 60.708C524.46 61.272 524.306 61.9233 524.306 62.6619C524.306 63.4005 524.46 64.0586 524.769 64.636C525.091 65.2 525.521 65.6432 526.058 65.9655C526.609 66.2744 527.227 66.4288 527.912 66.4288ZM546.076 57.3239V68H544.243V66.3885C543.854 66.9391 543.337 67.3688 542.692 67.6777C542.061 67.9731 541.369 68.1209 540.617 68.1209C539.194 68.1209 538.073 67.7314 537.253 66.9525C536.434 66.1602 536.025 64.9986 536.025 63.4677V57.3239H537.958V63.2461C537.958 64.2801 538.207 65.0657 538.704 65.6029C539.201 66.1266 539.912 66.3885 540.839 66.3885C541.86 66.3885 542.665 66.0796 543.256 65.4619C543.847 64.8442 544.143 63.9713 544.143 62.8432V57.3239H546.076ZM551.611 59.1167C551.947 58.4989 552.444 58.0289 553.102 57.7066C553.76 57.3843 554.559 57.2232 555.499 57.2232V59.0965C555.391 59.0831 555.244 59.0764 555.056 59.0764C554.008 59.0764 553.182 59.392 552.578 60.0231C551.987 60.6409 551.692 61.5272 551.692 62.6821V68H549.758V57.3239H551.611V59.1167ZM568.083 68.1209C566.995 68.1209 566.021 67.8859 565.162 67.4158C564.316 66.9458 563.651 66.3012 563.168 65.482C562.684 64.6494 562.442 63.7094 562.442 62.6619C562.442 61.6145 562.684 60.6812 563.168 59.862C563.651 59.0294 564.316 58.3848 565.162 57.9282C566.021 57.4582 566.995 57.2232 568.083 57.2232C569.05 57.2232 569.909 57.4179 570.661 57.8073C571.426 58.1968 572.017 58.7608 572.434 59.4994L570.963 60.4461C570.627 59.9358 570.211 59.5531 569.714 59.298C569.217 59.0428 568.667 58.9152 568.062 58.9152C567.364 58.9152 566.733 59.0697 566.169 59.3785C565.618 59.6874 565.182 60.1306 564.86 60.708C564.551 61.272 564.396 61.9233 564.396 62.6619C564.396 63.414 564.551 64.0787 564.86 64.6562C565.182 65.2202 565.618 65.6566 566.169 65.9655C566.733 66.2744 567.364 66.4288 568.062 66.4288C568.667 66.4288 569.217 66.3012 569.714 66.0461C570.211 65.7909 570.627 65.4082 570.963 64.8979L572.434 65.8245C572.017 66.5631 571.426 67.1338 570.661 67.5367C569.909 67.9261 569.05 68.1209 568.083 68.1209ZM576.791 59.1167C577.126 58.4989 577.623 58.0289 578.281 57.7066C578.939 57.3843 579.738 57.2232 580.678 57.2232V59.0965C580.571 59.0831 580.423 59.0764 580.235 59.0764C579.188 59.0764 578.362 59.392 577.757 60.0231C577.167 60.6409 576.871 61.5272 576.871 62.6821V68H574.937V57.3239H576.791V59.1167ZM592.612 62.7224C592.612 62.8701 592.599 63.0648 592.572 63.3065H583.91C584.031 64.2466 584.44 65.0053 585.139 65.5828C585.851 66.1468 586.73 66.4288 587.778 66.4288C589.053 66.4288 590.081 65.9991 590.86 65.1396L591.927 66.3885C591.444 66.9525 590.839 67.3823 590.114 67.6777C589.402 67.9731 588.603 68.1209 587.717 68.1209C586.589 68.1209 585.589 67.8926 584.716 67.436C583.843 66.966 583.165 66.3147 582.681 65.482C582.211 64.6494 581.976 63.7094 581.976 62.6619C581.976 61.6279 582.205 60.6946 582.661 59.862C583.131 59.0294 583.769 58.3848 584.575 57.9282C585.394 57.4582 586.314 57.2232 587.334 57.2232C588.355 57.2232 589.261 57.4582 590.054 57.9282C590.86 58.3848 591.484 59.0294 591.927 59.862C592.384 60.6946 592.612 61.648 592.612 62.7224ZM587.334 58.8548C586.408 58.8548 585.629 59.1368 584.998 59.7008C584.38 60.2649 584.017 61.0035 583.91 61.9166H590.759C590.651 61.0169 590.282 60.285 589.651 59.721C589.033 59.1435 588.261 58.8548 587.334 58.8548ZM598.89 57.2232C600.367 57.2232 601.495 57.5858 602.274 58.3109C603.066 59.0361 603.463 60.1171 603.463 61.554V68H601.629V66.5899C601.307 67.0868 600.844 67.4696 600.24 67.7381C599.649 67.9933 598.944 68.1209 598.124 68.1209C596.929 68.1209 595.969 67.8321 595.244 67.2547C594.532 66.6772 594.176 65.9185 594.176 64.9785C594.176 64.0384 594.519 63.2864 595.204 62.7224C595.889 62.1449 596.976 61.8562 598.467 61.8562H601.529V61.4735C601.529 60.6409 601.287 60.003 600.804 59.5598C600.32 59.1167 599.608 58.8951 598.668 58.8951C598.037 58.8951 597.419 59.0025 596.815 59.2174C596.211 59.4188 595.701 59.6941 595.284 60.0433L594.478 58.5929C595.029 58.1498 595.687 57.814 596.453 57.5858C597.218 57.344 598.03 57.2232 598.89 57.2232ZM598.447 66.6302C599.185 66.6302 599.823 66.4691 600.36 66.1468C600.898 65.8111 601.287 65.341 601.529 64.7367V63.2461H598.547C596.909 63.2461 596.09 63.7967 596.09 64.8979C596.09 65.435 596.298 65.8581 596.714 66.1669C597.131 66.4758 597.708 66.6302 598.447 66.6302ZM613.044 67.3755C612.762 67.6173 612.413 67.8053 611.997 67.9396C611.58 68.0604 611.15 68.1209 610.707 68.1209C609.633 68.1209 608.8 67.8321 608.21 67.2547C607.619 66.6772 607.323 65.8513 607.323 64.777V58.9152H605.51V57.3239H607.323V54.9872H609.257V57.3239H612.319V58.9152H609.257V64.6964C609.257 65.2739 609.398 65.7171 609.68 66.0259C609.975 66.3348 610.392 66.4892 610.929 66.4892C611.52 66.4892 612.023 66.3214 612.44 65.9856L613.044 67.3755ZM615.382 57.3239H617.316V68H615.382V57.3239ZM616.349 55.2692C615.973 55.2692 615.657 55.1484 615.402 54.9067C615.16 54.6649 615.039 54.3695 615.039 54.0203C615.039 53.6712 615.16 53.3757 615.402 53.134C615.657 52.8789 615.973 52.7513 616.349 52.7513C616.725 52.7513 617.034 52.8721 617.275 53.1139C617.531 53.3422 617.658 53.6309 617.658 53.98C617.658 54.3426 617.531 54.6515 617.275 54.9067C617.034 55.1484 616.725 55.2692 616.349 55.2692ZM630.455 57.3239L625.782 68H623.808L619.135 57.3239H621.149L624.815 65.8849L628.562 57.3239H630.455ZM632.26 57.3239H634.194V68H632.26V57.3239ZM633.227 55.2692C632.851 55.2692 632.535 55.1484 632.28 54.9067C632.038 54.6649 631.918 54.3695 631.918 54.0203C631.918 53.6712 632.038 53.3757 632.28 53.134C632.535 52.8789 632.851 52.7513 633.227 52.7513C633.603 52.7513 633.912 52.8721 634.154 53.1139C634.409 53.3422 634.536 53.6309 634.536 53.98C634.536 54.3426 634.409 54.6515 634.154 54.9067C633.912 55.1484 633.603 55.2692 633.227 55.2692ZM643.889 67.3755C643.607 67.6173 643.258 67.8053 642.841 67.9396C642.425 68.0604 641.995 68.1209 641.552 68.1209C640.478 68.1209 639.645 67.8321 639.054 67.2547C638.464 66.6772 638.168 65.8513 638.168 64.777V58.9152H636.355V57.3239H638.168V54.9872H640.102V57.3239H643.164V58.9152H640.102V64.6964C640.102 65.2739 640.243 65.7171 640.525 66.0259C640.82 66.3348 641.237 66.4892 641.774 66.4892C642.365 66.4892 642.868 66.3214 643.285 65.9856L643.889 67.3755ZM655.477 57.3239L650.301 69.0676C649.844 70.1554 649.307 70.9208 648.689 71.364C648.085 71.8071 647.353 72.0287 646.493 72.0287C645.97 72.0287 645.459 71.9414 644.962 71.7669C644.479 71.6057 644.076 71.364 643.754 71.0417L644.58 69.5913C645.13 70.1151 645.768 70.3769 646.493 70.3769C646.963 70.3769 647.353 70.2494 647.662 69.9942C647.984 69.7525 648.273 69.3295 648.528 68.7252L648.87 67.9799L644.157 57.3239H646.171L649.898 65.8648L653.584 57.3239H655.477ZM666.58 57.2232C668.057 57.2232 669.185 57.5858 669.964 58.3109C670.756 59.0361 671.152 60.1171 671.152 61.554V68H669.319V66.5899C668.997 67.0868 668.533 67.4696 667.929 67.7381C667.338 67.9933 666.633 68.1209 665.814 68.1209C664.619 68.1209 663.659 67.8321 662.934 67.2547C662.222 66.6772 661.866 65.9185 661.866 64.9785C661.866 64.0384 662.208 63.2864 662.893 62.7224C663.578 62.1449 664.666 61.8562 666.157 61.8562H669.218V61.4735C669.218 60.6409 668.977 60.003 668.493 59.5598C668.01 59.1167 667.298 58.8951 666.358 58.8951C665.727 58.8951 665.109 59.0025 664.505 59.2174C663.9 59.4188 663.39 59.6941 662.974 60.0433L662.168 58.5929C662.719 58.1498 663.377 57.814 664.142 57.5858C664.908 57.344 665.72 57.2232 666.58 57.2232ZM666.136 66.6302C666.875 66.6302 667.513 66.4691 668.05 66.1468C668.587 65.8111 668.977 65.341 669.218 64.7367V63.2461H666.237C664.599 63.2461 663.78 63.7967 663.78 64.8979C663.78 65.435 663.988 65.8581 664.404 66.1669C664.82 66.4758 665.398 66.6302 666.136 66.6302ZM680.431 57.2232C681.788 57.2232 682.862 57.6193 683.654 58.4116C684.46 59.1905 684.863 60.3387 684.863 61.8562V68H682.929V62.0778C682.929 61.0437 682.681 60.2649 682.184 59.7411C681.687 59.2174 680.975 58.9555 680.049 58.9555C679.001 58.9555 678.175 59.2644 677.571 59.8821C676.967 60.4864 676.665 61.3593 676.665 62.5008V68H674.731V57.3239H676.584V58.9354C676.973 58.3848 677.497 57.9618 678.155 57.6663C678.827 57.3709 679.585 57.2232 680.431 57.2232ZM698.573 53.0534V68H696.719V66.3079C696.29 66.8988 695.746 67.3487 695.088 67.6576C694.43 67.9664 693.705 68.1209 692.912 68.1209C691.878 68.1209 690.952 67.8926 690.132 67.436C689.313 66.9794 688.669 66.3415 688.199 65.5223C687.742 64.6897 687.514 63.7363 687.514 62.6619C687.514 61.5876 687.742 60.6409 688.199 59.8217C688.669 59.0025 689.313 58.3646 690.132 57.908C690.952 57.4515 691.878 57.2232 692.912 57.2232C693.678 57.2232 694.383 57.3709 695.027 57.6663C695.672 57.9483 696.209 58.3714 696.639 58.9354V53.0534H698.573ZM693.073 66.4288C693.745 66.4288 694.356 66.2744 694.907 65.9655C695.457 65.6432 695.887 65.2 696.196 64.636C696.505 64.0586 696.659 63.4005 696.659 62.6619C696.659 61.9233 696.505 61.272 696.196 60.708C695.887 60.1306 695.457 59.6874 694.907 59.3785C694.356 59.0697 693.745 58.9152 693.073 58.9152C692.389 58.9152 691.771 59.0697 691.22 59.3785C690.683 59.6874 690.253 60.1306 689.931 60.708C689.622 61.272 689.468 61.9233 689.468 62.6619C689.468 63.4005 689.622 64.0586 689.931 64.636C690.253 65.2 690.683 65.6432 691.22 65.9655C691.771 66.2744 692.389 66.4288 693.073 66.4288ZM707.641 57.3239H709.575V68H707.641V57.3239ZM708.608 55.2692C708.232 55.2692 707.917 55.1484 707.661 54.9067C707.42 54.6649 707.299 54.3695 707.299 54.0203C707.299 53.6712 707.42 53.3757 707.661 53.134C707.917 52.8789 708.232 52.7513 708.608 52.7513C708.984 52.7513 709.293 52.8721 709.535 53.1139C709.79 53.3422 709.917 53.6309 709.917 53.98C709.917 54.3426 709.79 54.6515 709.535 54.9067C709.293 55.1484 708.984 55.2692 708.608 55.2692ZM726.622 57.2232C727.965 57.2232 729.026 57.6126 729.805 58.3915C730.597 59.1704 730.994 60.3253 730.994 61.8562V68H729.06V62.0778C729.06 61.0437 728.818 60.2649 728.335 59.7411C727.865 59.2174 727.187 58.9555 726.3 58.9555C725.32 58.9555 724.541 59.2644 723.964 59.8821C723.386 60.4864 723.097 61.3593 723.097 62.5008V68H721.164V62.0778C721.164 61.0437 720.922 60.2649 720.438 59.7411C719.968 59.2174 719.29 58.9555 718.404 58.9555C717.424 58.9555 716.645 59.2644 716.067 59.8821C715.49 60.4864 715.201 61.3593 715.201 62.5008V68H713.267V57.3239H715.12V58.9152C715.51 58.3646 716.02 57.9483 716.651 57.6663C717.283 57.3709 718.001 57.2232 718.807 57.2232C719.639 57.2232 720.378 57.391 721.023 57.7268C721.667 58.0625 722.164 58.5526 722.513 59.1972C722.916 58.5795 723.473 58.0961 724.185 57.7469C724.91 57.3977 725.723 57.2232 726.622 57.2232ZM738.44 57.2232C739.917 57.2232 741.045 57.5858 741.824 58.3109C742.616 59.0361 743.012 60.1171 743.012 61.554V68H741.179V66.5899C740.857 67.0868 740.393 67.4696 739.789 67.7381C739.198 67.9933 738.493 68.1209 737.674 68.1209C736.479 68.1209 735.519 67.8321 734.794 67.2547C734.082 66.6772 733.726 65.9185 733.726 64.9785C733.726 64.0384 734.068 63.2864 734.753 62.7224C735.438 62.1449 736.526 61.8562 738.017 61.8562H741.078V61.4735C741.078 60.6409 740.837 60.003 740.353 59.5598C739.87 59.1167 739.158 58.8951 738.218 58.8951C737.587 58.8951 736.969 59.0025 736.365 59.2174C735.76 59.4188 735.25 59.6941 734.834 60.0433L734.028 58.5929C734.579 58.1498 735.237 57.814 736.002 57.5858C736.768 57.344 737.58 57.2232 738.44 57.2232ZM737.996 66.6302C738.735 66.6302 739.373 66.4691 739.91 66.1468C740.447 65.8111 740.837 65.341 741.078 64.7367V63.2461H738.097C736.459 63.2461 735.64 63.7967 735.64 64.8979C735.64 65.435 735.848 65.8581 736.264 66.1669C736.68 66.4758 737.258 66.6302 737.996 66.6302ZM756.863 57.3239V66.5497C756.863 68.4163 756.399 69.7928 755.473 70.6791C754.546 71.5788 753.163 72.0287 751.323 72.0287C750.316 72.0287 749.356 71.8877 748.443 71.6057C747.529 71.3371 746.791 70.9477 746.227 70.4374L747.153 68.9467C747.65 69.3765 748.261 69.7122 748.986 69.9539C749.725 70.2091 750.484 70.3367 751.263 70.3367C752.512 70.3367 753.431 70.0412 754.022 69.4503C754.627 68.8595 754.929 67.9597 754.929 66.7511V65.9051C754.472 66.4557 753.908 66.872 753.237 67.154C752.579 67.4225 751.86 67.5568 751.081 67.5568C750.061 67.5568 749.134 67.342 748.302 66.9122C747.482 66.4691 746.838 65.8581 746.368 65.0792C745.898 64.2869 745.663 63.3871 745.663 62.3799C745.663 61.3728 745.898 60.4797 746.368 59.7008C746.838 58.9085 747.482 58.2975 748.302 57.8678C749.134 57.438 750.061 57.2232 751.081 57.2232C751.887 57.2232 752.632 57.3709 753.317 57.6663C754.016 57.9618 754.586 58.3982 755.03 58.9757V57.3239H756.863ZM751.303 65.8648C752.001 65.8648 752.626 65.7171 753.176 65.4216C753.74 65.1262 754.177 64.7166 754.486 64.1929C754.808 63.6557 754.969 63.0514 754.969 62.3799C754.969 61.3459 754.627 60.5133 753.942 59.8821C753.257 59.2375 752.377 58.9152 751.303 58.9152C750.215 58.9152 749.329 59.2375 748.644 59.8821C747.959 60.5133 747.617 61.3459 747.617 62.3799C747.617 63.0514 747.771 63.6557 748.08 64.1929C748.402 64.7166 748.839 65.1262 749.389 65.4216C749.953 65.7171 750.591 65.8648 751.303 65.8648ZM760.558 57.3239H762.491V68H760.558V57.3239ZM761.524 55.2692C761.148 55.2692 760.833 55.1484 760.578 54.9067C760.336 54.6649 760.215 54.3695 760.215 54.0203C760.215 53.6712 760.336 53.3757 760.578 53.134C760.833 52.8789 761.148 52.7513 761.524 52.7513C761.9 52.7513 762.209 52.8721 762.451 53.1139C762.706 53.3422 762.834 53.6309 762.834 53.98C762.834 54.3426 762.706 54.6515 762.451 54.9067C762.209 55.1484 761.9 55.2692 761.524 55.2692ZM771.884 57.2232C773.241 57.2232 774.315 57.6193 775.107 58.4116C775.913 59.1905 776.316 60.3387 776.316 61.8562V68H774.382V62.0778C774.382 61.0437 774.134 60.2649 773.637 59.7411C773.14 59.2174 772.428 58.9555 771.502 58.9555C770.454 58.9555 769.628 59.2644 769.024 59.8821C768.42 60.4864 768.117 61.3593 768.117 62.5008V68H766.184V57.3239H768.037V58.9354C768.426 58.3848 768.95 57.9618 769.608 57.6663C770.279 57.3709 771.038 57.2232 771.884 57.2232ZM783.782 57.2232C785.26 57.2232 786.388 57.5858 787.166 58.3109C787.959 59.0361 788.355 60.1171 788.355 61.554V68H786.522V66.5899C786.2 67.0868 785.736 67.4696 785.132 67.7381C784.541 67.9933 783.836 68.1209 783.017 68.1209C781.822 68.1209 780.861 67.8321 780.136 67.2547C779.425 66.6772 779.069 65.9185 779.069 64.9785C779.069 64.0384 779.411 63.2864 780.096 62.7224C780.781 62.1449 781.869 61.8562 783.359 61.8562H786.421V61.4735C786.421 60.6409 786.179 60.003 785.696 59.5598C785.213 59.1167 784.501 58.8951 783.561 58.8951C782.93 58.8951 782.312 59.0025 781.708 59.2174C781.103 59.4188 780.593 59.6941 780.177 60.0433L779.371 58.5929C779.921 58.1498 780.579 57.814 781.345 57.5858C782.11 57.344 782.923 57.2232 783.782 57.2232ZM783.339 66.6302C784.078 66.6302 784.716 66.4691 785.253 66.1468C785.79 65.8111 786.179 65.341 786.421 64.7367V63.2461H783.44C781.802 63.2461 780.982 63.7967 780.982 64.8979C780.982 65.435 781.19 65.8581 781.607 66.1669C782.023 66.4758 782.601 66.6302 783.339 66.6302ZM797.936 67.3755C797.654 67.6173 797.305 67.8053 796.889 67.9396C796.473 68.0604 796.043 68.1209 795.6 68.1209C794.525 68.1209 793.693 67.8321 793.102 67.2547C792.511 66.6772 792.216 65.8513 792.216 64.777V58.9152H790.403V57.3239H792.216V54.9872H794.149V57.3239H797.211V58.9152H794.149V64.6964C794.149 65.2739 794.29 65.7171 794.572 66.0259C794.868 66.3348 795.284 66.4892 795.821 66.4892C796.412 66.4892 796.916 66.3214 797.332 65.9856L797.936 67.3755ZM800.274 57.3239H802.208V68H800.274V57.3239ZM801.241 55.2692C800.865 55.2692 800.55 55.1484 800.294 54.9067C800.053 54.6649 799.932 54.3695 799.932 54.0203C799.932 53.6712 800.053 53.3757 800.294 53.134C800.55 52.8789 800.865 52.7513 801.241 52.7513C801.617 52.7513 801.926 52.8721 802.168 53.1139C802.423 53.3422 802.551 53.6309 802.551 53.98C802.551 54.3426 802.423 54.6515 802.168 54.9067C801.926 55.1484 801.617 55.2692 801.241 55.2692ZM810.473 68.1209C809.412 68.1209 808.459 67.8859 807.613 67.4158C806.767 66.9458 806.102 66.3012 805.618 65.482C805.148 64.6494 804.913 63.7094 804.913 62.6619C804.913 61.6145 805.148 60.6812 805.618 59.862C806.102 59.0294 806.767 58.3848 807.613 57.9282C808.459 57.4582 809.412 57.2232 810.473 57.2232C811.534 57.2232 812.481 57.4582 813.313 57.9282C814.159 58.3848 814.817 59.0294 815.287 59.862C815.771 60.6812 816.012 61.6145 816.012 62.6619C816.012 63.7094 815.771 64.6494 815.287 65.482C814.817 66.3012 814.159 66.9458 813.313 67.4158C812.481 67.8859 811.534 68.1209 810.473 68.1209ZM810.473 66.4288C811.158 66.4288 811.769 66.2744 812.306 65.9655C812.857 65.6432 813.286 65.2 813.595 64.636C813.904 64.0586 814.058 63.4005 814.058 62.6619C814.058 61.9233 813.904 61.272 813.595 60.708C813.286 60.1306 812.857 59.6874 812.306 59.3785C811.769 59.0697 811.158 58.9152 810.473 58.9152C809.788 58.9152 809.17 59.0697 808.62 59.3785C808.083 59.6874 807.653 60.1306 807.331 60.708C807.022 61.272 806.867 61.9233 806.867 62.6619C806.867 63.4005 807.022 64.0586 807.331 64.636C807.653 65.2 808.083 65.6432 808.62 65.9655C809.17 66.2744 809.788 66.4288 810.473 66.4288ZM824.387 57.2232C825.744 57.2232 826.818 57.6193 827.61 58.4116C828.416 59.1905 828.819 60.3387 828.819 61.8562V68H826.885V62.0778C826.885 61.0437 826.637 60.2649 826.14 59.7411C825.643 59.2174 824.931 58.9555 824.005 58.9555C822.957 58.9555 822.131 59.2644 821.527 59.8821C820.923 60.4864 820.621 61.3593 820.621 62.5008V68H818.687V57.3239H820.54V58.9354C820.929 58.3848 821.453 57.9618 822.111 57.6663C822.783 57.3709 823.541 57.2232 824.387 57.2232ZM47.6863 84.1167C48.022 83.4989 48.5189 83.0289 49.1769 82.7066C49.8349 82.3843 50.634 82.2232 51.574 82.2232V84.0965C51.4666 84.0831 51.3188 84.0764 51.1308 84.0764C50.0834 84.0764 49.2575 84.392 48.6532 85.0231C48.0623 85.6409 47.7669 86.5272 47.7669 87.6821V93H45.8331V82.3239H47.6863V84.1167ZM64.046 82.3239V93H62.213V91.3885C61.8235 91.9391 61.3065 92.3688 60.6619 92.6777C60.0307 92.9731 59.3392 93.1209 58.5871 93.1209C57.1636 93.1209 56.0423 92.7314 55.2231 91.9525C54.404 91.1602 53.9944 89.9986 53.9944 88.4677V82.3239H55.9282V88.2461C55.9282 89.2801 56.1766 90.0657 56.6735 90.6029C57.1704 91.1266 57.8821 91.3885 58.8087 91.3885C59.8293 91.3885 60.6351 91.0796 61.2259 90.4619C61.8168 89.8442 62.1123 88.9713 62.1123 87.8432V82.3239H64.046ZM73.4281 82.2232C74.7844 82.2232 75.8587 82.6193 76.6511 83.4116C77.4568 84.1905 77.8597 85.3387 77.8597 86.8562V93H75.9259V87.0778C75.9259 86.0437 75.6775 85.2649 75.1806 84.7411C74.6837 84.2174 73.972 83.9555 73.0454 83.9555C71.9979 83.9555 71.172 84.2644 70.5677 84.8821C69.9634 85.4864 69.6612 86.3593 69.6612 87.5008V93H67.7274V82.3239H69.5807V83.9354C69.9701 83.3848 70.4938 82.9618 71.1519 82.6663C71.8233 82.3709 72.5821 82.2232 73.4281 82.2232ZM103.003 82.3239L99.0149 93H97.1617L94.0797 84.9023L90.9574 93H89.1042L85.1359 82.3239H86.969L90.0711 90.8245L93.2941 82.3239H94.9257L98.0883 90.8648L101.271 82.3239H103.003ZM104.966 82.3239H106.899V93H104.966V82.3239ZM105.932 80.2692C105.556 80.2692 105.241 80.1484 104.986 79.9067C104.744 79.6649 104.623 79.3695 104.623 79.0203C104.623 78.6712 104.744 78.3757 104.986 78.134C105.241 77.8789 105.556 77.7513 105.932 77.7513C106.308 77.7513 106.617 77.8721 106.859 78.1139C107.114 78.3422 107.242 78.6309 107.242 78.98C107.242 79.3426 107.114 79.6515 106.859 79.9067C106.617 80.1484 106.308 80.2692 105.932 80.2692ZM110.592 78.0534H112.525V93H110.592V78.0534ZM126.289 78.0534V93H124.436V91.3079C124.007 91.8988 123.463 92.3487 122.805 92.6576C122.147 92.9664 121.421 93.1209 120.629 93.1209C119.595 93.1209 118.668 92.8926 117.849 92.436C117.03 91.9794 116.386 91.3415 115.916 90.5223C115.459 89.6897 115.231 88.7363 115.231 87.6619C115.231 86.5876 115.459 85.6409 115.916 84.8217C116.386 84.0025 117.03 83.3646 117.849 82.908C118.668 82.4515 119.595 82.2232 120.629 82.2232C121.395 82.2232 122.1 82.3709 122.744 82.6663C123.389 82.9483 123.926 83.3714 124.356 83.9354V78.0534H126.289ZM120.79 91.4288C121.462 91.4288 122.073 91.2744 122.623 90.9655C123.174 90.6432 123.604 90.2 123.913 89.636C124.221 89.0586 124.376 88.4005 124.376 87.6619C124.376 86.9233 124.221 86.272 123.913 85.708C123.604 85.1306 123.174 84.6874 122.623 84.3785C122.073 84.0697 121.462 83.9152 120.79 83.9152C120.105 83.9152 119.488 84.0697 118.937 84.3785C118.4 84.6874 117.97 85.1306 117.648 85.708C117.339 86.272 117.185 86.9233 117.185 87.6619C117.185 88.4005 117.339 89.0586 117.648 89.636C117.97 90.2 118.4 90.6432 118.937 90.9655C119.488 91.2744 120.105 91.4288 120.79 91.4288ZM129.687 78.8995H131.963L131.58 88.5483H130.049L129.687 78.8995ZM130.835 93.1209C130.459 93.1209 130.143 93 129.888 92.7583C129.633 92.5031 129.505 92.1943 129.505 91.8317C129.505 91.4691 129.633 91.1669 129.888 90.9252C130.143 90.6701 130.459 90.5425 130.835 90.5425C131.211 90.5425 131.52 90.6701 131.761 90.9252C132.003 91.1669 132.124 91.4691 132.124 91.8317C132.124 92.1943 131.996 92.5031 131.741 92.7583C131.499 93 131.197 93.1209 130.835 93.1209Z" fill="white"/>
</svg>
