<svg width="883" height="96" viewBox="0 0 883 96" fill="none" xmlns="http://www.w3.org/2000/svg">
<rect width="883" height="96" fill="#353535"/>
<rect width="883" height="96" rx="48" fill="#3C8EBC"/>
<path d="M46.1151 28.8995H48.1294V43H46.1151V28.8995ZM62.1318 43.1209C61.044 43.1209 60.0704 42.8859 59.2109 42.4158C58.3649 41.9458 57.7002 41.3012 57.2167 40.482C56.7333 39.6494 56.4916 38.7094 56.4916 37.6619C56.4916 36.6145 56.7333 35.6812 57.2167 34.862C57.7002 34.0294 58.3649 33.3848 59.2109 32.9282C60.0704 32.4582 61.044 32.2232 62.1318 32.2232C63.0987 32.2232 63.9581 32.4179 64.7102 32.8073C65.4756 33.1968 66.0665 33.7608 66.4828 34.4994L65.0123 35.4461C64.6766 34.9358 64.2603 34.5531 63.7634 34.298C63.2665 34.0428 62.7159 33.9152 62.1116 33.9152C61.4133 33.9152 60.7821 34.0697 60.2181 34.3785C59.6675 34.6874 59.2311 35.1306 58.9088 35.708C58.5999 36.272 58.4455 36.9233 58.4455 37.6619C58.4455 38.414 58.5999 39.0787 58.9088 39.6562C59.2311 40.2202 59.6675 40.6566 60.2181 40.9655C60.7821 41.2744 61.4133 41.4288 62.1116 41.4288C62.7159 41.4288 63.2665 41.3012 63.7634 41.0461C64.2603 40.7909 64.6766 40.4082 65.0123 39.8979L66.4828 40.8245C66.0665 41.5631 65.4756 42.1338 64.7102 42.5367C63.9581 42.9261 63.0987 43.1209 62.1318 43.1209ZM70.8396 34.1167C71.1754 33.4989 71.6722 33.0289 72.3303 32.7066C72.9883 32.3843 73.7873 32.2232 74.7273 32.2232V34.0965C74.6199 34.0831 74.4722 34.0764 74.2842 34.0764C73.2367 34.0764 72.4108 34.392 71.8065 35.0231C71.2156 35.6409 70.9202 36.5272 70.9202 37.6821V43H68.9864V32.3239H70.8396V34.1167ZM86.6612 37.7224C86.6612 37.8701 86.6478 38.0648 86.6209 38.3065H77.9591C78.08 39.2466 78.4896 40.0053 79.1879 40.5828C79.8996 41.1468 80.7792 41.4288 81.8267 41.4288C83.1025 41.4288 84.1298 40.9991 84.9087 40.1396L85.9763 41.3885C85.4929 41.9525 84.8885 42.3823 84.1634 42.6777C83.4516 42.9731 82.6526 43.1209 81.7663 43.1209C80.6382 43.1209 79.6378 42.8926 78.7649 42.436C77.892 41.966 77.2138 41.3147 76.7304 40.482C76.2604 39.6494 76.0254 38.7094 76.0254 37.6619C76.0254 36.6279 76.2536 35.6946 76.7102 34.862C77.1803 34.0294 77.8181 33.3848 78.6239 32.9282C79.4431 32.4582 80.3629 32.2232 81.3836 32.2232C82.4042 32.2232 83.3106 32.4582 84.1029 32.9282C84.9087 33.3848 85.5331 34.0294 85.9763 34.862C86.4329 35.6946 86.6612 36.648 86.6612 37.7224ZM81.3836 33.8548C80.4569 33.8548 79.6781 34.1368 79.0469 34.7008C78.4292 35.2649 78.0666 36.0035 77.9591 36.9166H84.808C84.7005 36.0169 84.3312 35.285 83.7001 34.721C83.0823 34.1435 82.3102 33.8548 81.3836 33.8548ZM92.9391 32.2232C94.4163 32.2232 95.5443 32.5858 96.3232 33.3109C97.1155 34.0361 97.5117 35.1171 97.5117 36.554V43H95.6786V41.5899C95.3563 42.0868 94.893 42.4696 94.2887 42.7381C93.6978 42.9933 92.9928 43.1209 92.1736 43.1209C90.9784 43.1209 90.0182 42.8321 89.2931 42.2547C88.5813 41.6772 88.2255 40.9185 88.2255 39.9785C88.2255 39.0384 88.5679 38.2864 89.2528 37.7224C89.9377 37.1449 91.0254 36.8562 92.516 36.8562H95.5779V36.4735C95.5779 35.6409 95.3362 35.003 94.8527 34.5598C94.3693 34.1167 93.6575 33.8951 92.7175 33.8951C92.0863 33.8951 91.4686 34.0025 90.8643 34.2174C90.26 34.4188 89.7497 34.6941 89.3334 35.0433L88.5276 33.5929C89.0782 33.1498 89.7362 32.814 90.5017 32.5858C91.2671 32.344 92.0796 32.2232 92.9391 32.2232ZM92.4959 41.6302C93.2345 41.6302 93.8724 41.4691 94.4095 41.1468C94.9467 40.8111 95.3362 40.341 95.5779 39.7367V38.2461H92.5966C90.9583 38.2461 90.1391 38.7967 90.1391 39.8979C90.1391 40.435 90.3473 40.8581 90.7636 41.1669C91.1799 41.4758 91.7573 41.6302 92.4959 41.6302ZM107.093 42.3755C106.811 42.6173 106.462 42.8053 106.046 42.9396C105.629 43.0604 105.2 43.1209 104.756 43.1209C103.682 43.1209 102.85 42.8321 102.259 42.2547C101.668 41.6772 101.372 40.8513 101.372 39.777V33.9152H99.5594V32.3239H101.372V29.9872H103.306V32.3239H106.368V33.9152H103.306V39.6964C103.306 40.2739 103.447 40.7171 103.729 41.0259C104.025 41.3348 104.441 41.4892 104.978 41.4892C105.569 41.4892 106.072 41.3214 106.489 40.9856L107.093 42.3755ZM118.726 37.7224C118.726 37.8701 118.712 38.0648 118.685 38.3065H110.024C110.145 39.2466 110.554 40.0053 111.252 40.5828C111.964 41.1468 112.844 41.4288 113.891 41.4288C115.167 41.4288 116.194 40.9991 116.973 40.1396L118.041 41.3885C117.557 41.9525 116.953 42.3823 116.228 42.6777C115.516 42.9731 114.717 43.1209 113.831 43.1209C112.703 43.1209 111.702 42.8926 110.829 42.436C109.957 41.966 109.278 41.3147 108.795 40.482C108.325 39.6494 108.09 38.7094 108.09 37.6619C108.09 36.6279 108.318 35.6946 108.775 34.862C109.245 34.0294 109.883 33.3848 110.688 32.9282C111.508 32.4582 112.427 32.2232 113.448 32.2232C114.469 32.2232 115.375 32.4582 116.167 32.9282C116.973 33.3848 117.598 34.0294 118.041 34.862C118.497 35.6946 118.726 36.648 118.726 37.7224ZM113.448 33.8548C112.521 33.8548 111.743 34.1368 111.111 34.7008C110.494 35.2649 110.131 36.0035 110.024 36.9166H116.873C116.765 36.0169 116.396 35.285 115.765 34.721C115.147 34.1435 114.375 33.8548 113.448 33.8548ZM131.483 28.0534V43H129.63V41.3079C129.2 41.8988 128.656 42.3487 127.998 42.6576C127.34 42.9664 126.615 43.1209 125.822 43.1209C124.788 43.1209 123.862 42.8926 123.043 42.436C122.223 41.9794 121.579 41.3415 121.109 40.5223C120.652 39.6897 120.424 38.7363 120.424 37.6619C120.424 36.5876 120.652 35.6409 121.109 34.8217C121.579 34.0025 122.223 33.3646 123.043 32.908C123.862 32.4515 124.788 32.2232 125.822 32.2232C126.588 32.2232 127.293 32.3709 127.937 32.6663C128.582 32.9483 129.119 33.3714 129.549 33.9354V28.0534H131.483ZM125.984 41.4288C126.655 41.4288 127.266 41.2744 127.817 40.9655C128.367 40.6432 128.797 40.2 129.106 39.636C129.415 39.0586 129.569 38.4005 129.569 37.6619C129.569 36.9233 129.415 36.272 129.106 35.708C128.797 35.1306 128.367 34.6874 127.817 34.3785C127.266 34.0697 126.655 33.9152 125.984 33.9152C125.299 33.9152 124.681 34.0697 124.13 34.3785C123.593 34.6874 123.163 35.1306 122.841 35.708C122.532 36.272 122.378 36.9233 122.378 37.6619C122.378 38.4005 122.532 39.0586 122.841 39.636C123.163 40.2 123.593 40.6432 124.13 40.9655C124.681 41.2744 125.299 41.4288 125.984 41.4288ZM149.596 41.2475V43H139.464V41.6302L145.204 36.0907C145.903 35.4193 146.373 34.8418 146.615 34.3584C146.856 33.8615 146.977 33.3646 146.977 32.8678C146.977 32.1292 146.715 31.5584 146.192 31.1556C145.681 30.7393 144.943 30.5311 143.976 30.5311C142.418 30.5311 141.216 31.0414 140.37 32.062L139 30.8735C139.551 30.2021 140.269 29.6784 141.156 29.3023C142.055 28.9263 143.056 28.7383 144.157 28.7383C145.634 28.7383 146.809 29.0942 147.682 29.8059C148.555 30.5042 148.991 31.4577 148.991 32.6663C148.991 33.4184 148.83 34.1301 148.508 34.8015C148.186 35.473 147.575 36.2385 146.675 37.0979L142.364 41.2475H149.596ZM157.528 32.3239H159.462V43H157.528V32.3239ZM158.495 30.2692C158.119 30.2692 157.803 30.1484 157.548 29.9067C157.306 29.6649 157.185 29.3695 157.185 29.0203C157.185 28.6712 157.306 28.3757 157.548 28.134C157.803 27.8789 158.119 27.7513 158.495 27.7513C158.871 27.7513 159.18 27.8721 159.421 28.1139C159.676 28.3422 159.804 28.6309 159.804 28.98C159.804 29.3426 159.676 29.6515 159.421 29.9067C159.18 30.1484 158.871 30.2692 158.495 30.2692ZM176.509 32.2232C177.852 32.2232 178.913 32.6126 179.692 33.3915C180.484 34.1704 180.88 35.3253 180.88 36.8562V43H178.946V37.0778C178.946 36.0437 178.705 35.2649 178.221 34.7411C177.751 34.2174 177.073 33.9555 176.187 33.9555C175.206 33.9555 174.428 34.2644 173.85 34.8821C173.273 35.4864 172.984 36.3593 172.984 37.5008V43H171.05V37.0778C171.05 36.0437 170.808 35.2649 170.325 34.7411C169.855 34.2174 169.177 33.9555 168.29 33.9555C167.31 33.9555 166.531 34.2644 165.954 34.8821C165.376 35.4864 165.088 36.3593 165.088 37.5008V43H163.154V32.3239H165.007V33.9152C165.397 33.3646 165.907 32.9483 166.538 32.6663C167.169 32.3709 167.888 32.2232 168.693 32.2232C169.526 32.2232 170.265 32.391 170.909 32.7268C171.554 33.0625 172.051 33.5526 172.4 34.1972C172.803 33.5795 173.36 33.0961 174.072 32.7469C174.797 32.3977 175.609 32.2232 176.509 32.2232ZM190.099 32.2232C191.133 32.2232 192.059 32.4515 192.879 32.908C193.698 33.3646 194.336 34.0025 194.792 34.8217C195.262 35.6409 195.497 36.5876 195.497 37.6619C195.497 38.7363 195.262 39.6897 194.792 40.5223C194.336 41.3415 193.698 41.9794 192.879 42.436C192.059 42.8926 191.133 43.1209 190.099 43.1209C189.333 43.1209 188.628 42.9731 187.984 42.6777C187.353 42.3823 186.815 41.9525 186.372 41.3885V46.9079H184.438V32.3239H186.292V34.0159C186.721 33.4251 187.265 32.9819 187.923 32.6865C188.581 32.3776 189.306 32.2232 190.099 32.2232ZM189.938 41.4288C190.623 41.4288 191.234 41.2744 191.771 40.9655C192.321 40.6432 192.751 40.2 193.06 39.636C193.382 39.0586 193.543 38.4005 193.543 37.6619C193.543 36.9233 193.382 36.272 193.06 35.708C192.751 35.1306 192.321 34.6874 191.771 34.3785C191.234 34.0697 190.623 33.9152 189.938 33.9152C189.266 33.9152 188.655 34.0764 188.105 34.3987C187.567 34.7075 187.138 35.144 186.815 35.708C186.507 36.272 186.352 36.9233 186.352 37.6619C186.352 38.4005 186.507 39.0586 186.815 39.636C187.124 40.2 187.554 40.6432 188.105 40.9655C188.655 41.2744 189.266 41.4288 189.938 41.4288ZM202.742 43.1209C201.681 43.1209 200.727 42.8859 199.881 42.4158C199.035 41.9458 198.371 41.3012 197.887 40.482C197.417 39.6494 197.182 38.7094 197.182 37.6619C197.182 36.6145 197.417 35.6812 197.887 34.862C198.371 34.0294 199.035 33.3848 199.881 32.9282C200.727 32.4582 201.681 32.2232 202.742 32.2232C203.803 32.2232 204.749 32.4582 205.582 32.9282C206.428 33.3848 207.086 34.0294 207.556 34.862C208.039 35.6812 208.281 36.6145 208.281 37.6619C208.281 38.7094 208.039 39.6494 207.556 40.482C207.086 41.3012 206.428 41.9458 205.582 42.4158C204.749 42.8859 203.803 43.1209 202.742 43.1209ZM202.742 41.4288C203.427 41.4288 204.038 41.2744 204.575 40.9655C205.125 40.6432 205.555 40.2 205.864 39.636C206.173 39.0586 206.327 38.4005 206.327 37.6619C206.327 36.9233 206.173 36.272 205.864 35.708C205.555 35.1306 205.125 34.6874 204.575 34.3785C204.038 34.0697 203.427 33.9152 202.742 33.9152C202.057 33.9152 201.439 34.0697 200.889 34.3785C200.351 34.6874 199.922 35.1306 199.599 35.708C199.29 36.272 199.136 36.9233 199.136 37.6619C199.136 38.4005 199.29 39.0586 199.599 39.636C199.922 40.2 200.351 40.6432 200.889 40.9655C201.439 41.2744 202.057 41.4288 202.742 41.4288ZM212.809 34.1167C213.145 33.4989 213.641 33.0289 214.299 32.7066C214.957 32.3843 215.757 32.2232 216.697 32.2232V34.0965C216.589 34.0831 216.441 34.0764 216.253 34.0764C215.206 34.0764 214.38 34.392 213.776 35.0231C213.185 35.6409 212.889 36.5272 212.889 37.6821V43H210.956V32.3239H212.809V34.1167ZM225.516 42.3755C225.233 42.6173 224.884 42.8053 224.468 42.9396C224.052 43.0604 223.622 43.1209 223.179 43.1209C222.105 43.1209 221.272 42.8321 220.681 42.2547C220.09 41.6772 219.795 40.8513 219.795 39.777V33.9152H217.982V32.3239H219.795V29.9872H221.729V32.3239H224.79V33.9152H221.729V39.6964C221.729 40.2739 221.87 40.7171 222.152 41.0259C222.447 41.3348 222.863 41.4892 223.4 41.4892C223.991 41.4892 224.495 41.3214 224.911 40.9856L225.516 42.3755ZM231.741 32.2232C233.218 32.2232 234.346 32.5858 235.125 33.3109C235.918 34.0361 236.314 35.1171 236.314 36.554V43H234.481V41.5899C234.158 42.0868 233.695 42.4696 233.091 42.7381C232.5 42.9933 231.795 43.1209 230.976 43.1209C229.78 43.1209 228.82 42.8321 228.095 42.2547C227.383 41.6772 227.028 40.9185 227.028 39.9785C227.028 39.0384 227.37 38.2864 228.055 37.7224C228.74 37.1449 229.827 36.8562 231.318 36.8562H234.38V36.4735C234.38 35.6409 234.138 35.003 233.655 34.5598C233.171 34.1167 232.46 33.8951 231.52 33.8951C230.888 33.8951 230.271 34.0025 229.666 34.2174C229.062 34.4188 228.552 34.6941 228.135 35.0433L227.33 33.5929C227.88 33.1498 228.538 32.814 229.304 32.5858C230.069 32.344 230.882 32.2232 231.741 32.2232ZM231.298 41.6302C232.037 41.6302 232.674 41.4691 233.212 41.1468C233.749 40.8111 234.138 40.341 234.38 39.7367V38.2461H231.399C229.76 38.2461 228.941 38.7967 228.941 39.8979C228.941 40.435 229.149 40.8581 229.566 41.1669C229.982 41.4758 230.559 41.6302 231.298 41.6302ZM245.593 32.2232C246.949 32.2232 248.024 32.6193 248.816 33.4116C249.622 34.1905 250.025 35.3387 250.025 36.8562V43H248.091V37.0778C248.091 36.0437 247.842 35.2649 247.346 34.7411C246.849 34.2174 246.137 33.9555 245.21 33.9555C244.163 33.9555 243.337 34.2644 242.733 34.8821C242.128 35.4864 241.826 36.3593 241.826 37.5008V43H239.892V32.3239H241.746V33.9354C242.135 33.3848 242.659 32.9618 243.317 32.6663C243.988 32.3709 244.747 32.2232 245.593 32.2232ZM259.606 42.3755C259.324 42.6173 258.975 42.8053 258.559 42.9396C258.142 43.0604 257.713 43.1209 257.27 43.1209C256.195 43.1209 255.363 42.8321 254.772 42.2547C254.181 41.6772 253.885 40.8513 253.885 39.777V33.9152H252.072V32.3239H253.885V29.9872H255.819V32.3239H258.881V33.9152H255.819V39.6964C255.819 40.2739 255.96 40.7171 256.242 41.0259C256.538 41.3348 256.954 41.4892 257.491 41.4892C258.082 41.4892 258.586 41.3214 259.002 40.9856L259.606 42.3755ZM277.305 32.3239V43H275.472V41.3885C275.082 41.9391 274.565 42.3688 273.921 42.6777C273.289 42.9731 272.598 43.1209 271.846 43.1209C270.422 43.1209 269.301 42.7314 268.482 41.9525C267.663 41.1602 267.253 39.9986 267.253 38.4677V32.3239H269.187V38.2461C269.187 39.2801 269.435 40.0657 269.932 40.6029C270.429 41.1266 271.141 41.3885 272.067 41.3885C273.088 41.3885 273.894 41.0796 274.485 40.4619C275.076 39.8442 275.371 38.9713 275.371 37.8432V32.3239H277.305ZM284.048 43.1209C283.175 43.1209 282.336 43.0067 281.53 42.7784C280.724 42.5367 280.093 42.2345 279.637 41.872L280.442 40.341C280.912 40.6768 281.483 40.9454 282.154 41.1468C282.826 41.3482 283.504 41.4489 284.189 41.4489C285.881 41.4489 286.727 40.9655 286.727 39.9986C286.727 39.6763 286.613 39.4212 286.385 39.2331C286.156 39.0451 285.868 38.9108 285.518 38.8303C285.183 38.7363 284.699 38.6356 284.068 38.5281C283.209 38.3938 282.504 38.2394 281.953 38.0648C281.416 37.8902 280.953 37.5948 280.563 37.1785C280.174 36.7622 279.979 36.178 279.979 35.426C279.979 34.4591 280.382 33.6869 281.188 33.1095C281.993 32.5186 283.074 32.2232 284.431 32.2232C285.142 32.2232 285.854 32.3105 286.566 32.485C287.278 32.6596 287.862 32.8946 288.318 33.1901L287.493 34.721C286.62 34.157 285.592 33.8749 284.411 33.8749C283.591 33.8749 282.967 34.0092 282.537 34.2778C282.107 34.5464 281.893 34.9023 281.893 35.3454C281.893 35.6946 282.013 35.9699 282.255 36.1713C282.497 36.3728 282.792 36.5205 283.141 36.6145C283.504 36.7085 284.008 36.8159 284.652 36.9368C285.512 37.0845 286.203 37.2456 286.727 37.4202C287.264 37.5814 287.721 37.8634 288.097 38.2663C288.473 38.6691 288.661 39.2331 288.661 39.9583C288.661 40.9252 288.245 41.6974 287.412 42.2748C286.593 42.8389 285.471 43.1209 284.048 43.1209ZM300.726 37.7224C300.726 37.8701 300.713 38.0648 300.686 38.3065H292.024C292.145 39.2466 292.555 40.0053 293.253 40.5828C293.965 41.1468 294.844 41.4288 295.892 41.4288C297.168 41.4288 298.195 40.9991 298.974 40.1396L300.042 41.3885C299.558 41.9525 298.954 42.3823 298.229 42.6777C297.517 42.9731 296.718 43.1209 295.831 43.1209C294.703 43.1209 293.703 42.8926 292.83 42.436C291.957 41.966 291.279 41.3147 290.796 40.482C290.326 39.6494 290.091 38.7094 290.091 37.6619C290.091 36.6279 290.319 35.6946 290.775 34.862C291.245 34.0294 291.883 33.3848 292.689 32.9282C293.508 32.4582 294.428 32.2232 295.449 32.2232C296.469 32.2232 297.376 32.4582 298.168 32.9282C298.974 33.3848 299.598 34.0294 300.042 34.862C300.498 35.6946 300.726 36.648 300.726 37.7224ZM295.449 33.8548C294.522 33.8548 293.743 34.1368 293.112 34.7008C292.494 35.2649 292.132 36.0035 292.024 36.9166H298.873C298.766 36.0169 298.396 35.285 297.765 34.721C297.148 34.1435 296.375 33.8548 295.449 33.8548ZM305.265 34.1167C305.601 33.4989 306.097 33.0289 306.755 32.7066C307.414 32.3843 308.213 32.2232 309.153 32.2232V34.0965C309.045 34.0831 308.897 34.0764 308.709 34.0764C307.662 34.0764 306.836 34.392 306.232 35.0231C305.641 35.6409 305.345 36.5272 305.345 37.6821V43H303.412V32.3239H305.265V34.1167ZM320.991 29.5239C319.836 29.5239 319.259 30.1484 319.259 31.3973V32.3239H322.361V33.9152H319.299V43H317.365V33.9152H315.552V32.3239H317.365V31.3771C317.365 30.3162 317.674 29.4769 318.292 28.8592C318.91 28.2414 319.776 27.9326 320.89 27.9326C321.32 27.9326 321.723 27.9863 322.099 28.0937C322.475 28.2012 322.797 28.3556 323.066 28.557L322.482 30.0275C322.039 29.6918 321.542 29.5239 320.991 29.5239ZM324.194 28.0534H326.128V43H324.194V28.0534ZM334.383 43.1209C333.322 43.1209 332.369 42.8859 331.523 42.4158C330.677 41.9458 330.012 41.3012 329.529 40.482C329.059 39.6494 328.824 38.7094 328.824 37.6619C328.824 36.6145 329.059 35.6812 329.529 34.862C330.012 34.0294 330.677 33.3848 331.523 32.9282C332.369 32.4582 333.322 32.2232 334.383 32.2232C335.444 32.2232 336.391 32.4582 337.224 32.9282C338.07 33.3848 338.728 34.0294 339.198 34.862C339.681 35.6812 339.923 36.6145 339.923 37.6619C339.923 38.7094 339.681 39.6494 339.198 40.482C338.728 41.3012 338.07 41.9458 337.224 42.4158C336.391 42.8859 335.444 43.1209 334.383 43.1209ZM334.383 41.4288C335.068 41.4288 335.679 41.2744 336.216 40.9655C336.767 40.6432 337.197 40.2 337.506 39.636C337.815 39.0586 337.969 38.4005 337.969 37.6619C337.969 36.9233 337.815 36.272 337.506 35.708C337.197 35.1306 336.767 34.6874 336.216 34.3785C335.679 34.0697 335.068 33.9152 334.383 33.9152C333.699 33.9152 333.081 34.0697 332.53 34.3785C331.993 34.6874 331.563 35.1306 331.241 35.708C330.932 36.272 330.778 36.9233 330.778 37.6619C330.778 38.4005 330.932 39.0586 331.241 39.636C331.563 40.2 331.993 40.6432 332.53 40.9655C333.081 41.2744 333.699 41.4288 334.383 41.4288ZM358.457 32.3239L354.469 43H352.616L349.534 34.9023L346.411 43H344.558L340.59 32.3239H342.423L345.525 40.8245L348.748 32.3239H350.38L353.542 40.8648L356.725 32.3239H358.457ZM363.344 43.1209C362.471 43.1209 361.632 43.0067 360.826 42.7784C360.02 42.5367 359.389 42.2345 358.932 41.872L359.738 40.341C360.208 40.6768 360.779 40.9454 361.45 41.1468C362.122 41.3482 362.8 41.4489 363.485 41.4489C365.177 41.4489 366.023 40.9655 366.023 39.9986C366.023 39.6763 365.909 39.4212 365.68 39.2331C365.452 39.0451 365.163 38.9108 364.814 38.8303C364.479 38.7363 363.995 38.6356 363.364 38.5281C362.504 38.3938 361.799 38.2394 361.249 38.0648C360.712 37.8902 360.248 37.5948 359.859 37.1785C359.469 36.7622 359.275 36.178 359.275 35.426C359.275 34.4591 359.678 33.6869 360.483 33.1095C361.289 32.5186 362.37 32.2232 363.726 32.2232C364.438 32.2232 365.15 32.3105 365.862 32.485C366.573 32.6596 367.158 32.8946 367.614 33.1901L366.788 34.721C365.915 34.157 364.888 33.8749 363.706 33.8749C362.887 33.8749 362.263 34.0092 361.833 34.2778C361.403 34.5464 361.188 34.9023 361.188 35.3454C361.188 35.6946 361.309 35.9699 361.551 36.1713C361.793 36.3728 362.088 36.5205 362.437 36.6145C362.8 36.7085 363.303 36.8159 363.948 36.9368C364.808 37.0845 365.499 37.2456 366.023 37.4202C366.56 37.5814 367.017 37.8634 367.393 38.2663C367.769 38.6691 367.957 39.2331 367.957 39.9583C367.957 40.9252 367.54 41.6974 366.708 42.2748C365.889 42.8389 364.767 43.1209 363.344 43.1209ZM381.786 42.3755C381.504 42.6173 381.155 42.8053 380.738 42.9396C380.322 43.0604 379.892 43.1209 379.449 43.1209C378.375 43.1209 377.542 42.8321 376.951 42.2547C376.361 41.6772 376.065 40.8513 376.065 39.777V33.9152H374.252V32.3239H376.065V29.9872H377.999V32.3239H381.061V33.9152H377.999V39.6964C377.999 40.2739 378.14 40.7171 378.422 41.0259C378.717 41.3348 379.134 41.4892 379.671 41.4892C380.262 41.4892 380.765 41.3214 381.182 40.9856L381.786 42.3755ZM389.824 32.2232C391.181 32.2232 392.255 32.6193 393.047 33.4116C393.853 34.1905 394.256 35.3387 394.256 36.8562V43H392.322V37.0778C392.322 36.0437 392.074 35.2649 391.577 34.7411C391.08 34.2174 390.368 33.9555 389.442 33.9555C388.394 33.9555 387.568 34.2644 386.964 34.8821C386.36 35.4864 386.058 36.3593 386.058 37.5008V43H384.124V28.0534H386.058V33.8347C386.46 33.3244 386.984 32.9282 387.629 32.6462C388.287 32.3642 389.019 32.2232 389.824 32.2232ZM401.723 32.2232C403.2 32.2232 404.328 32.5858 405.107 33.3109C405.899 34.0361 406.295 35.1171 406.295 36.554V43H404.462V41.5899C404.14 42.0868 403.676 42.4696 403.072 42.7381C402.481 42.9933 401.776 43.1209 400.957 43.1209C399.762 43.1209 398.802 42.8321 398.077 42.2547C397.365 41.6772 397.009 40.9185 397.009 39.9785C397.009 39.0384 397.351 38.2864 398.036 37.7224C398.721 37.1449 399.809 36.8562 401.3 36.8562H404.361V36.4735C404.361 35.6409 404.12 35.003 403.636 34.5598C403.153 34.1167 402.441 33.8951 401.501 33.8951C400.87 33.8951 400.252 34.0025 399.648 34.2174C399.043 34.4188 398.533 34.6941 398.117 35.0433L397.311 33.5929C397.862 33.1498 398.52 32.814 399.285 32.5858C400.051 32.344 400.863 32.2232 401.723 32.2232ZM401.279 41.6302C402.018 41.6302 402.656 41.4691 403.193 41.1468C403.73 40.8111 404.12 40.341 404.361 39.7367V38.2461H401.38C399.742 38.2461 398.923 38.7967 398.923 39.8979C398.923 40.435 399.131 40.8581 399.547 41.1669C399.963 41.4758 400.541 41.6302 401.279 41.6302ZM415.877 42.3755C415.595 42.6173 415.245 42.8053 414.829 42.9396C414.413 43.0604 413.983 43.1209 413.54 43.1209C412.466 43.1209 411.633 42.8321 411.042 42.2547C410.451 41.6772 410.156 40.8513 410.156 39.777V33.9152H408.343V32.3239H410.156V29.9872H412.09V32.3239H415.151V33.9152H412.09V39.6964C412.09 40.2739 412.231 40.7171 412.513 41.0259C412.808 41.3348 413.224 41.4892 413.761 41.4892C414.352 41.4892 414.856 41.3214 415.272 40.9856L415.877 42.3755ZM429.627 42.3755C429.345 42.6173 428.996 42.8053 428.579 42.9396C428.163 43.0604 427.733 43.1209 427.29 43.1209C426.216 43.1209 425.383 42.8321 424.792 42.2547C424.202 41.6772 423.906 40.8513 423.906 39.777V33.9152H422.093V32.3239H423.906V29.9872H425.84V32.3239H428.902V33.9152H425.84V39.6964C425.84 40.2739 425.981 40.7171 426.263 41.0259C426.558 41.3348 426.975 41.4892 427.512 41.4892C428.103 41.4892 428.606 41.3214 429.023 40.9856L429.627 42.3755ZM435.853 32.2232C437.33 32.2232 438.458 32.5858 439.237 33.3109C440.029 34.0361 440.425 35.1171 440.425 36.554V43H438.592V41.5899C438.27 42.0868 437.807 42.4696 437.202 42.7381C436.611 42.9933 435.906 43.1209 435.087 43.1209C433.892 43.1209 432.932 42.8321 432.207 42.2547C431.495 41.6772 431.139 40.9185 431.139 39.9785C431.139 39.0384 431.481 38.2864 432.166 37.7224C432.851 37.1449 433.939 36.8562 435.43 36.8562H438.491V36.4735C438.491 35.6409 438.25 35.003 437.766 34.5598C437.283 34.1167 436.571 33.8951 435.631 33.8951C435 33.8951 434.382 34.0025 433.778 34.2174C433.173 34.4188 432.663 34.6941 432.247 35.0433L431.441 33.5929C431.992 33.1498 432.65 32.814 433.415 32.5858C434.181 32.344 434.993 32.2232 435.853 32.2232ZM435.409 41.6302C436.148 41.6302 436.786 41.4691 437.323 41.1468C437.86 40.8111 438.25 40.341 438.491 39.7367V38.2461H435.51C433.872 38.2461 433.053 38.7967 433.053 39.8979C433.053 40.435 433.261 40.8581 433.677 41.1669C434.093 41.4758 434.671 41.6302 435.409 41.6302ZM448.153 38.0245L445.938 40.0792V43H444.004V28.0534H445.938V37.6418L451.759 32.3239H454.096L449.604 36.7353L454.539 43H452.162L448.153 38.0245ZM465.613 37.7224C465.613 37.8701 465.599 38.0648 465.573 38.3065H456.911C457.032 39.2466 457.441 40.0053 458.14 40.5828C458.851 41.1468 459.731 41.4288 460.778 41.4288C462.054 41.4288 463.081 40.9991 463.86 40.1396L464.928 41.3885C464.445 41.9525 463.84 42.3823 463.115 42.6777C462.403 42.9731 461.604 43.1209 460.718 43.1209C459.59 43.1209 458.589 42.8926 457.717 42.436C456.844 41.966 456.166 41.3147 455.682 40.482C455.212 39.6494 454.977 38.7094 454.977 37.6619C454.977 36.6279 455.205 35.6946 455.662 34.862C456.132 34.0294 456.77 33.3848 457.576 32.9282C458.395 32.4582 459.315 32.2232 460.335 32.2232C461.356 32.2232 462.262 32.4582 463.055 32.9282C463.86 33.3848 464.485 34.0294 464.928 34.862C465.385 35.6946 465.613 36.648 465.613 37.7224ZM460.335 33.8548C459.409 33.8548 458.63 34.1368 457.999 34.7008C457.381 35.2649 457.018 36.0035 456.911 36.9166H463.76C463.652 36.0169 463.283 35.285 462.652 34.721C462.034 34.1435 461.262 33.8548 460.335 33.8548ZM479.711 42.3755C479.429 42.6173 479.079 42.8053 478.663 42.9396C478.247 43.0604 477.817 43.1209 477.374 43.1209C476.3 43.1209 475.467 42.8321 474.876 42.2547C474.285 41.6772 473.99 40.8513 473.99 39.777V33.9152H472.177V32.3239H473.99V29.9872H475.924V32.3239H478.985V33.9152H475.924V39.6964C475.924 40.2739 476.065 40.7171 476.347 41.0259C476.642 41.3348 477.058 41.4892 477.596 41.4892C478.186 41.4892 478.69 41.3214 479.106 40.9856L479.711 42.3755ZM487.749 32.2232C489.105 32.2232 490.18 32.6193 490.972 33.4116C491.778 34.1905 492.181 35.3387 492.181 36.8562V43H490.247V37.0778C490.247 36.0437 489.999 35.2649 489.502 34.7411C489.005 34.2174 488.293 33.9555 487.366 33.9555C486.319 33.9555 485.493 34.2644 484.889 34.8821C484.284 35.4864 483.982 36.3593 483.982 37.5008V43H482.048V28.0534H483.982V33.8347C484.385 33.3244 484.909 32.9282 485.553 32.6462C486.212 32.3642 486.943 32.2232 487.749 32.2232ZM505.467 37.7224C505.467 37.8701 505.454 38.0648 505.427 38.3065H496.765C496.886 39.2466 497.296 40.0053 497.994 40.5828C498.706 41.1468 499.585 41.4288 500.633 41.4288C501.909 41.4288 502.936 40.9991 503.715 40.1396L504.782 41.3885C504.299 41.9525 503.695 42.3823 502.97 42.6777C502.258 42.9731 501.459 43.1209 500.572 43.1209C499.444 43.1209 498.444 42.8926 497.571 42.436C496.698 41.966 496.02 41.3147 495.537 40.482C495.067 39.6494 494.832 38.7094 494.832 37.6619C494.832 36.6279 495.06 35.6946 495.516 34.862C495.986 34.0294 496.624 33.3848 497.43 32.9282C498.249 32.4582 499.169 32.2232 500.19 32.2232C501.21 32.2232 502.117 32.4582 502.909 32.9282C503.715 33.3848 504.339 34.0294 504.782 34.862C505.239 35.6946 505.467 36.648 505.467 37.7224ZM500.19 33.8548C499.263 33.8548 498.484 34.1368 497.853 34.7008C497.235 35.2649 496.873 36.0035 496.765 36.9166H503.614C503.507 36.0169 503.137 35.285 502.506 34.721C501.888 34.1435 501.116 33.8548 500.19 33.8548ZM523.513 32.3239V43H521.68V41.3885C521.291 41.9391 520.774 42.3688 520.129 42.6777C519.498 42.9731 518.806 43.1209 518.054 43.1209C516.631 43.1209 515.509 42.7314 514.69 41.9525C513.871 41.1602 513.462 39.9986 513.462 38.4677V32.3239H515.395V38.2461C515.395 39.2801 515.644 40.0657 516.141 40.6029C516.637 41.1266 517.349 41.3885 518.276 41.3885C519.296 41.3885 520.102 41.0796 520.693 40.4619C521.284 39.8442 521.579 38.9713 521.579 37.8432V32.3239H523.513ZM530.256 43.1209C529.384 43.1209 528.544 43.0067 527.738 42.7784C526.933 42.5367 526.302 42.2345 525.845 41.872L526.651 40.341C527.121 40.6768 527.691 40.9454 528.363 41.1468C529.034 41.3482 529.713 41.4489 530.397 41.4489C532.089 41.4489 532.936 40.9655 532.936 39.9986C532.936 39.6763 532.821 39.4212 532.593 39.2331C532.365 39.0451 532.076 38.9108 531.727 38.8303C531.391 38.7363 530.908 38.6356 530.277 38.5281C529.417 38.3938 528.712 38.2394 528.161 38.0648C527.624 37.8902 527.161 37.5948 526.772 37.1785C526.382 36.7622 526.187 36.178 526.187 35.426C526.187 34.4591 526.59 33.6869 527.396 33.1095C528.202 32.5186 529.283 32.2232 530.639 32.2232C531.351 32.2232 532.063 32.3105 532.774 32.485C533.486 32.6596 534.07 32.8946 534.527 33.1901L533.701 34.721C532.828 34.157 531.801 33.8749 530.619 33.8749C529.8 33.8749 529.175 34.0092 528.746 34.2778C528.316 34.5464 528.101 34.9023 528.101 35.3454C528.101 35.6946 528.222 35.9699 528.464 36.1713C528.705 36.3728 529.001 36.5205 529.35 36.6145C529.713 36.7085 530.216 36.8159 530.861 36.9368C531.72 37.0845 532.412 37.2456 532.936 37.4202C533.473 37.5814 533.929 37.8634 534.305 38.2663C534.681 38.6691 534.869 39.2331 534.869 39.9583C534.869 40.9252 534.453 41.6974 533.62 42.2748C532.801 42.8389 531.68 43.1209 530.256 43.1209ZM546.935 37.7224C546.935 37.8701 546.921 38.0648 546.895 38.3065H538.233C538.354 39.2466 538.763 40.0053 539.462 40.5828C540.173 41.1468 541.053 41.4288 542.1 41.4288C543.376 41.4288 544.403 40.9991 545.182 40.1396L546.25 41.3885C545.767 41.9525 545.162 42.3823 544.437 42.6777C543.725 42.9731 542.926 43.1209 542.04 43.1209C540.912 43.1209 539.911 42.8926 539.039 42.436C538.166 41.966 537.488 41.3147 537.004 40.482C536.534 39.6494 536.299 38.7094 536.299 37.6619C536.299 36.6279 536.527 35.6946 536.984 34.862C537.454 34.0294 538.092 33.3848 538.898 32.9282C539.717 32.4582 540.637 32.2232 541.657 32.2232C542.678 32.2232 543.584 32.4582 544.377 32.9282C545.182 33.3848 545.807 34.0294 546.25 34.862C546.707 35.6946 546.935 36.648 546.935 37.7224ZM541.657 33.8548C540.731 33.8548 539.952 34.1368 539.321 34.7008C538.703 35.2649 538.34 36.0035 538.233 36.9166H545.082C544.974 36.0169 544.605 35.285 543.974 34.721C543.356 34.1435 542.584 33.8548 541.657 33.8548ZM551.473 34.1167C551.809 33.4989 552.306 33.0289 552.964 32.7066C553.622 32.3843 554.421 32.2232 555.361 32.2232V34.0965C555.254 34.0831 555.106 34.0764 554.918 34.0764C553.87 34.0764 553.045 34.392 552.44 35.0231C551.849 35.6409 551.554 36.5272 551.554 37.6821V43H549.62V32.3239H551.473V34.1167ZM569.295 42.3755C569.013 42.6173 568.663 42.8053 568.247 42.9396C567.831 43.0604 567.401 43.1209 566.958 43.1209C565.884 43.1209 565.051 42.8321 564.46 42.2547C563.869 41.6772 563.574 40.8513 563.574 39.777V33.9152H561.761V32.3239H563.574V29.9872H565.508V32.3239H568.569V33.9152H565.508V39.6964C565.508 40.2739 565.649 40.7171 565.931 41.0259C566.226 41.3348 566.642 41.4892 567.179 41.4892C567.77 41.4892 568.274 41.3214 568.69 40.9856L569.295 42.3755ZM577.333 32.2232C578.689 32.2232 579.764 32.6193 580.556 33.4116C581.362 34.1905 581.765 35.3387 581.765 36.8562V43H579.831V37.0778C579.831 36.0437 579.583 35.2649 579.086 34.7411C578.589 34.2174 577.877 33.9555 576.95 33.9555C575.903 33.9555 575.077 34.2644 574.473 34.8821C573.868 35.4864 573.566 36.3593 573.566 37.5008V43H571.633V28.0534H573.566V33.8347C573.969 33.3244 574.493 32.9282 575.137 32.6462C575.796 32.3642 576.527 32.2232 577.333 32.2232ZM587.197 34.1167C587.532 33.4989 588.029 33.0289 588.687 32.7066C589.345 32.3843 590.144 32.2232 591.084 32.2232V34.0965C590.977 34.0831 590.829 34.0764 590.641 34.0764C589.594 34.0764 588.768 34.392 588.164 35.0231C587.573 35.6409 587.277 36.5272 587.277 37.6821V43H585.344V32.3239H587.197V34.1167ZM597.942 43.1209C596.881 43.1209 595.928 42.8859 595.082 42.4158C594.236 41.9458 593.571 41.3012 593.087 40.482C592.617 39.6494 592.382 38.7094 592.382 37.6619C592.382 36.6145 592.617 35.6812 593.087 34.862C593.571 34.0294 594.236 33.3848 595.082 32.9282C595.928 32.4582 596.881 32.2232 597.942 32.2232C599.003 32.2232 599.95 32.4582 600.782 32.9282C601.628 33.3848 602.286 34.0294 602.756 34.862C603.24 35.6812 603.482 36.6145 603.482 37.6619C603.482 38.7094 603.24 39.6494 602.756 40.482C602.286 41.3012 601.628 41.9458 600.782 42.4158C599.95 42.8859 599.003 43.1209 597.942 43.1209ZM597.942 41.4288C598.627 41.4288 599.238 41.2744 599.775 40.9655C600.326 40.6432 600.755 40.2 601.064 39.636C601.373 39.0586 601.528 38.4005 601.528 37.6619C601.528 36.9233 601.373 36.272 601.064 35.708C600.755 35.1306 600.326 34.6874 599.775 34.3785C599.238 34.0697 598.627 33.9152 597.942 33.9152C597.257 33.9152 596.639 34.0697 596.089 34.3785C595.552 34.6874 595.122 35.1306 594.8 35.708C594.491 36.272 594.336 36.9233 594.336 37.6619C594.336 38.4005 594.491 39.0586 594.8 39.636C595.122 40.2 595.552 40.6432 596.089 40.9655C596.639 41.2744 597.257 41.4288 597.942 41.4288ZM616.107 32.3239V43H614.274V41.3885C613.884 41.9391 613.367 42.3688 612.723 42.6777C612.092 42.9731 611.4 43.1209 610.648 43.1209C609.224 43.1209 608.103 42.7314 607.284 41.9525C606.465 41.1602 606.055 39.9986 606.055 38.4677V32.3239H607.989V38.2461C607.989 39.2801 608.237 40.0657 608.734 40.6029C609.231 41.1266 609.943 41.3885 610.87 41.3885C611.89 41.3885 612.696 41.0796 613.287 40.4619C613.878 39.8442 614.173 38.9713 614.173 37.8432V32.3239H616.107ZM630.001 32.3239V41.5497C630.001 43.4163 629.538 44.7928 628.611 45.6791C627.685 46.5788 626.301 47.0287 624.462 47.0287C623.454 47.0287 622.494 46.8877 621.581 46.6057C620.668 46.3371 619.929 45.9477 619.365 45.4374L620.292 43.9467C620.789 44.3765 621.4 44.7122 622.125 44.9539C622.864 45.2091 623.622 45.3367 624.401 45.3367C625.65 45.3367 626.57 45.0412 627.161 44.4503C627.765 43.8595 628.067 42.9597 628.067 41.7511V40.9051C627.611 41.4557 627.047 41.872 626.375 42.154C625.717 42.4225 624.999 42.5568 624.22 42.5568C623.199 42.5568 622.273 42.342 621.44 41.9122C620.621 41.4691 619.976 40.8581 619.506 40.0792C619.036 39.2869 618.801 38.3871 618.801 37.3799C618.801 36.3728 619.036 35.4797 619.506 34.7008C619.976 33.9085 620.621 33.2975 621.44 32.8678C622.273 32.438 623.199 32.2232 624.22 32.2232C625.026 32.2232 625.771 32.3709 626.456 32.6663C627.154 32.9618 627.725 33.3982 628.168 33.9757V32.3239H630.001ZM624.442 40.8648C625.14 40.8648 625.764 40.7171 626.315 40.4216C626.879 40.1262 627.315 39.7166 627.624 39.1929C627.946 38.6557 628.108 38.0514 628.108 37.3799C628.108 36.3459 627.765 35.5133 627.08 34.8821C626.395 34.2375 625.516 33.9152 624.442 33.9152C623.354 33.9152 622.467 34.2375 621.783 34.8821C621.098 35.5133 620.755 36.3459 620.755 37.3799C620.755 38.0514 620.91 38.6557 621.219 39.1929C621.541 39.7166 621.977 40.1262 622.528 40.4216C623.092 40.7171 623.73 40.8648 624.442 40.8648ZM639.397 32.2232C640.753 32.2232 641.827 32.6193 642.62 33.4116C643.425 34.1905 643.828 35.3387 643.828 36.8562V43H641.894V37.0778C641.894 36.0437 641.646 35.2649 641.149 34.7411C640.652 34.2174 639.941 33.9555 639.014 33.9555C637.966 33.9555 637.141 34.2644 636.536 34.8821C635.932 35.4864 635.63 36.3593 635.63 37.5008V43H633.696V28.0534H635.63V33.8347C636.033 33.3244 636.556 32.9282 637.201 32.6462C637.859 32.3642 638.591 32.2232 639.397 32.2232ZM658.82 42.3755C658.538 42.6173 658.188 42.8053 657.772 42.9396C657.356 43.0604 656.926 43.1209 656.483 43.1209C655.409 43.1209 654.576 42.8321 653.985 42.2547C653.394 41.6772 653.099 40.8513 653.099 39.777V33.9152H651.286V32.3239H653.099V29.9872H655.033V32.3239H658.094V33.9152H655.033V39.6964C655.033 40.2739 655.174 40.7171 655.456 41.0259C655.751 41.3348 656.167 41.4892 656.704 41.4892C657.295 41.4892 657.799 41.3214 658.215 40.9856L658.82 42.3755ZM666.858 32.2232C668.214 32.2232 669.289 32.6193 670.081 33.4116C670.887 34.1905 671.29 35.3387 671.29 36.8562V43H669.356V37.0778C669.356 36.0437 669.107 35.2649 668.611 34.7411C668.114 34.2174 667.402 33.9555 666.475 33.9555C665.428 33.9555 664.602 34.2644 663.998 34.8821C663.393 35.4864 663.091 36.3593 663.091 37.5008V43H661.157V28.0534H663.091V33.8347C663.494 33.3244 664.018 32.9282 664.662 32.6462C665.32 32.3642 666.052 32.2232 666.858 32.2232ZM684.576 37.7224C684.576 37.8701 684.563 38.0648 684.536 38.3065H675.874C675.995 39.2466 676.405 40.0053 677.103 40.5828C677.815 41.1468 678.694 41.4288 679.742 41.4288C681.018 41.4288 682.045 40.9991 682.824 40.1396L683.891 41.3885C683.408 41.9525 682.804 42.3823 682.078 42.6777C681.367 42.9731 680.568 43.1209 679.681 43.1209C678.553 43.1209 677.553 42.8926 676.68 42.436C675.807 41.966 675.129 41.3147 674.645 40.482C674.175 39.6494 673.94 38.7094 673.94 37.6619C673.94 36.6279 674.169 35.6946 674.625 34.862C675.095 34.0294 675.733 33.3848 676.539 32.9282C677.358 32.4582 678.278 32.2232 679.299 32.2232C680.319 32.2232 681.226 32.4582 682.018 32.9282C682.824 33.3848 683.448 34.0294 683.891 34.862C684.348 35.6946 684.576 36.648 684.576 37.7224ZM679.299 33.8548C678.372 33.8548 677.593 34.1368 676.962 34.7008C676.344 35.2649 675.982 36.0035 675.874 36.9166H682.723C682.616 36.0169 682.246 35.285 681.615 34.721C680.997 34.1435 680.225 33.8548 679.299 33.8548ZM706.026 32.2232C707.369 32.2232 708.43 32.6126 709.209 33.3915C710.001 34.1704 710.398 35.3253 710.398 36.8562V43H708.464V37.0778C708.464 36.0437 708.222 35.2649 707.739 34.7411C707.269 34.2174 706.59 33.9555 705.704 33.9555C704.724 33.9555 703.945 34.2644 703.367 34.8821C702.79 35.4864 702.501 36.3593 702.501 37.5008V43H700.567V37.0778C700.567 36.0437 700.326 35.2649 699.842 34.7411C699.372 34.2174 698.694 33.9555 697.808 33.9555C696.828 33.9555 696.049 34.2644 695.471 34.8821C694.894 35.4864 694.605 36.3593 694.605 37.5008V43H692.671V32.3239H694.524V33.9152C694.914 33.3646 695.424 32.9483 696.055 32.6663C696.686 32.3709 697.405 32.2232 698.211 32.2232C699.043 32.2232 699.782 32.391 700.426 32.7268C701.071 33.0625 701.568 33.5526 701.917 34.1972C702.32 33.5795 702.877 33.0961 703.589 32.7469C704.314 32.3977 705.127 32.2232 706.026 32.2232ZM717.843 32.2232C719.321 32.2232 720.449 32.5858 721.228 33.3109C722.02 34.0361 722.416 35.1171 722.416 36.554V43H720.583V41.5899C720.261 42.0868 719.797 42.4696 719.193 42.7381C718.602 42.9933 717.897 43.1209 717.078 43.1209C715.883 43.1209 714.923 42.8321 714.197 42.2547C713.486 41.6772 713.13 40.9185 713.13 39.9785C713.13 39.0384 713.472 38.2864 714.157 37.7224C714.842 37.1449 715.93 36.8562 717.42 36.8562H720.482V36.4735C720.482 35.6409 720.241 35.003 719.757 34.5598C719.274 34.1167 718.562 33.8951 717.622 33.8951C716.991 33.8951 716.373 34.0025 715.769 34.2174C715.164 34.4188 714.654 34.6941 714.238 35.0433L713.432 33.5929C713.983 33.1498 714.641 32.814 715.406 32.5858C716.172 32.344 716.984 32.2232 717.843 32.2232ZM717.4 41.6302C718.139 41.6302 718.777 41.4691 719.314 41.1468C719.851 40.8111 720.241 40.341 720.482 39.7367V38.2461H717.501C715.863 38.2461 715.044 38.7967 715.044 39.8979C715.044 40.435 715.252 40.8581 715.668 41.1669C716.084 41.4758 716.662 41.6302 717.4 41.6302ZM731.655 32.2232C732.689 32.2232 733.616 32.4515 734.435 32.908C735.254 33.3646 735.892 34.0025 736.349 34.8217C736.819 35.6409 737.054 36.5876 737.054 37.6619C737.054 38.7363 736.819 39.6897 736.349 40.5223C735.892 41.3415 735.254 41.9794 734.435 42.436C733.616 42.8926 732.689 43.1209 731.655 43.1209C730.89 43.1209 730.185 42.9731 729.54 42.6777C728.909 42.3823 728.372 41.9525 727.928 41.3885V46.9079H725.995V32.3239H727.848V34.0159C728.278 33.4251 728.822 32.9819 729.48 32.6865C730.138 32.3776 730.863 32.2232 731.655 32.2232ZM731.494 41.4288C732.179 41.4288 732.79 41.2744 733.327 40.9655C733.878 40.6432 734.307 40.2 734.616 39.636C734.938 39.0586 735.1 38.4005 735.1 37.6619C735.1 36.9233 734.938 36.272 734.616 35.708C734.307 35.1306 733.878 34.6874 733.327 34.3785C732.79 34.0697 732.179 33.9152 731.494 33.9152C730.822 33.9152 730.211 34.0764 729.661 34.3987C729.124 34.7075 728.694 35.144 728.372 35.708C728.063 36.272 727.908 36.9233 727.908 37.6619C727.908 38.4005 728.063 39.0586 728.372 39.636C728.681 40.2 729.11 40.6432 729.661 40.9655C730.211 41.2744 730.822 41.4288 731.494 41.4288ZM749.043 29.5239C747.888 29.5239 747.311 30.1484 747.311 31.3973V32.3239H750.413V33.9152H747.351V43H745.417V33.9152H743.604V32.3239H745.417V31.3771C745.417 30.3162 745.726 29.4769 746.344 28.8592C746.961 28.2414 747.828 27.9326 748.942 27.9326C749.372 27.9326 749.775 27.9863 750.151 28.0937C750.527 28.2012 750.849 28.3556 751.118 28.557L750.534 30.0275C750.09 29.6918 749.594 29.5239 749.043 29.5239ZM752.246 28.0534H754.18V43H752.246V28.0534ZM762.435 43.1209C761.374 43.1209 760.421 42.8859 759.575 42.4158C758.729 41.9458 758.064 41.3012 757.581 40.482C757.111 39.6494 756.876 38.7094 756.876 37.6619C756.876 36.6145 757.111 35.6812 757.581 34.862C758.064 34.0294 758.729 33.3848 759.575 32.9282C760.421 32.4582 761.374 32.2232 762.435 32.2232C763.496 32.2232 764.443 32.4582 765.275 32.9282C766.121 33.3848 766.779 34.0294 767.249 34.862C767.733 35.6812 767.975 36.6145 767.975 37.6619C767.975 38.7094 767.733 39.6494 767.249 40.482C766.779 41.3012 766.121 41.9458 765.275 42.4158C764.443 42.8859 763.496 43.1209 762.435 43.1209ZM762.435 41.4288C763.12 41.4288 763.731 41.2744 764.268 40.9655C764.819 40.6432 765.249 40.2 765.557 39.636C765.866 39.0586 766.021 38.4005 766.021 37.6619C766.021 36.9233 765.866 36.272 765.557 35.708C765.249 35.1306 764.819 34.6874 764.268 34.3785C763.731 34.0697 763.12 33.9152 762.435 33.9152C761.75 33.9152 761.133 34.0697 760.582 34.3785C760.045 34.6874 759.615 35.1306 759.293 35.708C758.984 36.272 758.829 36.9233 758.829 37.6619C758.829 38.4005 758.984 39.0586 759.293 39.636C759.615 40.2 760.045 40.6432 760.582 40.9655C761.133 41.2744 761.75 41.4288 762.435 41.4288ZM786.509 32.3239L782.521 43H780.667L777.585 34.9023L774.463 43H772.61L768.642 32.3239H770.475L773.577 40.8245L776.8 32.3239H778.432L781.594 40.8648L784.777 32.3239H786.509ZM797.769 32.2232C799.246 32.2232 800.374 32.5858 801.153 33.3109C801.945 34.0361 802.341 35.1171 802.341 36.554V43H800.508V41.5899C800.186 42.0868 799.723 42.4696 799.118 42.7381C798.528 42.9933 797.822 43.1209 797.003 43.1209C795.808 43.1209 794.848 42.8321 794.123 42.2547C793.411 41.6772 793.055 40.9185 793.055 39.9785C793.055 39.0384 793.398 38.2864 794.082 37.7224C794.767 37.1449 795.855 36.8562 797.346 36.8562H800.408V36.4735C800.408 35.6409 800.166 35.003 799.682 34.5598C799.199 34.1167 798.487 33.8951 797.547 33.8951C796.916 33.8951 796.298 34.0025 795.694 34.2174C795.09 34.4188 794.579 34.6941 794.163 35.0433L793.357 33.5929C793.908 33.1498 794.566 32.814 795.331 32.5858C796.097 32.344 796.909 32.2232 797.769 32.2232ZM797.326 41.6302C798.064 41.6302 798.702 41.4691 799.239 41.1468C799.776 40.8111 800.166 40.341 800.408 39.7367V38.2461H797.426C795.788 38.2461 794.969 38.7967 794.969 39.8979C794.969 40.435 795.177 40.8581 795.593 41.1669C796.01 41.4758 796.587 41.6302 797.326 41.6302ZM811.621 32.2232C812.977 32.2232 814.051 32.6193 814.844 33.4116C815.649 34.1905 816.052 35.3387 816.052 36.8562V43H814.118V37.0778C814.118 36.0437 813.87 35.2649 813.373 34.7411C812.876 34.2174 812.165 33.9555 811.238 33.9555C810.19 33.9555 809.365 34.2644 808.76 34.8821C808.156 35.4864 807.854 36.3593 807.854 37.5008V43H805.92V32.3239H807.773V33.9354C808.163 33.3848 808.686 32.9618 809.344 32.6663C810.016 32.3709 810.775 32.2232 811.621 32.2232ZM829.762 28.0534V43H827.909V41.3079C827.479 41.8988 826.935 42.3487 826.277 42.6576C825.619 42.9664 824.894 43.1209 824.102 43.1209C823.067 43.1209 822.141 42.8926 821.322 42.436C820.503 41.9794 819.858 41.3415 819.388 40.5223C818.931 39.6897 818.703 38.7363 818.703 37.6619C818.703 36.5876 818.931 35.6409 819.388 34.8217C819.858 34.0025 820.503 33.3646 821.322 32.908C822.141 32.4515 823.067 32.2232 824.102 32.2232C824.867 32.2232 825.572 32.3709 826.217 32.6663C826.861 32.9483 827.398 33.3714 827.828 33.9354V28.0534H829.762ZM824.263 41.4288C824.934 41.4288 825.545 41.2744 826.096 40.9655C826.646 40.6432 827.076 40.2 827.385 39.636C827.694 39.0586 827.848 38.4005 827.848 37.6619C827.848 36.9233 827.694 36.272 827.385 35.708C827.076 35.1306 826.646 34.6874 826.096 34.3785C825.545 34.0697 824.934 33.9152 824.263 33.9152C823.578 33.9152 822.96 34.0697 822.409 34.3785C821.872 34.6874 821.443 35.1306 821.12 35.708C820.811 36.272 820.657 36.9233 820.657 37.6619C820.657 38.4005 820.811 39.0586 821.12 39.636C821.443 40.2 821.872 40.6432 822.409 40.9655C822.96 41.2744 823.578 41.4288 824.263 41.4288ZM51.5337 57.2232C52.89 57.2232 53.9644 57.6193 54.7567 58.4116C55.5624 59.1905 55.9653 60.3387 55.9653 61.8562V68H54.0315V62.0778C54.0315 61.0437 53.7831 60.2649 53.2862 59.7411C52.7893 59.2174 52.0776 58.9555 51.151 58.9555C50.1035 58.9555 49.2776 59.2644 48.6733 59.8821C48.069 60.4864 47.7669 61.3593 47.7669 62.5008V68H45.8331V57.3239H47.6863V58.9354C48.0757 58.3848 48.5995 57.9618 49.2575 57.6663C49.9289 57.3709 50.6877 57.2232 51.5337 57.2232ZM63.4318 57.2232C64.909 57.2232 66.0371 57.5858 66.8159 58.3109C67.6083 59.0361 68.0044 60.1171 68.0044 61.554V68H66.1714V66.5899C65.8491 67.0868 65.3857 67.4696 64.7814 67.7381C64.1906 67.9933 63.4855 68.1209 62.6664 68.1209C61.4712 68.1209 60.511 67.8321 59.7858 67.2547C59.0741 66.6772 58.7182 65.9185 58.7182 64.9785C58.7182 64.0384 59.0607 63.2864 59.7455 62.7224C60.4304 62.1449 61.5182 61.8562 63.0088 61.8562H66.0706V61.4735C66.0706 60.6409 65.8289 60.003 65.3455 59.5598C64.862 59.1167 64.1503 58.8951 63.2102 58.8951C62.5791 58.8951 61.9613 59.0025 61.357 59.2174C60.7527 59.4188 60.2424 59.6941 59.8261 60.0433L59.0204 58.5929C59.571 58.1498 60.229 57.814 60.9944 57.5858C61.7599 57.344 62.5724 57.2232 63.4318 57.2232ZM62.9887 66.6302C63.7273 66.6302 64.3651 66.4691 64.9023 66.1468C65.4395 65.8111 65.8289 65.341 66.0706 64.7367V63.2461H63.0894C61.451 63.2461 60.6319 63.7967 60.6319 64.8979C60.6319 65.435 60.84 65.8581 61.2563 66.1669C61.6726 66.4758 62.2501 66.6302 62.9887 66.6302ZM80.8337 57.3239L76.1604 68H74.1863L69.513 57.3239H71.5273L75.1935 65.8849L78.9402 57.3239H80.8337ZM82.6384 57.3239H84.5722V68H82.6384V57.3239ZM83.6053 55.2692C83.2293 55.2692 82.9137 55.1484 82.6586 54.9067C82.4169 54.6649 82.296 54.3695 82.296 54.0203C82.296 53.6712 82.4169 53.3757 82.6586 53.134C82.9137 52.8789 83.2293 52.7513 83.6053 52.7513C83.9813 52.7513 84.2902 52.8721 84.5319 53.1139C84.7871 53.3422 84.9147 53.6309 84.9147 53.98C84.9147 54.3426 84.7871 54.6515 84.5319 54.9067C84.2902 55.1484 83.9813 55.2692 83.6053 55.2692ZM98.4773 57.3239V66.5497C98.4773 68.4163 98.014 69.7928 97.0874 70.6791C96.1608 71.5788 94.7776 72.0287 92.9378 72.0287C91.9306 72.0287 90.9704 71.8877 90.0573 71.6057C89.1441 71.3371 88.4055 70.9477 87.8415 70.4374L88.7681 68.9467C89.265 69.3765 89.876 69.7122 90.6011 69.9539C91.3397 70.2091 92.0985 70.3367 92.8774 70.3367C94.1263 70.3367 95.0462 70.0412 95.6371 69.4503C96.2414 68.8595 96.5435 67.9597 96.5435 66.7511V65.9051C96.0869 66.4557 95.5229 66.872 94.8514 67.154C94.1934 67.4225 93.475 67.5568 92.6961 67.5568C91.6755 67.5568 90.7489 67.342 89.9163 66.9122C89.0971 66.4691 88.4525 65.8581 87.9825 65.0792C87.5125 64.2869 87.2775 63.3871 87.2775 62.3799C87.2775 61.3728 87.5125 60.4797 87.9825 59.7008C88.4525 58.9085 89.0971 58.2975 89.9163 57.8678C90.7489 57.438 91.6755 57.2232 92.6961 57.2232C93.5018 57.2232 94.2471 57.3709 94.932 57.6663C95.6303 57.9618 96.2011 58.3982 96.6442 58.9757V57.3239H98.4773ZM92.9177 65.8648C93.616 65.8648 94.2404 65.7171 94.791 65.4216C95.355 65.1262 95.7915 64.7166 96.1004 64.1929C96.4227 63.6557 96.5838 63.0514 96.5838 62.3799C96.5838 61.3459 96.2414 60.5133 95.5565 59.8821C94.8716 59.2375 93.992 58.9152 92.9177 58.9152C91.8299 58.9152 90.9436 59.2375 90.2587 59.8821C89.5738 60.5133 89.2314 61.3459 89.2314 62.3799C89.2314 63.0514 89.3858 63.6557 89.6947 64.1929C90.017 64.7166 90.4534 65.1262 91.004 65.4216C91.568 65.7171 92.2059 65.8648 92.9177 65.8648ZM106.06 57.2232C107.537 57.2232 108.665 57.5858 109.444 58.3109C110.236 59.0361 110.633 60.1171 110.633 61.554V68H108.799V66.5899C108.477 67.0868 108.014 67.4696 107.41 67.7381C106.819 67.9933 106.114 68.1209 105.294 68.1209C104.099 68.1209 103.139 67.8321 102.414 67.2547C101.702 66.6772 101.346 65.9185 101.346 64.9785C101.346 64.0384 101.689 63.2864 102.374 62.7224C103.059 62.1449 104.146 61.8562 105.637 61.8562H108.699V61.4735C108.699 60.6409 108.457 60.003 107.974 59.5598C107.49 59.1167 106.778 58.8951 105.838 58.8951C105.207 58.8951 104.589 59.0025 103.985 59.2174C103.381 59.4188 102.871 59.6941 102.454 60.0433L101.648 58.5929C102.199 58.1498 102.857 57.814 103.623 57.5858C104.388 57.344 105.2 57.2232 106.06 57.2232ZM105.617 66.6302C106.355 66.6302 106.993 66.4691 107.53 66.1468C108.068 65.8111 108.457 65.341 108.699 64.7367V63.2461H105.718C104.079 63.2461 103.26 63.7967 103.26 64.8979C103.26 65.435 103.468 65.8581 103.884 66.1669C104.301 66.4758 104.878 66.6302 105.617 66.6302ZM120.214 67.3755C119.932 67.6173 119.583 67.8053 119.167 67.9396C118.75 68.0604 118.32 68.1209 117.877 68.1209C116.803 68.1209 115.97 67.8321 115.38 67.2547C114.789 66.6772 114.493 65.8513 114.493 64.777V58.9152H112.68V57.3239H114.493V54.9872H116.427V57.3239H119.489V58.9152H116.427V64.6964C116.427 65.2739 116.568 65.7171 116.85 66.0259C117.145 66.3348 117.562 66.4892 118.099 66.4892C118.69 66.4892 119.193 66.3214 119.61 65.9856L120.214 67.3755ZM122.552 57.3239H124.486V68H122.552V57.3239ZM123.519 55.2692C123.143 55.2692 122.827 55.1484 122.572 54.9067C122.33 54.6649 122.209 54.3695 122.209 54.0203C122.209 53.6712 122.33 53.3757 122.572 53.134C122.827 52.8789 123.143 52.7513 123.519 52.7513C123.895 52.7513 124.204 52.8721 124.445 53.1139C124.701 53.3422 124.828 53.6309 124.828 53.98C124.828 54.3426 124.701 54.6515 124.445 54.9067C124.204 55.1484 123.895 55.2692 123.519 55.2692ZM133.879 57.2232C135.235 57.2232 136.309 57.6193 137.102 58.4116C137.907 59.1905 138.31 60.3387 138.31 61.8562V68H136.376V62.0778C136.376 61.0437 136.128 60.2649 135.631 59.7411C135.134 59.2174 134.422 58.9555 133.496 58.9555C132.448 58.9555 131.623 59.2644 131.018 59.8821C130.414 60.4864 130.112 61.3593 130.112 62.5008V68H128.178V57.3239H130.031V58.9354C130.421 58.3848 130.944 57.9618 131.602 57.6663C132.274 57.3709 133.033 57.2232 133.879 57.2232ZM152.161 57.3239V66.5497C152.161 68.4163 151.698 69.7928 150.771 70.6791C149.844 71.5788 148.461 72.0287 146.621 72.0287C145.614 72.0287 144.654 71.8877 143.741 71.6057C142.828 71.3371 142.089 70.9477 141.525 70.4374L142.452 68.9467C142.948 69.3765 143.559 69.7122 144.285 69.9539C145.023 70.2091 145.782 70.3367 146.561 70.3367C147.81 70.3367 148.73 70.0412 149.321 69.4503C149.925 68.8595 150.227 67.9597 150.227 66.7511V65.9051C149.77 66.4557 149.206 66.872 148.535 67.154C147.877 67.4225 147.158 67.5568 146.38 67.5568C145.359 67.5568 144.432 67.342 143.6 66.9122C142.781 66.4691 142.136 65.8581 141.666 65.0792C141.196 64.2869 140.961 63.3871 140.961 62.3799C140.961 61.3728 141.196 60.4797 141.666 59.7008C142.136 58.9085 142.781 58.2975 143.6 57.8678C144.432 57.438 145.359 57.2232 146.38 57.2232C147.185 57.2232 147.931 57.3709 148.616 57.6663C149.314 57.9618 149.885 58.3982 150.328 58.9757V57.3239H152.161ZM146.601 65.8648C147.299 65.8648 147.924 65.7171 148.475 65.4216C149.039 65.1262 149.475 64.7166 149.784 64.1929C150.106 63.6557 150.267 63.0514 150.267 62.3799C150.267 61.3459 149.925 60.5133 149.24 59.8821C148.555 59.2375 147.675 58.9152 146.601 58.9152C145.513 58.9152 144.627 59.2375 143.942 59.8821C143.257 60.5133 142.915 61.3459 142.915 62.3799C142.915 63.0514 143.069 63.6557 143.378 64.1929C143.7 64.7166 144.137 65.1262 144.688 65.4216C145.252 65.7171 145.889 65.8648 146.601 65.8648ZM167.268 67.3755C166.986 67.6173 166.637 67.8053 166.221 67.9396C165.804 68.0604 165.375 68.1209 164.932 68.1209C163.857 68.1209 163.025 67.8321 162.434 67.2547C161.843 66.6772 161.547 65.8513 161.547 64.777V58.9152H159.734V57.3239H161.547V54.9872H163.481V57.3239H166.543V58.9152H163.481V64.6964C163.481 65.2739 163.622 65.7171 163.904 66.0259C164.2 66.3348 164.616 66.4892 165.153 66.4892C165.744 66.4892 166.248 66.3214 166.664 65.9856L167.268 67.3755ZM173.825 68.1209C172.764 68.1209 171.81 67.8859 170.964 67.4158C170.118 66.9458 169.453 66.3012 168.97 65.482C168.5 64.6494 168.265 63.7094 168.265 62.6619C168.265 61.6145 168.5 60.6812 168.97 59.862C169.453 59.0294 170.118 58.3848 170.964 57.9282C171.81 57.4582 172.764 57.2232 173.825 57.2232C174.886 57.2232 175.832 57.4582 176.665 57.9282C177.511 58.3848 178.169 59.0294 178.639 59.862C179.122 60.6812 179.364 61.6145 179.364 62.6619C179.364 63.7094 179.122 64.6494 178.639 65.482C178.169 66.3012 177.511 66.9458 176.665 67.4158C175.832 67.8859 174.886 68.1209 173.825 68.1209ZM173.825 66.4288C174.51 66.4288 175.121 66.2744 175.658 65.9655C176.208 65.6432 176.638 65.2 176.947 64.636C177.256 64.0586 177.41 63.4005 177.41 62.6619C177.41 61.9233 177.256 61.272 176.947 60.708C176.638 60.1306 176.208 59.6874 175.658 59.3785C175.121 59.0697 174.51 58.9152 173.825 58.9152C173.14 58.9152 172.522 59.0697 171.971 59.3785C171.434 59.6874 171.005 60.1306 170.682 60.708C170.373 61.272 170.219 61.9233 170.219 62.6619C170.219 63.4005 170.373 64.0586 170.682 64.636C171.005 65.2 171.434 65.6432 171.971 65.9655C172.522 66.2744 173.14 66.4288 173.825 66.4288ZM193.451 67.3755C193.169 67.6173 192.82 67.8053 192.403 67.9396C191.987 68.0604 191.557 68.1209 191.114 68.1209C190.04 68.1209 189.207 67.8321 188.616 67.2547C188.026 66.6772 187.73 65.8513 187.73 64.777V58.9152H185.917V57.3239H187.73V54.9872H189.664V57.3239H192.726V58.9152H189.664V64.6964C189.664 65.2739 189.805 65.7171 190.087 66.0259C190.382 66.3348 190.799 66.4892 191.336 66.4892C191.927 66.4892 192.43 66.3214 192.847 65.9856L193.451 67.3755ZM201.49 57.2232C202.846 57.2232 203.92 57.6193 204.713 58.4116C205.518 59.1905 205.921 60.3387 205.921 61.8562V68H203.987V62.0778C203.987 61.0437 203.739 60.2649 203.242 59.7411C202.745 59.2174 202.033 58.9555 201.107 58.9555C200.059 58.9555 199.233 59.2644 198.629 59.8821C198.025 60.4864 197.723 61.3593 197.723 62.5008V68H195.789V53.0534H197.723V58.8347C198.126 58.3244 198.649 57.9282 199.294 57.6462C199.952 57.3642 200.684 57.2232 201.49 57.2232ZM219.208 62.7224C219.208 62.8701 219.194 63.0648 219.167 63.3065H210.506C210.627 64.2466 211.036 65.0053 211.734 65.5828C212.446 66.1468 213.326 66.4288 214.373 66.4288C215.649 66.4288 216.676 65.9991 217.455 65.1396L218.523 66.3885C218.039 66.9525 217.435 67.3823 216.71 67.6777C215.998 67.9731 215.199 68.1209 214.313 68.1209C213.185 68.1209 212.184 67.8926 211.311 67.436C210.439 66.966 209.76 66.3147 209.277 65.482C208.807 64.6494 208.572 63.7094 208.572 62.6619C208.572 61.6279 208.8 60.6946 209.257 59.862C209.727 59.0294 210.365 58.3848 211.17 57.9282C211.99 57.4582 212.909 57.2232 213.93 57.2232C214.951 57.2232 215.857 57.4582 216.649 57.9282C217.455 58.3848 218.08 59.0294 218.523 59.862C218.979 60.6946 219.208 61.648 219.208 62.7224ZM213.93 58.8548C213.003 58.8548 212.225 59.1368 211.593 59.7008C210.976 60.2649 210.613 61.0035 210.506 61.9166H217.355C217.247 61.0169 216.878 60.285 216.247 59.721C215.629 59.1435 214.857 58.8548 213.93 58.8548ZM231.956 68.1209C230.868 68.1209 229.894 67.8859 229.035 67.4158C228.189 66.9458 227.524 66.3012 227.041 65.482C226.557 64.6494 226.316 63.7094 226.316 62.6619C226.316 61.6145 226.557 60.6812 227.041 59.862C227.524 59.0294 228.189 58.3848 229.035 57.9282C229.894 57.4582 230.868 57.2232 231.956 57.2232C232.923 57.2232 233.782 57.4179 234.534 57.8073C235.3 58.1968 235.891 58.7608 236.307 59.4994L234.836 60.4461C234.501 59.9358 234.084 59.5531 233.587 59.298C233.091 59.0428 232.54 58.9152 231.936 58.9152C231.237 58.9152 230.606 59.0697 230.042 59.3785C229.492 59.6874 229.055 60.1306 228.733 60.708C228.424 61.272 228.27 61.9233 228.27 62.6619C228.27 63.414 228.424 64.0787 228.733 64.6562C229.055 65.2202 229.492 65.6566 230.042 65.9655C230.606 66.2744 231.237 66.4288 231.936 66.4288C232.54 66.4288 233.091 66.3012 233.587 66.0461C234.084 65.7909 234.501 65.4082 234.836 64.8979L236.307 65.8245C235.891 66.5631 235.3 67.1338 234.534 67.5367C233.782 67.9261 232.923 68.1209 231.956 68.1209ZM238.673 53.0534H240.607V68H238.673V53.0534ZM244.299 57.3239H246.233V68H244.299V57.3239ZM245.266 55.2692C244.89 55.2692 244.574 55.1484 244.319 54.9067C244.077 54.6649 243.956 54.3695 243.956 54.0203C243.956 53.6712 244.077 53.3757 244.319 53.134C244.574 52.8789 244.89 52.7513 245.266 52.7513C245.642 52.7513 245.951 52.8721 246.192 53.1139C246.447 53.3422 246.575 53.6309 246.575 53.98C246.575 54.3426 246.447 54.6515 246.192 54.9067C245.951 55.1484 245.642 55.2692 245.266 55.2692ZM263.28 57.2232C264.623 57.2232 265.684 57.6126 266.463 58.3915C267.255 59.1704 267.651 60.3253 267.651 61.8562V68H265.717V62.0778C265.717 61.0437 265.476 60.2649 264.992 59.7411C264.522 59.2174 263.844 58.9555 262.958 58.9555C261.977 58.9555 261.199 59.2644 260.621 59.8821C260.044 60.4864 259.755 61.3593 259.755 62.5008V68H257.821V62.0778C257.821 61.0437 257.579 60.2649 257.096 59.7411C256.626 59.2174 255.948 58.9555 255.061 58.9555C254.081 58.9555 253.302 59.2644 252.725 59.8821C252.147 60.4864 251.859 61.3593 251.859 62.5008V68H249.925V57.3239H251.778V58.9152C252.167 58.3646 252.678 57.9483 253.309 57.6663C253.94 57.3709 254.659 57.2232 255.464 57.2232C256.297 57.2232 257.036 57.391 257.68 57.7268C258.325 58.0625 258.822 58.5526 259.171 59.1972C259.574 58.5795 260.131 58.0961 260.843 57.7469C261.568 57.3977 262.38 57.2232 263.28 57.2232ZM276.87 57.2232C277.904 57.2232 278.83 57.4515 279.65 57.908C280.469 58.3646 281.107 59.0025 281.563 59.8217C282.033 60.6409 282.268 61.5876 282.268 62.6619C282.268 63.7363 282.033 64.6897 281.563 65.5223C281.107 66.3415 280.469 66.9794 279.65 67.436C278.83 67.8926 277.904 68.1209 276.87 68.1209C276.077 68.1209 275.352 67.9664 274.694 67.6576C274.036 67.3487 273.492 66.8988 273.063 66.3079V68H271.209V53.0534H273.143V58.9354C273.573 58.3714 274.11 57.9483 274.755 57.6663C275.399 57.3709 276.104 57.2232 276.87 57.2232ZM276.709 66.4288C277.393 66.4288 278.005 66.2744 278.542 65.9655C279.092 65.6432 279.522 65.2 279.831 64.636C280.153 64.0586 280.314 63.4005 280.314 62.6619C280.314 61.9233 280.153 61.272 279.831 60.708C279.522 60.1306 279.092 59.6874 278.542 59.3785C278.005 59.0697 277.393 58.9152 276.709 58.9152C276.037 58.9152 275.426 59.0697 274.876 59.3785C274.325 59.6874 273.895 60.1306 273.586 60.708C273.277 61.272 273.123 61.9233 273.123 62.6619C273.123 63.4005 273.277 64.0586 273.586 64.636C273.895 65.2 274.325 65.6432 274.876 65.9655C275.426 66.2744 276.037 66.4288 276.709 66.4288ZM296.353 67.3755C296.071 67.6173 295.721 67.8053 295.305 67.9396C294.889 68.0604 294.459 68.1209 294.016 68.1209C292.942 68.1209 292.109 67.8321 291.518 67.2547C290.927 66.6772 290.632 65.8513 290.632 64.777V58.9152H288.819V57.3239H290.632V54.9872H292.566V57.3239H295.627V58.9152H292.566V64.6964C292.566 65.2739 292.707 65.7171 292.989 66.0259C293.284 66.3348 293.7 66.4892 294.237 66.4892C294.828 66.4892 295.332 66.3214 295.748 65.9856L296.353 67.3755ZM304.391 57.2232C305.747 57.2232 306.822 57.6193 307.614 58.4116C308.42 59.1905 308.823 60.3387 308.823 61.8562V68H306.889V62.0778C306.889 61.0437 306.64 60.2649 306.144 59.7411C305.647 59.2174 304.935 58.9555 304.008 58.9555C302.961 58.9555 302.135 59.2644 301.531 59.8821C300.926 60.4864 300.624 61.3593 300.624 62.5008V68H298.69V53.0534H300.624V58.8347C301.027 58.3244 301.551 57.9282 302.195 57.6462C302.853 57.3642 303.585 57.2232 304.391 57.2232ZM314.255 59.1167C314.59 58.4989 315.087 58.0289 315.745 57.7066C316.403 57.3843 317.202 57.2232 318.142 57.2232V59.0965C318.035 59.0831 317.887 59.0764 317.699 59.0764C316.652 59.0764 315.826 59.392 315.222 60.0231C314.631 60.6409 314.335 61.5272 314.335 62.6821V68H312.402V57.3239H314.255V59.1167ZM325 68.1209C323.939 68.1209 322.986 67.8859 322.14 67.4158C321.294 66.9458 320.629 66.3012 320.145 65.482C319.675 64.6494 319.44 63.7094 319.44 62.6619C319.44 61.6145 319.675 60.6812 320.145 59.862C320.629 59.0294 321.294 58.3848 322.14 57.9282C322.986 57.4582 323.939 57.2232 325 57.2232C326.061 57.2232 327.008 57.4582 327.84 57.9282C328.686 58.3848 329.344 59.0294 329.814 59.862C330.298 60.6812 330.54 61.6145 330.54 62.6619C330.54 63.7094 330.298 64.6494 329.814 65.482C329.344 66.3012 328.686 66.9458 327.84 67.4158C327.008 67.8859 326.061 68.1209 325 68.1209ZM325 66.4288C325.685 66.4288 326.296 66.2744 326.833 65.9655C327.384 65.6432 327.813 65.2 328.122 64.636C328.431 64.0586 328.586 63.4005 328.586 62.6619C328.586 61.9233 328.431 61.272 328.122 60.708C327.813 60.1306 327.384 59.6874 326.833 59.3785C326.296 59.0697 325.685 58.9152 325 58.9152C324.315 58.9152 323.697 59.0697 323.147 59.3785C322.61 59.6874 322.18 60.1306 321.858 60.708C321.549 61.272 321.394 61.9233 321.394 62.6619C321.394 63.4005 321.549 64.0586 321.858 64.636C322.18 65.2 322.61 65.6432 323.147 65.9655C323.697 66.2744 324.315 66.4288 325 66.4288ZM343.165 57.3239V68H341.332V66.3885C340.942 66.9391 340.425 67.3688 339.781 67.6777C339.15 67.9731 338.458 68.1209 337.706 68.1209C336.283 68.1209 335.161 67.7314 334.342 66.9525C333.523 66.1602 333.113 64.9986 333.113 63.4677V57.3239H335.047V63.2461C335.047 64.2801 335.295 65.0657 335.792 65.6029C336.289 66.1266 337.001 66.3885 337.928 66.3885C338.948 66.3885 339.754 66.0796 340.345 65.4619C340.936 64.8442 341.231 63.9713 341.231 62.8432V57.3239H343.165ZM357.059 57.3239V66.5497C357.059 68.4163 356.596 69.7928 355.669 70.6791C354.743 71.5788 353.359 72.0287 351.52 72.0287C350.512 72.0287 349.552 71.8877 348.639 71.6057C347.726 71.3371 346.987 70.9477 346.423 70.4374L347.35 68.9467C347.847 69.3765 348.458 69.7122 349.183 69.9539C349.922 70.2091 350.68 70.3367 351.459 70.3367C352.708 70.3367 353.628 70.0412 354.219 69.4503C354.823 68.8595 355.125 67.9597 355.125 66.7511V65.9051C354.669 66.4557 354.105 66.872 353.433 67.154C352.775 67.4225 352.057 67.5568 351.278 67.5568C350.257 67.5568 349.331 67.342 348.498 66.9122C347.679 66.4691 347.034 65.8581 346.564 65.0792C346.094 64.2869 345.859 63.3871 345.859 62.3799C345.859 61.3728 346.094 60.4797 346.564 59.7008C347.034 58.9085 347.679 58.2975 348.498 57.8678C349.331 57.438 350.257 57.2232 351.278 57.2232C352.084 57.2232 352.829 57.3709 353.514 57.6663C354.212 57.9618 354.783 58.3982 355.226 58.9757V57.3239H357.059ZM351.499 65.8648C352.198 65.8648 352.822 65.7171 353.373 65.4216C353.937 65.1262 354.373 64.7166 354.682 64.1929C355.004 63.6557 355.166 63.0514 355.166 62.3799C355.166 61.3459 354.823 60.5133 354.138 59.8821C353.453 59.2375 352.574 58.9152 351.499 58.9152C350.412 58.9152 349.525 59.2375 348.841 59.8821C348.156 60.5133 347.813 61.3459 347.813 62.3799C347.813 63.0514 347.968 63.6557 348.277 64.1929C348.599 64.7166 349.035 65.1262 349.586 65.4216C350.15 65.7171 350.788 65.8648 351.499 65.8648ZM366.455 57.2232C367.811 57.2232 368.885 57.6193 369.678 58.4116C370.483 59.1905 370.886 60.3387 370.886 61.8562V68H368.953V62.0778C368.953 61.0437 368.704 60.2649 368.207 59.7411C367.71 59.2174 366.999 58.9555 366.072 58.9555C365.025 58.9555 364.199 59.2644 363.594 59.8821C362.99 60.4864 362.688 61.3593 362.688 62.5008V68H360.754V53.0534H362.688V58.8347C363.091 58.3244 363.614 57.9282 364.259 57.6462C364.917 57.3642 365.649 57.2232 366.455 57.2232ZM385.878 67.3755C385.596 67.6173 385.246 67.8053 384.83 67.9396C384.414 68.0604 383.984 68.1209 383.541 68.1209C382.467 68.1209 381.634 67.8321 381.043 67.2547C380.452 66.6772 380.157 65.8513 380.157 64.777V58.9152H378.344V57.3239H380.157V54.9872H382.091V57.3239H385.152V58.9152H382.091V64.6964C382.091 65.2739 382.232 65.7171 382.514 66.0259C382.809 66.3348 383.225 66.4892 383.762 66.4892C384.353 66.4892 384.857 66.3214 385.273 65.9856L385.878 67.3755ZM393.916 57.2232C395.272 57.2232 396.347 57.6193 397.139 58.4116C397.945 59.1905 398.348 60.3387 398.348 61.8562V68H396.414V62.0778C396.414 61.0437 396.165 60.2649 395.669 59.7411C395.172 59.2174 394.46 58.9555 393.533 58.9555C392.486 58.9555 391.66 59.2644 391.056 59.8821C390.451 60.4864 390.149 61.3593 390.149 62.5008V68H388.215V53.0534H390.149V58.8347C390.552 58.3244 391.076 57.9282 391.72 57.6462C392.378 57.3642 393.11 57.2232 393.916 57.2232ZM411.634 62.7224C411.634 62.8701 411.621 63.0648 411.594 63.3065H402.932C403.053 64.2466 403.463 65.0053 404.161 65.5828C404.873 66.1468 405.752 66.4288 406.8 66.4288C408.076 66.4288 409.103 65.9991 409.882 65.1396L410.949 66.3885C410.466 66.9525 409.862 67.3823 409.136 67.6777C408.425 67.9731 407.626 68.1209 406.739 68.1209C405.611 68.1209 404.611 67.8926 403.738 67.436C402.865 66.966 402.187 66.3147 401.703 65.482C401.233 64.6494 400.998 63.7094 400.998 62.6619C400.998 61.6279 401.227 60.6946 401.683 59.862C402.153 59.0294 402.791 58.3848 403.597 57.9282C404.416 57.4582 405.336 57.2232 406.357 57.2232C407.377 57.2232 408.284 57.4582 409.076 57.9282C409.882 58.3848 410.506 59.0294 410.949 59.862C411.406 60.6946 411.634 61.648 411.634 62.7224ZM406.357 58.8548C405.43 58.8548 404.651 59.1368 404.02 59.7008C403.402 60.2649 403.04 61.0035 402.932 61.9166H409.781C409.674 61.0169 409.304 60.285 408.673 59.721C408.055 59.1435 407.283 58.8548 406.357 58.8548ZM425.39 57.2232C426.424 57.2232 427.35 57.4515 428.169 57.908C428.989 58.3646 429.626 59.0025 430.083 59.8217C430.553 60.6409 430.788 61.5876 430.788 62.6619C430.788 63.7363 430.553 64.6897 430.083 65.5223C429.626 66.3415 428.989 66.9794 428.169 67.436C427.35 67.8926 426.424 68.1209 425.39 68.1209C424.624 68.1209 423.919 67.9731 423.274 67.6777C422.643 67.3823 422.106 66.9525 421.663 66.3885V71.9079H419.729V57.3239H421.582V59.0159C422.012 58.4251 422.556 57.9819 423.214 57.6865C423.872 57.3776 424.597 57.2232 425.39 57.2232ZM425.228 66.4288C425.913 66.4288 426.524 66.2744 427.061 65.9655C427.612 65.6432 428.042 65.2 428.351 64.636C428.673 64.0586 428.834 63.4005 428.834 62.6619C428.834 61.9233 428.673 61.272 428.351 60.708C428.042 60.1306 427.612 59.6874 427.061 59.3785C426.524 59.0697 425.913 58.9152 425.228 58.9152C424.557 58.9152 423.946 59.0764 423.395 59.3987C422.858 59.7075 422.428 60.144 422.106 60.708C421.797 61.272 421.643 61.9233 421.643 62.6619C421.643 63.4005 421.797 64.0586 422.106 64.636C422.415 65.2 422.845 65.6432 423.395 65.9655C423.946 66.2744 424.557 66.4288 425.228 66.4288ZM437.249 57.2232C438.726 57.2232 439.854 57.5858 440.633 58.3109C441.426 59.0361 441.822 60.1171 441.822 61.554V68H439.989V66.5899C439.666 67.0868 439.203 67.4696 438.599 67.7381C438.008 67.9933 437.303 68.1209 436.484 68.1209C435.289 68.1209 434.328 67.8321 433.603 67.2547C432.892 66.6772 432.536 65.9185 432.536 64.9785C432.536 64.0384 432.878 63.2864 433.563 62.7224C434.248 62.1449 435.336 61.8562 436.826 61.8562H439.888V61.4735C439.888 60.6409 439.646 60.003 439.163 59.5598C438.679 59.1167 437.968 58.8951 437.028 58.8951C436.397 58.8951 435.779 59.0025 435.174 59.2174C434.57 59.4188 434.06 59.6941 433.644 60.0433L432.838 58.5929C433.388 58.1498 434.046 57.814 434.812 57.5858C435.577 57.344 436.39 57.2232 437.249 57.2232ZM436.806 66.6302C437.545 66.6302 438.183 66.4691 438.72 66.1468C439.257 65.8111 439.646 65.341 439.888 64.7367V63.2461H436.907C435.268 63.2461 434.449 63.7967 434.449 64.8979C434.449 65.435 434.657 65.8581 435.074 66.1669C435.49 66.4758 436.068 66.6302 436.806 66.6302ZM455.672 57.3239V66.5497C455.672 68.4163 455.209 69.7928 454.282 70.6791C453.356 71.5788 451.973 72.0287 450.133 72.0287C449.126 72.0287 448.165 71.8877 447.252 71.6057C446.339 71.3371 445.601 70.9477 445.036 70.4374L445.963 68.9467C446.46 69.3765 447.071 69.7122 447.796 69.9539C448.535 70.2091 449.294 70.3367 450.072 70.3367C451.321 70.3367 452.241 70.0412 452.832 69.4503C453.436 68.8595 453.739 67.9597 453.739 66.7511V65.9051C453.282 66.4557 452.718 66.872 452.046 67.154C451.388 67.4225 450.67 67.5568 449.891 67.5568C448.87 67.5568 447.944 67.342 447.111 66.9122C446.292 66.4691 445.648 65.8581 445.177 65.0792C444.707 64.2869 444.472 63.3871 444.472 62.3799C444.472 61.3728 444.707 60.4797 445.177 59.7008C445.648 58.9085 446.292 58.2975 447.111 57.8678C447.944 57.438 448.87 57.2232 449.891 57.2232C450.697 57.2232 451.442 57.3709 452.127 57.6663C452.825 57.9618 453.396 58.3982 453.839 58.9757V57.3239H455.672ZM450.113 65.8648C450.811 65.8648 451.435 65.7171 451.986 65.4216C452.55 65.1262 452.986 64.7166 453.295 64.1929C453.618 63.6557 453.779 63.0514 453.779 62.3799C453.779 61.3459 453.436 60.5133 452.751 59.8821C452.067 59.2375 451.187 58.9152 450.113 58.9152C449.025 58.9152 448.139 59.2375 447.454 59.8821C446.769 60.5133 446.426 61.3459 446.426 62.3799C446.426 63.0514 446.581 63.6557 446.89 64.1929C447.212 64.7166 447.648 65.1262 448.199 65.4216C448.763 65.7171 449.401 65.8648 450.113 65.8648ZM469.016 62.7224C469.016 62.8701 469.003 63.0648 468.976 63.3065H460.314C460.435 64.2466 460.844 65.0053 461.543 65.5828C462.254 66.1468 463.134 66.4288 464.182 66.4288C465.457 66.4288 466.485 65.9991 467.264 65.1396L468.331 66.3885C467.848 66.9525 467.243 67.3823 466.518 67.6777C465.806 67.9731 465.007 68.1209 464.121 68.1209C462.993 68.1209 461.993 67.8926 461.12 67.436C460.247 66.966 459.569 66.3147 459.085 65.482C458.615 64.6494 458.38 63.7094 458.38 62.6619C458.38 61.6279 458.609 60.6946 459.065 59.862C459.535 59.0294 460.173 58.3848 460.979 57.9282C461.798 57.4582 462.718 57.2232 463.738 57.2232C464.759 57.2232 465.665 57.4582 466.458 57.9282C467.264 58.3848 467.888 59.0294 468.331 59.862C468.788 60.6946 469.016 61.648 469.016 62.7224ZM463.738 58.8548C462.812 58.8548 462.033 59.1368 461.402 59.7008C460.784 60.2649 460.421 61.0035 460.314 61.9166H467.163C467.055 61.0169 466.686 60.285 466.055 59.721C465.437 59.1435 464.665 58.8548 463.738 58.8548ZM474.763 68.1209C473.89 68.1209 473.051 68.0067 472.245 67.7784C471.439 67.5367 470.808 67.2345 470.352 66.872L471.157 65.341C471.627 65.6768 472.198 65.9454 472.87 66.1468C473.541 66.3482 474.219 66.4489 474.904 66.4489C476.596 66.4489 477.442 65.9655 477.442 64.9986C477.442 64.6763 477.328 64.4212 477.1 64.2331C476.871 64.0451 476.583 63.9108 476.234 63.8303C475.898 63.7363 475.414 63.6356 474.783 63.5281C473.924 63.3938 473.219 63.2394 472.668 63.0648C472.131 62.8902 471.668 62.5948 471.278 62.1785C470.889 61.7622 470.694 61.178 470.694 60.426C470.694 59.4591 471.097 58.6869 471.903 58.1095C472.708 57.5186 473.79 57.2232 475.146 57.2232C475.858 57.2232 476.569 57.3105 477.281 57.485C477.993 57.6596 478.577 57.8946 479.034 58.1901L478.208 59.721C477.335 59.157 476.307 58.8749 475.126 58.8749C474.307 58.8749 473.682 59.0092 473.252 59.2778C472.823 59.5464 472.608 59.9023 472.608 60.3454C472.608 60.6946 472.729 60.9699 472.97 61.1713C473.212 61.3728 473.508 61.5205 473.857 61.6145C474.219 61.7085 474.723 61.8159 475.367 61.9368C476.227 62.0845 476.918 62.2456 477.442 62.4202C477.979 62.5814 478.436 62.8634 478.812 63.2663C479.188 63.6691 479.376 64.2331 479.376 64.9583C479.376 65.9252 478.96 66.6974 478.127 67.2748C477.308 67.8389 476.187 68.1209 474.763 68.1209ZM482.256 68.1209C481.88 68.1209 481.558 67.9933 481.289 67.7381C481.021 67.4696 480.886 67.1338 480.886 66.731C480.886 66.3415 481.021 66.0192 481.289 65.7641C481.558 65.4955 481.88 65.3612 482.256 65.3612C482.632 65.3612 482.948 65.4888 483.203 65.7439C483.458 65.9991 483.586 66.3281 483.586 66.731C483.586 67.1338 483.451 67.4696 483.183 67.7381C482.928 67.9933 482.619 68.1209 482.256 68.1209Z" fill="white"/>
</svg>
