<svg width="585" height="158" viewBox="0 0 585 158" fill="none" xmlns="http://www.w3.org/2000/svg">
<circle cx="20.265" cy="137.735" r="13.51" fill="white" stroke="black" stroke-width="13.51"/>
<circle cx="39.683" cy="57.2379" r="13.7264" transform="rotate(60 39.683 57.2379)" fill="white" stroke="black" stroke-width="13.51"/>
<circle cx="104.047" cy="98.1986" r="13.7264" transform="rotate(150 104.047 98.1986)" fill="white" stroke="black" stroke-width="13.51"/>
<circle cx="140.024" cy="28.8449" r="13.7264" transform="rotate(50.2214 140.024 28.8449)" fill="white" stroke="black" stroke-width="13.51"/>
<line x1="22.7468" y1="122.528" x2="35.9183" y2="74.2962" stroke="black" stroke-width="13.51"/>
<line x1="50.3658" y1="64.4786" x2="92.8742" y2="90.8004" stroke="black" stroke-width="13.51"/>
<line x1="108.279" y1="81.3052" x2="133.025" y2="37.8603" stroke="black" stroke-width="13.51"/>
<g clip-path="url(#clip0_1713_4276)">
<rect x="227.285" y="19.4167" width="169.722" height="119.167" rx="9.02778" stroke="black" stroke-width="10.8333"/>
<rect x="235.518" y="115.284" width="80.3303" height="16.3711" rx="8.18555" transform="rotate(-44.6196 235.518 115.284)" fill="black"/>
<rect x="330.201" y="104.277" width="31.4888" height="14.2614" rx="7.13071" transform="rotate(-44.6196 330.201 104.277)" fill="black"/>
<rect width="87.0588" height="16.9357" rx="8.46784" transform="matrix(-0.711785 -0.702397 -0.702397 0.711785 355.226 119.837)" fill="black"/>
<rect width="46.1614" height="16.6517" rx="8.32587" transform="matrix(-0.711785 -0.702397 -0.702397 0.711785 385.962 114.77)" fill="black"/>
<circle cx="326.591" cy="46.4999" r="10.8333" stroke="black" stroke-width="14.4444"/>
</g>
<path d="M478.244 85.833C465.661 85.833 455.424 94.7253 455.424 105.935C455.424 108.42 456.019 111.131 457.09 113.57H457.073L457.175 113.752C457.26 113.919 457.345 114.085 457.43 114.252L478.244 153.699L498.956 114.449L499.058 114.267C499.143 114.101 499.245 113.934 499.33 113.752L499.398 113.586C500.503 111.147 501.064 108.571 501.064 105.966C501.064 94.7253 490.827 85.833 478.244 85.833ZM478.244 112.328C473.84 112.328 470.269 109.147 470.269 105.223C470.269 101.3 473.84 98.1186 478.244 98.1186C482.648 98.1186 486.219 101.3 486.219 105.223C486.219 109.147 482.648 112.328 478.244 112.328Z" fill="black"/>
<path d="M558.114 1C545.531 1 535.294 9.89231 535.294 21.1024C535.294 23.5868 535.889 26.2984 536.96 28.7374H536.943L537.045 28.9191C537.13 29.0858 537.215 29.2524 537.3 29.4191L558.114 68.8664L578.826 29.616L578.928 29.4342C579.013 29.2676 579.115 29.1009 579.2 28.9191L579.268 28.7525C580.373 26.3136 580.934 23.7383 580.934 21.1327C580.934 9.89231 570.698 1 558.114 1ZM558.114 27.4952C553.71 27.4952 550.139 24.3139 550.139 20.3904C550.139 16.4669 553.71 13.2856 558.114 13.2856C562.518 13.2856 566.089 16.4669 566.089 20.3904C566.089 24.3139 562.518 27.4952 558.114 27.4952Z" fill="black"/>
<rect x="489.654" y="148.044" width="22.8202" height="5.65553" rx="2.82777" fill="black"/>
<rect width="22.8181" height="5.65606" rx="2.82803" transform="matrix(0.994774 -0.102106 0.103883 0.99459 518.179 150.375)" fill="black"/>
<rect width="22.7901" height="5.66312" rx="2.83156" transform="matrix(0.921661 -0.387996 0.393771 0.919209 546.727 148.185)" fill="black"/>
<rect width="22.6583" height="5.69606" rx="2.84803" transform="matrix(0.429845 -0.902903 0.905775 0.423759 569.524 140.224)" fill="black"/>
<rect width="22.7836" height="5.66476" rx="2.83238" transform="matrix(-0.903856 -0.427836 0.433954 -0.900935 578.707 117.65)" fill="black"/>
<rect width="25.6757" height="5.65596" rx="2.82798" transform="matrix(-0.99577 -0.0918863 0.0934884 -0.99562 552.31 110.526)" fill="black"/>
<rect width="22.7289" height="5.67848" rx="2.83924" transform="matrix(-0.736202 0.676761 -0.683135 -0.730292 515.974 78.6699)" fill="black"/>
<rect width="22.8141" height="5.65708" rx="2.82854" transform="matrix(-0.984521 0.175268 -0.178254 -0.983985 540.22 73.7598)" fill="black"/>
<rect width="13.1089" height="5.65708" rx="2.82854" transform="matrix(-0.984521 0.175268 -0.178254 -0.983984 556.811 71.1553)" fill="black"/>
<rect width="22.6015" height="5.65596" rx="2.82798" transform="matrix(-0.99577 -0.0918863 0.0934885 -0.99562 519.873 110.164)" fill="black"/>
<defs>
<clipPath id="clip0_1713_4276">
<rect width="180.556" height="130" fill="white" transform="translate(221.868 14)"/>
</clipPath>
</defs>
</svg>
