<svg width="557" height="216" viewBox="0 0 557 216" fill="none" xmlns="http://www.w3.org/2000/svg">
<line x1="12.9479" y1="-12.9479" x2="37.293" y2="-12.9479" transform="matrix(0.597644 0.801762 0.798893 -0.601473 322.379 47.769)" stroke="black" stroke-width="25.8958" stroke-linecap="round"/>
<line x1="4.53844" y1="-4.53844" x2="22.5785" y2="-4.53844" transform="matrix(0.884972 0.465645 0.462015 -0.886872 293.964 17.938)" stroke="black" stroke-width="9.07688" stroke-linecap="round"/>
<line x1="4.53844" y1="-4.53844" x2="22.6115" y2="-4.53844" transform="matrix(-0.734005 -0.679144 -0.675489 0.73737 357.068 132.424)" stroke="black" stroke-width="9.07688" stroke-linecap="round"/>
<path d="M299.195 6.19822C301.381 7.42637 302.158 10.1933 300.931 12.3784C299.704 14.5635 296.937 15.3392 294.752 14.111L299.195 6.19822ZM276.494 29.5023L273.722 33.0948L276.494 29.5023ZM295.419 43.955L298.167 40.3448L298.382 40.5081L298.575 40.6956L295.419 43.955ZM309.245 34.8724C308.031 32.6789 308.824 29.9174 311.017 28.7042C313.21 27.491 315.972 28.2857 317.186 30.4791L309.245 34.8724ZM294.752 14.111C294.069 13.7276 289.159 11.4928 283.64 16.7211L277.397 10.1299C286.89 1.13699 296.557 4.7154 299.195 6.19822L294.752 14.111ZM283.64 16.7211C280.233 19.9492 278.982 22.4314 278.687 23.9023C278.454 25.0662 278.773 25.5295 279.266 25.9098L273.722 33.0948C270.337 30.4824 268.916 26.4626 269.788 22.1139C270.598 18.0722 273.298 14.0124 277.397 10.1299L283.64 16.7211ZM279.266 25.9098C282.353 28.2926 293.145 36.5198 298.167 40.3448L292.67 47.5652C287.661 43.7502 276.839 35.5002 273.722 33.0948L279.266 25.9098ZM298.575 40.6956C299.723 41.8074 301.71 43.314 303.735 44.1597C305.863 45.0483 306.879 44.7821 307.347 44.4552L312.548 51.8973C308.289 54.8725 303.477 53.8872 300.241 52.5354C296.901 51.1407 293.988 48.8856 292.262 47.2145L298.575 40.6956ZM307.347 44.4552C308.218 43.8471 309.154 42.257 309.523 39.7242C309.692 38.5605 309.703 37.4156 309.6 36.4608C309.549 35.9872 309.474 35.5985 309.394 35.304C309.311 34.9966 309.243 34.869 309.245 34.8724L317.186 30.4791C318.031 32.0064 318.445 33.8296 318.624 35.4887C318.812 37.2223 318.782 39.1347 318.505 41.0359C317.981 44.6329 316.404 49.2032 312.548 51.8973L307.347 44.4552Z" fill="black"/>
<path d="M348.993 142.405C347.199 140.651 347.161 137.775 348.908 135.982C350.655 134.189 353.526 134.158 355.32 135.912L348.993 142.405ZM376.921 125.797L380.522 123.045L376.921 125.797ZM362.363 106.914L358.78 109.69L358.615 109.477L358.476 109.245L362.363 106.914ZM346.667 112.088C347.275 114.523 345.798 116.986 343.369 117.589C340.939 118.192 338.477 116.707 337.869 114.273L346.667 112.088ZM355.32 135.912C355.882 136.461 360.051 139.897 366.73 136.282L371.056 144.277C359.572 150.493 351.159 144.523 348.993 142.405L355.32 135.912ZM366.73 136.282C370.853 134.05 372.7 131.978 373.363 130.636C373.887 129.575 373.699 129.046 373.32 128.55L380.522 123.045C383.118 126.448 383.457 130.702 381.494 134.679C379.67 138.373 376.015 141.593 371.056 144.277L366.73 136.282ZM373.32 128.55C370.952 125.445 362.646 114.691 358.78 109.69L365.946 104.139C369.802 109.127 378.131 119.911 380.522 123.045L373.32 128.55ZM358.476 109.245C357.654 107.873 356.122 105.9 354.384 104.556C352.557 103.144 351.504 103.136 350.966 103.33L347.867 94.7856C352.745 93.0201 357.137 95.2222 359.914 97.3693C362.78 99.5847 365.013 102.52 366.25 104.583L358.476 109.245ZM350.966 103.33C349.969 103.691 348.656 104.983 347.648 107.332C347.185 108.412 346.879 109.514 346.733 110.463C346.661 110.934 346.633 111.328 346.635 111.633C346.636 111.951 346.668 112.092 346.667 112.088L337.869 114.273C337.446 112.577 337.516 110.707 337.77 109.058C338.035 107.334 338.557 105.494 339.314 103.729C340.746 100.39 343.448 96.3847 347.867 94.7856L350.966 103.33Z" fill="black"/>
<path d="M135.699 145.392C139.546 83.9041 10.3787 129.685 39.926 99.943C59.5088 80.2311 74.4994 95.296 100.942 91.4354C119.244 88.7634 132.546 58.2225 138.352 52.3581" stroke="black" stroke-width="6.55415" stroke-linecap="round" stroke-linejoin="round"/>
<path d="M127.177 86.2861L150.115 63.3487" stroke="black" stroke-width="6.55415" stroke-linecap="round"/>
<path d="M135.715 94.8247L158.653 71.8872" stroke="black" stroke-width="6.55415" stroke-linecap="round"/>
<path d="M106.333 70.5985C98.0263 67.684 80.3207 60.2375 75.949 53.7673C70.4843 45.6796 66.1126 32.1272 79.2278 19.0119C92.343 5.89673 106.333 12.8915 111.797 17.919C116.169 21.941 127.025 37.6647 131.907 45.0238" stroke="black" stroke-width="8.55688" stroke-linecap="round"/>
<path d="M169.739 85.3297C178.046 88.2442 195.751 95.6908 200.123 102.161C205.587 110.249 209.959 123.801 196.844 136.916C183.729 150.031 169.739 143.037 164.275 138.009C159.903 133.987 149.046 118.264 144.165 110.904" stroke="black" stroke-width="8.55688" stroke-linecap="round"/>
<path d="M102.716 58.0411C97.8409 56.3088 87.4447 51.8931 84.864 48.0891C81.6381 43.3342 79.0364 35.3806 86.682 27.735C94.3275 20.0894 102.545 24.2294 105.762 27.1913C108.335 29.5608 114.743 38.8059 117.625 43.1322" stroke="black" stroke-width="5.50085" stroke-linecap="round"/>
<path d="M173.355 97.8876C178.23 99.62 188.627 104.036 191.207 107.84C194.433 112.595 197.035 120.548 189.389 128.194C181.744 135.839 173.526 131.699 170.309 128.737C167.736 126.368 161.328 117.123 158.446 112.796" stroke="black" stroke-width="5.50085" stroke-linecap="round"/>
<path fill-rule="evenodd" clip-rule="evenodd" d="M503.819 8.36771C498.834 8.78538 496.376 9.51399 494.011 10.2154C491.383 10.9945 488.868 11.7401 483.128 11.9887C472.222 12.4609 459.39 13.6889 452.333 20.49C443.512 28.9914 441.587 48.6704 442.068 63.1541C442.549 77.6379 452.814 119.672 461.155 133.369C469.495 147.065 486.657 148.955 497.884 145.491C509.111 142.028 514.244 131.795 519.858 114.949C525.471 98.1041 531.085 89.4453 537.821 79.6845C544.558 69.9237 554.181 55.44 556.587 44.1048C558.993 32.7697 550.492 22.5366 541.35 15.4522C532.208 8.36771 516.971 7.26569 503.819 8.36771ZM483.128 49.9298C485.588 51.2942 490.795 55.314 491.95 60.4778C492.296 62.0278 492.948 64.7579 493.739 68.0686C496.24 78.5452 500.13 94.8363 500.13 97.9466C500.13 102.04 496.761 110.384 494.356 113.69C491.95 116.996 486.496 118.885 483.128 118.413C479.76 117.941 472.382 110.541 469.655 102.827C466.929 95.1129 461.155 72.7575 461.155 60.4778C461.155 48.1981 464.363 42.8454 468.052 44.1048C468.918 44.4005 469.995 44.7222 471.188 45.0781C475.075 46.2382 480.178 47.7613 483.128 49.9298ZM533.812 39.067C532.913 35.0368 527.236 33.1895 524.509 32.7697C521.622 33.5569 515.527 36.9259 514.244 44.1048C512.64 53.0785 519.858 58.4312 526.594 56.0697C533.331 53.7082 534.934 44.1048 533.812 39.067Z" fill="black"/>
</svg>
