<svg width="519" height="144" viewBox="0 0 519 144" fill="none" xmlns="http://www.w3.org/2000/svg">
<path d="M80.379 1.03817C76.1168 1.03817 65.7707 3.20465 61.1304 4.2879C57.1774 5.16541 55.8029 5.65612 53.3968 6.85339C50.9907 8.05066 47.2098 10.6162 39.6478 22.4179C32.0859 34.2195 23.8365 42.7715 14.2122 59.3622C4.58792 75.9529 1.4942 96.3065 0.119299 102.293C-1.2556 108.279 9.39986 118.028 24.5237 122.133C39.6476 126.238 55.2871 126.58 70.5828 125.383C85.8786 124.186 96.7059 115.976 100.659 113.068C104.612 110.161 105.127 113.752 106.502 117.173C107.877 120.594 109.252 124.357 116.47 132.054C122.245 138.211 130.563 141.917 134 143V55.4283C133.141 54.8012 129.703 53.1706 122.829 51.6655C114.236 49.784 104.096 51.4944 97.0496 54.4021C91.4125 56.7282 84.5037 62.6689 81.7539 65.3485C82.6705 66.0327 85.1911 67.9825 87.9409 70.3087C90.6907 72.6348 92.4093 75.4968 92.9249 76.6371C91.0344 75.0407 86.2567 71.2323 82.2695 68.7693C77.2855 65.6906 68.3486 65.6906 59.7555 68.0852C52.881 70.0008 47.2668 75.1547 45.3191 77.4923C46.694 74.2425 46.1784 57.8228 46.5221 56.4545C46.8658 55.0862 48.2407 51.3234 48.9282 48.2447C49.6156 45.166 56.662 29.0884 57.5213 27.0359C58.2087 25.394 59.2972 24.7554 59.7555 24.6414C59.7555 24.6414 69.3798 24.9835 72.1296 24.6414C72.7025 25.4396 74.3638 27.1385 76.4261 27.549C78.4885 27.9595 80.1498 27.15 80.7227 26.6938C81.8112 26.9219 84.4349 27.3096 86.2223 27.0359C88.0097 26.7623 89.8314 25.3255 90.5188 24.6414C90.9771 24.6984 92.3062 24.7098 93.9561 24.2993C95.606 23.8888 96.7059 22.76 97.0496 22.2469C97.9662 21.7907 100.04 20.5023 101.002 18.9971C101.965 17.492 100.029 14.8352 98.9401 13.6949C96.9923 11.1294 92.7531 5.45096 91.3782 3.26167C89.6595 0.52505 85.7067 1.03817 80.379 1.03817Z" fill="white"/>
<path d="M292 143V1H227L229.45 12.6299L238.818 19.3782L243.286 36.1769L251.933 38.6178L262.455 63.457L268.508 95.6188L265.193 117.586L268.508 129.504L266.778 143H292Z" fill="white" stroke="white" stroke-width="0.0849245"/>
<rect x="210.679" y="43.8643" width="50.8271" height="8.61476" rx="1.69849" transform="rotate(-50.3465 210.679 43.8643)" fill="white"/>
<path d="M226.761 43.5034L274.617 32.3968C275.531 32.1848 276.444 32.7536 276.656 33.6674L277.835 38.7484C278.047 39.6628 277.478 40.576 276.563 40.7873L231.189 51.2697L226.761 43.5034Z" fill="white"/>
<path d="M256.319 86.4563L276.283 97.5499C277.105 98.0067 277.399 99.0446 276.939 99.865L273.367 106.239C272.904 107.064 271.856 107.352 271.036 106.879L256.319 98.3779L256.319 86.4563Z" fill="white"/>
<circle cx="207.5" cy="22.5" r="11.5" fill="white"/>
<path d="M207.751 40C206.65 41.3934 204.936 45.3622 206.889 50.0901C209.331 56.0001 212.634 60.0361 213.639 66.9551C214.644 73.874 213.495 79.9281 220.963 82.0903C226.938 83.82 236.761 87.0393 240.926 88.4327L242.793 112.505C243.176 114.763 245.033 119.222 249.399 118.991C253.765 118.761 254.952 115.244 255 113.514L252.271 85.1173C252.463 83.2915 251.496 79.2362 246.096 77.6218C240.696 76.0074 233.889 73.9701 231.16 73.1533C231.447 70.0302 231.361 62.0542 228.719 55.1352C226.076 48.2163 224.362 45.0451 223.836 44.3243C223.165 46.006 219.963 51.1738 216.056 50.8279C211.173 50.3954 208.613 43.7478 207.751 40Z" fill="white" stroke="white" stroke-width="0.0849245"/>
<path d="M374.255 45.549L354 143H489.429L472.351 88.9048L433.43 68.619L443.756 14.5238L416.353 1L374.255 45.549Z" fill="white"/>
<path d="M456.862 45.549L447.331 49.1289L454.082 64.6415L464.408 55.0952L456.862 45.549Z" fill="white"/>
<path d="M475.131 20.888L464.408 24.4678V35.2073L475.131 37.9916L479.897 29.6387L475.131 20.888Z" fill="white"/>
<path d="M496.578 49.1289L470.366 62.2549L489.429 86.5182L507.301 79.7563L512.464 62.2549L496.578 49.1289Z" fill="white"/>
<path d="M496.578 100.838L489.429 111.577L502.535 127.487L518.421 117.146L512.464 100.838H496.578Z" fill="white"/>
</svg>
