<svg width="427" height="162" viewBox="0 0 427 162" fill="none" xmlns="http://www.w3.org/2000/svg">
<path d="M286.155 26.3009L306.108 2C308.385 6.18667 313.487 16.1437 315.674 22.4783C317.86 28.8129 319.682 34.7652 320.32 36.9496H291.075C289.709 38.3148 286.155 40.2261 282.329 39.407C280.142 38.9389 277.956 35.5843 278.776 32.0348C279.662 28.1977 283.605 26.5739 286.155 26.3009Z" fill="white"/>
<path d="M291.895 54.9704C291.166 51.6939 291.02 44.977 296.268 44.3217C302.828 43.5026 305.288 47.5983 306.108 50.3287C306.927 53.0591 302.828 61.7965 300.368 63.4348C295.525 71.2453 286.814 85.2393 282.329 92.2857C280.908 94.5178 279.911 96.0527 279.596 96.473C278.285 98.2187 274.007 105.545 266.203 105.072V123.777C262.191 124.391 255.086 125.028 247.071 124.892C239.62 124.766 231.382 123.971 224.113 121.866L228.212 82.0017C228.212 82.0017 218.1 69.7148 225.479 65.6191C232.859 61.5235 233.952 59.3391 242.425 62.0696C250.898 64.8 252.264 65.6191 254.724 62.8887C255.866 61.6207 256.832 60.5882 258.004 60.0648C258.004 60.0648 258.633 49.9186 258.016 50.0516C258.012 50.053 258.008 50.0543 258.004 50.0557C258.008 50.0538 258.012 50.0525 258.016 50.0516C258.633 49.9186 258.004 60.0648 258.004 60.0648C259.355 59.4611 260.982 59.5344 263.47 60.7043C268.117 62.8887 271.123 65.073 272.216 68.3496C273.091 70.9708 274.038 74.5386 274.403 75.9948C274.767 77.451 291.895 54.9704 291.895 54.9704Z" fill="white"/>
<path d="M363.231 52.7861C362.852 52.7065 362.488 52.6142 362.137 52.5101L361.317 63.1617C361.864 65.4371 364.542 69.8786 370.883 69.4417C377.224 69.0049 380.267 65.073 380.996 63.1617C381.725 61.2504 380.996 50.8527 380.996 50.8527C376.226 53.2102 369.958 54.2009 363.231 52.7861Z" fill="white"/>
<path d="M286.155 26.3009L306.108 2C308.385 6.18667 313.487 16.1437 315.674 22.4783C317.86 28.8129 319.682 34.7652 320.32 36.9496H291.075M286.155 26.3009L291.075 36.9496M286.155 26.3009C283.605 26.5739 279.662 28.1977 278.776 32.0348C277.956 35.5843 280.142 38.9389 282.329 39.407C286.155 40.2261 289.709 38.3148 291.075 36.9496M318.953 9.64522L322.506 3.36522M325.24 15.3791L331.799 11.5565M325.24 24.1165H333.439M291.895 40.4991L293.535 44.3217M299.821 39.407L301.461 44.3217M228.212 82.0017C228.212 82.0017 247.618 96.473 259.644 103.026C262.059 104.342 264.242 104.953 266.203 105.072M228.212 82.0017C228.212 82.0017 218.1 69.7148 225.479 65.6191C232.859 61.5235 233.952 59.3391 242.425 62.0696C250.898 64.8 252.264 65.6191 254.724 62.8887C255.866 61.6207 256.832 60.5882 258.004 60.0648M228.212 82.0017L224.113 121.866M274.403 75.9948C274.038 74.5386 273.091 70.9708 272.216 68.3496C271.123 65.073 268.117 62.8887 263.47 60.7043C260.982 59.5344 259.355 59.4611 258.004 60.0648M274.403 75.9948C274.767 77.451 291.895 54.9704 291.895 54.9704C291.166 51.6939 291.02 44.977 296.268 44.3217C302.828 43.5026 305.288 47.5983 306.108 50.3287C306.927 53.0591 302.828 61.7965 300.368 63.4348C295.525 71.2453 286.814 85.2393 282.329 92.2857M274.403 75.9948L267.57 84.1861C267.57 84.1861 257.575 77.696 251.171 73.5374M282.329 92.2857C280.908 94.5178 279.911 96.0527 279.596 96.473C278.285 98.2187 274.007 105.545 266.203 105.072M282.329 92.2857C284.88 96.5939 290.693 105.265 293.535 105.483C297.088 105.757 301.188 106.576 297.361 110.671C293.535 114.767 288.889 117.77 284.242 115.313C279.596 112.856 283.696 109.033 278.503 105.483M266.203 105.072V123.777M266.203 123.777C266.932 128.874 268.499 140.761 268.937 147.532C269.374 154.304 269.483 157.999 269.483 159M266.203 123.777C262.191 124.391 255.086 125.028 247.071 124.892M224.113 121.866C222.564 129.693 218.373 148.078 214 159M224.113 121.866C231.382 123.971 239.62 124.766 247.071 124.892M247.071 124.892L245.158 158.454M258.004 60.0648C258.004 60.0648 258.642 49.7826 258.004 50.0557M258.004 50.0557C257.366 50.3287 255.271 50.9294 251.991 51.1478M258.004 50.0557C260.828 49.1455 266.914 46.4515 268.663 42.9565C270.412 39.4616 271.032 36.7675 271.123 35.8574C270.212 34.0371 268.718 29.2497 270.03 24.6626M350.385 26.3009C347.743 27.9391 343.825 32.144 349.291 35.8574C354.758 39.5708 354.484 39.771 353.665 39.407C353.404 42.9686 354.786 50.3278 362.137 52.5101M395.209 24.6626C400.948 27.12 399.582 32.8539 395.209 35.3113C390.835 37.7687 391.655 40.4991 387.282 45.96C385.742 47.8838 383.591 49.5705 380.996 50.8527M362.137 52.5101C362.488 52.6142 362.852 52.7065 363.231 52.7861C369.958 54.2009 376.226 53.2102 380.996 50.8527M362.137 52.5101L361.317 63.1617M361.317 63.1617C361.864 65.4371 364.542 69.8786 370.883 69.4417C377.224 69.0049 380.267 65.073 380.996 63.1617M361.317 63.1617C357.491 62.5246 348.581 62.561 343.552 67.8035C337.266 74.3565 335.079 82.2748 331.253 89.3739C327.426 96.473 315.947 120.228 311.574 123.231M380.996 63.1617C381.725 61.2504 380.996 50.8527 380.996 50.8527M380.996 63.1617C384.276 63.0707 392.694 63.8717 400.128 67.8035C409.421 72.7183 412.154 76.2678 414.067 84.4591C415.981 92.6504 414.614 100.296 418.44 105.483C421.502 109.634 424.089 113.402 425 114.767M311.574 123.231C307.201 126.235 304.194 123.504 303.921 127.873C303.648 132.242 305.288 138.522 311.574 140.433C317.86 142.344 321.413 139.887 323.6 133.88C325.349 129.074 340.181 113.493 347.378 106.303M311.574 123.231L315.674 127.873M347.378 106.303L349.018 90.7391M347.378 106.303C347.378 106.303 347.287 131.15 344.372 133.88M344.372 133.88C341.456 136.61 335.79 145.293 336.446 158.181M344.372 133.88C348.745 135.7 368.697 140.16 368.697 140.16M368.697 140.16C368.697 140.16 389.742 140.069 394.662 139.614M368.697 140.16C367.513 143.528 365.308 151.846 365.964 158.181M394.662 139.614C399.582 139.159 396.302 158.181 396.302 158.181M394.662 139.614L395.611 103.026M396.028 86.9165L395.611 103.026M395.611 103.026C398.392 110.034 406.742 125.252 417.894 130.057" stroke="white" stroke-width="3.86671" stroke-linecap="round" stroke-linejoin="round"/>
<path d="M318.656 35.7263C318.656 28.9811 309.653 10.4316 305.152 2L286.584 27.2947L291.648 35.7263H318.656Z" fill="white" stroke="white" stroke-width="2.57781" stroke-linejoin="round"/>
<path d="M63.9575 23.6947H34.691C28.5721 23.2905 15.2261 23.0364 10.7929 25.2539C6.35959 27.4715 3.75042 32.9922 3 35.4754C3.9236 36.4571 6.77521 39.2868 10.7929 42.7517C14.8105 46.2166 16.1613 54.0127 16.3345 57.4776H37.1154C37.1154 52.107 38.8472 49.8548 40.9253 47.6026C41.5231 46.9547 42.9601 45.884 44.7351 44.6711C47.8961 42.5111 52.1294 39.8998 54.6061 38.4206H63.9575C70.5382 38.4206 67.9406 33.5697 67.9406 28.5456C67.9406 24.5263 65.2852 23.637 63.9575 23.6947Z" fill="white"/>
<path d="M38.8472 69.2583H14.6027L7.32937 97.4973V150.164C7.32937 156.539 14.3718 158.711 17.893 159H59.9745C66.6244 159 68.056 151.261 67.9406 147.392V104.427C67.9406 100.962 65.2852 96.6311 63.9575 94.8987L38.8472 69.2583Z" fill="white"/>
<path d="M44.7351 44.6711C47.8961 42.5111 52.1294 39.8998 54.6061 38.4206C55.5297 38.4206 58.693 38.4206 63.9575 38.4206C70.5382 38.4206 67.9405 33.5697 67.9405 28.5456C67.9405 24.5263 65.2852 23.637 63.9575 23.6947H34.691C28.5721 23.2905 15.2261 23.0364 10.7929 25.2539C6.35959 27.4715 3.75042 32.9922 3 35.4754C3.9236 36.4571 6.77521 39.2868 10.7929 42.7517C14.8105 46.2166 16.1613 54.0127 16.3345 57.4776H37.1154C37.1154 52.107 38.8472 49.8548 40.9253 47.6026C41.5231 46.9547 42.9601 45.884 44.7351 44.6711ZM44.7351 44.6711C45.6587 47.092 48.926 53.0425 54.6061 57.4776M14.6027 69.2583H38.8472L63.9575 94.8987C65.2852 96.6311 67.9405 100.962 67.9405 104.427C67.9405 107.892 67.9405 134.514 67.9405 147.392C68.056 151.261 66.6244 159 59.9745 159C53.3246 159 29.1494 159 17.893 159C14.3718 158.711 7.32937 156.539 7.32937 150.164C7.32937 143.789 7.32937 112.396 7.32937 97.4973L14.6027 69.2583Z" stroke="white" stroke-width="5.55286" stroke-linecap="round" stroke-linejoin="round"/>
<ellipse cx="88.8947" cy="20.2303" rx="2.94397" ry="2.94517" fill="white"/>
<ellipse cx="95.8224" cy="16.0721" rx="2.94397" ry="2.94517" fill="white"/>
<ellipse cx="103.095" cy="11.9149" rx="2.94397" ry="2.94518" fill="white"/>
<ellipse cx="110.714" cy="7.7567" rx="2.94397" ry="2.94518" fill="white"/>
<ellipse cx="117.642" cy="3.94518" rx="2.94397" ry="2.94518" fill="white"/>
<ellipse rx="2.94397" ry="2.94518" transform="matrix(1 0 0 -1 88.8947 41.0197)" fill="white"/>
<ellipse rx="2.94397" ry="2.94518" transform="matrix(1 0 0 -1 95.8224 45.1779)" fill="white"/>
<ellipse rx="2.94397" ry="2.94518" transform="matrix(1 0 0 -1 103.095 49.3351)" fill="white"/>
<ellipse rx="2.94397" ry="2.94518" transform="matrix(1 0 0 -1 110.714 53.4933)" fill="white"/>
<ellipse rx="2.94397" ry="2.94517" transform="matrix(1 0 0 -1 117.642 57.3048)" fill="white"/>
<ellipse rx="2.94454" ry="2.94461" transform="matrix(0.862962 -0.505269 -0.504922 -0.863165 88.9385 30.9901)" fill="white"/>
<ellipse rx="2.94454" ry="2.94461" transform="matrix(0.862962 -0.505269 -0.504922 -0.863165 97.0166 31.078)" fill="white"/>
<ellipse rx="2.94453" ry="2.94461" transform="matrix(0.862962 -0.505269 -0.504922 -0.863165 105.392 30.991)" fill="white"/>
<ellipse rx="2.94454" ry="2.94461" transform="matrix(0.862962 -0.505269 -0.504922 -0.863165 114.068 30.7293)" fill="white"/>
<ellipse rx="2.94454" ry="2.94461" transform="matrix(0.862962 -0.505269 -0.504922 -0.863165 121.971 30.5194)" fill="white"/>
</svg>
